<?xml version="1.0" encoding="UTF-8" standalone="no"?>
<!-- Generator: Adobe Illustrator 10, SVG Export Plug-In . SVG Version: 3.0.0 Build 76)  -->
<svg
   xmlns:dc="http://purl.org/dc/elements/1.1/"
   xmlns:cc="http://creativecommons.org/ns#"
   xmlns:rdf="http://www.w3.org/1999/02/22-rdf-syntax-ns#"
   xmlns:svg="http://www.w3.org/2000/svg"
   xmlns="http://www.w3.org/2000/svg"
   xmlns:sodipodi="http://sodipodi.sourceforge.net/DTD/sodipodi-0.dtd"
   xmlns:inkscape="http://www.inkscape.org/namespaces/inkscape"
   width="316.00186"
   height="264.38037"
   viewBox="0 0 468.311 339.653"
   style="overflow:visible"
   xml:space="preserve"
   id="svg2"
   sodipodi:version="0.32"
   inkscape:version="0.46"
   sodipodi:docname="Avarice.svg"
   inkscape:output_extension="org.inkscape.output.svg.inkscape"
   version="1.0"><metadata
   id="metadata70"><rdf:RDF><cc:Work
       rdf:about=""><dc:format>image/svg+xml</dc:format><dc:type
         rdf:resource="http://purl.org/dc/dcmitype/StillImage" /></cc:Work></rdf:RDF></metadata><defs
   id="defs68"><inkscape:perspective
   sodipodi:type="inkscape:persp3d"
   inkscape:vp_x="0 : 169.82651 : 1"
   inkscape:vp_y="0 : 1000 : 0"
   inkscape:vp_z="468.311 : 169.82651 : 1"
   inkscape:persp3d-origin="234.1555 : 113.21767 : 1"
   id="perspective72" />
		
		
	</defs><sodipodi:namedview
   inkscape:window-height="670"
   inkscape:window-width="640"
   inkscape:pageshadow="2"
   inkscape:pageopacity="0.0"
   guidetolerance="10.0"
   gridtolerance="10.0"
   objecttolerance="10.0"
   borderopacity="1.0"
   bordercolor="#666666"
   pagecolor="#ffffff"
   id="base"
   showgrid="false"
   inkscape:zoom="1.1616212"
   inkscape:cx="234.1555"
   inkscape:cy="169.82651"
   inkscape:window-x="166"
   inkscape:window-y="0"
   inkscape:current-layer="svg2" />
	<style
   type="text/css"
   id="style4">
	
		@font-face{font-family:'Times-Roman';src:url(59A67A89.cef)}
	
	</style>
	
<g
   transform="matrix(1.4819881,0,0,1.4819881,-11.006644,-21.394149)"
   style="overflow:visible"
   id="g23">
			<g
   id="g25">
				<g
   id="g27">
					<path
   id="path29"
   d="M 41.399,66.078 C 38.212,65.888 35.153,64.917 32.295,63.187 C 28.772,61.056 26.658,58.552 26.093,55.71 C 25.714,52.924 27.892,50.038 32.582,47.042 L 55.311,62.774 L 53.046,63.795 C 48.41,65.493 44.488,66.242 41.399,66.078 z M 90.979,68.668 C 89.771,64.692 88.632,61.191 87.526,58.149 C 86.632,55.17 85.773,52.946 84.79,51.432 C 83.998,50.212 83.025,49.516 81.791,49.316 C 80.444,49.087 78.624,49.663 76.245,51.02 C 73.641,52.316 70.772,53.955 67.669,55.943 L 63.584,58.462 L 42.948,42.281 C 47.07,40.765 50.462,39.867 53.112,39.583 C 55.683,39.279 57.457,39.61 58.488,40.596 L 58.77,40.865 L 70.443,34.141 L 70.271,33.903 C 69.116,32.304 66.332,31.593 61.673,31.701 C 56.675,31.714 48.42,33.682 37.025,37.639 L 31.026,32.937 L 18.077,37.004 L 25.423,42.089 C 18.345,45.481 13.751,48.708 11.719,51.794 C 9.931,54.951 10.005,58.111 11.902,61.263 C 13.992,64.472 17.56,67.456 22.458,70.178 C 28.65,73.618 35.003,75.651 41.263,76.196 C 47.185,76.648 54.152,74.98 61.742,71.073 L 64.693,69.268 L 89.547,86.472 C 88.927,91.753 87.467,94.563 85.186,94.904 C 82.764,95.208 79.66,94.256 75.986,92.082 L 75.374,91.72 L 72.972,101.118 L 73.695,101.511 C 80.441,105.185 86.637,106.883 91.864,106.485 C 96.534,105.931 98.139,100.941 96.939,91.589 L 104.1,96.544 L 101.276,88.012 L 95.428,83.428 C 93.96,77.646 92.453,72.72 90.979,68.668 z M 78.808,59.574 C 80.199,59.285 81.482,59.765 82.73,61.038 C 83.723,62.05 84.613,63.392 85.451,65.072 C 86.348,66.772 87.102,68.634 87.717,70.654 C 88.405,72.697 88.905,75.329 89.201,78.545 L 71.206,64.437 L 73.054,62.905 C 75.425,60.954 77.321,59.838 78.808,59.574 z"
   style="fill:#021004;stroke:#11130f;stroke-width:6" />
					<path
   id="path31"
   d="M 87.083,195.537 C 87.276,192.35 88.248,189.292 89.979,186.434 C 92.112,182.913 94.618,180.8 97.459,180.237 C 100.246,179.86 103.13,182.04 106.123,186.732 L 90.378,209.453 L 89.358,207.186 C 87.664,202.547 86.918,198.626 87.083,195.537 z M 84.465,245.115 C 88.441,243.909 91.943,242.773 94.986,241.668 C 97.965,240.775 100.191,239.918 101.705,238.937 C 102.925,238.145 103.622,237.173 103.822,235.939 C 104.052,234.592 103.478,232.772 102.121,230.392 C 100.828,227.787 99.19,224.917 97.204,221.813 L 94.688,217.727 L 110.879,197.1 C 112.393,201.222 113.289,204.616 113.572,207.265 C 113.875,209.836 113.542,211.61 112.557,212.641 L 112.288,212.922 L 119.005,224.6 L 119.243,224.428 C 120.843,223.274 121.555,220.49 121.45,215.83 C 121.44,210.833 119.476,202.576 115.527,191.179 L 120.233,185.184 L 116.172,172.233 L 111.084,179.575 C 107.695,172.496 104.471,167.9 101.386,165.866 C 98.231,164.076 95.07,164.148 91.918,166.043 C 88.709,168.132 85.722,171.697 82.997,176.594 C 79.552,182.784 77.518,189.135 76.968,195.395 C 76.512,201.317 78.176,208.285 82.079,215.876 L 83.882,218.828 L 66.665,243.672 C 61.384,243.05 58.576,241.588 58.235,239.307 C 57.933,236.884 58.887,233.781 61.063,230.109 L 61.425,229.497 L 52.029,227.09 L 51.635,227.812 C 47.958,234.556 46.256,240.751 46.652,245.979 C 47.203,250.649 52.192,252.257 61.546,251.063 L 56.586,258.22 L 65.12,255.402 L 69.708,249.556 C 75.487,248.091 80.413,246.587 84.465,245.115 z M 93.566,232.949 C 93.854,234.34 93.373,235.623 92.099,236.87 C 91.086,237.862 89.745,238.752 88.063,239.589 C 86.363,240.485 84.502,241.237 82.48,241.852 C 80.437,242.539 77.804,243.038 74.589,243.332 L 88.708,225.345 L 90.238,227.193 C 92.188,229.565 93.303,231.463 93.566,232.949 z"
   style="fill:#021004;stroke:#11130f;stroke-width:6" />
					<path
   id="path33"
   d="M 283.1,217.066 C 286.269,217.453 289.262,218.609 292.009,220.511 C 295.394,222.854 297.35,225.484 297.739,228.355 C 297.945,231.161 295.593,233.906 290.727,236.607 L 269.009,219.505 L 271.332,218.625 C 276.066,217.219 280.027,216.713 283.1,217.066 z M 233.773,211.432 C 234.734,215.474 235.655,219.038 236.572,222.143 C 237.281,225.171 238.002,227.445 238.89,229.016 C 239.605,230.282 240.533,231.037 241.752,231.312 C 243.083,231.624 244.935,231.162 247.393,229.952 C 250.073,228.819 253.037,227.36 256.255,225.566 L 260.487,223.304 L 280.089,240.723 C 275.882,241.983 272.441,242.67 269.778,242.791 C 267.194,242.937 265.444,242.496 264.474,241.45 L 264.209,241.164 L 252.145,247.157 L 252.301,247.405 C 253.356,249.072 256.092,249.953 260.748,250.132 C 265.736,250.426 274.098,248.971 285.715,245.722 L 291.413,250.785 L 304.588,247.521 L 297.568,241.995 C 304.841,239.044 309.625,236.105 311.843,233.15 C 313.821,230.109 313.942,226.95 312.243,223.688 C 310.353,220.357 306.976,217.158 302.255,214.141 C 296.286,210.325 290.07,207.907 283.857,206.977 C 277.974,206.162 270.918,207.398 263.102,210.831 L 260.046,212.45 L 236.296,193.751 C 237.239,188.518 238.87,185.804 241.168,185.604 C 243.605,185.45 246.644,186.591 250.177,188.987 L 250.766,189.385 L 253.742,180.154 L 253.045,179.716 C 246.539,175.634 240.459,173.558 235.217,173.634 C 230.521,173.901 228.612,178.781 229.235,188.191 L 222.393,182.803 L 224.686,191.492 L 230.241,196.429 C 231.35,202.288 232.551,207.296 233.773,211.432 z M 245.363,221.258 C 243.957,221.46 242.705,220.902 241.537,219.554 C 240.609,218.484 239.803,217.09 239.07,215.36 C 238.279,213.609 237.641,211.705 237.151,209.65 C 236.591,207.568 236.253,204.91 236.155,201.683 L 253.249,216.871 L 251.311,218.287 C 248.823,220.088 246.862,221.085 245.363,221.258 z"
   style="fill:#021004;stroke:#11130f;stroke-width:6" />
					<path
   id="path35"
   d="M 246.582,38.402 C 247.371,35.308 248.902,32.487 251.14,30.007 C 253.899,26.949 256.756,25.347 259.654,25.328 C 262.462,25.482 264.883,28.166 266.94,33.337 L 247.199,52.689 L 246.624,50.271 C 245.833,45.396 245.838,41.404 246.582,38.402 z M 234.678,86.601 C 238.81,86.166 242.463,85.708 245.659,85.197 C 248.754,84.881 251.1,84.459 252.771,83.779 C 254.119,83.23 254.986,82.408 255.416,81.233 C 255.896,79.954 255.674,78.057 254.789,75.464 C 254.01,72.662 252.941,69.535 251.574,66.112 L 249.873,61.627 L 269.658,44.416 C 270.369,48.75 270.611,52.25 270.389,54.906 C 270.202,57.488 269.542,59.168 268.38,59.995 L 268.063,60.221 L 272.462,72.954 L 272.728,72.83 C 274.517,71.997 275.74,69.396 276.513,64.803 C 277.445,59.893 277.071,51.413 275.336,39.476 L 281.087,34.474 L 279.537,20.99 L 273.157,27.243 C 271.162,19.653 268.86,14.532 266.214,11.953 C 263.452,9.602 260.333,9.077 256.881,10.345 C 253.335,11.793 249.732,14.732 246.134,19.028 C 241.585,24.46 238.392,30.314 236.673,36.358 C 235.111,42.088 235.434,49.246 237.837,57.436 L 239.052,60.674 L 217.466,81.833 C 212.396,80.228 209.913,78.263 210.009,75.958 C 210.167,73.521 211.689,70.653 214.517,67.456 L 214.989,66.924 L 206.214,62.79 L 205.692,63.426 C 200.811,69.357 197.973,75.121 197.378,80.329 C 197.04,85.02 201.638,87.539 211.048,88.126 L 204.829,94.222 L 213.741,93.06 L 219.346,88.183 C 225.3,87.833 230.421,87.283 234.678,86.601 z M 245.906,76.365 C 245.927,77.785 245.213,78.955 243.728,79.94 C 242.546,80.724 241.062,81.345 239.251,81.85 C 237.413,82.411 235.443,82.799 233.343,83.022 C 231.206,83.311 228.527,83.306 225.314,82.99 L 242.567,67.982 L 243.722,70.086 C 245.189,72.783 245.928,74.855 245.906,76.365 z"
   style="fill:#021004;stroke:#11130f;stroke-width:6" />
				</g>
				<path
   id="path37"
   d="M 48.399,56.244 C 45.212,56.053 42.153,55.083 39.295,53.353 C 35.772,51.221 33.658,48.718 33.094,45.876 C 32.715,43.089 34.893,40.203 39.583,37.208 L 62.312,52.94 L 60.047,53.961 C 55.41,55.658 51.488,56.407 48.399,56.244 z M 97.979,58.833 C 96.771,54.858 95.632,51.356 94.526,48.314 C 93.631,45.335 92.773,43.111 91.79,41.597 C 90.998,40.378 90.026,39.681 88.791,39.482 C 87.443,39.252 85.624,39.828 83.245,41.186 C 80.641,42.481 77.772,44.121 74.669,46.109 L 70.585,48.627 L 49.949,32.447 C 54.071,30.931 57.463,30.033 60.113,29.748 C 62.684,29.444 64.458,29.775 65.489,30.761 L 65.771,31.03 L 77.444,24.306 L 77.272,24.068 C 76.116,22.469 73.332,21.759 68.674,21.867 C 63.676,21.88 55.421,23.847 44.026,27.805 L 38.027,23.102 L 25.078,27.169 L 32.423,32.254 C 25.346,35.647 20.752,38.874 18.719,41.96 C 16.931,45.116 17.005,48.276 18.901,51.429 C 20.992,54.637 24.559,57.622 29.457,60.343 C 35.649,63.784 42.002,65.815 48.261,66.361 C 54.183,66.814 61.15,65.146 68.74,61.239 L 71.691,59.434 L 96.546,76.637 C 95.926,81.918 94.466,84.728 92.185,85.069 C 89.763,85.373 86.659,84.422 82.985,82.248 L 82.373,81.886 L 79.971,91.283 L 80.694,91.677 C 87.44,95.35 93.635,97.048 98.863,96.651 C 103.533,96.096 105.138,91.107 103.938,81.755 L 111.099,86.711 L 108.275,78.179 L 102.427,73.594 C 100.96,67.811 99.453,62.885 97.979,58.833 z M 85.807,49.739 C 87.198,49.45 88.482,49.93 89.729,51.204 C 90.722,52.216 91.612,53.557 92.45,55.238 C 93.347,56.937 94.1,58.799 94.716,60.82 C 95.404,62.863 95.904,65.495 96.2,68.711 L 78.206,54.602 L 80.054,53.071 C 82.425,51.12 84.321,50.004 85.807,49.739 z"
   style="fill:#983d72;stroke:#ddb7bf;stroke-width:6" />
				<path
   id="path39"
   d="M 94.083,185.702 C 94.276,182.516 95.248,179.458 96.979,176.599 C 99.112,173.078 101.617,170.966 104.459,170.403 C 107.246,170.025 110.13,172.205 113.123,176.897 L 97.378,199.618 L 96.358,197.351 C 94.664,192.713 93.918,188.791 94.083,185.702 z M 91.465,235.28 C 95.441,234.075 98.943,232.938 101.986,231.834 C 104.965,230.941 107.191,230.084 108.704,229.102 C 109.924,228.31 110.621,227.338 110.822,226.105 C 111.052,224.757 110.478,222.938 109.121,220.557 C 107.827,217.952 106.19,215.082 104.203,211.979 L 101.688,207.892 L 117.879,187.266 C 119.393,191.388 120.289,194.781 120.572,197.43 C 120.875,200.001 120.542,201.776 119.556,202.807 L 119.287,203.088 L 126.004,214.765 L 126.242,214.593 C 127.842,213.439 128.554,210.655 128.449,205.996 C 128.439,200.999 126.475,192.742 122.525,181.345 L 127.232,175.349 L 123.171,162.398 L 118.083,169.741 C 114.694,162.661 111.47,158.066 108.385,156.031 C 105.23,154.242 102.069,154.313 98.917,156.209 C 95.708,158.297 92.72,161.863 89.996,166.759 C 86.551,172.95 84.517,179.301 83.967,185.56 C 83.511,191.482 85.175,198.451 89.078,206.042 L 90.881,208.993 L 73.664,233.838 C 68.382,233.215 65.574,231.754 65.234,229.472 C 64.932,227.05 65.886,223.947 68.062,220.275 L 68.425,219.663 L 59.029,217.255 L 58.635,217.978 C 54.958,224.721 53.256,230.916 53.652,236.144 C 54.203,240.815 59.192,242.423 68.545,241.228 L 63.585,248.386 L 72.119,245.567 L 76.707,239.722 C 82.487,238.256 87.413,236.753 91.465,235.28 z M 100.566,223.114 C 100.854,224.505 100.373,225.788 99.099,227.036 C 98.086,228.028 96.745,228.917 95.063,229.754 C 93.363,230.65 91.502,231.403 89.48,232.018 C 87.436,232.704 84.804,233.204 81.588,233.497 L 95.708,215.51 L 97.238,217.359 C 99.188,219.73 100.303,221.628 100.566,223.114 z"
   style="fill:#983d72;stroke:#ddb7bf;stroke-width:6" />
			</g>
			<path
   id="path41"
   d="M 290.1,207.232 C 293.269,207.619 296.262,208.775 299.009,210.676 C 302.394,213.02 304.35,215.65 304.738,218.52 C 304.945,221.326 302.593,224.071 297.727,226.773 L 276.009,209.671 L 278.332,208.791 C 283.066,207.384 287.027,206.879 290.1,207.232 z M 240.773,201.597 C 241.734,205.639 242.654,209.204 243.572,212.308 C 244.281,215.337 245.002,217.61 245.89,219.181 C 246.605,220.447 247.533,221.202 248.752,221.477 C 250.083,221.789 251.935,221.327 254.393,220.117 C 257.072,218.985 260.037,217.526 263.255,215.731 L 267.487,213.47 L 287.089,230.888 C 282.882,232.148 279.441,232.836 276.778,232.956 C 274.194,233.102 272.444,232.662 271.474,231.615 L 271.209,231.329 L 259.145,237.322 L 259.301,237.57 C 260.356,239.237 263.092,240.118 267.748,240.297 C 272.736,240.592 281.098,239.136 292.715,235.888 L 298.412,240.95 L 311.587,237.686 L 304.568,232.16 C 311.84,229.209 316.625,226.27 318.843,223.315 C 320.821,220.275 320.942,217.116 319.243,213.854 C 317.353,210.523 313.976,207.324 309.255,204.306 C 303.286,200.491 297.07,198.072 290.857,197.142 C 284.974,196.327 277.918,197.563 270.102,200.996 L 267.046,202.616 L 243.296,183.917 C 244.239,178.683 245.87,175.969 248.168,175.768 C 250.605,175.615 253.644,176.756 257.177,179.152 L 257.766,179.551 L 260.742,170.319 L 260.045,169.881 C 253.539,165.8 247.459,163.723 242.217,163.8 C 237.521,164.066 235.612,168.946 236.235,178.356 L 229.392,172.968 L 231.686,181.658 L 237.241,186.594 C 238.35,192.454 239.551,197.462 240.773,201.597 z M 252.362,211.422 C 250.957,211.625 249.705,211.067 248.537,209.72 C 247.609,208.649 246.803,207.255 246.07,205.526 C 245.279,203.774 244.641,201.871 244.151,199.815 C 243.591,197.734 243.253,195.076 243.155,191.848 L 260.249,207.037 L 258.311,208.452 C 255.823,210.253 253.861,211.25 252.362,211.422 z"
   style="fill:#983d72;stroke:#ddb7bf;stroke-width:6" />
			<path
   id="path43"
   d="M 253.582,28.567 C 254.371,25.474 255.902,22.653 258.14,20.172 C 260.899,17.115 263.756,15.512 266.653,15.494 C 269.462,15.648 271.883,18.332 273.94,23.503 L 254.199,42.854 L 253.624,40.437 C 252.833,35.562 252.838,31.57 253.582,28.567 z M 241.678,76.767 C 245.81,76.331 249.463,75.874 252.659,75.363 C 255.754,75.047 258.1,74.624 259.771,73.944 C 261.119,73.396 261.986,72.573 262.416,71.399 C 262.896,70.119 262.674,68.222 261.789,65.629 C 261.01,62.827 259.941,59.7 258.574,56.278 L 256.873,51.792 L 276.658,34.582 C 277.369,38.916 277.61,42.416 277.389,45.071 C 277.202,47.654 276.542,49.333 275.38,50.16 L 275.062,50.387 L 279.462,63.119 L 279.728,62.996 C 281.516,62.162 282.74,59.562 283.513,54.968 C 284.445,50.058 284.07,41.579 282.336,29.642 L 288.087,24.639 L 286.537,11.155 L 280.157,17.409 C 278.162,9.818 275.86,4.697 273.214,2.118 C 270.452,-0.233 267.333,-0.757 263.881,0.511 C 260.335,1.958 256.731,4.898 253.134,9.193 C 248.585,14.625 245.392,20.48 243.673,26.523 C 242.111,32.253 242.433,39.411 244.837,47.601 L 246.052,50.839 L 224.466,71.998 C 219.396,70.393 216.913,68.429 217.009,66.123 C 217.167,63.687 218.689,60.818 221.517,57.622 L 221.989,57.089 L 213.214,52.956 L 212.692,53.592 C 207.811,59.522 204.973,65.286 204.378,70.495 C 204.04,75.185 208.637,77.704 218.048,78.292 L 211.829,84.388 L 220.741,83.226 L 226.346,78.348 C 232.3,77.999 237.42,77.449 241.678,76.767 z M 252.906,66.53 C 252.927,67.951 252.213,69.121 250.728,70.105 C 249.546,70.889 248.061,71.511 246.251,72.016 C 244.413,72.576 242.443,72.964 240.342,73.187 C 238.206,73.476 235.527,73.471 232.314,73.155 L 249.566,58.147 L 250.722,60.251 C 252.189,62.949 252.928,65.021 252.906,66.53 z"
   style="fill:#983d72;stroke:#ddb7bf;stroke-width:6" />
			<g
   id="g45">
				<g
   id="g47">
					<path
   id="path49"
   d="M 174.134,106.338 C 173.789,104.784 172.423,103.384 169.862,102.237 C 167.741,101.287 165.277,100.597 162.609,100.299 C 162.197,100.248 161.786,100.196 161.364,100.178 C 158.612,99.987 155.885,100.374 153.605,101.361 C 151.208,102.445 149.604,103.974 149.481,105.725 C 149.376,107.359 150.874,108.98 153.437,110.178 C 156.183,111.486 159.384,112.086 162.907,112.196 C 165.255,112.252 167.424,112.008 169.292,111.459 C 170.077,111.205 170.827,110.892 171.497,110.544 C 173.55,109.422 174.49,107.911 174.134,106.338 z"
   style="fill:#230600;stroke:#4b2806;stroke-width:5" />
					<path
   id="path51"
   d="M 200.101,140.546 C 197.036,136.995 194.039,133.213 190.191,130.211 C 186.285,127.163 181.243,124.957 175.986,122.638 C 175.591,122.467 175.163,122.291 174.757,122.101 C 171.443,123.463 168.039,124.826 164.7,126.149 C 170.407,128.632 176.05,130.911 180.508,133.954 C 181.966,134.922 183.341,135.993 184.663,137.124 C 187.153,139.179 189.442,141.436 191.726,143.587 C 194.57,142.612 197.393,141.6 200.101,140.546 z"
   style="fill:#230600;stroke:#4b2806;stroke-width:5" />
					<path
   id="path53"
   d="M 220.262,162.908 C 220.26,158.551 219.045,153.296 219.452,147.421 C 220.267,136.211 224.301,127.487 227.245,120.417 C 226.814,120.676 226.404,120.921 226.004,121.134 C 224.367,124.172 222.476,126.984 221.154,129.669 C 219.195,133.686 217.987,138.957 216.883,144.6 C 216.378,147.23 215.929,150.099 214.673,152.746 C 213.528,155.19 210.95,156.951 207.438,158.081 C 204.416,159.052 201.38,159.706 198.48,160.196 C 197.558,160.37 196.634,160.49 195.744,160.617 C 191.964,161.203 188.404,161.52 185.222,161.587 C 179.949,161.686 174.988,161.326 170.549,160.52 C 167.505,159.988 163.824,158.781 158.833,157.493 C 158.366,157.692 157.923,157.93 157.535,158.163 C 165.622,162.47 175.991,165.302 187.379,167.685 C 192.961,168.836 198.089,169.962 202.768,170.436 C 203.423,170.503 204.079,170.571 204.723,170.619 C 208.465,170.949 211.957,170.861 214.987,170.049 C 218.344,169.146 220.24,166.738 220.262,162.908 z"
   style="fill:#230600;stroke:#4b2806;stroke-width:5" />
					<path
   id="path55"
   d="M 140.399,121.724 C 140.148,120.278 138.515,118.872 135.954,117.726 C 133.311,116.494 130.357,115.718 127.037,115.459 C 124.206,115.232 121.532,115.562 119.383,116.523 C 117.213,117.498 115.738,118.95 115.654,120.57 C 115.565,122.086 116.846,123.538 119.398,124.717 C 121.859,125.842 125.094,126.449 128.507,126.571 C 132.006,126.641 135.056,126.303 137.283,125.376 C 139.544,124.455 140.662,123.19 140.399,121.724 z"
   style="fill:#230600;stroke:#4b2806;stroke-width:5" />
				</g>
				<g
   id="g57">
					<path
   id="path59"
   d="M 167.135,99.338 C 166.789,97.784 165.423,96.384 162.862,95.237 C 160.741,94.287 158.277,93.597 155.609,93.3 C 155.197,93.248 154.786,93.196 154.364,93.179 C 151.612,92.987 148.885,93.374 146.605,94.361 C 144.208,95.445 142.604,96.974 142.481,98.726 C 142.376,100.359 143.874,101.98 146.437,103.179 C 149.183,104.486 152.384,105.086 155.907,105.196 C 158.255,105.253 160.424,105.008 162.292,104.459 C 163.077,104.205 163.827,103.892 164.498,103.544 C 166.55,102.422 167.49,100.912 167.135,99.338 z"
   style="fill:#b8d7e8;stroke:#6a7bb5;stroke-width:5" />
					<path
   id="path61"
   d="M 193.101,133.546 C 190.037,129.995 187.039,126.213 183.191,123.211 C 179.285,120.163 174.243,117.958 168.987,115.638 C 168.591,115.467 168.163,115.291 167.757,115.101 C 164.443,116.464 161.04,117.826 157.7,119.149 C 163.407,121.632 169.05,123.912 173.508,126.954 C 174.966,127.922 176.341,128.993 177.663,130.124 C 180.153,132.18 182.442,134.436 184.726,136.587 C 187.571,135.612 190.393,134.6 193.101,133.546 z"
   style="fill:#b8d7e8;stroke:#6a7bb5;stroke-width:5" />
					<path
   id="path63"
   d="M 213.262,155.908 C 213.26,151.551 212.045,146.296 212.452,140.421 C 213.267,129.211 217.301,120.487 220.245,113.417 C 219.814,113.676 219.404,113.921 219.004,114.134 C 217.367,117.172 215.477,119.984 214.155,122.67 C 212.195,126.686 210.987,131.958 209.884,137.6 C 209.379,140.231 208.93,143.099 207.674,145.746 C 206.529,148.19 203.951,149.951 200.439,151.081 C 197.417,152.052 194.381,152.706 191.481,153.196 C 190.559,153.37 189.635,153.49 188.745,153.617 C 184.966,154.203 181.405,154.52 178.223,154.587 C 172.95,154.686 167.989,154.326 163.551,153.52 C 160.507,152.988 156.825,151.782 151.835,150.493 C 151.368,150.692 150.925,150.93 150.537,151.163 C 158.624,155.47 168.993,158.302 180.381,160.685 C 185.963,161.836 191.091,162.962 195.77,163.436 C 196.425,163.503 197.081,163.571 197.725,163.619 C 201.467,163.949 204.959,163.861 207.989,163.049 C 211.344,162.146 213.24,159.738 213.262,155.908 z"
   style="fill:#b8d7e8;stroke:#6a7bb5;stroke-width:5" />
					<path
   id="path65"
   d="M 133.399,114.724 C 133.148,113.278 131.515,111.872 128.954,110.726 C 126.311,109.494 123.357,108.718 120.037,108.459 C 117.206,108.232 114.532,108.562 112.383,109.523 C 110.213,110.498 108.739,111.95 108.654,113.57 C 108.566,115.086 109.846,116.538 112.398,117.717 C 114.859,118.842 118.094,119.449 121.507,119.571 C 125.006,119.64 128.056,119.302 130.283,118.375 C 132.545,117.455 133.662,116.19 133.399,114.724 z"
   style="fill:#b8d7e8;stroke:#6a7bb5;stroke-width:5" />
				</g>
			</g>
		</g></svg>