<?xml version="1.0" encoding="UTF-8" standalone="no"?>
<!-- Generator: Adobe Illustrator 10, SVG Export Plug-In . SVG Version: 3.0.0 Build 76)  -->
<svg
   xmlns:dc="http://purl.org/dc/elements/1.1/"
   xmlns:cc="http://creativecommons.org/ns#"
   xmlns:rdf="http://www.w3.org/1999/02/22-rdf-syntax-ns#"
   xmlns:svg="http://www.w3.org/2000/svg"
   xmlns="http://www.w3.org/2000/svg"
   xmlns:sodipodi="http://sodipodi.sourceforge.net/DTD/sodipodi-0.dtd"
   xmlns:inkscape="http://www.inkscape.org/namespaces/inkscape"
   width="302.13461"
   height="359.29977"
   viewBox="0 0 468.311 438.847"
   style="overflow:visible"
   xml:space="preserve"
   id="svg2445"
   sodipodi:version="0.32"
   inkscape:version="0.46"
   sodipodi:docname="Crowd.svg"
   inkscape:output_extension="org.inkscape.output.svg.inkscape"
   version="1.0"><metadata
   id="metadata2579"><rdf:RDF><cc:Work
       rdf:about=""><dc:format>image/svg+xml</dc:format><dc:type
         rdf:resource="http://purl.org/dc/dcmitype/StillImage" /></cc:Work></rdf:RDF></metadata><defs
   id="defs2577"><inkscape:perspective
   sodipodi:type="inkscape:persp3d"
   inkscape:vp_x="0 : 219.42349 : 1"
   inkscape:vp_y="0 : 1000 : 0"
   inkscape:vp_z="468.311 : 219.42349 : 1"
   inkscape:persp3d-origin="234.1555 : 146.28233 : 1"
   id="perspective2581" />
		
		
	</defs><sodipodi:namedview
   inkscape:window-height="670"
   inkscape:window-width="640"
   inkscape:pageshadow="2"
   inkscape:pageopacity="0.0"
   guidetolerance="10.0"
   gridtolerance="10.0"
   objecttolerance="10.0"
   borderopacity="1.0"
   bordercolor="#666666"
   pagecolor="#ffffff"
   id="base"
   showgrid="false"
   inkscape:zoom="1.0527587"
   inkscape:cx="234.1555"
   inkscape:cy="219.42349"
   inkscape:window-x="0"
   inkscape:window-y="64"
   inkscape:current-layer="svg2445" />
	<style
   type="text/css"
   id="style2447">
	
		@font-face{font-family:'Times-Roman';src:url(6E9AA3E1.cef)}
	
	</style>
	
<g
   transform="matrix(1.5500078,0,0,1.5500078,-14.248275,-59.033555)"
   style="overflow:visible"
   id="g2466">
			<g
   id="g2468">
				<path
   id="path2470"
   d="M 69.473,199.628 C 70.215,202.771 70.674,205.952 71.194,209.046 C 74.049,209.991 76.909,210.889 79.704,211.687 C 79.409,207.005 79.308,202.18 78.056,197.462 C 76.786,192.673 74.103,187.869 71.318,182.843 C 71.106,182.47 70.872,182.07 70.662,181.673 C 67.198,180.755 63.664,179.783 60.204,178.819 C 63.25,184.248 66.367,189.473 68.08,194.591 C 68.656,196.243 69.103,197.929 69.473,199.628 z"
   style="fill:#060029;stroke:#21050c;stroke-width:5" />
				<path
   id="path2472"
   d="M 43.518,160.606 C 44.192,159.302 43.741,157.196 42.393,154.734 C 41.033,152.154 39.148,149.751 36.659,147.539 C 34.541,145.647 32.212,144.293 29.919,143.761 C 27.601,143.226 25.549,143.491 24.502,144.732 C 23.516,145.885 23.657,147.817 24.978,150.299 C 26.258,152.682 28.468,155.122 31.114,157.282 C 33.859,159.452 36.493,161.027 38.828,161.634 C 41.186,162.266 42.84,161.934 43.518,160.606 z"
   style="fill:#060029;stroke:#21050c;stroke-width:5" />
				<path
   id="path2474"
   d="M 114.473,295.628 C 115.215,298.771 115.674,301.952 116.194,305.046 C 119.049,305.991 121.909,306.889 124.704,307.687 C 124.409,303.005 124.308,298.18 123.056,293.462 C 121.786,288.673 119.103,283.869 116.318,278.843 C 116.106,278.47 115.872,278.07 115.662,277.673 C 112.198,276.755 108.664,275.782 105.204,274.819 C 108.25,280.248 111.367,285.473 113.08,290.591 C 113.656,292.243 114.103,293.929 114.473,295.628 z"
   style="fill:#060029;stroke:#21050c;stroke-width:5" />
				<path
   id="path2476"
   d="M 148.052,311.747 C 144.063,313.763 139.914,317.231 135.624,321.059 C 133.632,322.85 131.54,324.864 128.939,326.213 C 126.55,327.469 123.431,327.314 119.951,326.09 C 116.956,325.037 114.142,323.723 111.535,322.361 C 110.697,321.942 109.888,321.479 109.101,321.043 C 105.735,319.225 102.706,317.326 100.131,315.455 C 95.871,312.346 92.135,309.061 89.087,305.736 C 86.984,303.472 84.78,300.286 81.583,296.243 C 81.091,296.119 80.594,296.041 80.144,295.991 C 83.985,304.31 90.533,312.834 98.165,321.617 C 101.916,325.908 105.321,329.904 108.762,333.109 C 109.244,333.558 109.725,334.009 110.209,334.435 C 112.991,336.961 115.827,339.001 118.731,340.185 C 121.949,341.497 124.918,340.724 127.248,337.686 C 129.881,334.214 132.09,329.292 135.965,324.858 C 143.391,316.42 151.877,311.909 158.494,308.056 C 157.995,308.001 157.52,307.949 157.073,307.876 C 153.933,309.309 150.728,310.405 148.052,311.747 z"
   style="fill:#060029;stroke:#21050c;stroke-width:5" />
				<path
   id="path2478"
   d="M 88.518,256.606 C 89.192,255.301 88.741,253.196 87.393,250.734 C 86.033,248.155 84.148,245.751 81.659,243.539 C 81.45,243.352 81.237,243.175 81.023,242.998 C 81.447,242.616 81.86,242.195 82.249,241.687 C 84.882,238.215 87.091,233.293 90.966,228.859 C 97.57,221.356 105.007,216.96 111.229,213.368 C 113.933,215.492 116.527,217.034 118.829,217.633 C 121.187,218.267 122.842,217.934 123.519,216.607 C 124.193,215.302 123.742,213.197 122.394,210.735 C 121.175,208.424 119.508,206.263 117.391,204.246 C 118.167,203.742 118.906,203.072 119.583,202.188 C 122.215,198.716 124.424,193.794 128.3,189.36 C 134.637,182.158 141.744,177.82 147.806,174.307 C 150.06,175.943 152.215,177.128 154.162,177.634 C 156.519,178.267 158.175,177.935 158.851,176.607 C 159.526,175.303 159.074,173.197 157.726,170.735 C 156.483,168.377 154.776,166.174 152.595,164.122 C 153.297,163.631 153.963,162.996 154.582,162.188 C 157.214,158.716 159.423,153.794 163.299,149.36 C 169.482,142.335 176.397,138.034 182.359,134.566 C 182.445,134.637 182.527,134.711 182.614,134.782 C 185.359,136.952 187.993,138.527 190.328,139.134 C 192.686,139.767 194.341,139.435 195.018,138.107 C 195.692,136.803 195.241,134.697 193.893,132.235 C 192.533,129.655 190.648,127.252 188.159,125.04 C 187.95,124.853 187.737,124.675 187.523,124.499 C 187.947,124.117 188.36,123.696 188.749,123.188 C 191.382,119.716 193.591,114.794 197.466,110.36 C 204.07,102.858 211.507,98.461 217.729,94.869 C 220.433,96.993 223.027,98.535 225.329,99.133 C 227.687,99.766 229.342,99.434 230.019,98.106 C 230.693,96.802 230.242,94.696 228.894,92.234 C 227.534,89.654 225.649,87.251 223.16,85.039 C 221.042,83.147 218.713,81.793 216.42,81.261 C 214.102,80.726 212.05,80.991 211.004,82.232 C 210.017,83.385 210.158,85.317 211.48,87.799 C 212.633,89.945 214.543,92.135 216.843,94.127 C 214.276,95.211 211.738,96.152 209.554,97.248 C 205.565,99.263 201.416,102.732 197.126,106.561 C 195.134,108.352 193.042,110.365 190.441,111.715 C 188.052,112.971 184.933,112.816 181.453,111.592 C 178.458,110.538 175.644,109.225 173.037,107.863 C 172.199,107.444 171.39,106.981 170.603,106.545 C 167.237,104.726 164.208,102.828 161.633,100.957 C 157.373,97.848 153.637,94.564 150.589,91.239 C 150.468,91.109 150.345,90.965 150.224,90.829 C 151.06,90.537 151.681,90.004 152.028,89.241 C 152.692,87.795 152.45,85.852 151.102,83.391 C 149.986,81.352 148.44,79.314 146.495,77.464 C 146.197,77.174 145.9,76.884 145.576,76.615 C 143.5,74.798 141.094,73.459 138.68,72.867 C 136.115,72.281 133.912,72.53 132.755,73.851 C 131.685,75.089 131.899,77.285 133.216,79.79 C 134.613,82.49 136.801,84.903 139.541,87.121 C 141.378,88.584 143.253,89.702 145.073,90.392 C 145.723,90.62 146.373,90.786 147.005,90.914 C 150.534,96.223 154.888,101.621 159.666,107.119 C 163.417,111.41 166.822,115.406 170.263,118.611 C 170.745,119.061 171.226,119.511 171.71,119.938 C 172.979,121.089 174.258,122.133 175.55,123.047 C 175.137,124.21 175.429,125.827 176.479,127.799 C 177.547,129.788 179.269,131.813 181.344,133.685 C 179.24,134.544 177.19,135.343 175.386,136.247 C 171.397,138.262 167.248,141.731 162.958,145.56 C 160.966,147.351 158.874,149.364 156.273,150.714 C 153.884,151.97 150.766,151.815 147.285,150.591 C 144.291,149.537 141.476,148.224 138.87,146.862 C 138.03,146.443 137.222,145.98 136.435,145.544 C 133.069,143.725 130.041,141.827 127.466,139.956 C 123.205,136.847 119.469,133.563 116.422,130.238 C 116.401,130.216 116.379,130.19 116.359,130.167 C 116.637,129.909 116.863,129.6 117.027,129.24 C 117.691,127.794 117.449,125.851 116.101,123.39 C 114.985,121.351 113.439,119.313 111.494,117.463 C 111.196,117.173 110.899,116.883 110.575,116.614 C 108.499,114.797 106.093,113.458 103.679,112.866 C 101.114,112.28 98.911,112.529 97.754,113.85 C 96.684,115.088 96.898,117.284 98.215,119.789 C 99.612,122.489 101.8,124.902 104.54,127.12 C 106.377,128.583 108.252,129.701 110.072,130.391 C 110.851,130.663 111.638,130.867 112.383,130.995 C 112.824,131.061 113.236,131.08 113.627,131.077 C 117.009,136.011 121.068,141.02 125.498,146.118 C 129.25,150.409 132.654,154.405 136.096,157.61 C 136.577,158.06 137.059,158.51 137.543,158.937 C 138.279,159.606 139.022,160.239 139.766,160.833 C 138.867,161.996 139.027,163.883 140.311,166.298 C 141.592,168.681 143.802,171.121 146.448,173.281 C 146.551,173.362 146.652,173.437 146.755,173.517 C 144.507,174.442 142.308,175.283 140.386,176.247 C 136.397,178.262 132.248,181.731 127.958,185.559 C 125.966,187.35 123.874,189.364 121.273,190.713 C 118.884,191.969 115.766,191.814 112.285,190.59 C 109.291,189.537 106.476,188.223 103.87,186.861 C 103.03,186.442 102.222,185.979 101.435,185.543 C 98.069,183.725 95.041,181.826 92.466,179.955 C 88.205,176.846 84.469,173.562 81.422,170.237 C 80.9,169.675 80.371,169.056 79.823,168.382 C 80.302,166.978 80.009,165.156 78.767,162.889 C 77.651,160.85 76.105,158.812 74.159,156.962 C 73.862,156.672 73.565,156.382 73.24,156.113 C 71.165,154.296 68.758,152.957 66.345,152.365 C 63.779,151.779 61.576,152.028 60.42,153.349 C 59.349,154.587 59.563,156.783 60.88,159.288 C 62.278,161.988 64.466,164.401 67.205,166.619 C 69.043,168.082 70.918,169.2 72.738,169.89 C 73.517,170.162 74.303,170.366 75.048,170.494 C 76.249,170.674 77.268,170.585 78.069,170.257 C 81.558,175.455 85.822,180.737 90.497,186.117 C 94.249,190.408 97.653,194.404 101.095,197.609 C 101.576,198.058 102.058,198.509 102.542,198.935 C 103.212,199.544 103.886,200.123 104.563,200.67 C 104.542,200.691 104.518,200.708 104.501,200.73 C 103.514,201.883 103.655,203.815 104.977,206.296 C 106.13,208.442 108.04,210.632 110.34,212.624 C 107.773,213.708 105.235,214.649 103.051,215.745 C 99.062,217.761 94.913,221.229 90.623,225.057 C 88.631,226.848 86.539,228.862 83.938,230.211 C 81.549,231.467 78.43,231.312 74.95,230.088 C 71.955,229.035 69.141,227.721 66.534,226.359 C 65.696,225.94 64.887,225.477 64.1,225.041 C 60.734,223.223 57.705,221.324 55.13,219.453 C 50.87,216.344 47.134,213.059 44.086,209.734 C 41.983,207.47 39.779,204.284 36.582,200.241 C 36.09,200.117 35.593,200.039 35.143,199.989 C 38.984,208.308 45.532,216.832 53.164,225.615 C 56.915,229.906 60.32,233.902 63.761,237.107 C 64.243,237.556 64.724,238.007 65.208,238.433 C 66.477,239.585 67.756,240.628 69.048,241.542 C 68.635,242.706 68.927,244.322 69.977,246.294 C 71.257,248.678 73.467,251.117 76.113,253.277 C 78.858,255.448 81.492,257.022 83.827,257.629 C 86.186,258.267 87.84,257.934 88.518,256.606 z"
   style="fill:#060029;stroke:#21050c;stroke-width:5" />
				<path
   id="path2480"
   d="M 149.473,255.628 C 150.215,258.771 150.674,261.952 151.194,265.046 C 154.049,265.991 156.909,266.889 159.704,267.687 C 159.409,263.005 159.308,258.18 158.056,253.462 C 156.786,248.673 154.103,243.869 151.318,238.843 C 151.106,238.47 150.872,238.07 150.662,237.673 C 147.198,236.755 143.664,235.782 140.204,234.819 C 143.25,240.248 146.367,245.473 148.08,250.591 C 148.656,252.243 149.103,253.929 149.473,255.628 z"
   style="fill:#060029;stroke:#21050c;stroke-width:5" />
				<path
   id="path2482"
   d="M 184.806,215.628 C 185.548,218.771 186.007,221.952 186.528,225.046 C 189.382,225.991 192.243,226.889 195.037,227.687 C 194.743,223.005 194.641,218.18 193.39,213.462 C 192.12,208.673 189.437,203.869 186.651,198.843 C 186.439,198.47 186.205,198.07 185.996,197.673 C 182.531,196.755 178.998,195.782 175.538,194.819 C 178.583,200.248 181.7,205.473 183.414,210.591 C 183.989,212.243 184.436,213.929 184.806,215.628 z"
   style="fill:#060029;stroke:#21050c;stroke-width:5" />
				<path
   id="path2484"
   d="M 229.806,311.628 C 230.548,314.771 231.007,317.952 231.528,321.046 C 234.382,321.991 237.243,322.889 240.038,323.687 C 239.743,319.005 239.641,314.18 238.39,309.462 C 237.12,304.673 234.437,299.869 231.651,294.843 C 231.439,294.47 231.205,294.07 230.996,293.673 C 227.531,292.755 223.998,291.782 220.538,290.819 C 223.583,296.248 226.7,301.473 228.414,306.591 C 228.989,308.243 229.436,309.929 229.806,311.628 z"
   style="fill:#060029;stroke:#21050c;stroke-width:5" />
				<path
   id="path2486"
   d="M 263.385,327.747 C 259.396,329.763 255.247,333.231 250.957,337.059 C 248.965,338.85 246.873,340.864 244.272,342.213 C 241.883,343.469 238.765,343.314 235.284,342.09 C 232.29,341.037 229.475,339.723 226.869,338.361 C 226.029,337.942 225.221,337.479 224.434,337.043 C 221.068,335.225 218.04,333.326 215.465,331.455 C 211.204,328.346 207.468,325.061 204.421,321.736 C 202.317,319.472 200.113,316.286 196.916,312.243 C 196.425,312.119 195.927,312.041 195.478,311.991 C 199.318,320.31 205.866,328.834 213.498,337.617 C 217.25,341.908 220.654,345.904 224.096,349.109 C 224.577,349.558 225.059,350.009 225.543,350.435 C 228.324,352.961 231.16,355.001 234.064,356.185 C 237.283,357.497 240.251,356.724 242.582,353.686 C 245.214,350.214 247.423,345.292 251.299,340.858 C 258.724,332.42 267.21,327.909 273.828,324.056 C 273.328,324.001 272.853,323.949 272.406,323.876 C 269.266,325.309 266.061,326.405 263.385,327.747 z"
   style="fill:#060029;stroke:#21050c;stroke-width:5" />
				<path
   id="path2488"
   d="M 199.161,273.633 C 201.518,274.267 203.174,273.934 203.85,272.607 C 204.525,271.302 204.073,269.197 202.725,266.735 C 201.365,264.156 199.48,261.752 196.992,259.54 C 196.783,259.353 196.569,259.176 196.356,258.999 C 196.779,258.617 197.192,258.196 197.582,257.688 C 200.214,254.216 202.423,249.294 206.299,244.86 C 212.902,237.357 220.34,232.961 226.561,229.369 C 229.265,231.493 231.858,233.035 234.162,233.634 C 236.519,234.268 238.175,233.935 238.851,232.608 C 239.526,231.303 239.074,229.198 237.726,226.736 C 236.516,224.442 234.864,222.296 232.768,220.29 C 233.106,219.962 233.434,219.601 233.748,219.189 C 236.381,215.717 238.59,210.795 242.465,206.361 C 249.891,197.923 258.377,193.412 264.994,189.559 C 264.495,189.504 264.02,189.452 263.573,189.379 C 260.432,190.81 257.227,191.906 254.551,193.248 C 250.563,195.264 246.414,198.732 242.124,202.56 C 240.133,204.351 238.04,206.365 235.439,207.714 C 233.05,208.97 229.931,208.815 226.451,207.591 C 223.456,206.538 220.642,205.224 218.035,203.862 C 217.197,203.443 216.388,202.98 215.601,202.544 C 212.235,200.726 209.206,198.827 206.631,196.956 C 202.371,193.847 198.635,190.562 195.587,187.237 C 195.159,186.776 194.723,186.266 194.278,185.729 C 194.592,185.459 194.846,185.131 195.025,184.739 C 195.689,183.293 195.447,181.35 194.099,178.889 C 192.983,176.85 191.437,174.812 189.492,172.962 C 189.194,172.672 188.897,172.382 188.573,172.113 C 186.497,170.296 184.091,168.957 181.677,168.365 C 179.112,167.779 176.909,168.028 175.752,169.349 C 174.682,170.587 174.896,172.783 176.213,175.288 C 177.61,177.988 179.798,180.401 182.538,182.619 C 184.375,184.082 186.25,185.199 188.07,185.89 C 188.849,186.161 189.636,186.365 190.381,186.494 C 190.882,186.57 191.346,186.59 191.782,186.574 C 195.35,191.992 199.783,197.502 204.663,203.117 C 208.414,207.408 211.819,211.404 215.26,214.609 C 215.742,215.058 216.223,215.509 216.707,215.935 C 217.549,216.7 218.395,217.412 219.248,218.078 C 219.071,219.184 219.41,220.609 220.309,222.297 C 221.462,224.443 223.373,226.633 225.672,228.625 C 223.105,229.709 220.567,230.65 218.383,231.746 C 214.394,233.762 210.245,237.23 205.955,241.058 C 203.963,242.849 201.871,244.863 199.27,246.212 C 196.881,247.468 193.763,247.313 190.282,246.089 C 187.288,245.036 184.473,243.722 181.867,242.36 C 181.027,241.941 180.219,241.478 179.432,241.042 C 176.066,239.224 173.038,237.325 170.463,235.454 C 166.202,232.345 162.466,229.06 159.419,225.735 C 159.343,225.653 159.266,225.561 159.189,225.477 C 159.387,225.258 159.562,225.018 159.69,224.737 C 160.354,223.291 160.113,221.348 158.765,218.887 C 157.649,216.848 156.103,214.809 154.157,212.959 C 153.86,212.67 153.563,212.38 153.238,212.111 C 151.163,210.294 148.756,208.955 146.343,208.362 C 143.777,207.777 141.574,208.025 140.418,209.347 C 139.347,210.584 139.561,212.781 140.878,215.285 C 142.276,217.985 144.464,220.398 147.203,222.616 C 149.041,224.079 150.916,225.196 152.736,225.887 C 153.515,226.158 154.301,226.362 155.046,226.491 C 155.612,226.577 156.14,226.6 156.622,226.571 C 160.005,231.505 164.065,236.516 168.495,241.614 C 172.247,245.905 175.651,249.901 179.093,253.106 C 179.574,253.555 180.056,254.006 180.54,254.432 C 181.808,255.584 183.088,256.627 184.38,257.541 C 183.966,258.705 184.258,260.321 185.308,262.293 C 186.443,264.405 188.309,266.56 190.559,268.526 C 187.916,269.65 185.295,270.615 183.049,271.742 C 179.06,273.758 174.911,277.226 170.621,281.054 C 168.629,282.845 166.537,284.859 163.936,286.208 C 161.547,287.464 158.428,287.309 154.948,286.085 C 151.953,285.032 149.139,283.718 146.532,282.356 C 145.694,281.937 144.885,281.474 144.098,281.038 C 140.732,279.22 137.703,277.321 135.128,275.45 C 130.868,272.341 127.132,269.056 124.084,265.731 C 124.063,265.709 124.042,265.682 124.022,265.661 C 124.3,265.403 124.526,265.094 124.689,264.733 C 125.353,263.287 125.112,261.344 123.764,258.883 C 122.648,256.844 121.102,254.805 119.156,252.955 C 118.859,252.666 118.562,252.376 118.237,252.107 C 116.162,250.29 113.755,248.951 111.342,248.358 C 108.776,247.773 106.573,248.021 105.417,249.343 C 104.346,250.58 104.56,252.777 105.877,255.281 C 107.275,257.981 109.463,260.394 112.202,262.612 C 114.04,264.075 115.915,265.192 117.735,265.883 C 118.514,266.154 119.3,266.358 120.045,266.487 C 120.488,266.553 120.898,266.573 121.29,266.569 C 124.672,271.503 128.731,276.512 133.161,281.61 C 136.912,285.901 140.317,289.897 143.758,293.102 C 144.24,293.551 144.721,294.002 145.205,294.428 C 147.987,296.954 150.823,298.994 153.727,300.178 C 156.945,301.49 159.914,300.717 162.244,297.679 C 164.877,294.207 167.086,289.285 170.961,284.851 C 177.632,277.27 185.155,272.862 191.415,269.249 C 191.424,269.257 191.434,269.265 191.443,269.272 C 194.191,271.452 196.826,273.026 199.161,273.633 z"
   style="fill:#060029;stroke:#21050c;stroke-width:5" />
				<path
   id="path2490"
   d="M 274.101,234.89 C 272.985,232.851 271.439,230.812 269.493,228.962 C 269.196,228.673 268.899,228.383 268.575,228.114 C 266.499,226.297 264.093,224.958 261.679,224.365 C 259.114,223.78 256.911,224.028 255.754,225.35 C 254.684,226.587 254.897,228.784 256.215,231.288 C 257.612,233.988 259.8,236.401 262.54,238.619 C 264.377,240.082 266.252,241.199 268.072,241.89 C 268.851,242.161 269.638,242.365 270.383,242.494 C 272.696,242.842 274.36,242.207 275.026,240.738 C 275.69,239.293 275.449,237.351 274.101,234.89 z"
   style="fill:#060029;stroke:#21050c;stroke-width:5" />
				<path
   id="path2492"
   d="M 266.649,254.843 C 266.437,254.47 266.203,254.07 265.994,253.673 C 262.529,252.755 258.996,251.782 255.536,250.819 C 258.581,256.248 261.699,261.473 263.412,266.591 C 263.989,268.243 264.435,269.929 264.806,271.628 C 265.548,274.771 266.008,277.952 266.528,281.046 C 269.383,281.991 272.243,282.889 275.038,283.687 C 274.743,279.005 274.641,274.18 273.39,269.462 C 272.119,264.673 269.436,259.869 266.649,254.843 z"
   style="fill:#060029;stroke:#21050c;stroke-width:5" />
				<path
   id="path2494"
   d="M 307.406,283.878 C 304.265,285.309 301.06,286.405 298.385,287.747 C 294.396,289.763 290.247,293.231 285.957,297.059 C 283.965,298.85 281.873,300.864 279.272,302.213 C 276.883,303.469 273.765,303.314 270.284,302.09 C 267.29,301.037 264.475,299.723 261.869,298.361 C 261.03,297.942 260.221,297.479 259.434,297.043 C 256.068,295.225 253.04,293.326 250.465,291.455 C 246.204,288.346 242.468,285.061 239.421,281.736 C 239.4,281.714 239.378,281.687 239.358,281.666 C 239.636,281.408 239.862,281.099 240.025,280.738 C 240.69,279.292 240.449,277.349 239.1,274.888 C 237.984,272.849 236.438,270.81 234.493,268.96 C 234.195,268.671 233.898,268.381 233.574,268.112 C 231.498,266.295 229.092,264.956 226.678,264.363 C 224.113,263.778 221.91,264.026 220.753,265.348 C 219.683,266.585 219.897,268.782 221.214,271.286 C 222.611,273.986 224.799,276.399 227.539,278.617 C 229.376,280.08 231.251,281.197 233.071,281.888 C 233.85,282.159 234.637,282.363 235.382,282.492 C 235.823,282.558 236.235,282.578 236.626,282.574 C 240.008,287.508 244.067,292.517 248.497,297.615 C 252.249,301.906 255.653,305.902 259.095,309.107 C 259.576,309.556 260.058,310.007 260.542,310.433 C 263.323,312.959 266.159,314.999 269.063,316.183 C 272.282,317.495 275.25,316.722 277.581,313.684 C 280.213,310.212 282.422,305.29 286.298,300.856 C 293.723,292.418 302.209,287.907 308.827,284.054 C 308.328,284.003 307.854,283.95 307.406,283.878 z"
   style="fill:#060029;stroke:#21050c;stroke-width:5" />
				<path
   id="path2496"
   d="M 173.706,48.12 C 175.544,49.583 177.419,50.701 179.239,51.391 C 180.018,51.663 180.804,51.867 181.549,51.995 C 183.863,52.343 185.526,51.707 186.193,50.239 C 186.857,48.793 186.616,46.85 185.268,44.389 C 184.152,42.35 182.606,40.312 180.66,38.462 C 180.363,38.172 180.066,37.882 179.741,37.613 C 177.666,35.796 175.259,34.457 172.846,33.865 C 170.28,33.279 168.077,33.528 166.921,34.849 C 165.85,36.087 166.064,38.283 167.381,40.788 C 168.779,43.489 170.967,45.902 173.706,48.12 z"
   style="fill:#060029;stroke:#21050c;stroke-width:5" />
				<path
   id="path2498"
   d="M 177.816,64.343 C 177.604,63.969 177.37,63.57 177.16,63.173 C 173.696,62.255 170.162,61.283 166.702,60.319 C 169.748,65.747 172.865,70.973 174.578,76.091 C 175.156,77.743 175.602,79.428 175.973,81.128 C 176.715,84.27 177.174,87.452 177.694,90.546 C 180.549,91.491 183.409,92.389 186.204,93.187 C 185.909,88.505 185.808,83.68 184.556,78.963 C 183.285,74.173 180.602,69.369 177.816,64.343 z"
   style="fill:#060029;stroke:#21050c;stroke-width:5" />
				<path
   id="path2500"
   d="M 137.613,38.781 C 140.358,40.951 142.992,42.526 145.327,43.133 C 147.685,43.766 149.34,43.434 150.017,42.106 C 150.691,40.802 150.24,38.696 148.892,36.234 C 147.532,33.654 145.647,31.251 143.158,29.039 C 141.04,27.147 138.711,25.793 136.418,25.261 C 134.1,24.726 132.048,24.991 131.002,26.232 C 130.015,27.385 130.156,29.317 131.478,31.799 C 132.758,34.182 134.968,36.621 137.613,38.781 z"
   style="fill:#060029;stroke:#21050c;stroke-width:5" />
				<path
   id="path2502"
   d="M 222.16,159.173 C 218.696,158.255 215.162,157.283 211.702,156.319 C 214.748,161.747 217.865,166.973 219.578,172.091 C 220.156,173.743 220.602,175.428 220.973,177.128 C 221.715,180.271 222.174,183.452 222.694,186.546 C 225.549,187.491 228.409,188.389 231.204,189.187 C 230.909,184.505 230.808,179.68 229.556,174.963 C 228.286,170.174 225.603,165.37 222.818,160.344 C 222.604,159.969 222.37,159.57 222.16,159.173 z"
   style="fill:#060029;stroke:#21050c;stroke-width:5" />
				<path
   id="path2504"
   d="M 253.706,104.12 C 255.544,105.583 257.419,106.701 259.238,107.391 C 260.018,107.663 260.804,107.867 261.549,107.995 C 263.863,108.343 265.526,107.707 266.193,106.239 C 266.857,104.793 266.616,102.85 265.268,100.389 C 264.152,98.35 262.606,96.312 260.66,94.462 C 260.363,94.172 260.066,93.882 259.741,93.613 C 257.666,91.796 255.259,90.457 252.846,89.865 C 250.28,89.279 248.077,89.528 246.921,90.849 C 245.85,92.087 246.064,94.283 247.381,96.788 C 248.779,99.489 250.967,101.902 253.706,104.12 z"
   style="fill:#060029;stroke:#21050c;stroke-width:5" />
				<path
   id="path2506"
   d="M 257.816,120.343 C 257.604,119.969 257.37,119.57 257.16,119.173 C 253.696,118.255 250.162,117.283 246.702,116.319 C 249.748,121.747 252.865,126.973 254.578,132.091 C 255.156,133.743 255.602,135.428 255.973,137.128 C 256.715,140.27 257.174,143.452 257.694,146.546 C 260.549,147.491 263.409,148.389 266.204,149.187 C 265.909,144.505 265.808,139.68 264.556,134.963 C 263.285,130.173 260.602,125.369 257.816,120.343 z"
   style="fill:#060029;stroke:#21050c;stroke-width:5" />
				<path
   id="path2508"
   d="M 230.268,140.389 C 229.152,138.35 227.606,136.312 225.66,134.462 C 225.363,134.172 225.066,133.882 224.741,133.613 C 222.666,131.796 220.259,130.457 217.846,129.865 C 215.28,129.279 213.077,129.528 211.921,130.849 C 210.85,132.087 211.064,134.283 212.381,136.788 C 213.779,139.488 215.967,141.901 218.706,144.119 C 220.544,145.582 222.419,146.7 224.239,147.39 C 225.018,147.662 225.804,147.866 226.549,147.994 C 226.992,148.06 227.402,148.079 227.794,148.076 C 231.176,153.01 235.235,158.019 239.666,163.117 C 243.416,167.408 246.821,171.404 250.262,174.609 C 250.744,175.059 251.225,175.509 251.709,175.936 C 254.491,178.461 257.327,180.502 260.231,181.686 C 263.449,182.998 266.418,182.225 268.748,179.187 C 271.381,175.715 273.59,170.793 277.465,166.359 C 284.891,157.921 293.377,153.41 299.994,149.557 C 299.495,149.502 299.02,149.45 298.573,149.377 C 295.432,150.808 292.227,151.904 289.551,153.246 C 285.563,155.261 281.414,158.73 277.124,162.559 C 275.133,164.35 273.04,166.363 270.439,167.713 C 268.05,168.969 264.931,168.814 261.451,167.59 C 258.456,166.536 255.642,165.223 253.035,163.861 C 252.197,163.442 251.388,162.979 250.601,162.543 C 247.235,160.724 244.206,158.826 241.632,156.955 C 237.371,153.846 233.635,150.562 230.587,147.237 C 230.566,147.215 230.545,147.189 230.525,147.166 C 230.803,146.908 231.029,146.599 231.192,146.239 C 231.856,144.793 231.615,142.851 230.268,140.389 z"
   style="fill:#060029;stroke:#21050c;stroke-width:5" />
				<path
   id="path2510"
   d="M 59.54,31.12 C 61.377,32.583 63.252,33.701 65.072,34.391 C 65.851,34.663 66.638,34.867 67.383,34.995 C 69.696,35.343 71.36,34.707 72.027,33.239 C 72.691,31.793 72.449,29.85 71.101,27.389 C 69.985,25.35 68.439,23.312 66.494,21.462 C 66.196,21.172 65.899,20.882 65.575,20.613 C 63.499,18.796 61.093,17.457 58.679,16.865 C 56.114,16.279 53.911,16.528 52.754,17.849 C 51.684,19.087 51.898,21.283 53.215,23.788 C 54.612,26.489 56.8,28.902 59.54,31.12 z"
   style="fill:#060029;stroke:#21050c;stroke-width:5" />
				<path
   id="path2512"
   d="M 63.649,47.343 C 63.437,46.969 63.203,46.57 62.994,46.173 C 59.529,45.255 55.996,44.283 52.536,43.319 C 55.581,48.747 58.698,53.973 60.412,59.091 C 60.989,60.743 61.435,62.428 61.806,64.128 C 62.548,67.27 63.007,70.452 63.528,73.546 C 66.382,74.491 69.243,75.389 72.037,76.187 C 71.743,71.505 71.641,66.68 70.39,61.963 C 69.119,57.173 66.436,52.369 63.649,47.343 z"
   style="fill:#060029;stroke:#21050c;stroke-width:5" />
				<path
   id="path2514"
   d="M 35.851,25.106 C 36.526,23.802 36.074,21.696 34.726,19.234 C 33.366,16.654 31.48,14.251 28.993,12.039 C 26.875,10.147 24.545,8.793 22.252,8.261 C 19.934,7.726 17.882,7.991 16.835,9.232 C 15.849,10.385 15.99,12.317 17.311,14.799 C 18.592,17.182 20.802,19.622 23.447,21.782 C 26.192,23.952 28.826,25.527 31.161,26.134 C 33.519,26.766 35.174,26.434 35.851,25.106 z"
   style="fill:#060029;stroke:#21050c;stroke-width:5" />
				<path
   id="path2516"
   d="M 106.806,160.128 C 107.548,163.27 108.007,166.452 108.528,169.546 C 111.382,170.491 114.243,171.389 117.037,172.187 C 116.743,167.505 116.641,162.68 115.39,157.963 C 114.12,153.174 111.437,148.37 108.651,143.344 C 108.439,142.97 108.205,142.571 107.996,142.174 C 104.531,141.256 100.998,140.284 97.538,139.32 C 100.583,144.748 103.7,149.974 105.414,155.092 C 105.989,156.743 106.436,158.428 106.806,160.128 z"
   style="fill:#060029;stroke:#21050c;stroke-width:5" />
				<path
   id="path2518"
   d="M 27.479,64.492 C 31.319,72.812 37.867,81.335 45.499,90.118 C 49.251,94.409 52.655,98.405 56.097,101.61 C 56.578,102.06 57.06,102.51 57.544,102.937 C 58.812,104.088 60.092,105.132 61.384,106.046 C 60.97,107.209 61.262,108.826 62.312,110.798 C 63.593,113.181 65.803,115.621 68.449,117.781 C 71.193,119.951 73.828,121.526 76.163,122.133 C 78.52,122.766 80.176,122.434 80.852,121.106 C 81.527,119.802 81.075,117.696 79.727,115.234 C 78.367,112.654 76.482,110.251 73.994,108.039 C 73.785,107.852 73.571,107.674 73.358,107.498 C 73.781,107.116 74.194,106.695 74.584,106.187 C 77.216,102.715 79.425,97.793 83.301,93.359 C 89.904,85.857 97.342,81.46 103.563,77.868 C 106.267,79.992 108.86,81.534 111.164,82.132 C 113.521,82.765 115.177,82.433 115.853,81.105 C 116.528,79.801 116.076,77.695 114.728,75.233 C 113.368,72.653 111.483,70.25 108.995,68.038 C 106.877,66.146 104.547,64.792 102.255,64.26 C 99.937,63.725 97.884,63.99 96.838,65.231 C 95.852,66.384 95.993,68.316 97.314,70.798 C 98.467,72.944 100.378,75.134 102.677,77.126 C 100.11,78.21 97.572,79.151 95.388,80.247 C 91.399,82.262 87.25,85.731 82.96,89.56 C 80.968,91.351 78.876,93.364 76.275,94.714 C 73.886,95.97 70.768,95.815 67.287,94.591 C 64.293,93.537 61.478,92.224 58.872,90.862 C 58.032,90.443 57.224,89.98 56.437,89.544 C 53.071,87.725 50.043,85.827 47.468,83.956 C 43.207,80.847 39.471,77.563 36.424,74.238 C 34.32,71.974 32.116,68.788 28.919,64.745 C 28.425,64.62 27.928,64.542 27.479,64.492 z"
   style="fill:#060029;stroke:#21050c;stroke-width:5" />
				<path
   id="path2520"
   d="M 141.806,120.128 C 142.548,123.27 143.007,126.452 143.528,129.546 C 146.382,130.491 149.243,131.389 152.037,132.187 C 151.743,127.505 151.641,122.68 150.39,117.963 C 149.12,113.174 146.437,108.37 143.651,103.344 C 143.439,102.97 143.205,102.571 142.996,102.174 C 139.531,101.256 135.998,100.284 132.538,99.32 C 135.583,104.748 138.7,109.974 140.414,115.092 C 140.989,116.743 141.436,118.428 141.806,120.128 z"
   style="fill:#060029;stroke:#21050c;stroke-width:5" />
			</g>
			<g
   id="g2522">
				<path
   id="path2524"
   d="M 64.973,194.128 C 65.715,197.271 66.174,200.452 66.694,203.546 C 69.549,204.491 72.409,205.39 75.204,206.187 C 74.909,201.505 74.808,196.681 73.557,191.963 C 72.286,187.173 69.604,182.369 66.818,177.343 C 66.606,176.969 66.372,176.57 66.163,176.173 C 62.698,175.255 59.164,174.283 55.705,173.319 C 58.75,178.747 61.867,183.973 63.581,189.091 C 64.156,190.743 64.603,192.429 64.973,194.128 z"
   style="fill:#ffff00;stroke:#019069;stroke-width:5" />
				<path
   id="path2526"
   d="M 39.018,155.106 C 39.692,153.801 39.241,151.695 37.893,149.234 C 36.533,146.655 34.648,144.251 32.16,142.039 C 30.041,140.147 27.712,138.793 25.419,138.261 C 23.101,137.726 21.049,137.991 20.002,139.232 C 19.016,140.385 19.158,142.317 20.478,144.799 C 21.758,147.182 23.969,149.622 26.614,151.782 C 29.359,153.952 31.993,155.527 34.328,156.134 C 36.686,156.766 38.34,156.434 39.018,155.106 z"
   style="fill:#ffff00;stroke:#019069;stroke-width:5" />
				<path
   id="path2528"
   d="M 109.973,290.128 C 110.715,293.271 111.174,296.452 111.694,299.546 C 114.549,300.491 117.409,301.39 120.204,302.187 C 119.909,297.505 119.808,292.681 118.557,287.963 C 117.286,283.173 114.604,278.369 111.818,273.343 C 111.606,272.97 111.372,272.57 111.163,272.173 C 107.698,271.255 104.164,270.282 100.705,269.319 C 103.75,274.748 106.867,279.973 108.581,285.091 C 109.156,286.743 109.603,288.429 109.973,290.128 z"
   style="fill:#ffff00;stroke:#019069;stroke-width:5" />
				<path
   id="path2530"
   d="M 143.552,306.247 C 139.563,308.263 135.414,311.731 131.124,315.559 C 129.132,317.35 127.04,319.364 124.439,320.713 C 122.05,321.969 118.931,321.814 115.451,320.59 C 112.456,319.537 109.642,318.223 107.035,316.861 C 106.197,316.442 105.388,315.98 104.601,315.543 C 101.235,313.725 98.207,311.826 95.631,309.955 C 91.371,306.846 87.635,303.562 84.587,300.236 C 82.484,297.972 80.28,294.786 77.083,290.743 C 76.591,290.619 76.094,290.541 75.644,290.492 C 79.485,298.81 86.033,307.334 93.665,316.117 C 97.416,320.408 100.821,324.404 104.262,327.609 C 104.744,328.058 105.225,328.509 105.71,328.936 C 108.492,331.461 111.327,333.501 114.231,334.685 C 117.45,335.997 120.418,335.224 122.749,332.186 C 125.381,328.714 127.59,323.792 131.466,319.358 C 138.891,310.92 147.377,306.409 153.995,302.556 C 153.495,302.501 153.02,302.449 152.573,302.376 C 149.433,303.809 146.228,304.905 143.552,306.247 z"
   style="fill:#ffff00;stroke:#019069;stroke-width:5" />
				<path
   id="path2532"
   d="M 84.018,251.106 C 84.692,249.801 84.241,247.696 82.893,245.234 C 81.533,242.655 79.648,240.251 77.16,238.039 C 76.95,237.852 76.737,237.675 76.523,237.498 C 76.947,237.116 77.36,236.695 77.75,236.187 C 80.382,232.715 82.591,227.793 86.467,223.359 C 93.07,215.856 100.507,211.46 106.729,207.868 C 109.433,209.993 112.027,211.534 114.329,212.134 C 116.687,212.767 118.342,212.434 119.019,211.107 C 119.693,209.802 119.242,207.697 117.894,205.235 C 116.675,202.924 115.008,200.763 112.891,198.746 C 113.667,198.242 114.406,197.572 115.083,196.688 C 117.715,193.216 119.924,188.294 123.8,183.86 C 130.137,176.659 137.244,172.32 143.307,168.807 C 145.56,170.442 147.716,171.627 149.662,172.133 C 152.019,172.766 153.675,172.434 154.351,171.107 C 155.026,169.802 154.574,167.696 153.226,165.235 C 151.983,162.877 150.276,160.674 148.095,158.622 C 148.797,158.131 149.463,157.496 150.082,156.688 C 152.714,153.216 154.923,148.294 158.799,143.86 C 164.982,136.835 171.897,132.534 177.86,129.066 C 177.945,129.137 178.027,129.211 178.114,129.282 C 180.859,131.452 183.493,133.027 185.828,133.634 C 188.186,134.267 189.841,133.935 190.518,132.608 C 191.192,131.303 190.741,129.197 189.393,126.736 C 188.033,124.157 186.148,121.753 183.66,119.541 C 183.45,119.354 183.237,119.176 183.023,119 C 183.447,118.618 183.86,118.197 184.25,117.689 C 186.882,114.217 189.091,109.295 192.967,104.861 C 199.57,97.359 207.007,92.962 213.229,89.37 C 215.933,91.494 218.527,93.036 220.829,93.634 C 223.187,94.267 224.842,93.935 225.519,92.608 C 226.193,91.303 225.742,89.197 224.394,86.736 C 223.034,84.157 221.149,81.753 218.661,79.541 C 216.542,77.649 214.213,76.295 211.92,75.763 C 209.602,75.228 207.55,75.493 206.504,76.734 C 205.517,77.887 205.659,79.819 206.98,82.301 C 208.133,84.447 210.043,86.637 212.343,88.63 C 209.776,89.713 207.238,90.654 205.054,91.75 C 201.065,93.765 196.916,97.234 192.626,101.063 C 190.634,102.854 188.542,104.867 185.941,106.217 C 183.552,107.473 180.433,107.318 176.953,106.094 C 173.958,105.041 171.144,103.727 168.537,102.365 C 167.699,101.946 166.89,101.483 166.103,101.046 C 162.737,99.228 159.709,97.329 157.133,95.458 C 152.873,92.35 149.137,89.065 146.089,85.74 C 145.968,85.61 145.845,85.466 145.724,85.33 C 146.56,85.038 147.181,84.505 147.528,83.742 C 148.192,82.296 147.95,80.353 146.603,77.892 C 145.487,75.853 143.94,73.814 141.995,71.965 C 141.697,71.675 141.4,71.385 141.076,71.116 C 139,69.299 136.594,67.96 134.18,67.368 C 131.615,66.782 129.412,67.031 128.255,68.352 C 127.185,69.59 127.399,71.786 128.716,74.291 C 130.113,76.992 132.301,79.405 135.041,81.622 C 136.878,83.085 138.753,84.203 140.573,84.893 C 141.223,85.121 141.873,85.287 142.505,85.415 C 146.034,90.724 150.388,96.122 155.166,101.62 C 158.917,105.911 162.322,109.907 165.763,113.112 C 166.245,113.562 166.726,114.012 167.211,114.439 C 168.479,115.591 169.758,116.634 171.05,117.548 C 170.637,118.711 170.929,120.328 171.979,122.3 C 173.047,124.289 174.769,126.314 176.844,128.186 C 174.74,129.045 172.69,129.844 170.886,130.748 C 166.897,132.763 162.748,136.232 158.458,140.061 C 156.467,141.852 154.374,143.865 151.773,145.215 C 149.384,146.471 146.266,146.316 142.785,145.092 C 139.791,144.039 136.976,142.725 134.37,141.363 C 133.531,140.944 132.722,140.481 131.935,140.044 C 128.57,138.226 125.541,136.327 122.966,134.456 C 118.705,131.348 114.97,128.063 111.922,124.738 C 111.901,124.716 111.879,124.69 111.859,124.667 C 112.137,124.409 112.363,124.1 112.527,123.74 C 113.191,122.294 112.949,120.351 111.602,117.89 C 110.486,115.851 108.939,113.812 106.994,111.963 C 106.696,111.673 106.399,111.383 106.075,111.114 C 103.999,109.297 101.593,107.958 99.179,107.366 C 96.614,106.78 94.411,107.029 93.254,108.35 C 92.184,109.588 92.398,111.784 93.715,114.289 C 95.112,116.99 97.3,119.403 100.04,121.62 C 101.877,123.083 103.752,124.201 105.572,124.891 C 106.351,125.164 107.138,125.367 107.883,125.495 C 108.324,125.561 108.736,125.581 109.127,125.577 C 112.51,130.511 116.568,135.52 120.999,140.618 C 124.75,144.909 128.154,148.905 131.596,152.11 C 132.077,152.56 132.559,153.01 133.043,153.437 C 133.779,154.106 134.522,154.739 135.266,155.333 C 134.367,156.496 134.527,158.384 135.811,160.798 C 137.092,163.181 139.302,165.621 141.948,167.781 C 142.051,167.863 142.152,167.937 142.255,168.017 C 140.007,168.943 137.808,169.783 135.886,170.747 C 131.897,172.762 127.748,176.231 123.458,180.06 C 121.467,181.851 119.374,183.864 116.773,185.214 C 114.384,186.47 111.266,186.315 107.785,185.091 C 104.791,184.038 101.976,182.724 99.37,181.362 C 98.531,180.943 97.722,180.481 96.935,180.044 C 93.57,178.226 90.541,176.327 87.966,174.456 C 83.705,171.348 79.97,168.063 76.922,164.738 C 76.4,164.176 75.871,163.557 75.323,162.883 C 75.802,161.479 75.509,159.657 74.267,157.391 C 73.151,155.352 71.605,153.313 69.659,151.464 C 69.362,151.174 69.065,150.884 68.741,150.615 C 66.665,148.798 64.258,147.459 61.845,146.867 C 59.279,146.281 57.077,146.53 55.921,147.851 C 54.849,149.089 55.063,151.285 56.38,153.79 C 57.778,156.491 59.966,158.904 62.706,161.121 C 64.543,162.584 66.418,163.702 68.238,164.392 C 69.017,164.665 69.803,164.868 70.548,164.996 C 71.749,165.176 72.769,165.087 73.569,164.759 C 77.058,169.957 81.322,175.239 85.998,180.618 C 89.749,184.909 93.153,188.905 96.595,192.11 C 97.076,192.559 97.558,193.01 98.042,193.437 C 98.713,194.045 99.386,194.624 100.063,195.171 C 100.043,195.192 100.019,195.209 100.001,195.231 C 99.014,196.384 99.156,198.316 100.477,200.797 C 101.63,202.943 103.54,205.134 105.84,207.126 C 103.273,208.209 100.735,209.15 98.551,210.246 C 94.562,212.262 90.413,215.73 86.123,219.558 C 84.131,221.349 82.039,223.363 79.438,224.712 C 77.049,225.968 73.93,225.813 70.45,224.589 C 67.455,223.536 64.641,222.222 62.034,220.86 C 61.196,220.441 60.387,219.979 59.6,219.542 C 56.234,217.724 53.206,215.825 50.63,213.954 C 46.37,210.845 42.634,207.561 39.586,204.235 C 37.483,201.971 35.279,198.785 32.082,194.742 C 31.59,194.618 31.093,194.54 30.643,194.491 C 34.483,202.809 41.031,211.333 48.663,220.116 C 52.414,224.407 55.819,228.403 59.26,231.608 C 59.742,232.057 60.223,232.508 60.708,232.935 C 61.976,234.086 63.255,235.129 64.547,236.043 C 64.134,237.207 64.426,238.823 65.476,240.795 C 66.756,243.179 68.967,245.618 71.612,247.778 C 74.357,249.949 76.991,251.523 79.326,252.131 C 81.686,252.767 83.34,252.434 84.018,251.106 z"
   style="fill:#ffff00;stroke:#019069;stroke-width:5" />
				<path
   id="path2534"
   d="M 144.973,250.128 C 145.715,253.271 146.174,256.452 146.694,259.546 C 149.549,260.491 152.409,261.39 155.204,262.187 C 154.909,257.505 154.808,252.681 153.557,247.963 C 152.286,243.173 149.604,238.369 146.818,233.343 C 146.606,232.97 146.372,232.57 146.163,232.173 C 142.698,231.255 139.164,230.282 135.705,229.319 C 138.75,234.748 141.867,239.973 143.581,245.091 C 144.156,246.743 144.603,248.429 144.973,250.128 z"
   style="fill:#ffff00;stroke:#019069;stroke-width:5" />
				<path
   id="path2536"
   d="M 180.306,210.128 C 181.048,213.271 181.507,216.452 182.028,219.546 C 184.882,220.491 187.743,221.39 190.537,222.187 C 190.243,217.505 190.141,212.681 188.89,207.963 C 187.62,203.173 184.937,198.369 182.152,193.343 C 181.939,192.97 181.705,192.57 181.496,192.173 C 178.031,191.255 174.498,190.282 171.038,189.319 C 174.083,194.748 177.2,199.973 178.914,205.091 C 179.489,206.743 179.936,208.429 180.306,210.128 z"
   style="fill:#ffff00;stroke:#019069;stroke-width:5" />
				<path
   id="path2538"
   d="M 225.306,306.128 C 226.048,309.271 226.507,312.452 227.028,315.546 C 229.882,316.491 232.743,317.39 235.537,318.187 C 235.243,313.505 235.141,308.681 233.89,303.963 C 232.62,299.173 229.937,294.369 227.152,289.343 C 226.939,288.97 226.705,288.57 226.496,288.173 C 223.031,287.255 219.498,286.282 216.038,285.319 C 219.083,290.748 222.2,295.973 223.914,301.091 C 224.489,302.743 224.936,304.429 225.306,306.128 z"
   style="fill:#ffff00;stroke:#019069;stroke-width:5" />
				<path
   id="path2540"
   d="M 258.885,322.247 C 254.896,324.263 250.747,327.731 246.457,331.559 C 244.466,333.35 242.373,335.364 239.772,336.713 C 237.383,337.969 234.265,337.814 230.784,336.59 C 227.79,335.537 224.975,334.223 222.369,332.861 C 221.53,332.442 220.721,331.98 219.934,331.543 C 216.569,329.725 213.54,327.826 210.965,325.955 C 206.704,322.846 202.969,319.562 199.921,316.236 C 197.817,313.972 195.613,310.786 192.417,306.743 C 191.925,306.619 191.427,306.541 190.978,306.492 C 194.818,314.81 201.367,323.334 208.999,332.117 C 212.75,336.408 216.154,340.404 219.596,343.609 C 220.077,344.058 220.559,344.509 221.043,344.936 C 223.824,347.461 226.66,349.501 229.564,350.685 C 232.783,351.997 235.751,351.224 238.082,348.186 C 240.714,344.714 242.923,339.792 246.799,335.358 C 254.225,326.92 262.71,322.409 269.328,318.556 C 268.828,318.501 268.353,318.449 267.906,318.376 C 264.766,319.809 261.561,320.905 258.885,322.247 z"
   style="fill:#ffff00;stroke:#019069;stroke-width:5" />
				<path
   id="path2542"
   d="M 194.661,268.134 C 197.018,268.767 198.674,268.434 199.35,267.107 C 200.025,265.802 199.573,263.697 198.225,261.235 C 196.865,258.656 194.98,256.252 192.492,254.04 C 192.283,253.853 192.069,253.676 191.856,253.499 C 192.279,253.117 192.693,252.696 193.082,252.188 C 195.714,248.716 197.923,243.794 201.799,239.36 C 208.402,231.857 215.84,227.461 222.061,223.869 C 224.765,225.994 227.359,227.535 229.662,228.135 C 232.019,228.768 233.675,228.435 234.351,227.108 C 235.026,225.803 234.574,223.698 233.226,221.236 C 232.016,218.942 230.364,216.796 228.268,214.79 C 228.606,214.462 228.934,214.101 229.249,213.689 C 231.881,210.217 234.09,205.295 237.966,200.861 C 245.391,192.423 253.877,187.912 260.495,184.059 C 259.995,184.004 259.52,183.952 259.073,183.879 C 255.932,185.31 252.727,186.406 250.051,187.748 C 246.063,189.764 241.914,193.232 237.624,197.06 C 235.632,198.851 233.54,200.865 230.939,202.214 C 228.55,203.47 225.431,203.315 221.951,202.091 C 218.956,201.038 216.142,199.724 213.535,198.362 C 212.697,197.943 211.888,197.481 211.101,197.044 C 207.735,195.226 204.707,193.327 202.131,191.456 C 197.871,188.347 194.135,185.063 191.087,181.737 C 190.659,181.276 190.223,180.766 189.779,180.229 C 190.092,179.959 190.346,179.631 190.525,179.239 C 191.189,177.793 190.947,175.85 189.6,173.389 C 188.484,171.35 186.937,169.311 184.992,167.462 C 184.694,167.172 184.397,166.882 184.073,166.613 C 181.997,164.796 179.591,163.457 177.177,162.865 C 174.612,162.279 172.409,162.528 171.252,163.849 C 170.182,165.087 170.396,167.283 171.713,169.788 C 173.11,172.489 175.298,174.902 178.038,177.119 C 179.875,178.582 181.75,179.7 183.57,180.39 C 184.349,180.662 185.136,180.865 185.881,180.994 C 186.382,181.07 186.846,181.09 187.282,181.075 C 190.85,186.493 195.283,192.002 200.163,197.617 C 203.914,201.908 207.319,205.904 210.76,209.109 C 211.242,209.558 211.723,210.009 212.208,210.436 C 213.049,211.2 213.896,211.913 214.748,212.578 C 214.571,213.684 214.911,215.109 215.809,216.797 C 216.962,218.943 218.873,221.134 221.172,223.126 C 218.606,224.209 216.067,225.15 213.883,226.246 C 209.894,228.262 205.745,231.73 201.455,235.558 C 199.464,237.349 197.371,239.363 194.77,240.712 C 192.381,241.968 189.263,241.813 185.782,240.589 C 182.788,239.536 179.973,238.222 177.367,236.86 C 176.528,236.441 175.719,235.979 174.932,235.542 C 171.567,233.724 168.538,231.825 165.963,229.954 C 161.702,226.845 157.967,223.561 154.919,220.235 C 154.843,220.153 154.766,220.061 154.689,219.977 C 154.887,219.758 155.062,219.518 155.191,219.237 C 155.855,217.792 155.613,215.848 154.265,213.387 C 153.149,211.348 151.603,209.309 149.657,207.459 C 149.36,207.17 149.063,206.881 148.739,206.611 C 146.663,204.794 144.256,203.455 141.843,202.863 C 139.277,202.277 137.075,202.525 135.919,203.847 C 134.847,205.084 135.061,207.281 136.378,209.785 C 137.776,212.485 139.964,214.899 142.704,217.116 C 144.541,218.579 146.416,219.696 148.236,220.387 C 149.015,220.659 149.801,220.862 150.546,220.991 C 151.112,221.077 151.64,221.101 152.122,221.071 C 155.505,226.005 159.565,231.016 163.996,236.114 C 167.747,240.405 171.151,244.401 174.593,247.606 C 175.074,248.055 175.556,248.506 176.04,248.933 C 177.308,250.084 178.588,251.127 179.88,252.041 C 179.466,253.205 179.759,254.821 180.808,256.793 C 181.943,258.905 183.809,261.061 186.059,263.026 C 183.416,264.15 180.795,265.115 178.549,266.242 C 174.56,268.258 170.411,271.726 166.121,275.554 C 164.129,277.345 162.037,279.359 159.436,280.708 C 157.047,281.964 153.928,281.809 150.448,280.585 C 147.453,279.532 144.639,278.218 142.032,276.856 C 141.194,276.437 140.385,275.975 139.598,275.538 C 136.232,273.72 133.204,271.821 130.628,269.95 C 126.368,266.841 122.632,263.557 119.584,260.231 C 119.563,260.209 119.542,260.182 119.522,260.161 C 119.8,259.903 120.026,259.594 120.19,259.233 C 120.854,257.788 120.612,255.844 119.264,253.383 C 118.148,251.344 116.602,249.305 114.656,247.455 C 114.359,247.166 114.062,246.877 113.738,246.607 C 111.662,244.79 109.255,243.451 106.842,242.859 C 104.276,242.273 102.074,242.521 100.918,243.843 C 99.846,245.08 100.06,247.277 101.377,249.781 C 102.775,252.481 104.963,254.895 107.703,257.112 C 109.54,258.575 111.415,259.692 113.235,260.383 C 114.014,260.655 114.8,260.858 115.545,260.987 C 115.988,261.053 116.398,261.073 116.79,261.069 C 120.172,266.003 124.231,271.012 128.661,276.11 C 132.412,280.401 135.817,284.397 139.258,287.602 C 139.74,288.051 140.221,288.502 140.706,288.929 C 143.488,291.454 146.323,293.494 149.227,294.678 C 152.446,295.99 155.414,295.217 157.745,292.179 C 160.377,288.707 162.586,283.785 166.462,279.351 C 173.133,271.771 180.656,267.362 186.915,263.749 C 186.925,263.757 186.934,263.765 186.943,263.772 C 189.691,265.952 192.326,267.526 194.661,268.134 z"
   style="fill:#ffff00;stroke:#019069;stroke-width:5" />
				<path
   id="path2544"
   d="M 269.602,229.39 C 268.486,227.351 266.939,225.312 264.993,223.462 C 264.696,223.173 264.399,222.884 264.075,222.614 C 261.999,220.797 259.593,219.458 257.179,218.866 C 254.614,218.28 252.411,218.528 251.254,219.85 C 250.184,221.087 250.397,223.284 251.715,225.788 C 253.112,228.488 255.3,230.902 258.04,233.119 C 259.877,234.582 261.752,235.699 263.572,236.39 C 264.351,236.662 265.138,236.865 265.883,236.994 C 268.196,237.342 269.86,236.707 270.527,235.238 C 271.19,233.794 270.949,231.851 269.602,229.39 z"
   style="fill:#ffff00;stroke:#019069;stroke-width:5" />
				<path
   id="path2546"
   d="M 262.15,249.343 C 261.937,248.97 261.703,248.57 261.494,248.173 C 258.029,247.255 254.496,246.282 251.036,245.319 C 254.081,250.748 257.199,255.973 258.912,261.091 C 259.489,262.743 259.935,264.429 260.306,266.128 C 261.048,269.271 261.508,272.452 262.028,275.546 C 264.883,276.491 267.743,277.39 270.538,278.187 C 270.243,273.505 270.141,268.681 268.89,263.963 C 267.619,259.173 264.936,254.369 262.15,249.343 z"
   style="fill:#ffff00;stroke:#019069;stroke-width:5" />
				<path
   id="path2548"
   d="M 302.906,278.378 C 299.765,279.809 296.56,280.905 293.885,282.247 C 289.896,284.263 285.747,287.731 281.457,291.559 C 279.466,293.35 277.373,295.364 274.772,296.713 C 272.383,297.969 269.265,297.814 265.784,296.59 C 262.79,295.537 259.975,294.223 257.369,292.861 C 256.53,292.442 255.721,291.98 254.934,291.543 C 251.569,289.725 248.54,287.826 245.965,285.955 C 241.704,282.846 237.969,279.562 234.921,276.236 C 234.9,276.214 234.878,276.187 234.858,276.166 C 235.136,275.908 235.362,275.599 235.526,275.238 C 236.19,273.793 235.948,271.849 234.601,269.388 C 233.485,267.349 231.938,265.31 229.993,263.46 C 229.695,263.171 229.398,262.882 229.074,262.612 C 226.998,260.795 224.592,259.456 222.178,258.864 C 219.613,258.278 217.41,258.526 216.253,259.848 C 215.183,261.085 215.397,263.282 216.714,265.786 C 218.111,268.486 220.299,270.9 223.039,273.117 C 224.876,274.58 226.751,275.697 228.571,276.388 C 229.35,276.66 230.137,276.863 230.882,276.992 C 231.323,277.058 231.735,277.078 232.126,277.074 C 235.509,282.008 239.567,287.017 243.998,292.115 C 247.749,296.406 251.153,300.402 254.595,303.607 C 255.076,304.056 255.558,304.507 256.042,304.934 C 258.823,307.459 261.659,309.499 264.563,310.683 C 267.782,311.995 270.75,311.222 273.081,308.184 C 275.713,304.712 277.922,299.79 281.798,295.356 C 289.224,286.918 297.709,282.407 304.327,278.554 C 303.828,278.503 303.354,278.45 302.906,278.378 z"
   style="fill:#ffff00;stroke:#019069;stroke-width:5" />
				<path
   id="path2550"
   d="M 169.207,42.62 C 171.044,44.083 172.919,45.201 174.739,45.891 C 175.518,46.164 176.304,46.367 177.049,46.495 C 179.363,46.843 181.026,46.207 181.694,44.739 C 182.358,43.293 182.116,41.35 180.768,38.889 C 179.652,36.85 178.106,34.811 176.16,32.962 C 175.863,32.672 175.566,32.382 175.242,32.113 C 173.166,30.296 170.759,28.957 168.346,28.365 C 165.78,27.779 163.578,28.028 162.422,29.349 C 161.35,30.587 161.564,32.783 162.881,35.288 C 164.279,37.99 166.467,40.403 169.207,42.62 z"
   style="fill:#ffff00;stroke:#019069;stroke-width:5" />
				<path
   id="path2552"
   d="M 173.316,58.843 C 173.104,58.469 172.87,58.07 172.661,57.673 C 169.196,56.755 165.662,55.783 162.203,54.819 C 165.248,60.247 168.365,65.473 170.079,70.592 C 170.656,72.244 171.102,73.929 171.473,75.629 C 172.215,78.772 172.674,81.953 173.194,85.047 C 176.049,85.991 178.909,86.89 181.704,87.688 C 181.409,83.006 181.308,78.181 180.057,73.463 C 178.785,68.673 176.103,63.869 173.316,58.843 z"
   style="fill:#ffff00;stroke:#019069;stroke-width:5" />
				<path
   id="path2554"
   d="M 133.113,33.281 C 135.858,35.451 138.492,37.026 140.827,37.633 C 143.185,38.266 144.84,37.934 145.517,36.607 C 146.191,35.302 145.74,33.196 144.392,30.735 C 143.032,28.156 141.147,25.752 138.659,23.54 C 136.54,21.648 134.211,20.294 131.918,19.762 C 129.6,19.227 127.548,19.492 126.502,20.733 C 125.515,21.886 125.657,23.818 126.978,26.3 C 128.258,28.682 130.469,31.121 133.113,33.281 z"
   style="fill:#ffff00;stroke:#019069;stroke-width:5" />
				<path
   id="path2556"
   d="M 217.661,153.673 C 214.196,152.755 210.662,151.783 207.203,150.819 C 210.248,156.247 213.365,161.473 215.079,166.592 C 215.656,168.244 216.102,169.929 216.473,171.629 C 217.215,174.772 217.674,177.953 218.194,181.047 C 221.049,181.992 223.909,182.891 226.704,183.688 C 226.409,179.006 226.308,174.181 225.057,169.464 C 223.786,164.675 221.104,159.871 218.318,154.845 C 218.104,154.47 217.87,154.07 217.661,153.673 z"
   style="fill:#ffff00;stroke:#019069;stroke-width:5" />
				<path
   id="path2558"
   d="M 249.207,98.62 C 251.044,100.083 252.919,101.201 254.739,101.891 C 255.518,102.164 256.304,102.367 257.049,102.495 C 259.363,102.843 261.026,102.207 261.694,100.739 C 262.358,99.293 262.116,97.35 260.768,94.889 C 259.652,92.85 258.106,90.811 256.16,88.962 C 255.863,88.672 255.566,88.382 255.242,88.113 C 253.166,86.296 250.759,84.957 248.346,84.365 C 245.78,83.779 243.578,84.028 242.422,85.349 C 241.35,86.587 241.564,88.783 242.881,91.288 C 244.279,93.99 246.467,96.403 249.207,98.62 z"
   style="fill:#ffff00;stroke:#019069;stroke-width:5" />
				<path
   id="path2560"
   d="M 253.316,114.843 C 253.104,114.469 252.87,114.07 252.661,113.673 C 249.196,112.755 245.662,111.783 242.203,110.819 C 245.248,116.247 248.365,121.473 250.079,126.592 C 250.656,128.244 251.102,129.929 251.473,131.629 C 252.215,134.772 252.674,137.953 253.194,141.047 C 256.049,141.991 258.909,142.89 261.704,143.688 C 261.409,139.006 261.308,134.181 260.056,129.463 C 258.785,124.673 256.103,119.869 253.316,114.843 z"
   style="fill:#ffff00;stroke:#019069;stroke-width:5" />
				<path
   id="path2562"
   d="M 225.768,134.89 C 224.652,132.851 223.106,130.812 221.16,128.963 C 220.863,128.673 220.566,128.383 220.242,128.114 C 218.166,126.297 215.759,124.958 213.346,124.366 C 210.78,123.78 208.578,124.029 207.422,125.35 C 206.35,126.588 206.564,128.784 207.881,131.289 C 209.279,133.99 211.467,136.403 214.207,138.62 C 216.044,140.083 217.919,141.201 219.739,141.891 C 220.518,142.164 221.304,142.367 222.049,142.495 C 222.492,142.561 222.902,142.581 223.294,142.577 C 226.676,147.511 230.735,152.52 235.165,157.618 C 238.916,161.909 242.321,165.905 245.762,169.11 C 246.244,169.56 246.725,170.01 247.209,170.437 C 249.992,172.963 252.827,175.003 255.731,176.187 C 258.95,177.498 261.918,176.726 264.249,173.687 C 266.881,170.215 269.09,165.293 272.966,160.859 C 280.391,152.421 288.877,147.91 295.495,144.057 C 294.995,144.002 294.52,143.95 294.073,143.877 C 290.932,145.308 287.727,146.404 285.051,147.746 C 281.063,149.761 276.914,153.23 272.624,157.059 C 270.633,158.85 268.54,160.863 265.939,162.213 C 263.55,163.469 260.431,163.314 256.951,162.09 C 253.956,161.037 251.142,159.723 248.535,158.361 C 247.697,157.942 246.888,157.479 246.101,157.042 C 242.735,155.224 239.707,153.325 237.131,151.454 C 232.871,148.346 229.135,145.061 226.087,141.736 C 226.066,141.714 226.045,141.688 226.025,141.665 C 226.303,141.407 226.529,141.098 226.693,140.738 C 227.357,139.293 227.115,137.351 225.768,134.89 z"
   style="fill:#ffff00;stroke:#019069;stroke-width:5" />
				<path
   id="path2564"
   d="M 55.04,25.62 C 56.877,27.083 58.752,28.201 60.572,28.891 C 61.351,29.164 62.138,29.367 62.883,29.495 C 65.196,29.843 66.86,29.207 67.527,27.739 C 68.191,26.293 67.949,24.35 66.602,21.889 C 65.486,19.85 63.939,17.811 61.994,15.962 C 61.696,15.672 61.399,15.382 61.075,15.113 C 58.999,13.296 56.593,11.957 54.179,11.365 C 51.614,10.779 49.411,11.028 48.254,12.349 C 47.184,13.587 47.398,15.783 48.715,18.288 C 50.112,20.99 52.3,23.403 55.04,25.62 z"
   style="fill:#ffff00;stroke:#019069;stroke-width:5" />
				<path
   id="path2566"
   d="M 59.15,41.843 C 58.937,41.469 58.703,41.07 58.494,40.673 C 55.029,39.755 51.496,38.783 48.036,37.819 C 51.081,43.247 54.198,48.473 55.912,53.592 C 56.489,55.244 56.935,56.929 57.306,58.629 C 58.048,61.772 58.507,64.953 59.028,68.047 C 61.882,68.991 64.743,69.89 67.537,70.688 C 67.243,66.006 67.141,61.181 65.89,56.463 C 64.619,51.673 61.936,46.869 59.15,41.843 z"
   style="fill:#ffff00;stroke:#019069;stroke-width:5" />
				<path
   id="path2568"
   d="M 31.351,19.606 C 32.025,18.301 31.574,16.195 30.226,13.734 C 28.866,11.155 26.981,8.751 24.493,6.539 C 22.375,4.647 20.046,3.293 17.752,2.761 C 15.434,2.226 13.382,2.491 12.335,3.732 C 11.349,4.885 11.49,6.817 12.811,9.299 C 14.092,11.682 16.302,14.122 18.947,16.282 C 21.692,18.452 24.326,20.027 26.661,20.634 C 29.019,21.266 30.674,20.934 31.351,19.606 z"
   style="fill:#ffff00;stroke:#019069;stroke-width:5" />
				<path
   id="path2570"
   d="M 102.306,154.628 C 103.048,157.771 103.507,160.952 104.028,164.046 C 106.882,164.99 109.743,165.889 112.537,166.687 C 112.243,162.005 112.141,157.18 110.89,152.462 C 109.62,147.673 106.937,142.869 104.152,137.843 C 103.939,137.469 103.705,137.07 103.496,136.673 C 100.031,135.755 96.498,134.783 93.038,133.819 C 96.083,139.247 99.2,144.473 100.914,149.592 C 101.489,151.243 101.936,152.928 102.306,154.628 z"
   style="fill:#ffff00;stroke:#019069;stroke-width:5" />
				<path
   id="path2572"
   d="M 22.979,58.992 C 26.819,67.312 33.368,75.836 41,84.618 C 44.751,88.909 48.155,92.905 51.597,96.11 C 52.078,96.56 52.56,97.01 53.044,97.437 C 54.312,98.589 55.592,99.632 56.884,100.546 C 56.47,101.709 56.763,103.326 57.812,105.298 C 59.093,107.681 61.303,110.121 63.949,112.281 C 66.693,114.451 69.328,116.026 71.663,116.633 C 74.02,117.266 75.676,116.934 76.352,115.607 C 77.027,114.302 76.575,112.196 75.227,109.735 C 73.867,107.156 71.982,104.752 69.494,102.54 C 69.285,102.353 69.071,102.175 68.858,101.999 C 69.281,101.617 69.695,101.196 70.084,100.688 C 72.716,97.216 74.925,92.294 78.801,87.86 C 85.404,80.358 92.842,75.961 99.063,72.369 C 101.767,74.493 104.361,76.035 106.664,76.633 C 109.021,77.266 110.677,76.934 111.353,75.607 C 112.028,74.302 111.576,72.196 110.228,69.735 C 108.868,67.156 106.983,64.752 104.495,62.54 C 102.377,60.648 100.048,59.294 97.755,58.762 C 95.437,58.227 93.385,58.492 92.338,59.733 C 91.352,60.886 91.493,62.818 92.814,65.3 C 93.967,67.446 95.878,69.636 98.177,71.629 C 95.611,72.712 93.072,73.653 90.888,74.749 C 86.899,76.764 82.75,80.233 78.46,84.062 C 76.469,85.853 74.376,87.866 71.775,89.216 C 69.386,90.472 66.268,90.317 62.787,89.093 C 59.793,88.04 56.978,86.726 54.372,85.364 C 53.533,84.945 52.724,84.482 51.937,84.045 C 48.572,82.227 45.543,80.328 42.968,78.457 C 38.707,75.349 34.972,72.064 31.924,68.739 C 29.821,66.475 27.617,63.289 24.42,59.246 C 23.925,59.12 23.428,59.042 22.979,58.992 z"
   style="fill:#ffff00;stroke:#019069;stroke-width:5" />
				<path
   id="path2574"
   d="M 137.306,114.628 C 138.048,117.771 138.507,120.952 139.028,124.046 C 141.882,124.99 144.743,125.889 147.537,126.687 C 147.243,122.005 147.141,117.18 145.89,112.462 C 144.62,107.673 141.937,102.869 139.152,97.843 C 138.939,97.469 138.705,97.07 138.496,96.673 C 135.031,95.755 131.498,94.783 128.038,93.819 C 131.083,99.247 134.2,104.473 135.914,109.592 C 136.489,111.243 136.936,112.928 137.306,114.628 z"
   style="fill:#ffff00;stroke:#019069;stroke-width:5" />
			</g>
		</g></svg>