<?xml version="1.0" encoding="UTF-8" standalone="no"?>
<!-- Generator: Adobe Illustrator 10, SVG Export Plug-In . SVG Version: 3.0.0 Build 76)  -->
<svg
   xmlns:dc="http://purl.org/dc/elements/1.1/"
   xmlns:cc="http://creativecommons.org/ns#"
   xmlns:rdf="http://www.w3.org/1999/02/22-rdf-syntax-ns#"
   xmlns:svg="http://www.w3.org/2000/svg"
   xmlns="http://www.w3.org/2000/svg"
   xmlns:sodipodi="http://sodipodi.sourceforge.net/DTD/sodipodi-0.dtd"
   xmlns:inkscape="http://www.inkscape.org/namespaces/inkscape"
   width="242.67056"
   height="152.89313"
   viewBox="0 0 468.311 232.773"
   style="overflow:visible"
   xml:space="preserve"
   id="svg2583"
   sodipodi:version="0.32"
   inkscape:version="0.46"
   sodipodi:docname="HappyApart.svg"
   inkscape:output_extension="org.inkscape.output.svg.inkscape"
   version="1.0"><metadata
   id="metadata2645"><rdf:RDF><cc:Work
       rdf:about=""><dc:format>image/svg+xml</dc:format><dc:type
         rdf:resource="http://purl.org/dc/dcmitype/StillImage" /></cc:Work></rdf:RDF></metadata><defs
   id="defs2643"><inkscape:perspective
   sodipodi:type="inkscape:persp3d"
   inkscape:vp_x="0 : 116.3865 : 1"
   inkscape:vp_y="0 : 1000 : 0"
   inkscape:vp_z="468.311 : 116.3865 : 1"
   inkscape:persp3d-origin="234.1555 : 77.590998 : 1"
   id="perspective2647" />
		
		
	</defs><sodipodi:namedview
   inkscape:window-height="670"
   inkscape:window-width="640"
   inkscape:pageshadow="2"
   inkscape:pageopacity="0.0"
   guidetolerance="10.0"
   gridtolerance="10.0"
   objecttolerance="10.0"
   borderopacity="1.0"
   bordercolor="#666666"
   pagecolor="#ffffff"
   id="base"
   showgrid="false"
   inkscape:zoom="1.1616212"
   inkscape:cx="234.1555"
   inkscape:cy="116.3865"
   inkscape:window-x="155"
   inkscape:window-y="70"
   inkscape:current-layer="svg2583" />
	<style
   type="text/css"
   id="style2585">
	
		@font-face{font-family:'Times-Roman';src:url(265979B4.cef)}
	
	</style>
	
<g
   transform="matrix(1.929822,0,0,1.929822,-15.415418,-31.139582)"
   style="overflow:visible"
   id="g2604">
			<path
   id="path2606"
   d="M 200.275,61.545 C 191.32,59.011 182.806,57.924 174.728,58.284 C 167.134,58.576 159.76,59.904 152.605,62.271 C 149.802,63.198 147.04,64.302 144.312,65.573 C 145.695,62.211 146.89,58.718 147.878,55.079 C 151.058,43.323 151.934,32.582 150.506,22.855 L 147.08,22.81 C 147.749,36.817 143.88,49.821 135.473,61.815 C 129.538,70.337 120.38,79.346 107.999,88.837 C 92.682,100.58 78.282,107.304 64.796,109.012 C 57.185,109.983 48.306,109.082 38.165,106.309 L 36.972,109.176 C 40.175,110.76 44.769,112.241 50.752,113.614 C 59.822,115.703 68.378,116.368 76.429,115.61 C 83.999,114.943 91.299,113.252 98.328,110.534 C 99.835,109.952 101.325,109.308 102.804,108.624 C 101.919,110.762 101.11,112.956 100.376,115.211 C 96.62,126.796 95.215,137.48 96.159,147.265 L 99.579,147.48 C 99.602,133.457 104.109,120.66 113.099,109.095 C 119.448,100.877 129.039,92.331 141.874,83.463 C 157.752,72.491 172.467,66.486 186.021,65.446 C 193.67,64.852 202.493,66.19 212.485,69.461 L 213.818,66.656 C 210.699,64.917 206.185,63.211 200.275,61.545 z"
   style="fill:#06002e;stroke:#031d3b;stroke-width:6" />
			<path
   id="path2608"
   d="M 193.275,54.545 C 184.319,52.011 175.806,50.924 167.728,51.284 C 160.134,51.576 152.76,52.904 145.605,55.271 C 142.802,56.198 140.04,57.303 137.312,58.573 C 138.695,55.211 139.89,51.718 140.878,48.079 C 144.059,36.323 144.934,25.582 143.506,15.855 L 140.08,15.81 C 140.749,29.817 136.88,42.821 128.473,54.815 C 122.538,63.337 113.38,72.346 100.999,81.837 C 85.682,93.58 71.282,100.304 57.796,102.012 C 50.185,102.983 41.307,102.082 31.165,99.309 L 29.973,102.176 C 33.175,103.76 37.769,105.241 43.752,106.614 C 52.822,108.703 61.379,109.368 69.429,108.61 C 77,107.943 84.299,106.252 91.328,103.534 C 92.835,102.952 94.325,102.308 95.804,101.624 C 94.92,103.762 94.11,105.956 93.376,108.211 C 89.62,119.796 88.215,130.48 89.159,140.266 L 92.579,140.48 C 92.602,126.457 97.109,113.66 106.099,102.095 C 112.448,93.877 122.039,85.331 134.874,76.463 C 150.752,65.491 165.467,59.486 179.021,58.446 C 186.67,57.853 195.493,59.19 205.485,62.461 L 206.818,59.656 C 203.699,57.917 199.185,56.211 193.275,54.545 z"
   style="fill:#983d72;stroke:#6a7bb5;stroke-width:5" />
			<path
   id="path2610"
   d="M 177.625,97.705 C 176.504,96.574 174.602,96.119 171.823,96.516 C 169.522,96.845 167.07,97.577 164.654,98.748 C 164.279,98.924 163.904,99.101 163.537,99.31 C 161.106,100.616 159.008,102.398 157.605,104.45 C 156.156,106.645 155.615,108.795 156.446,110.343 C 157.228,111.781 159.36,112.352 162.168,111.998 C 165.188,111.638 168.215,110.437 171.254,108.651 C 173.27,107.446 174.974,106.083 176.261,104.621 C 176.789,103.987 177.256,103.322 177.638,102.67 C 178.776,100.625 178.766,98.846 177.625,97.705 z"
   style="fill:#212f36;stroke:#0d1528;stroke-width:5" />
			<path
   id="path2612"
   d="M 217.838,112.784 C 213.351,111.415 208.798,109.815 203.942,109.33 C 199.012,108.836 193.571,109.66 187.887,110.502 C 187.463,110.569 187.006,110.648 186.561,110.705 C 184.485,113.626 182.332,116.594 180.214,119.493 C 186.365,118.55 192.354,117.467 197.748,117.661 C 199.498,117.701 201.232,117.875 202.953,118.126 C 206.156,118.535 209.297,119.223 212.376,119.822 C 214.264,117.482 216.109,115.12 217.838,112.784 z"
   style="fill:#212f36;stroke:#0d1528;stroke-width:5" />
			<path
   id="path2614"
   d="M 246.82,120.941 C 244.494,117.256 240.662,113.459 237.873,108.273 C 232.582,98.357 231.339,88.826 230.057,81.277 C 229.83,81.725 229.615,82.151 229.39,82.545 C 229.626,85.988 229.527,89.375 229.842,92.352 C 230.327,96.793 232.118,101.897 234.196,107.258 C 235.174,109.752 236.323,112.418 236.673,115.327 C 237.011,118.006 235.77,120.87 233.401,123.699 C 231.363,126.133 229.144,128.306 226.954,130.267 C 226.266,130.906 225.55,131.501 224.864,132.083 C 221.979,134.595 219.138,136.763 216.48,138.517 C 212.074,141.414 207.686,143.758 203.501,145.443 C 200.642,146.617 196.885,147.561 191.977,149.134 C 191.688,149.55 191.441,149.988 191.236,150.392 C 200.375,149.72 210.655,146.583 221.559,142.524 C 226.895,140.519 231.831,138.736 236.041,136.64 C 236.632,136.347 237.222,136.055 237.792,135.751 C 241.134,134.034 244.041,132.097 246.169,129.793 C 248.527,127.241 248.846,124.191 246.82,120.941 z"
   style="fill:#212f36;stroke:#0d1528;stroke-width:5" />
			<path
   id="path2616"
   d="M 157.301,128.717 C 156.316,127.627 154.186,127.311 151.408,127.707 C 148.514,128.074 145.602,128.995 142.656,130.547 C 140.141,131.865 138.055,133.57 136.752,135.531 C 135.436,137.512 134.964,139.527 135.757,140.943 C 136.49,142.271 138.349,142.817 141.136,142.453 C 143.818,142.092 146.878,140.879 149.83,139.162 C 152.826,137.353 155.226,135.441 156.614,133.469 C 158.035,131.482 158.306,129.816 157.301,128.717 z"
   style="fill:#212f36;stroke:#0d1528;stroke-width:5" />
			<path
   id="path2618"
   d="M 67.529,15.903 C 67.711,14.322 68.925,12.787 71.355,11.382 C 73.367,10.218 75.747,9.278 78.37,8.706 C 78.773,8.613 79.178,8.519 79.596,8.457 C 82.313,7.981 85.065,8.085 87.436,8.831 C 89.932,9.662 91.686,11.017 91.989,12.747 C 92.262,14.36 90.94,16.127 88.514,17.585 C 85.918,19.168 82.795,20.096 79.303,20.57 C 76.973,20.868 74.79,20.85 72.876,20.496 C 72.068,20.325 71.29,20.09 70.588,19.814 C 68.43,18.911 67.338,17.505 67.529,15.903 z"
   style="fill:#212f36;stroke:#0d1528;stroke-width:5" />
			<path
   id="path2620"
   d="M 45.236,52.612 C 47.918,48.762 50.508,44.691 54.026,41.307 C 57.595,37.871 62.382,35.157 67.372,32.306 C 67.747,32.096 68.154,31.876 68.54,31.645 C 71.978,32.658 75.503,33.66 78.961,34.631 C 73.541,37.692 68.165,40.542 64.044,44.028 C 62.693,45.141 61.438,46.349 60.239,47.61 C 57.974,49.912 55.931,52.393 53.881,54.769 C 50.95,54.096 48.04,53.38 45.236,52.612 z"
   style="fill:#212f36;stroke:#0d1528;stroke-width:5" />
			<path
   id="path2622"
   d="M 27.495,76.938 C 27.047,72.604 27.711,67.25 26.699,61.449 C 24.729,50.384 19.815,42.123 16.157,35.396 C 16.613,35.608 17.046,35.81 17.466,35.98 C 19.408,38.833 21.58,41.433 23.171,43.968 C 25.535,47.761 27.281,52.88 28.963,58.377 C 29.735,60.941 30.481,63.748 32.003,66.252 C 33.394,68.565 36.14,70.05 39.75,70.811 C 42.856,71.464 45.944,71.802 48.879,71.99 C 49.814,72.067 50.745,72.091 51.644,72.126 C 55.465,72.317 59.039,72.266 62.211,72.002 C 67.467,71.556 72.363,70.686 76.694,69.424 C 79.667,68.58 83.204,67 88.035,65.202 C 88.519,65.351 88.985,65.542 89.395,65.734 C 81.796,70.854 71.776,74.743 60.694,78.291 C 55.261,80.013 50.277,81.662 45.673,82.617 C 45.027,82.752 44.382,82.887 43.747,83 C 40.059,83.716 36.576,83.989 33.478,83.494 C 30.048,82.945 27.911,80.745 27.495,76.938 z"
   style="fill:#212f36;stroke:#0d1528;stroke-width:5" />
			<path
   id="path2624"
   d="M 102.674,27.72 C 102.775,26.255 104.253,24.689 106.682,23.284 C 109.184,21.784 112.042,20.708 115.317,20.107 C 118.11,19.589 120.803,19.64 123.041,20.375 C 125.3,21.121 126.916,22.412 127.167,24.015 C 127.412,25.513 126.288,27.091 123.872,28.527 C 121.541,29.901 118.386,30.839 115.004,31.313 C 111.53,31.744 108.462,31.724 106.151,31.031 C 103.806,30.349 102.564,29.206 102.674,27.72 z"
   style="fill:#212f36;stroke:#0d1528;stroke-width:5" />
			<path
   id="path2626"
   d="M 171.955,92.035 C 170.835,90.906 168.932,90.449 166.154,90.847 C 163.852,91.176 161.401,91.907 158.985,93.079 C 158.61,93.255 158.234,93.432 157.868,93.641 C 155.437,94.946 153.339,96.729 151.935,98.78 C 150.486,100.976 149.945,103.126 150.777,104.673 C 151.559,106.111 153.69,106.683 156.498,106.328 C 159.519,105.969 162.546,104.768 165.585,102.981 C 167.6,101.776 169.305,100.413 170.591,98.952 C 171.12,98.317 171.586,97.653 171.969,97.001 C 173.106,94.956 173.096,93.176 171.955,92.035 z"
   style="fill:#86bcd9;stroke:#36539f;stroke-width:5" />
			<path
   id="path2628"
   d="M 212.169,107.114 C 207.682,105.746 203.129,104.146 198.273,103.66 C 193.342,103.166 187.902,103.991 182.217,104.834 C 181.793,104.9 181.336,104.98 180.892,105.035 C 178.815,107.957 176.663,110.924 174.545,113.824 C 180.696,112.881 186.685,111.797 192.078,111.992 C 193.828,112.032 195.562,112.205 197.283,112.457 C 200.486,112.865 203.627,113.553 206.707,114.154 C 208.594,111.812 210.439,109.451 212.169,107.114 z"
   style="fill:#86bcd9;stroke:#36539f;stroke-width:5" />
			<path
   id="path2630"
   d="M 241.151,115.271 C 238.824,111.587 234.994,107.79 232.203,102.603 C 226.912,92.687 225.67,83.157 224.388,75.607 C 224.161,76.056 223.946,76.482 223.721,76.875 C 223.956,80.318 223.857,83.705 224.173,86.681 C 224.658,91.124 226.449,96.227 228.527,101.587 C 229.504,104.081 230.653,106.748 231.004,109.657 C 231.341,112.335 230.1,115.2 227.732,118.029 C 225.694,120.463 223.474,122.635 221.285,124.598 C 220.597,125.236 219.88,125.83 219.195,126.413 C 216.31,128.925 213.468,131.093 210.811,132.847 C 206.404,135.744 202.016,138.087 197.832,139.773 C 194.974,140.947 191.216,141.891 186.308,143.463 C 186.019,143.88 185.771,144.318 185.567,144.722 C 194.705,144.049 204.986,140.913 215.89,136.854 C 221.225,134.849 226.161,133.065 230.372,130.97 C 230.962,130.677 231.553,130.385 232.122,130.081 C 235.465,128.363 238.371,126.426 240.499,124.123 C 242.857,121.572 243.177,118.521 241.151,115.271 z"
   style="fill:#86bcd9;stroke:#36539f;stroke-width:5" />
			<path
   id="path2632"
   d="M 151.631,123.047 C 150.647,121.957 148.517,121.641 145.739,122.038 C 142.845,122.404 139.933,123.326 136.988,124.877 C 134.472,126.196 132.385,127.901 131.082,129.861 C 129.767,131.843 129.294,133.857 130.088,135.273 C 130.82,136.601 132.68,137.148 135.467,136.783 C 138.149,136.422 141.209,135.21 144.16,133.492 C 147.156,131.684 149.556,129.771 150.945,127.799 C 152.366,125.814 152.636,124.147 151.631,123.047 z"
   style="fill:#86bcd9;stroke:#36539f;stroke-width:5" />
			<path
   id="path2634"
   d="M 61.86,10.234 C 62.042,8.653 63.256,7.118 65.685,5.713 C 67.698,4.549 70.077,3.609 72.701,3.037 C 73.104,2.943 73.509,2.85 73.926,2.788 C 76.644,2.312 79.396,2.415 81.766,3.162 C 84.262,3.993 86.016,5.348 86.319,7.078 C 86.593,8.692 85.27,10.458 82.844,11.916 C 80.248,13.499 77.126,14.427 73.633,14.901 C 71.304,15.199 69.121,15.181 67.206,14.827 C 66.398,14.656 65.621,14.421 64.918,14.145 C 62.76,13.241 61.668,11.836 61.86,10.234 z"
   style="fill:#86bcd9;stroke:#36539f;stroke-width:5" />
			<path
   id="path2636"
   d="M 39.567,46.943 C 42.249,43.093 44.839,39.022 48.356,35.639 C 51.926,32.203 56.713,29.489 61.702,26.638 C 62.077,26.429 62.485,26.208 62.87,25.977 C 66.308,26.99 69.834,27.993 73.291,28.963 C 67.872,32.024 62.496,34.873 58.375,38.36 C 57.024,39.473 55.769,40.681 54.57,41.943 C 52.305,44.244 50.261,46.725 48.212,49.101 C 45.281,48.427 42.371,47.711 39.567,46.943 z"
   style="fill:#86bcd9;stroke:#36539f;stroke-width:5" />
			<path
   id="path2638"
   d="M 21.826,71.269 C 21.377,66.935 22.042,61.581 21.029,55.78 C 19.06,44.715 14.146,36.454 10.488,29.727 C 10.943,29.939 11.377,30.141 11.797,30.311 C 13.739,33.164 15.91,35.764 17.502,38.3 C 19.866,42.092 21.612,47.211 23.293,52.709 C 24.066,55.273 24.811,58.08 26.334,60.584 C 27.724,62.897 30.471,64.382 34.081,65.142 C 37.187,65.795 40.275,66.133 43.21,66.321 C 44.145,66.398 45.076,66.422 45.975,66.457 C 49.795,66.649 53.37,66.597 56.541,66.333 C 61.797,65.887 66.694,65.017 71.025,63.756 C 73.998,62.912 77.535,61.331 82.365,59.534 C 82.851,59.683 83.316,59.875 83.726,60.066 C 76.126,65.186 66.106,69.074 55.025,72.623 C 49.591,74.345 44.609,75.994 40.004,76.949 C 39.359,77.084 38.714,77.219 38.078,77.333 C 34.39,78.049 30.907,78.322 27.81,77.826 C 24.378,77.275 22.242,75.076 21.826,71.269 z"
   style="fill:#86bcd9;stroke:#36539f;stroke-width:5" />
			<path
   id="path2640"
   d="M 97.005,22.051 C 97.106,20.586 98.584,19.02 101.013,17.615 C 103.515,16.115 106.373,15.039 109.648,14.438 C 112.44,13.92 115.134,13.971 117.371,14.706 C 119.63,15.452 121.247,16.743 121.498,18.346 C 121.743,19.844 120.62,21.422 118.203,22.858 C 115.872,24.231 112.717,25.17 109.335,25.644 C 105.861,26.075 102.793,26.055 100.482,25.362 C 98.137,24.68 96.895,23.537 97.005,22.051 z"
   style="fill:#86bcd9;stroke:#36539f;stroke-width:5" />
		</g></svg>