<?xml version="1.0" encoding="UTF-8" standalone="no"?>
<!-- Generator: Adobe Illustrator 10, SVG Export Plug-In . SVG Version: 3.0.0 Build 76)  -->
<svg
   xmlns:dc="http://purl.org/dc/elements/1.1/"
   xmlns:cc="http://creativecommons.org/ns#"
   xmlns:rdf="http://www.w3.org/1999/02/22-rdf-syntax-ns#"
   xmlns:svg="http://www.w3.org/2000/svg"
   xmlns="http://www.w3.org/2000/svg"
   xmlns:sodipodi="http://sodipodi.sourceforge.net/DTD/sodipodi-0.dtd"
   xmlns:inkscape="http://www.inkscape.org/namespaces/inkscape"
   width="308.22424"
   height="273.45132"
   viewBox="0 0 468.311 347.894"
   style="overflow:visible"
   xml:space="preserve"
   id="svg2649"
   sodipodi:version="0.32"
   inkscape:version="0.46"
   sodipodi:docname="Incident.svg"
   inkscape:output_extension="org.inkscape.output.svg.inkscape"
   version="1.0"><metadata
   id="metadata2725"><rdf:RDF><cc:Work
       rdf:about=""><dc:format>image/svg+xml</dc:format><dc:type
         rdf:resource="http://purl.org/dc/dcmitype/StillImage" /></cc:Work></rdf:RDF></metadata><defs
   id="defs2723"><inkscape:perspective
   sodipodi:type="inkscape:persp3d"
   inkscape:vp_x="0 : 173.94701 : 1"
   inkscape:vp_y="0 : 1000 : 0"
   inkscape:vp_z="468.311 : 173.94701 : 1"
   inkscape:persp3d-origin="234.1555 : 115.96467 : 1"
   id="perspective2727" />
		
		
	</defs><sodipodi:namedview
   inkscape:window-height="670"
   inkscape:window-width="640"
   inkscape:pageshadow="2"
   inkscape:pageopacity="0.0"
   guidetolerance="10.0"
   gridtolerance="10.0"
   objecttolerance="10.0"
   borderopacity="1.0"
   bordercolor="#666666"
   pagecolor="#ffffff"
   id="base"
   showgrid="false"
   inkscape:zoom="1.1616212"
   inkscape:cx="234.1555"
   inkscape:cy="173.94701"
   inkscape:window-x="0"
   inkscape:window-y="0"
   inkscape:current-layer="svg2649" />
	<style
   type="text/css"
   id="style2651">
	
		@font-face{font-family:'Times-Roman';src:url(CE776CEE.cef)}
	
	</style>
	
<g
   transform="matrix(1.5193841,0,0,1.5193841,-10.539558,-27.341929)"
   style="overflow:visible"
   id="g2670">
			<path
   id="path2672"
   d="M 39.955,79.1 C 43.35,79.508 50.228,78.256 61.906,77.39 C 69.11,76.862 77.494,77.637 86.007,79.274 C 86.144,79.296 86.276,79.329 86.413,79.351 C 95.142,81.11 103.837,85.023 112.812,90.879 C 113.349,90.38 113.665,89.741 113.77,89.025 C 107.815,84.264 99.98,78.428 89.649,73.62 C 89.564,73.586 89.496,73.548 89.41,73.513 C 82.674,70.402 75.684,68.324 69.04,66.136 C 57.371,62.316 49.287,59.869 44.819,58.814 C 40.672,57.856 37.267,57.969 34.493,58.77 C 31.379,59.696 29.094,61.354 29.304,64.698 C 29.495,68.073 31.13,71.598 33.049,74.62 C 34.638,77.108 36.887,78.724 39.955,79.1 z"
   style="fill:#403b0a;stroke:#000000;stroke-width:5" />
			<path
   id="path2674"
   d="M 131.16,99.08 C 128.296,96.3 126.977,95.293 126.459,95.733 C 125.709,96.319 127.728,99.19 125.578,101.326 C 122.564,104.275 113.093,100.782 108.033,102.715 C 105.168,103.81 107.221,107.973 109.516,110.168 C 111.743,112.326 114.851,113.001 120.691,114.624 C 131.645,117.666 144.866,123.857 149.517,121.377 C 149.65,121.3 149.772,121.216 149.854,121.124 L 149.99,120.91 C 150.895,119.096 146.095,114.198 142.249,110.213 C 137.856,105.657 133.985,101.769 131.16,99.08 z"
   style="fill:#403b0a;stroke:#000000;stroke-width:5" />
			<path
   id="path2676"
   d="M 68.457,150.913 C 75.873,145.985 84.788,142.603 95.276,140.398 C 95.302,139.665 95.074,138.99 94.641,138.41 C 87.064,139.255 77.398,140.669 66.692,144.573 C 66.607,144.609 66.532,144.631 66.447,144.666 C 59.484,147.229 53.072,150.703 46.827,153.854 C 35.874,159.404 28.428,163.391 24.523,165.803 C 20.912,168.059 18.585,170.545 17.19,173.074 C 15.643,175.931 15.2,178.72 17.712,180.935 C 20.234,183.186 23.882,184.523 27.376,185.302 C 30.261,185.938 32.993,185.49 35.429,183.587 C 38.117,181.475 42.096,175.727 49.741,166.856 C 54.461,161.389 60.939,156.008 68.115,151.146 C 68.228,151.064 68.344,150.994 68.457,150.913 z"
   style="fill:#403b0a;stroke:#000000;stroke-width:5" />
			<path
   id="path2678"
   d="M 142.795,136.009 C 142.835,135.861 142.862,135.715 142.855,135.592 L 142.8,135.345 C 142.156,133.422 135.3,133.353 129.762,133.254 C 123.434,133.139 117.948,133.127 114.048,133.223 C 110.057,133.283 108.412,133.503 108.358,134.181 C 108.242,135.127 111.699,135.728 111.69,138.759 C 111.645,142.975 102.477,147.202 100.265,152.147 C 99.014,154.948 103.409,156.44 106.584,156.369 C 109.685,156.32 112.36,154.599 117.637,151.617 C 127.534,146.022 141.261,141.053 142.795,136.009 z"
   style="fill:#403b0a;stroke:#000000;stroke-width:5" />
			<path
   id="path2680"
   d="M 120.38,182.227 C 115.62,188.182 109.784,196.016 104.975,206.348 C 104.94,206.433 104.902,206.501 104.868,206.587 C 101.757,213.323 99.678,220.313 97.491,226.957 C 93.671,238.625 91.223,246.711 90.168,251.178 C 89.21,255.326 89.323,258.73 90.124,261.503 C 91.05,264.618 92.709,266.902 96.052,266.693 C 99.427,266.502 102.952,264.867 105.973,262.948 C 108.462,261.357 110.078,259.11 110.454,256.041 C 110.862,252.647 109.61,245.769 108.744,234.09 C 108.216,226.887 108.992,218.502 110.628,209.989 C 110.65,209.852 110.683,209.72 110.705,209.583 C 112.464,200.855 116.377,192.16 122.234,183.184 C 121.734,182.647 121.096,182.332 120.38,182.227 z"
   style="fill:#403b0a;stroke:#000000;stroke-width:5" />
			<path
   id="path2682"
   d="M 152.479,146.142 L 152.265,146.006 C 150.451,145.102 145.553,149.901 141.568,153.747 C 137.011,158.14 133.123,162.011 130.434,164.836 C 127.654,167.7 126.647,169.019 127.088,169.537 C 127.674,170.288 130.545,168.268 132.681,170.419 C 135.63,173.432 132.137,182.903 134.069,187.964 C 135.164,190.829 139.327,188.776 141.523,186.481 C 143.68,184.253 144.356,181.145 145.979,175.306 C 149.022,164.352 155.213,151.131 152.732,146.479 C 152.655,146.346 152.571,146.224 152.479,146.142 z"
   style="fill:#403b0a;stroke:#000000;stroke-width:5" />
			<path
   id="path2684"
   d="M 185.52,73.1 C 190.18,63.449 195.604,55.607 202.17,49.593 C 202.275,49.503 202.371,49.407 202.478,49.317 C 208.922,43.519 215.701,38.524 222.141,35.256 C 232.589,29.965 239.125,27.485 241.821,25.382 C 244.255,23.475 245.345,20.93 245.421,17.978 C 245.505,14.399 245.083,10.537 243.504,7.548 C 241.956,4.577 239.144,4.336 235.997,5.152 C 233.209,5.899 230.235,7.561 227.179,10.524 C 223.9,13.735 218.241,20.005 210.222,29.303 C 205.662,34.608 200.75,39.998 196.589,46.142 C 196.534,46.215 196.495,46.284 196.441,46.357 C 190.078,55.812 186.383,64.855 183.744,72.007 C 184.201,72.565 184.801,72.949 185.52,73.1 z"
   style="fill:#403b0a;stroke:#000000;stroke-width:5" />
			<path
   id="path2686"
   d="M 191.037,97.501 C 195.199,93.096 197.512,90.911 198.305,87.914 C 199.137,84.849 198.744,80.223 195.725,80.766 C 190.395,81.725 184.088,89.608 179.985,88.639 C 177.042,87.92 177.288,84.419 176.341,84.306 C 175.67,84.196 175.061,85.74 174.044,89.599 C 173.014,93.362 171.707,98.69 170.299,104.861 C 169.065,110.259 167.485,116.932 169.195,118.018 L 169.422,118.131 C 169.54,118.168 169.688,118.176 169.842,118.173 C 175.106,117.895 183.229,105.765 191.037,97.501 z"
   style="fill:#403b0a;stroke:#000000;stroke-width:5" />
			<path
   id="path2688"
   d="M 308.769,95.321 C 306.268,93.878 302.991,92.95 298.735,92.883 C 294.145,92.834 285.71,93.267 273.464,94.172 C 266.488,94.698 259.204,95.036 251.918,96.439 C 251.826,96.452 251.751,96.473 251.66,96.486 C 240.475,98.673 231.469,102.455 224.544,105.644 C 224.475,106.365 224.627,107.061 225.027,107.674 C 235.148,104.145 244.528,102.436 253.423,102.826 C 253.562,102.837 253.697,102.837 253.835,102.847 C 262.491,103.304 270.817,104.566 277.684,106.809 C 288.812,110.455 295.188,113.323 298.58,113.743 C 301.649,114.115 304.22,113.087 306.362,111.053 C 308.95,108.581 311.383,105.552 312.38,102.323 C 313.388,99.128 311.568,96.97 308.769,95.321 z"
   style="fill:#403b0a;stroke:#000000;stroke-width:5" />
			<path
   id="path2690"
   d="M 223.594,127.19 C 226.35,125.611 229.343,122.062 226.824,120.311 C 222.377,117.22 212.344,118.335 210.127,114.749 C 208.553,112.159 211.203,109.857 210.615,109.108 C 210.217,108.555 208.695,109.216 205.248,111.227 C 201.858,113.158 197.167,116.002 191.809,119.37 C 187.118,122.315 181.282,125.915 181.725,127.894 L 181.805,128.134 C 181.862,128.243 181.96,128.353 182.071,128.46 C 185.991,131.985 200.311,129.151 211.676,128.83 C 217.734,128.658 220.914,128.75 223.594,127.19 z"
   style="fill:#403b0a;stroke:#000000;stroke-width:5" />
			<path
   id="path2692"
   d="M 265.262,182.429 C 259.957,177.869 254.568,172.957 248.424,168.797 C 248.351,168.74 248.282,168.702 248.209,168.648 C 238.754,162.285 229.711,158.59 222.559,155.95 C 222,156.41 221.617,157.011 221.465,157.728 C 231.117,162.387 238.959,167.812 244.973,174.378 C 245.063,174.483 245.159,174.579 245.248,174.686 C 251.047,181.129 256.042,187.909 259.31,194.349 C 264.6,204.797 267.081,211.333 269.183,214.029 C 271.09,216.463 273.635,217.553 276.588,217.629 C 280.166,217.712 284.028,217.291 287.018,215.712 C 289.989,214.164 290.229,211.352 289.414,208.205 C 288.667,205.417 287.006,202.444 284.043,199.387 C 280.832,196.106 274.561,190.447 265.262,182.429 z"
   style="fill:#403b0a;stroke:#000000;stroke-width:5" />
			<path
   id="path2694"
   d="M 204.967,146.252 C 201.205,145.221 195.876,143.915 189.705,142.507 C 184.307,141.273 177.635,139.692 176.548,141.403 L 176.435,141.631 C 176.399,141.748 176.39,141.896 176.393,142.049 C 176.67,147.315 188.801,155.437 197.065,163.244 C 201.47,167.407 203.655,169.72 206.652,170.513 C 209.717,171.345 214.343,170.952 213.801,167.933 C 212.841,162.602 204.957,156.296 205.927,152.192 C 206.645,149.249 210.147,149.495 210.261,148.549 C 210.37,147.877 208.826,147.269 204.967,146.252 z"
   style="fill:#403b0a;stroke:#000000;stroke-width:5" />
			<g
   id="g2696">
				<path
   id="path2698"
   d="M 33.462,72.607 C 36.857,73.015 43.735,71.764 55.414,70.897 C 62.618,70.369 71.002,71.144 79.515,72.782 C 79.652,72.803 79.784,72.837 79.921,72.859 C 88.65,74.618 97.345,78.531 106.32,84.387 C 106.857,83.887 107.173,83.248 107.277,82.533 C 101.322,77.773 93.487,71.937 83.156,67.128 C 83.071,67.094 83.002,67.056 82.917,67.021 C 76.181,63.911 69.19,61.832 62.546,59.645 C 50.878,55.824 42.793,53.377 38.325,52.322 C 34.178,51.365 30.774,51.477 28,52.278 C 24.885,53.204 22.601,54.863 22.81,58.207 C 23.002,61.581 24.636,65.106 26.555,68.128 C 28.146,70.616 30.395,72.231 33.462,72.607 z"
   style="fill:#ffee27;stroke:#983d72;stroke-width:5" />
				<path
   id="path2700"
   d="M 124.668,92.588 C 121.804,89.808 120.485,88.801 119.967,89.241 C 119.217,89.828 121.236,92.698 119.086,94.835 C 116.073,97.783 106.601,94.29 101.541,96.223 C 98.676,97.318 100.729,101.481 103.024,103.677 C 105.251,105.833 108.36,106.51 114.199,108.132 C 125.153,111.175 138.374,117.366 143.025,114.885 C 143.158,114.808 143.28,114.725 143.362,114.632 L 143.498,114.419 C 144.403,112.604 139.603,107.707 135.757,103.722 C 131.365,99.165 127.494,95.277 124.668,92.588 z"
   style="fill:#ffee27;stroke:#983d72;stroke-width:5" />
				<path
   id="path2702"
   d="M 61.965,144.422 C 69.381,139.493 78.296,136.111 88.784,133.906 C 88.81,133.174 88.582,132.499 88.15,131.918 C 80.573,132.763 70.907,134.177 60.201,138.081 C 60.117,138.117 60.041,138.139 59.956,138.174 C 52.993,140.737 46.581,144.211 40.336,147.362 C 29.383,152.911 21.936,156.898 18.031,159.311 C 14.421,161.566 12.093,164.052 10.698,166.581 C 9.151,169.438 8.708,172.227 11.22,174.443 C 13.741,176.693 17.39,178.03 20.884,178.81 C 23.769,179.445 26.501,178.998 28.937,177.094 C 31.625,174.982 35.604,169.234 43.249,160.363 C 47.969,154.896 54.446,149.515 61.623,144.653 C 61.736,144.573 61.853,144.503 61.965,144.422 z"
   style="fill:#ffee27;stroke:#983d72;stroke-width:5" />
				<path
   id="path2704"
   d="M 136.303,129.517 C 136.343,129.369 136.37,129.223 136.363,129.1 L 136.308,128.853 C 135.664,126.93 128.808,126.861 123.27,126.763 C 116.942,126.647 111.456,126.635 107.556,126.732 C 103.565,126.791 101.92,127.011 101.865,127.69 C 101.749,128.635 105.207,129.237 105.197,132.267 C 105.152,136.483 95.984,140.711 93.772,145.655 C 92.52,148.456 96.916,149.948 100.091,149.878 C 103.191,149.828 105.867,148.107 111.144,145.125 C 121.042,139.531 134.769,134.561 136.303,129.517 z"
   style="fill:#ffee27;stroke:#983d72;stroke-width:5" />
				<path
   id="path2706"
   d="M 113.888,175.735 C 109.128,181.69 103.292,189.524 98.483,199.855 C 98.449,199.94 98.41,200.009 98.376,200.094 C 95.265,206.83 93.187,213.821 91,220.464 C 87.18,232.133 84.732,240.218 83.677,244.685 C 82.719,248.832 82.832,252.237 83.633,255.01 C 84.56,258.125 86.218,260.41 89.562,260.2 C 92.937,260.009 96.462,258.374 99.483,256.455 C 101.972,254.865 103.588,252.617 103.964,249.549 C 104.372,246.153 103.12,239.277 102.254,227.598 C 101.726,220.394 102.502,212.009 104.138,203.496 C 104.16,203.359 104.193,203.227 104.215,203.09 C 105.973,194.361 109.886,185.667 115.743,176.691 C 115.243,176.155 114.604,175.84 113.888,175.735 z"
   style="fill:#ffee27;stroke:#983d72;stroke-width:5" />
				<path
   id="path2708"
   d="M 145.987,139.649 L 145.773,139.513 C 143.958,138.609 139.061,143.408 135.076,147.254 C 130.519,151.647 126.631,155.518 123.942,158.344 C 121.162,161.207 120.154,162.527 120.595,163.044 C 121.182,163.795 124.052,161.776 126.188,163.926 C 129.138,166.94 125.645,176.41 127.576,181.472 C 128.671,184.336 132.834,182.283 135.03,179.989 C 137.187,177.761 137.863,174.652 139.485,168.813 C 142.528,157.859 148.719,144.638 146.238,139.986 C 146.163,139.854 146.079,139.731 145.987,139.649 z"
   style="fill:#ffee27;stroke:#983d72;stroke-width:5" />
				<path
   id="path2710"
   d="M 179.027,66.608 C 183.687,56.957 189.112,49.115 195.677,43.1 C 195.782,43.01 195.878,42.914 195.985,42.825 C 202.429,37.027 209.209,32.032 215.649,28.763 C 226.097,23.473 232.632,20.992 235.329,18.889 C 237.762,16.982 238.853,14.438 238.929,11.485 C 239.012,7.907 238.59,4.044 237.011,1.055 C 235.463,-1.917 232.651,-2.156 229.505,-1.341 C 226.717,-0.594 223.743,1.067 220.686,4.03 C 217.407,7.241 211.748,13.512 203.729,22.81 C 199.17,28.115 194.258,33.505 190.096,39.648 C 190.041,39.722 190.002,39.79 189.948,39.864 C 183.585,49.318 179.891,58.361 177.251,65.513 C 177.709,66.073 178.31,66.457 179.027,66.608 z"
   style="fill:#ffee27;stroke:#983d72;stroke-width:5" />
				<path
   id="path2712"
   d="M 184.545,91.009 C 188.707,86.604 191.02,84.419 191.813,81.422 C 192.645,78.357 192.252,73.732 189.233,74.274 C 183.903,75.233 177.596,83.117 173.493,82.148 C 170.55,81.428 170.796,77.928 169.85,77.813 C 169.178,77.704 168.569,79.248 167.553,83.107 C 166.522,86.87 165.215,92.199 163.807,98.369 C 162.573,103.768 160.992,110.44 162.703,111.526 L 162.931,111.639 C 163.049,111.675 163.196,111.684 163.35,111.681 C 168.614,111.402 176.736,99.272 184.545,91.009 z"
   style="fill:#ffee27;stroke:#983d72;stroke-width:5" />
				<path
   id="path2714"
   d="M 302.276,88.83 C 299.776,87.386 296.498,86.458 292.242,86.392 C 287.652,86.343 279.217,86.776 266.971,87.681 C 259.995,88.208 252.711,88.546 245.425,89.949 C 245.333,89.962 245.258,89.982 245.167,89.995 C 233.983,92.182 224.976,95.964 218.052,99.154 C 217.982,99.875 218.134,100.57 218.535,101.183 C 228.655,97.655 238.036,95.945 246.931,96.335 C 247.07,96.346 247.205,96.346 247.344,96.357 C 256,96.813 264.325,98.075 271.192,100.318 C 282.32,103.965 288.697,106.833 292.089,107.253 C 295.157,107.625 297.728,106.597 299.87,104.562 C 302.459,102.09 304.891,99.062 305.889,95.832 C 306.896,92.636 305.077,90.478 302.276,88.83 z"
   style="fill:#ffee27;stroke:#983d72;stroke-width:5" />
				<path
   id="path2716"
   d="M 217.102,120.699 C 219.858,119.119 222.851,115.571 220.332,113.819 C 215.885,110.728 205.852,111.843 203.635,108.257 C 202.061,105.667 204.711,103.366 204.123,102.616 C 203.726,102.064 202.203,102.724 198.756,104.735 C 195.367,106.666 190.675,109.51 185.317,112.879 C 180.626,115.823 174.791,119.424 175.233,121.402 L 175.313,121.642 C 175.371,121.751 175.469,121.861 175.58,121.968 C 179.499,125.493 193.82,122.66 205.184,122.338 C 211.242,122.167 214.422,122.258 217.102,120.699 z"
   style="fill:#ffee27;stroke:#983d72;stroke-width:5" />
				<path
   id="path2718"
   d="M 258.771,175.937 C 253.466,171.377 248.077,166.465 241.932,162.304 C 241.859,162.249 241.791,162.211 241.717,162.155 C 232.263,155.794 223.219,152.099 216.067,149.458 C 215.508,149.918 215.125,150.519 214.974,151.236 C 224.625,155.896 232.467,161.32 238.481,167.886 C 238.571,167.991 238.668,168.087 238.756,168.194 C 244.555,174.637 249.55,181.417 252.818,187.858 C 258.109,198.306 260.589,204.841 262.692,207.538 C 264.598,209.971 267.143,211.062 270.096,211.138 C 273.674,211.221 277.536,210.799 280.526,209.22 C 283.497,207.673 283.737,204.86 282.922,201.714 C 282.175,198.925 280.514,195.952 277.551,192.896 C 274.34,189.614 268.068,183.955 258.771,175.937 z"
   style="fill:#ffee27;stroke:#983d72;stroke-width:5" />
				<path
   id="path2720"
   d="M 198.475,139.76 C 194.713,138.729 189.384,137.423 183.213,136.016 C 177.815,134.78 171.143,133.2 170.056,134.912 L 169.944,135.14 C 169.907,135.258 169.899,135.405 169.901,135.559 C 170.179,140.824 182.309,148.946 190.573,156.754 C 194.979,160.916 197.163,163.229 200.161,164.022 C 203.226,164.854 207.851,164.461 207.309,161.442 C 206.35,156.112 198.466,149.805 199.435,145.702 C 200.154,142.759 203.655,143.005 203.769,142.058 C 203.879,141.386 202.334,140.776 198.475,139.76 z"
   style="fill:#ffee27;stroke:#983d72;stroke-width:5" />
			</g>
		</g></svg>