<?xml version="1.0" encoding="UTF-8" standalone="no"?>
<!-- Generator: Adobe Illustrator 10, SVG Export Plug-In . SVG Version: 3.0.0 Build 76)  -->
<svg
   xmlns:dc="http://purl.org/dc/elements/1.1/"
   xmlns:cc="http://creativecommons.org/ns#"
   xmlns:rdf="http://www.w3.org/1999/02/22-rdf-syntax-ns#"
   xmlns:svg="http://www.w3.org/2000/svg"
   xmlns="http://www.w3.org/2000/svg"
   xmlns:sodipodi="http://sodipodi.sourceforge.net/DTD/sodipodi-0.dtd"
   xmlns:inkscape="http://www.inkscape.org/namespaces/inkscape"
   width="259.89178"
   height="184.66087"
   viewBox="0 0 468.311 264.466"
   style="overflow:visible"
   xml:space="preserve"
   id="svg2729"
   sodipodi:version="0.32"
   inkscape:version="0.46"
   sodipodi:docname="Loggerheads.svg"
   inkscape:output_extension="org.inkscape.output.svg.inkscape"
   version="1.0"><metadata
   id="metadata2785"><rdf:RDF><cc:Work
       rdf:about=""><dc:format>image/svg+xml</dc:format><dc:type
         rdf:resource="http://purl.org/dc/dcmitype/StillImage" /></cc:Work></rdf:RDF></metadata><defs
   id="defs2783"><inkscape:perspective
   sodipodi:type="inkscape:persp3d"
   inkscape:vp_x="0 : 132.233 : 1"
   inkscape:vp_y="0 : 1000 : 0"
   inkscape:vp_z="468.311 : 132.233 : 1"
   inkscape:persp3d-origin="234.1555 : 88.155334 : 1"
   id="perspective2787" />
		
		
	</defs><sodipodi:namedview
   inkscape:window-height="670"
   inkscape:window-width="640"
   inkscape:pageshadow="2"
   inkscape:pageopacity="0.0"
   guidetolerance="10.0"
   gridtolerance="10.0"
   objecttolerance="10.0"
   borderopacity="1.0"
   bordercolor="#666666"
   pagecolor="#ffffff"
   id="base"
   showgrid="false"
   inkscape:zoom="1.1616212"
   inkscape:cx="234.1555"
   inkscape:cy="132.233"
   inkscape:window-x="75"
   inkscape:window-y="0"
   inkscape:current-layer="svg2729" />
	<style
   type="text/css"
   id="style2731">
	
		@font-face{font-family:'Times-Roman';src:url(3591F5A3.cef)}
	
	</style>
	
<g
   style="overflow:visible"
   id="g2750"
   transform="matrix(1.8019461,0,0,1.8019461,-17.828341,-34.141694)">
			<path
   id="path2752"
   d="M 263.154,103.615 C 260.502,99.038 256.452,96.439 251.792,97.641 C 247.169,98.843 242.51,103.382 237.313,109.433 C 228.782,119.323 221.972,128.942 216.237,137.669 C 215.485,138.833 214.732,139.996 214.051,141.121 C 210.144,147.637 207.599,153.765 207.815,160.979 C 208.065,169.046 211.65,176.533 217.779,180.837 C 219.356,181.924 221.112,182.544 223.011,182.661 L 224.266,182.661 C 228.818,182.428 234.122,179.596 239.857,174.476 C 248.89,166.448 255.592,156.983 261.004,146.705 C 261.971,144.883 262.867,143.02 263.656,141.12 C 266.272,134.991 267.921,128.515 267.777,121.339 C 267.67,114.824 266.057,108.619 263.154,103.615 z M 247.061,154.502 C 246.703,157.799 245.592,161.019 243.944,164.121 C 242.725,166.449 241.148,168.543 239.284,170.25 C 237.313,172.072 235.485,172.732 233.692,172.616 C 231.972,172.538 230.717,171.025 229.965,168.271 C 229.069,164.896 228.209,160.785 228.029,156.364 C 227.849,150.508 227.885,145.348 228.064,141.043 C 228.172,139.026 228.279,137.164 228.422,135.496 C 228.889,130.222 230.214,125.723 231.72,122.426 C 233.297,119.09 235.233,115.988 237.527,113.388 C 239.248,111.41 240.716,110.13 241.935,109.782 C 243.441,109.316 244.839,110.014 245.735,112.031 C 246.595,114.088 247.205,119.168 247.383,126.847 C 247.527,132.355 247.562,137.204 247.562,141.315 C 247.527,147.172 247.384,151.594 247.061,154.502 z"
   style="fill:#001f2a;fill-rule:evenodd;stroke:#3a0020;stroke-width:4" />
			<path
   id="path2754"
   d="M 141.758,110.906 C 143.263,104.119 145.198,97.254 146.955,90.311 C 148.673,83.653 150.472,69.813 150.472,69.813 C 150.472,69.813 147.206,64.808 146.321,61.901 C 145.148,63.72 138.54,77.727 137.389,81.675 C 136.184,85.891 135.028,90.048 133.813,94.105 C 132.902,97.164 132.244,105.685 133.001,106.886 C 132.876,107.385 140.121,110.24 141.758,110.906 z"
   style="fill:#001f2a;fill-rule:evenodd;stroke:#3a0020;stroke-width:4" />
			<path
   id="path2756"
   d="M 145.449,141.122 C 144.23,138.174 143.084,135.226 142.08,132.317 C 138.962,130.842 135.879,129.835 132.833,129.408 C 134.302,133.287 136.022,137.165 137.851,141.122 C 139.141,143.992 140.539,146.862 141.866,149.81 C 145.019,156.636 146.991,163.697 147.815,170.484 C 150.503,170.911 153.263,172.152 156.023,174.014 C 155.27,167.11 153.407,159.934 150.503,153.03 C 148.783,148.996 147.062,145.039 145.449,141.122 z"
   style="fill:#001f2a;fill-rule:evenodd;stroke:#3a0020;stroke-width:4" />
			<path
   id="path2758"
   d="M 198.065,152.175 C 191.147,149.654 184.123,146.512 177.277,142.284 C 176.668,141.896 176.022,141.509 175.413,141.121 C 168.998,136.971 162.653,132.122 156.202,127.312 C 156.022,131.153 156.131,134.915 156.489,138.715 C 157.492,139.53 158.496,140.306 159.464,141.12 C 165.521,145.929 171.471,150.661 177.564,154.578 C 184.374,158.962 191.471,162.026 198.353,164.47 C 198.102,160.36 197.994,156.288 198.065,152.175 z"
   style="fill:#001f2a;fill-rule:evenodd;stroke:#3a0020;stroke-width:4" />
			<path
   id="path2760"
   d="M 97.889,39.396 C 102.776,32.972 104.707,24.9 102.66,17.696 C 102.119,15.859 101.146,14.271 99.744,12.984 L 98.769,12.193 C 95.088,9.506 89.185,8.363 81.505,8.727 C 69.433,9.272 58.266,12.4 47.587,16.973 C 45.687,17.779 43.818,18.661 42.009,19.64 C 36.116,22.751 30.755,26.743 26.346,32.406 C 22.325,37.534 19.668,43.37 18.77,49.085 C 17.947,54.311 19.455,58.88 23.831,60.881 C 28.18,62.86 34.657,62.271 42.504,60.845 C 55.359,58.538 66.708,55.357 76.659,52.192 C 77.977,51.763 79.295,51.333 80.533,50.888 C 87.673,48.291 93.51,45.135 97.889,39.396 z M 85.279,19.778 C 83.848,22.964 81.926,26.699 79.281,30.246 C 75.73,34.907 72.453,38.891 69.601,42.121 C 68.247,43.62 66.991,44.998 65.829,46.203 C 62.144,50.006 58.28,52.665 55.034,54.277 C 51.708,55.874 48.25,57.065 44.831,57.638 C 42.25,58.09 40.302,58.159 39.136,57.662 C 37.673,57.075 37.028,55.652 37.603,53.522 C 38.229,51.383 40.957,47.054 45.656,40.976 C 49.014,36.608 52.041,32.82 54.631,29.627 C 58.349,25.101 61.245,21.757 63.328,19.701 C 65.682,17.367 68.574,15.566 71.809,14.195 C 74.221,13.155 76.766,12.522 79.288,12.371 C 81.967,12.197 83.802,12.836 85.121,14.056 C 86.408,15.201 86.43,17.166 85.279,19.778 z"
   style="fill:#001f2a;fill-rule:evenodd;stroke:#3a0020;stroke-width:4" />
			<path
   id="path2762"
   d="M 100.634,132.618 C 94.869,136.882 89.56,141.664 84.799,146.793 C 86.436,149.27 88.192,151.543 90.14,153.522 C 94.855,148.506 100.199,143.851 106.002,139.77 C 111.83,135.657 117.728,131.8 123.154,127.613 C 121.06,125.415 119.228,122.781 117.644,119.897 C 112.199,124.221 106.372,128.333 100.634,132.618 z"
   style="fill:#001f2a;fill-rule:evenodd;stroke:#3a0020;stroke-width:4" />
			<path
   id="path2764"
   d="M 117.35,63.423 C 114.823,55.729 111.242,48.878 107.436,42.645 C 105.041,45.996 102.559,49.227 99.913,52.375 C 103.698,58.69 107.174,65.556 109.828,73.152 C 110.057,73.837 110.313,74.545 110.542,75.23 C 112.911,82.495 114.783,90.257 116.765,98.056 C 119.323,95.187 121.609,92.197 123.725,89.019 C 123.458,87.754 123.168,86.519 122.929,85.277 C 121.254,77.727 119.614,70.304 117.35,63.423 z"
   style="fill:#001f2a;fill-rule:evenodd;stroke:#3a0020;stroke-width:4" />
			<g
   id="g2766">
				<path
   id="path2768"
   d="M 256.492,96.953 C 253.84,92.377 249.79,89.778 245.131,90.98 C 240.507,92.183 235.848,96.721 230.652,102.772 C 222.121,112.662 215.311,122.282 209.576,131.008 C 208.824,132.172 208.07,133.335 207.389,134.46 C 203.483,140.976 200.938,147.105 201.153,154.318 C 201.404,162.386 204.989,169.872 211.117,174.177 C 212.694,175.263 214.45,175.884 216.35,176 L 217.604,176 C 222.157,175.767 227.46,172.936 233.196,167.815 C 242.228,159.787 248.93,150.322 254.342,140.044 C 255.31,138.221 256.206,136.358 256.994,134.458 C 259.61,128.33 261.26,121.853 261.116,114.677 C 261.008,108.162 259.396,101.957 256.492,96.953 z M 240.399,147.841 C 240.041,151.137 238.929,154.357 237.281,157.459 C 236.062,159.787 234.485,161.881 232.622,163.588 C 230.651,165.41 228.822,166.07 227.03,165.954 C 225.31,165.877 224.055,164.363 223.302,161.609 C 222.406,158.235 221.546,154.124 221.366,149.702 C 221.186,143.846 221.222,138.686 221.402,134.381 C 221.509,132.365 221.617,130.503 221.76,128.835 C 222.226,123.561 223.552,119.061 225.058,115.764 C 226.634,112.429 228.57,109.326 230.864,106.727 C 232.585,104.749 234.054,103.468 235.273,103.121 C 236.778,102.654 238.176,103.353 239.072,105.37 C 239.932,107.426 240.542,112.507 240.721,120.186 C 240.864,125.694 240.899,130.542 240.899,134.654 C 240.865,140.51 240.723,144.932 240.399,147.841 z"
   style="fill:#fe370f;fill-rule:evenodd;stroke:#0d8c35;stroke-width:4" />
				<path
   id="path2770"
   d="M 135.096,104.245 C 136.602,97.457 138.536,90.592 140.294,83.649 C 142.011,76.991 143.811,63.151 143.811,63.151 C 143.811,63.151 140.545,58.146 139.659,55.239 C 138.486,57.058 131.878,71.065 130.727,75.013 C 129.523,79.229 128.366,83.386 127.151,87.444 C 126.24,90.502 125.582,99.024 126.339,100.224 C 126.215,100.724 133.459,103.578 135.096,104.245 z"
   style="fill:#fe370f;fill-rule:evenodd;stroke:#0d8c35;stroke-width:4" />
				<path
   id="path2772"
   d="M 138.788,134.459 C 137.568,131.512 136.422,128.563 135.419,125.654 C 132.301,124.18 129.218,123.172 126.171,122.745 C 127.641,126.624 129.36,130.503 131.19,134.459 C 132.48,137.329 133.878,140.199 135.204,143.147 C 138.358,149.972 140.329,157.033 141.153,163.821 C 143.842,164.247 146.602,165.488 149.361,167.349 C 148.608,160.446 146.745,153.27 143.842,146.366 C 142.121,142.333 140.4,138.377 138.788,134.459 z"
   style="fill:#fe370f;fill-rule:evenodd;stroke:#0d8c35;stroke-width:4" />
				<path
   id="path2774"
   d="M 191.403,145.513 C 184.485,142.992 177.461,139.85 170.615,135.623 C 170.006,135.234 169.36,134.847 168.752,134.459 C 162.335,130.309 155.992,125.461 149.54,120.65 C 149.36,124.491 149.469,128.254 149.827,132.053 C 150.831,132.868 151.834,133.644 152.802,134.458 C 158.86,139.268 164.809,143.999 170.903,147.916 C 177.713,152.3 184.809,155.364 191.69,157.808 C 191.439,153.698 191.332,149.625 191.403,145.513 z"
   style="fill:#fe370f;fill-rule:evenodd;stroke:#0d8c35;stroke-width:4" />
				<path
   id="path2776"
   d="M 91.227,32.734 C 96.115,26.311 98.046,18.239 95.998,11.034 C 95.457,9.197 94.484,7.609 93.082,6.322 L 92.108,5.532 C 88.426,2.845 82.523,1.702 74.843,2.066 C 62.771,2.611 51.604,5.739 40.926,10.312 C 39.026,11.118 37.157,12 35.347,12.979 C 29.454,16.09 24.094,20.082 19.685,25.745 C 15.664,30.873 13.007,36.709 12.109,42.424 C 11.286,47.65 12.794,52.219 17.17,54.22 C 21.518,56.199 27.996,55.61 35.843,54.184 C 48.7,51.877 60.049,48.697 70,45.532 C 71.317,45.102 72.636,44.673 73.873,44.228 C 81.012,41.628 86.848,38.473 91.227,32.734 z M 78.617,13.117 C 77.187,16.303 75.265,20.037 72.619,23.584 C 69.068,28.246 65.791,32.23 62.939,35.46 C 61.585,36.959 60.33,38.337 59.168,39.542 C 55.482,43.345 51.618,46.004 48.373,47.616 C 45.047,49.213 41.589,50.404 38.17,50.977 C 35.588,51.43 33.64,51.498 32.473,51.001 C 31.011,50.415 30.365,48.992 30.94,46.861 C 31.566,44.723 34.294,40.393 38.994,34.316 C 42.352,29.948 45.378,26.16 47.969,22.967 C 51.686,18.441 54.582,15.097 56.666,13.041 C 59.02,10.707 61.911,8.906 65.147,7.535 C 67.559,6.495 70.103,5.863 72.626,5.711 C 75.305,5.537 77.14,6.176 78.458,7.396 C 79.747,8.539 79.768,10.504 78.617,13.117 z"
   style="fill:#fe370f;fill-rule:evenodd;stroke:#0d8c35;stroke-width:4" />
				<path
   id="path2778"
   d="M 93.973,125.957 C 88.207,130.22 82.898,135.003 78.137,140.131 C 79.775,142.609 81.53,144.881 83.478,146.86 C 88.193,141.844 93.537,137.19 99.341,133.108 C 105.169,128.996 111.066,125.138 116.493,120.951 C 114.399,118.754 112.567,116.119 110.983,113.236 C 105.538,117.559 99.71,121.671 93.973,125.957 z"
   style="fill:#fe370f;fill-rule:evenodd;stroke:#0d8c35;stroke-width:4" />
				<path
   id="path2780"
   d="M 110.688,56.761 C 108.161,49.067 104.58,42.217 100.774,35.984 C 98.379,39.335 95.897,42.566 93.252,45.714 C 97.036,52.029 100.513,58.895 103.166,66.49 C 103.395,67.175 103.652,67.883 103.88,68.568 C 106.249,75.833 108.122,83.594 110.103,91.394 C 112.661,88.524 114.947,85.535 117.064,82.357 C 116.797,81.092 116.506,79.858 116.268,78.615 C 114.592,71.065 112.952,63.642 110.688,56.761 z"
   style="fill:#fe370f;fill-rule:evenodd;stroke:#0d8c35;stroke-width:4" />
			</g>
		</g></svg>