<?xml version="1.0" encoding="UTF-8" standalone="no"?>
<!-- Generator: Adobe Illustrator 10, SVG Export Plug-In . SVG Version: 3.0.0 Build 76)  -->
<svg
   xmlns:dc="http://purl.org/dc/elements/1.1/"
   xmlns:cc="http://creativecommons.org/ns#"
   xmlns:rdf="http://www.w3.org/1999/02/22-rdf-syntax-ns#"
   xmlns:svg="http://www.w3.org/2000/svg"
   xmlns="http://www.w3.org/2000/svg"
   xmlns:sodipodi="http://sodipodi.sourceforge.net/DTD/sodipodi-0.dtd"
   xmlns:inkscape="http://www.inkscape.org/namespaces/inkscape"
   width="294.45081"
   height="290.29156"
   viewBox="0 0 468.311 369.574"
   style="overflow:visible"
   xml:space="preserve"
   id="svg2789"
   sodipodi:version="0.32"
   inkscape:version="0.46"
   sodipodi:docname="Rosette.svg"
   inkscape:output_extension="org.inkscape.output.svg.inkscape"
   version="1.0"><metadata
   id="metadata2931"><rdf:RDF><cc:Work
       rdf:about=""><dc:format>image/svg+xml</dc:format><dc:type
         rdf:resource="http://purl.org/dc/dcmitype/StillImage" /></cc:Work></rdf:RDF></metadata><defs
   id="defs2929"><inkscape:perspective
   sodipodi:type="inkscape:persp3d"
   inkscape:vp_x="0 : 184.787 : 1"
   inkscape:vp_y="0 : 1000 : 0"
   inkscape:vp_z="468.311 : 184.787 : 1"
   inkscape:persp3d-origin="234.1555 : 123.19134 : 1"
   id="perspective2933" />
		
		
	</defs><sodipodi:namedview
   inkscape:window-height="670"
   inkscape:window-width="661"
   inkscape:pageshadow="2"
   inkscape:pageopacity="0.0"
   guidetolerance="10.0"
   gridtolerance="10.0"
   objecttolerance="10.0"
   borderopacity="1.0"
   bordercolor="#666666"
   pagecolor="#ffffff"
   id="base"
   showgrid="false"
   inkscape:zoom="1.1616212"
   inkscape:cx="375.76793"
   inkscape:cy="184.787"
   inkscape:window-x="0"
   inkscape:window-y="64"
   inkscape:current-layer="svg2789" />
	<style
   type="text/css"
   id="style2791">
	
		@font-face{font-family:'Times-Roman';src:url(EFAB4B7C.cef)}
	
	</style>
	
<g
   style="overflow:visible"
   id="g2810"
   transform="matrix(1.5904558,0,0,1.5904558,-13.042687,-46.060494)">
			<g
   id="g2812">
				<path
   id="path2814"
   d="M 220.867,57.521 C 218.168,61.358 215.228,65.185 213.253,69.648 C 211.247,74.179 210.335,79.606 209.363,85.269 C 209.294,85.693 209.227,86.151 209.142,86.591 C 211.27,89.475 213.418,92.445 215.514,95.362 C 216.535,89.223 217.372,83.195 219.239,78.13 C 219.823,76.481 220.528,74.887 221.302,73.329 C 222.69,70.413 224.322,67.644 225.852,64.905 C 224.217,62.382 222.548,59.892 220.867,57.521 z"
   style="fill:#230600;stroke:#4b2806;stroke-width:5" />
				<path
   id="path2816"
   d="M 237.652,32.525 C 233.425,33.587 228.623,36.044 222.826,37.079 C 211.755,39.015 202.311,37.225 194.738,36.09 C 195.093,36.445 195.431,36.783 195.735,37.119 C 199.081,37.968 202.267,39.118 205.193,39.746 C 209.566,40.669 214.973,40.558 220.714,40.256 C 223.389,40.106 226.28,39.844 229.153,40.419 C 231.802,40.933 234.138,43.005 236.089,46.138 C 237.766,48.833 239.139,51.618 240.32,54.312 C 240.712,55.164 241.053,56.031 241.393,56.864 C 242.881,60.388 244.056,63.763 244.894,66.835 C 246.273,71.926 247.131,76.825 247.429,81.326 C 247.653,84.409 247.379,88.272 247.343,93.427 C 247.649,93.832 247.988,94.203 248.309,94.524 C 250.518,85.631 250.743,74.885 250.284,63.259 C 250.043,57.564 249.888,52.318 249.208,47.663 C 249.114,47.012 249.02,46.359 248.909,45.723 C 248.319,42.012 247.385,38.647 245.859,35.906 C 244.17,32.867 241.372,31.613 237.652,32.525 z"
   style="fill:#230600;stroke:#4b2806;stroke-width:5" />
				<path
   id="path2818"
   d="M 217.136,120.009 C 215.794,120.605 214.828,122.53 214.34,125.293 C 213.787,128.157 213.754,131.212 214.311,134.493 C 214.78,137.295 215.749,139.808 217.206,141.658 C 218.679,143.526 220.446,144.603 222.038,144.291 C 223.53,144.008 224.628,142.412 225.15,139.65 C 225.642,136.989 225.444,133.704 224.732,130.363 C 223.949,126.953 222.879,124.077 221.437,122.141 C 219.994,120.174 218.494,119.396 217.136,120.009 z"
   style="fill:#230600;stroke:#4b2806;stroke-width:5" />
				<path
   id="path2820"
   d="M 138.97,39.79 C 139.775,44.412 140.403,49.196 142.161,53.749 C 143.947,58.371 147.139,62.853 150.456,67.545 C 150.707,67.894 150.984,68.265 151.235,68.637 C 154.779,69.171 158.398,69.751 161.943,70.332 C 158.323,65.269 154.654,60.415 152.391,55.514 C 151.637,53.935 151.009,52.309 150.455,50.66 C 149.374,47.618 148.57,44.505 147.716,41.486 C 144.776,40.858 141.835,40.277 138.97,39.79 z"
   style="fill:#230600;stroke:#4b2806;stroke-width:5" />
				<path
   id="path2822"
   d="M 133.164,10.246 C 130.927,13.985 129.268,19.118 125.9,23.949 C 119.44,33.146 111.498,38.558 105.339,43.11 C 105.842,43.11 106.319,43.11 106.772,43.133 C 109.738,41.368 112.805,39.928 115.318,38.303 C 119.063,35.864 122.808,31.962 126.654,27.688 C 128.438,25.691 130.298,23.461 132.736,21.835 C 134.973,20.325 138.09,20.139 141.684,20.976 C 144.776,21.696 147.716,22.695 150.455,23.763 C 151.335,24.088 152.189,24.459 153.018,24.808 C 156.563,26.248 159.78,27.804 162.544,29.383 C 167.119,32.008 171.19,34.865 174.583,37.837 C 176.921,39.858 179.459,42.785 183.079,46.454 C 183.582,46.524 184.084,46.547 184.537,46.547 C 179.811,38.697 172.371,30.94 163.826,23.043 C 159.629,19.187 155.808,15.587 152.038,12.776 C 151.51,12.381 150.982,11.986 150.454,11.615 C 147.413,9.408 144.372,7.69 141.355,6.83 C 138.015,5.879 135.149,6.971 133.164,10.246 z"
   style="fill:#230600;stroke:#4b2806;stroke-width:5" />
				<path
   id="path2824"
   d="M 180.518,86.613 C 179.99,87.983 180.668,90.028 182.278,92.327 C 183.911,94.742 186.048,96.926 188.761,98.853 C 191.073,100.502 193.537,101.594 195.875,101.873 C 198.237,102.151 200.248,101.664 201.152,100.316 C 202.006,99.062 201.655,97.158 200.072,94.835 C 198.539,92.606 196.076,90.423 193.21,88.564 C 190.244,86.706 187.455,85.429 185.066,85.08 C 182.654,84.709 181.045,85.221 180.518,86.613 z"
   style="fill:#230600;stroke:#4b2806;stroke-width:5" />
				<path
   id="path2826"
   d="M 176.37,254.502 C 175.565,249.88 174.937,245.096 173.178,240.543 C 171.394,235.921 168.201,231.439 164.883,226.746 C 164.632,226.397 164.356,226.026 164.104,225.654 C 160.561,225.121 156.942,224.54 153.398,223.959 C 157.016,229.022 160.686,233.877 162.949,238.778 C 163.703,240.357 164.332,241.983 164.884,243.632 C 165.966,246.675 166.77,249.787 167.624,252.806 C 170.564,253.434 173.504,254.014 176.37,254.502 z"
   style="fill:#230600;stroke:#4b2806;stroke-width:5" />
				<path
   id="path2828"
   d="M 182.176,284.046 C 184.413,280.307 186.072,275.174 189.44,270.342 C 195.9,261.145 203.842,255.734 210.001,251.181 C 209.498,251.181 209.021,251.181 208.567,251.158 C 205.602,252.923 202.536,254.363 200.022,255.989 C 196.277,258.427 192.532,262.33 188.686,266.603 C 186.902,268.6 185.041,270.831 182.604,272.456 C 180.367,273.967 177.25,274.152 173.656,273.316 C 170.565,272.596 167.624,271.597 164.884,270.529 C 164.005,270.204 163.151,269.832 162.321,269.484 C 158.777,268.044 155.56,266.488 152.796,264.908 C 148.221,262.284 144.15,259.427 140.756,256.454 C 138.418,254.433 135.88,251.507 132.261,247.837 C 131.758,247.768 131.255,247.744 130.803,247.744 C 135.529,255.594 142.969,263.351 151.514,271.249 C 155.711,275.104 159.532,278.705 163.302,281.515 C 163.829,281.91 164.358,282.305 164.885,282.676 C 167.927,284.883 170.968,286.602 173.984,287.461 C 177.324,288.412 180.19,287.32 182.176,284.046 z"
   style="fill:#230600;stroke:#4b2806;stroke-width:5" />
				<path
   id="path2830"
   d="M 134.822,207.678 C 135.349,206.308 134.672,204.264 133.062,201.964 C 131.429,199.549 129.292,197.365 126.578,195.438 C 124.266,193.789 121.803,192.698 119.465,192.418 C 117.103,192.14 115.092,192.628 114.188,193.975 C 113.333,195.229 113.685,197.134 115.269,199.456 C 116.801,201.685 119.265,203.868 122.129,205.727 C 125.096,207.584 127.886,208.862 130.273,209.21 C 132.686,209.583 134.295,209.071 134.822,207.678 z"
   style="fill:#230600;stroke:#4b2806;stroke-width:5" />
				<path
   id="path2832"
   d="M 94.965,237.462 C 97.665,233.625 100.604,229.797 102.579,225.334 C 104.585,220.805 105.498,215.378 106.469,209.714 C 106.538,209.29 106.606,208.831 106.691,208.391 C 104.563,205.507 102.415,202.537 100.319,199.621 C 99.298,205.761 98.461,211.787 96.594,216.852 C 96.01,218.502 95.305,220.096 94.53,221.653 C 93.143,224.569 91.511,227.339 89.98,230.078 C 91.615,232.601 93.284,235.091 94.965,237.462 z"
   style="fill:#230600;stroke:#4b2806;stroke-width:5" />
				<path
   id="path2834"
   d="M 78.181,262.458 C 82.407,261.396 87.209,258.938 93.006,257.904 C 104.077,255.967 113.522,257.758 121.094,258.893 C 120.739,258.538 120.402,258.2 120.098,257.863 C 116.752,257.015 113.566,255.864 110.639,255.237 C 106.266,254.313 100.86,254.425 95.118,254.727 C 92.444,254.877 89.553,255.138 86.679,254.565 C 84.031,254.05 81.695,251.978 79.744,248.845 C 78.066,246.15 76.693,243.364 75.512,240.671 C 75.12,239.819 74.779,238.952 74.439,238.119 C 72.951,234.595 71.777,231.22 70.939,228.148 C 69.56,223.057 68.701,218.158 68.404,213.657 C 68.179,210.574 68.454,206.711 68.49,201.556 C 68.183,201.151 67.844,200.779 67.524,200.458 C 65.314,209.352 65.089,220.098 65.548,231.724 C 65.79,237.418 65.945,242.665 66.624,247.319 C 66.718,247.971 66.812,248.624 66.923,249.26 C 67.513,252.97 68.448,256.336 69.974,259.076 C 71.662,262.115 74.461,263.37 78.181,262.458 z"
   style="fill:#230600;stroke:#4b2806;stroke-width:5" />
				<path
   id="path2836"
   d="M 98.696,174.974 C 100.039,174.378 101.004,172.453 101.493,169.69 C 102.045,166.827 102.078,163.772 101.522,160.49 C 101.052,157.688 100.084,155.176 98.626,153.325 C 97.153,151.457 95.386,150.381 93.794,150.693 C 92.303,150.975 91.205,152.572 90.683,155.334 C 90.19,157.994 90.388,161.28 91.1,164.62 C 91.884,168.031 92.953,170.907 94.396,172.842 C 95.839,174.81 97.338,175.586 98.696,174.974 z"
   style="fill:#230600;stroke:#4b2806;stroke-width:5" />
				<path
   id="path2838"
   d="M 49.99,167.183 C 54.611,166.378 59.396,165.749 63.949,163.991 C 68.571,162.206 73.053,159.013 77.745,155.696 C 78.094,155.445 78.465,155.168 78.837,154.917 C 79.371,151.373 79.952,147.755 80.533,144.21 C 75.469,147.829 70.615,151.499 65.715,153.762 C 64.135,154.515 62.509,155.144 60.861,155.697 C 57.818,156.778 54.706,157.582 51.686,158.436 C 51.059,161.376 50.478,164.316 49.99,167.183 z"
   style="fill:#230600;stroke:#4b2806;stroke-width:5" />
				<path
   id="path2840"
   d="M 20.446,172.988 C 24.185,175.224 29.318,176.884 34.15,180.252 C 43.347,186.712 48.759,194.654 53.311,200.813 C 53.311,200.309 53.311,199.832 53.334,199.379 C 51.568,196.413 50.128,193.347 48.502,190.833 C 46.064,187.088 42.162,183.343 37.889,179.497 C 35.891,177.713 33.661,175.853 32.035,173.416 C 30.525,171.179 30.34,168.062 31.176,164.467 C 31.896,161.376 32.894,158.435 33.963,155.696 C 34.288,154.817 34.659,153.963 35.009,153.133 C 36.448,149.589 38.005,146.372 39.584,143.607 C 42.209,139.033 45.064,134.961 48.038,131.568 C 50.059,129.23 52.985,126.692 56.655,123.073 C 56.724,122.569 56.748,122.067 56.748,121.615 C 48.897,126.34 41.14,133.78 33.243,142.326 C 29.388,146.523 25.788,150.344 22.976,154.114 C 22.581,154.641 22.187,155.169 21.815,155.697 C 19.608,158.739 17.89,161.78 17.03,164.796 C 16.08,168.137 17.171,171.003 20.446,172.988 z"
   style="fill:#230600;stroke:#4b2806;stroke-width:5" />
				<path
   id="path2842"
   d="M 96.814,125.634 C 98.184,126.162 100.227,125.484 102.527,123.875 C 104.943,122.241 107.127,120.104 109.054,117.391 C 110.702,115.079 111.794,112.615 112.073,110.278 C 112.352,107.916 111.864,105.905 110.517,105 C 109.263,104.146 107.359,104.497 105.036,106.081 C 102.807,107.614 100.623,110.077 98.765,112.942 C 96.907,115.909 95.629,118.698 95.282,121.086 C 94.909,123.498 95.42,125.107 96.814,125.634 z"
   style="fill:#230600;stroke:#4b2806;stroke-width:5" />
				<path
   id="path2844"
   d="M 68.265,84.972 C 72.102,87.671 75.929,90.611 80.392,92.586 C 84.922,94.592 90.349,95.504 96.012,96.476 C 96.436,96.544 96.895,96.613 97.335,96.697 C 100.219,94.57 103.189,92.422 106.106,90.326 C 99.966,89.305 93.938,88.467 88.874,86.6 C 87.225,86.017 85.63,85.312 84.073,84.537 C 81.157,83.15 78.387,81.517 75.648,79.986 C 73.125,81.622 70.635,83.291 68.265,84.972 z"
   style="fill:#230600;stroke:#4b2806;stroke-width:5" />
				<path
   id="path2846"
   d="M 43.268,68.188 C 44.33,72.414 46.787,77.216 47.822,83.013 C 49.758,94.084 47.968,103.528 46.833,111.101 C 47.188,110.746 47.526,110.409 47.862,110.105 C 48.712,106.759 49.862,103.573 50.49,100.646 C 51.413,96.273 51.302,90.866 50.999,85.125 C 50.849,82.451 50.588,79.56 51.162,76.686 C 51.677,74.037 53.749,71.702 56.882,69.751 C 59.576,68.074 62.361,66.7 65.056,65.519 C 65.908,65.126 66.774,64.786 67.608,64.446 C 71.131,62.958 74.507,61.784 77.579,60.946 C 82.67,59.567 87.568,58.707 92.07,58.41 C 95.152,58.186 99.016,58.461 104.171,58.496 C 104.575,58.189 104.947,57.851 105.267,57.531 C 96.375,55.321 85.629,55.096 74.002,55.555 C 68.308,55.797 63.061,55.952 58.407,56.631 C 57.755,56.726 57.102,56.819 56.467,56.93 C 52.756,57.52 49.391,58.455 46.65,59.981 C 43.61,61.669 42.356,64.467 43.268,68.188 z"
   style="fill:#230600;stroke:#4b2806;stroke-width:5" />
				<path
   id="path2848"
   d="M 130.752,88.703 C 131.348,90.046 133.273,91.011 136.036,91.499 C 138.899,92.052 141.954,92.085 145.236,91.529 C 148.037,91.059 150.551,90.09 152.401,88.633 C 154.268,87.16 155.345,85.393 155.033,83.801 C 154.75,82.31 153.155,81.212 150.393,80.69 C 147.732,80.197 144.447,80.395 141.106,81.107 C 137.695,81.891 134.819,82.96 132.884,84.402 C 130.916,85.846 130.14,87.345 130.752,88.703 z"
   style="fill:#230600;stroke:#4b2806;stroke-width:5" />
				<path
   id="path2850"
   d="M 247.088,209.479 C 243.252,206.779 239.424,203.84 234.961,201.866 C 230.431,199.859 225.004,198.946 219.34,197.975 C 218.916,197.907 218.457,197.839 218.018,197.753 C 215.133,199.882 212.164,202.03 209.247,204.126 C 215.387,205.147 221.414,205.984 226.478,207.85 C 228.128,208.434 229.722,209.14 231.28,209.915 C 234.195,211.302 236.965,212.934 239.705,214.465 C 242.228,212.829 244.717,211.161 247.088,209.479 z"
   style="fill:#230600;stroke:#4b2806;stroke-width:5" />
				<path
   id="path2852"
   d="M 272.084,226.264 C 271.022,222.038 268.565,217.237 267.531,211.439 C 265.594,200.368 267.385,190.924 268.519,183.351 C 268.164,183.706 267.827,184.044 267.49,184.348 C 266.641,187.693 265.491,190.879 264.863,193.806 C 263.939,198.179 264.051,203.586 264.353,209.327 C 264.503,212.001 264.765,214.893 264.191,217.766 C 263.676,220.415 261.604,222.75 258.471,224.701 C 255.777,226.379 252.991,227.753 250.297,228.933 C 249.445,229.325 248.579,229.666 247.745,230.007 C 244.222,231.494 240.846,232.669 237.774,233.507 C 232.683,234.886 227.784,235.745 223.283,236.042 C 220.201,236.266 216.337,235.991 211.182,235.956 C 210.778,236.262 210.405,236.602 210.085,236.921 C 218.978,239.131 229.724,239.357 241.351,238.897 C 247.045,238.656 252.292,238.5 256.946,237.821 C 257.598,237.727 258.251,237.633 258.886,237.522 C 262.597,236.932 265.963,235.997 268.703,234.472 C 271.742,232.782 272.996,229.983 272.084,226.264 z"
   style="fill:#230600;stroke:#4b2806;stroke-width:5" />
				<path
   id="path2854"
   d="M 184.6,205.748 C 184.004,204.405 182.08,203.441 179.316,202.952 C 176.453,202.399 173.399,202.366 170.116,202.922 C 167.315,203.392 164.802,204.361 162.952,205.818 C 161.084,207.292 160.007,209.058 160.319,210.651 C 160.602,212.142 162.198,213.239 164.961,213.762 C 167.621,214.254 170.906,214.056 174.247,213.345 C 177.657,212.561 180.534,211.491 182.468,210.049 C 184.437,208.605 185.213,207.107 184.6,205.748 z"
   style="fill:#230600;stroke:#4b2806;stroke-width:5" />
				<path
   id="path2856"
   d="M 266.862,126.77 C 262.24,127.575 257.456,128.203 252.903,129.962 C 248.281,131.746 243.799,134.939 239.106,138.256 C 238.757,138.508 238.386,138.784 238.014,139.035 C 237.481,142.579 236.9,146.198 236.32,149.742 C 241.382,146.123 246.237,142.454 251.138,140.191 C 252.716,139.437 254.343,138.808 255.992,138.255 C 259.035,137.174 262.147,136.37 265.166,135.516 C 265.794,132.575 266.375,129.635 266.862,126.77 z"
   style="fill:#230600;stroke:#4b2806;stroke-width:5" />
				<path
   id="path2858"
   d="M 296.406,120.963 C 292.667,118.727 287.533,117.067 282.702,113.7 C 273.505,107.24 268.094,99.298 263.541,93.139 C 263.541,93.642 263.541,94.119 263.518,94.572 C 265.284,97.538 266.723,100.604 268.349,103.118 C 270.787,106.863 274.69,110.608 278.963,114.454 C 280.96,116.238 283.191,118.099 284.817,120.536 C 286.327,122.772 286.512,125.89 285.676,129.484 C 284.956,132.575 283.957,135.516 282.889,138.255 C 282.563,139.135 282.192,139.989 281.844,140.819 C 280.404,144.362 278.848,147.58 277.268,150.344 C 274.644,154.919 271.787,158.99 268.814,162.383 C 266.793,164.721 263.867,167.26 260.197,170.879 C 260.128,171.382 260.104,171.884 260.104,172.336 C 267.954,167.611 275.711,160.172 283.609,151.626 C 287.464,147.428 291.065,143.607 293.876,139.837 C 294.27,139.31 294.665,138.782 295.036,138.254 C 297.243,135.213 298.962,132.172 299.821,129.155 C 300.772,125.814 299.681,122.949 296.406,120.963 z"
   style="fill:#230600;stroke:#4b2806;stroke-width:5" />
				<path
   id="path2860"
   d="M 220.038,168.316 C 218.668,167.789 216.624,168.467 214.324,170.076 C 211.909,171.71 209.725,173.847 207.798,176.561 C 206.149,178.873 205.058,181.336 204.779,183.674 C 204.5,186.036 204.988,188.046 206.335,188.951 C 207.589,189.806 209.494,189.454 211.816,187.87 C 214.045,186.337 216.228,183.874 218.087,181.009 C 219.944,178.043 221.222,175.253 221.57,172.865 C 221.943,170.454 221.432,168.845 220.038,168.316 z"
   style="fill:#230600;stroke:#4b2806;stroke-width:5" />
			</g>
			<g
   id="g2862">
				<g
   id="g2864">
					<path
   id="path2866"
   d="M 214.867,53.521 C 212.168,57.358 209.228,61.186 207.253,65.649 C 205.248,70.179 204.335,75.606 203.363,81.269 C 203.295,81.693 203.227,82.151 203.142,82.591 C 205.27,85.475 207.418,88.445 209.514,91.362 C 210.535,85.223 211.372,79.195 213.239,74.131 C 213.823,72.482 214.528,70.887 215.302,69.329 C 216.69,66.414 218.322,63.644 219.852,60.905 C 218.217,58.382 216.548,55.893 214.867,53.521 z"
   style="fill:#b8d7e8;stroke:#6a7bb5;stroke-width:5" />
					<path
   id="path2868"
   d="M 231.652,28.525 C 227.426,29.587 222.623,32.044 216.826,33.079 C 205.755,35.015 196.312,33.225 188.739,32.09 C 189.093,32.445 189.431,32.783 189.735,33.119 C 193.081,33.968 196.267,35.118 199.193,35.746 C 203.566,36.669 208.973,36.558 214.714,36.257 C 217.389,36.106 220.28,35.845 223.153,36.419 C 225.803,36.933 228.138,39.005 230.089,42.138 C 231.766,44.833 233.139,47.618 234.32,50.312 C 234.713,51.164 235.053,52.031 235.394,52.864 C 236.881,56.388 238.056,59.763 238.894,62.835 C 240.273,67.926 241.132,72.825 241.429,77.326 C 241.653,80.409 241.379,84.272 241.343,89.427 C 241.65,89.832 241.989,90.203 242.309,90.524 C 244.518,81.631 244.743,70.885 244.284,59.259 C 244.043,53.564 243.888,48.318 243.208,43.663 C 243.114,43.012 243.02,42.359 242.91,41.723 C 242.319,38.013 241.385,34.647 239.859,31.906 C 238.17,28.867 235.372,27.613 231.652,28.525 z"
   style="fill:#b8d7e8;stroke:#6a7bb5;stroke-width:5" />
					<path
   id="path2870"
   d="M 211.136,116.009 C 209.794,116.606 208.828,118.53 208.34,121.294 C 207.787,124.157 207.754,127.212 208.311,130.494 C 208.78,133.295 209.75,135.808 211.206,137.658 C 212.68,139.526 214.446,140.603 216.038,140.291 C 217.53,140.008 218.628,138.412 219.15,135.65 C 219.643,132.989 219.444,129.704 218.732,126.363 C 217.949,122.953 216.879,120.077 215.438,118.142 C 213.994,116.174 212.494,115.397 211.136,116.009 z"
   style="fill:#b8d7e8;stroke:#6a7bb5;stroke-width:5" />
				</g>
				<g
   id="g2872">
					<path
   id="path2874"
   d="M 132.971,35.79 C 133.775,40.412 134.403,45.196 136.161,49.749 C 137.947,54.371 141.139,58.853 144.456,63.545 C 144.708,63.894 144.984,64.265 145.235,64.637 C 148.779,65.171 152.398,65.751 155.943,66.332 C 152.323,61.269 148.654,56.415 146.391,51.515 C 145.637,49.935 145.009,48.309 144.455,46.66 C 143.374,43.618 142.57,40.505 141.716,37.486 C 138.776,36.858 135.835,36.277 132.971,35.79 z"
   style="fill:#b8d7e8;stroke:#6a7bb5;stroke-width:5" />
					<path
   id="path2876"
   d="M 127.164,6.246 C 124.927,9.985 123.268,15.118 119.9,19.949 C 113.44,29.146 105.498,34.558 99.339,39.11 C 99.842,39.11 100.319,39.11 100.772,39.133 C 103.738,37.368 106.805,35.929 109.318,34.303 C 113.063,31.864 116.808,27.962 120.654,23.688 C 122.438,21.691 124.299,19.461 126.736,17.835 C 128.973,16.325 132.09,16.139 135.684,16.976 C 138.776,17.696 141.716,18.695 144.455,19.763 C 145.335,20.088 146.189,20.459 147.019,20.808 C 150.563,22.248 153.78,23.804 156.544,25.383 C 161.119,28.008 165.19,30.865 168.583,33.838 C 170.921,35.859 173.46,38.785 177.079,42.454 C 177.582,42.524 178.084,42.547 178.537,42.547 C 173.811,34.697 166.372,26.94 157.826,19.043 C 153.629,15.187 149.808,11.587 146.038,8.776 C 145.51,8.381 144.982,7.987 144.454,7.615 C 141.413,5.408 138.372,3.69 135.355,2.83 C 132.015,1.879 129.149,2.971 127.164,6.246 z"
   style="fill:#b8d7e8;stroke:#6a7bb5;stroke-width:5" />
					<path
   id="path2878"
   d="M 174.518,82.613 C 173.99,83.984 174.669,86.028 176.278,88.327 C 177.911,90.743 180.048,92.926 182.762,94.854 C 185.074,96.502 187.537,97.594 189.875,97.873 C 192.237,98.151 194.248,97.664 195.152,96.317 C 196.006,95.062 195.656,93.158 194.072,90.835 C 192.539,88.606 190.076,86.423 187.21,84.564 C 184.244,82.706 181.455,81.429 179.066,81.081 C 176.654,80.709 175.045,81.221 174.518,82.613 z"
   style="fill:#b8d7e8;stroke:#6a7bb5;stroke-width:5" />
				</g>
				<g
   id="g2880">
					<path
   id="path2882"
   d="M 170.37,250.502 C 169.565,245.88 168.937,241.096 167.178,236.543 C 165.394,231.921 162.201,227.439 158.883,222.746 C 158.632,222.398 158.356,222.026 158.105,221.654 C 154.561,221.121 150.942,220.54 147.398,219.959 C 151.016,225.022 154.686,229.877 156.949,234.778 C 157.703,236.357 158.332,237.983 158.884,239.632 C 159.966,242.674 160.77,245.786 161.624,248.806 C 164.564,249.434 167.505,250.014 170.37,250.502 z"
   style="fill:#b8d7e8;stroke:#6a7bb5;stroke-width:5" />
					<path
   id="path2884"
   d="M 176.177,280.046 C 178.413,276.307 180.073,271.174 183.44,266.342 C 189.9,257.145 197.842,251.734 204.001,247.181 C 203.498,247.181 203.021,247.181 202.568,247.158 C 199.602,248.924 196.536,250.363 194.022,251.989 C 190.277,254.427 186.532,258.33 182.686,262.604 C 180.902,264.601 179.041,266.831 176.604,268.457 C 174.367,269.967 171.25,270.152 167.656,269.316 C 164.565,268.596 161.624,267.597 158.884,266.529 C 158.005,266.204 157.151,265.833 156.321,265.484 C 152.778,264.044 149.56,262.488 146.796,260.908 C 142.221,258.284 138.15,255.427 134.757,252.454 C 132.419,250.433 129.88,247.507 126.261,243.837 C 125.758,243.768 125.255,243.744 124.804,243.744 C 129.529,251.595 136.969,259.351 145.514,267.249 C 149.712,271.104 153.532,274.705 157.302,277.515 C 157.83,277.91 158.358,278.305 158.885,278.676 C 161.927,280.883 164.968,282.602 167.984,283.461 C 171.325,284.412 174.19,283.32 176.177,280.046 z"
   style="fill:#b8d7e8;stroke:#6a7bb5;stroke-width:5" />
					<path
   id="path2886"
   d="M 128.822,203.679 C 129.35,202.308 128.672,200.264 127.062,197.964 C 125.429,195.549 123.292,193.366 120.578,191.438 C 118.266,189.789 115.803,188.698 113.465,188.418 C 111.103,188.14 109.092,188.628 108.188,189.975 C 107.333,191.229 107.685,193.134 109.269,195.456 C 110.802,197.685 113.265,199.869 116.13,201.727 C 119.096,203.584 121.886,204.862 124.274,205.21 C 126.686,205.583 128.295,205.071 128.822,203.679 z"
   style="fill:#b8d7e8;stroke:#6a7bb5;stroke-width:5" />
				</g>
				<g
   id="g2888">
					<path
   id="path2890"
   d="M 88.966,233.462 C 91.665,229.625 94.604,225.797 96.579,221.334 C 98.585,216.805 99.498,211.378 100.469,205.714 C 100.538,205.29 100.606,204.831 100.691,204.391 C 98.563,201.508 96.415,198.537 94.319,195.621 C 93.298,201.761 92.461,207.787 90.594,212.852 C 90.01,214.502 89.305,216.096 88.53,217.654 C 87.143,220.569 85.511,223.339 83.98,226.078 C 85.615,228.601 87.285,231.091 88.966,233.462 z"
   style="fill:#b8d7e8;stroke:#6a7bb5;stroke-width:5" />
					<path
   id="path2892"
   d="M 72.181,258.458 C 76.407,257.396 81.209,254.938 87.007,253.904 C 98.078,251.967 107.522,253.758 115.094,254.893 C 114.74,254.538 114.402,254.2 114.098,253.863 C 110.752,253.015 107.566,251.864 104.639,251.237 C 100.266,250.313 94.86,250.425 89.118,250.727 C 86.443,250.877 83.552,251.138 80.678,250.565 C 78.03,250.05 75.694,247.978 73.743,244.845 C 72.066,242.15 70.693,239.364 69.511,236.671 C 69.119,235.819 68.778,234.952 68.438,234.119 C 66.95,230.595 65.776,227.22 64.938,224.148 C 63.559,219.057 62.7,214.158 62.403,209.657 C 62.178,206.574 62.453,202.711 62.489,197.556 C 62.182,197.151 61.843,196.779 61.523,196.458 C 59.313,205.352 59.088,216.098 59.547,227.724 C 59.789,233.418 59.944,238.665 60.623,243.319 C 60.717,243.972 60.811,244.624 60.922,245.26 C 61.512,248.97 62.447,252.336 63.973,255.076 C 65.662,258.115 68.461,259.37 72.181,258.458 z"
   style="fill:#b8d7e8;stroke:#6a7bb5;stroke-width:5" />
					<path
   id="path2894"
   d="M 92.697,170.974 C 94.039,170.378 95.004,168.453 95.493,165.69 C 96.046,162.827 96.078,159.772 95.522,156.49 C 95.052,153.688 94.084,151.176 92.627,149.326 C 91.153,147.458 89.387,146.381 87.794,146.693 C 86.303,146.975 85.205,148.572 84.683,151.334 C 84.19,153.994 84.388,157.28 85.1,160.62 C 85.884,164.031 86.953,166.907 88.396,168.842 C 89.839,170.81 91.339,171.586 92.697,170.974 z"
   style="fill:#b8d7e8;stroke:#6a7bb5;stroke-width:5" />
				</g>
				<g
   id="g2896">
					<path
   id="path2898"
   d="M 43.99,163.183 C 48.612,162.378 53.396,161.749 57.949,159.991 C 62.571,158.206 67.053,155.013 71.746,151.696 C 72.094,151.445 72.465,151.168 72.838,150.918 C 73.371,147.373 73.952,143.755 74.533,140.21 C 69.469,143.829 64.615,147.499 59.715,149.762 C 58.135,150.515 56.509,151.144 54.861,151.697 C 51.818,152.778 48.706,153.582 45.686,154.436 C 45.059,157.376 44.478,160.316 43.99,163.183 z"
   style="fill:#b8d7e8;stroke:#6a7bb5;stroke-width:5" />
					<path
   id="path2900"
   d="M 14.446,168.988 C 18.185,171.224 23.318,172.884 28.15,176.252 C 37.347,182.712 42.759,190.654 47.311,196.813 C 47.311,196.309 47.311,195.832 47.334,195.379 C 45.568,192.413 44.128,189.347 42.503,186.833 C 40.064,183.088 36.162,179.344 31.889,175.498 C 29.891,173.713 27.661,171.853 26.035,169.416 C 24.526,167.179 24.34,164.062 25.176,160.467 C 25.896,157.376 26.895,154.435 27.963,151.696 C 28.288,150.817 28.659,149.963 29.009,149.133 C 30.448,145.589 32.005,142.372 33.584,139.608 C 36.209,135.033 39.065,130.961 42.038,127.568 C 44.059,125.231 46.985,122.692 50.655,119.073 C 50.724,118.57 50.748,118.067 50.748,117.615 C 42.897,122.34 35.14,129.78 27.243,138.326 C 23.388,142.523 19.787,146.344 16.977,150.114 C 16.582,150.642 16.187,151.169 15.816,151.697 C 13.609,154.739 11.891,157.78 11.031,160.796 C 10.08,164.138 11.171,167.003 14.446,168.988 z"
   style="fill:#b8d7e8;stroke:#6a7bb5;stroke-width:5" />
					<path
   id="path2902"
   d="M 90.814,121.635 C 92.184,122.162 94.227,121.484 96.527,119.875 C 98.943,118.242 101.127,116.104 103.054,113.391 C 104.702,111.079 105.794,108.615 106.073,106.278 C 106.352,103.916 105.864,101.905 104.517,101 C 103.263,100.146 101.359,100.497 99.036,102.081 C 96.807,103.614 94.623,106.077 92.765,108.942 C 90.908,111.909 89.629,114.699 89.282,117.086 C 88.909,119.498 89.421,121.107 90.814,121.635 z"
   style="fill:#b8d7e8;stroke:#6a7bb5;stroke-width:5" />
				</g>
				<g
   id="g2904">
					<path
   id="path2906"
   d="M 62.265,80.972 C 66.102,83.672 69.929,86.611 74.392,88.586 C 78.922,90.592 84.349,91.504 90.012,92.476 C 90.437,92.545 90.895,92.613 91.335,92.698 C 94.219,90.57 97.189,88.422 100.106,86.326 C 93.966,85.305 87.939,84.468 82.874,82.601 C 81.225,82.017 79.63,81.312 78.073,80.537 C 75.157,79.15 72.387,77.517 69.648,75.987 C 67.125,77.622 64.636,79.291 62.265,80.972 z"
   style="fill:#b8d7e8;stroke:#6a7bb5;stroke-width:5" />
					<path
   id="path2908"
   d="M 37.269,64.188 C 38.331,68.414 40.788,73.216 41.822,79.013 C 43.759,90.084 41.968,99.528 40.833,107.101 C 41.188,106.746 41.527,106.409 41.863,106.105 C 42.712,102.759 43.862,99.573 44.49,96.646 C 45.413,92.273 45.302,86.867 45,81.125 C 44.849,78.451 44.588,75.56 45.162,72.686 C 45.677,70.038 47.749,67.702 50.882,65.751 C 53.576,64.074 56.362,62.7 59.056,61.519 C 59.908,61.127 60.774,60.786 61.608,60.446 C 65.132,58.958 68.507,57.784 71.579,56.946 C 76.67,55.567 81.568,54.708 86.07,54.41 C 89.152,54.186 93.016,54.461 98.171,54.497 C 98.575,54.19 98.947,53.851 99.268,53.531 C 90.375,51.321 79.629,51.096 68.002,51.555 C 62.308,51.797 57.061,51.952 52.407,52.631 C 51.755,52.726 51.102,52.819 50.467,52.93 C 46.756,53.52 43.391,54.455 40.65,55.981 C 37.61,57.669 36.356,60.468 37.269,64.188 z"
   style="fill:#b8d7e8;stroke:#6a7bb5;stroke-width:5" />
					<path
   id="path2910"
   d="M 124.752,84.703 C 125.348,86.046 127.273,87.011 130.036,87.5 C 132.9,88.052 135.954,88.085 139.236,87.529 C 142.038,87.059 144.551,86.091 146.401,84.633 C 148.268,83.16 149.345,81.393 149.033,79.801 C 148.751,78.31 147.155,77.212 144.393,76.69 C 141.732,76.197 138.447,76.395 135.106,77.107 C 131.695,77.891 128.819,78.96 126.885,80.402 C 124.916,81.846 124.14,83.345 124.752,84.703 z"
   style="fill:#b8d7e8;stroke:#6a7bb5;stroke-width:5" />
				</g>
				<g
   id="g2912">
					<path
   id="path2914"
   d="M 241.088,205.479 C 237.252,202.78 233.424,199.841 228.961,197.866 C 224.431,195.859 219.004,194.947 213.34,193.975 C 212.916,193.907 212.458,193.839 212.018,193.754 C 209.134,195.882 206.164,198.03 203.247,200.126 C 209.387,201.147 215.414,201.984 220.478,203.851 C 222.128,204.434 223.722,205.14 225.28,205.915 C 228.195,207.302 230.965,208.934 233.705,210.465 C 236.228,208.829 238.717,207.161 241.088,205.479 z"
   style="fill:#b8d7e8;stroke:#6a7bb5;stroke-width:5" />
					<path
   id="path2916"
   d="M 266.084,222.265 C 265.022,218.038 262.565,213.237 261.531,207.439 C 259.594,196.368 261.385,186.924 262.519,179.351 C 262.165,179.706 261.827,180.044 261.49,180.348 C 260.641,183.693 259.491,186.879 258.863,189.806 C 257.939,194.179 258.051,199.586 258.353,205.328 C 258.503,208.002 258.765,210.893 258.191,213.766 C 257.676,216.415 255.604,218.75 252.471,220.702 C 249.777,222.379 246.991,223.753 244.297,224.933 C 243.445,225.326 242.579,225.666 241.745,226.007 C 238.222,227.494 234.847,228.669 231.774,229.507 C 226.683,230.886 221.784,231.745 217.283,232.042 C 214.201,232.266 210.337,231.991 205.182,231.956 C 204.778,232.263 204.406,232.602 204.085,232.921 C 212.978,235.132 223.724,235.357 235.351,234.897 C 241.045,234.656 246.292,234.5 250.946,233.821 C 251.598,233.727 252.251,233.633 252.886,233.522 C 256.597,232.933 259.963,231.998 262.703,230.472 C 265.742,228.782 266.996,225.984 266.084,222.265 z"
   style="fill:#b8d7e8;stroke:#6a7bb5;stroke-width:5" />
					<path
   id="path2918"
   d="M 178.6,201.749 C 178.004,200.406 176.08,199.441 173.316,198.952 C 170.453,198.399 167.399,198.366 164.116,198.923 C 161.315,199.392 158.802,200.361 156.952,201.818 C 155.085,203.292 154.007,205.058 154.32,206.651 C 154.602,208.142 156.198,209.24 158.961,209.762 C 161.621,210.254 164.907,210.056 168.247,209.345 C 171.657,208.561 174.534,207.491 176.468,206.05 C 178.437,204.605 179.213,203.107 178.6,201.749 z"
   style="fill:#b8d7e8;stroke:#6a7bb5;stroke-width:5" />
				</g>
				<g
   id="g2920">
					<path
   id="path2922"
   d="M 260.862,122.77 C 256.24,123.575 251.456,124.204 246.903,125.962 C 242.281,127.746 237.799,130.939 233.106,134.257 C 232.758,134.508 232.386,134.784 232.014,135.035 C 231.481,138.579 230.9,142.198 230.32,145.742 C 235.382,142.124 240.237,138.454 245.138,136.191 C 246.717,135.437 248.343,134.808 249.992,134.256 C 253.035,133.174 256.147,132.37 259.167,131.516 C 259.794,128.575 260.375,125.635 260.862,122.77 z"
   style="fill:#b8d7e8;stroke:#6a7bb5;stroke-width:5" />
					<path
   id="path2924"
   d="M 290.406,116.963 C 286.667,114.727 281.533,113.067 276.702,109.7 C 267.505,103.24 262.094,95.298 257.541,89.139 C 257.541,89.642 257.541,90.119 257.518,90.572 C 259.284,93.538 260.723,96.604 262.349,99.118 C 264.787,102.863 268.69,106.608 272.963,110.454 C 274.961,112.238 277.191,114.099 278.817,116.536 C 280.327,118.773 280.512,121.89 279.676,125.484 C 278.956,128.575 277.957,131.516 276.889,134.256 C 276.564,135.135 276.192,135.989 275.844,136.819 C 274.404,140.362 272.848,143.58 271.268,146.344 C 268.644,150.919 265.787,154.99 262.814,158.383 C 260.793,160.721 257.867,163.26 254.197,166.879 C 254.128,167.382 254.104,167.885 254.104,168.336 C 261.955,163.611 269.711,156.172 277.609,147.626 C 281.464,143.428 285.065,139.607 287.876,135.838 C 288.27,135.31 288.665,134.782 289.036,134.255 C 291.243,131.213 292.962,128.172 293.821,125.156 C 294.772,121.814 293.681,118.949 290.406,116.963 z"
   style="fill:#b8d7e8;stroke:#6a7bb5;stroke-width:5" />
					<path
   id="path2926"
   d="M 214.039,164.317 C 212.668,163.789 210.625,164.467 208.324,166.076 C 205.909,167.71 203.726,169.847 201.798,172.561 C 200.149,174.873 199.058,177.336 198.779,179.674 C 198.5,182.036 198.988,184.046 200.335,184.952 C 201.589,185.806 203.494,185.454 205.816,183.87 C 208.045,182.337 210.229,179.874 212.087,177.009 C 213.944,174.043 215.222,171.253 215.57,168.865 C 215.943,166.454 215.432,164.845 214.039,164.317 z"
   style="fill:#b8d7e8;stroke:#6a7bb5;stroke-width:5" />
				</g>
			</g>
		</g></svg>