<?xml version="1.0" encoding="UTF-8" standalone="no"?>
<!-- Generator: Adobe Illustrator 10, SVG Export Plug-In . SVG Version: 3.0.0 Build 76)  -->
<svg
   xmlns:dc="http://purl.org/dc/elements/1.1/"
   xmlns:cc="http://creativecommons.org/ns#"
   xmlns:rdf="http://www.w3.org/1999/02/22-rdf-syntax-ns#"
   xmlns:svg="http://www.w3.org/2000/svg"
   xmlns="http://www.w3.org/2000/svg"
   xmlns:sodipodi="http://sodipodi.sourceforge.net/DTD/sodipodi-0.dtd"
   xmlns:inkscape="http://www.inkscape.org/namespaces/inkscape"
   width="356.42899"
   height="269.98199"
   viewBox="0 0 468.311 348.692"
   style="overflow:visible"
   xml:space="preserve"
   id="svg2935"
   sodipodi:version="0.32"
   inkscape:version="0.46"
   sodipodi:docname="Sleep.svg"
   inkscape:output_extension="org.inkscape.output.svg.inkscape"
   version="1.0"><metadata
   id="metadata3007"><rdf:RDF><cc:Work
       rdf:about=""><dc:format>image/svg+xml</dc:format><dc:type
         rdf:resource="http://purl.org/dc/dcmitype/StillImage" /></cc:Work></rdf:RDF></metadata><defs
   id="defs3005"><inkscape:perspective
   sodipodi:type="inkscape:persp3d"
   inkscape:vp_x="0 : 174.34599 : 1"
   inkscape:vp_y="0 : 1000 : 0"
   inkscape:vp_z="468.311 : 174.34599 : 1"
   inkscape:persp3d-origin="234.1555 : 116.23066 : 1"
   id="perspective3009" />
		
		
	</defs><sodipodi:namedview
   inkscape:window-height="670"
   inkscape:window-width="640"
   inkscape:pageshadow="2"
   inkscape:pageopacity="0.0"
   guidetolerance="10.0"
   gridtolerance="10.0"
   objecttolerance="10.0"
   borderopacity="1.0"
   bordercolor="#666666"
   pagecolor="#ffffff"
   id="base"
   showgrid="false"
   inkscape:zoom="1.1616212"
   inkscape:cx="234.1555"
   inkscape:cy="174.34599"
   inkscape:window-x="164"
   inkscape:window-y="13"
   inkscape:current-layer="svg2935" />
	<style
   type="text/css"
   id="style2937">
	
		@font-face{font-family:'Times-Roman';src:url(654424DF.cef)}
	
	</style>
	
<g
   transform="matrix(1.3138971,0,0,1.3138971,-8.6796042,-5.0955623)"
   style="overflow:visible"
   id="g2956">
			<path
   id="path2958"
   d="M 234.846,214.656 C 242.858,213.455 250.596,213.366 258.06,214.39 C 265.526,215.413 272.733,217.467 279.68,220.547 C 287.092,223.779 294.258,228.503 301.184,234.72 C 305.756,238.817 309.059,242.336 311.095,245.272 L 308.663,247.205 C 301.131,239.869 293.797,234.785 286.668,231.951 C 274.039,226.918 258.184,225.834 239.096,228.697 C 223.668,231.01 211.295,234.462 201.977,239.048 C 188.815,245.474 179.135,254.981 172.941,267.563 L 169.965,265.865 C 173.424,256.663 179.388,247.688 187.859,238.939 C 200.907,225.493 216.568,217.398 234.846,214.656 z"
   style="fill:#404010;stroke:#3f280d;stroke-width:8" />
			<path
   id="path2960"
   d="M 139.087,217.364 C 146.167,227.272 150.734,237.033 152.791,246.646 L 149.596,247.883 C 145.337,234.522 137.173,223.685 125.11,215.377 C 116.575,209.46 104.85,204.213 89.936,199.636 C 71.484,193.974 55.643,192.696 42.408,195.799 C 34.936,197.544 26.93,201.486 18.393,207.622 L 16.275,205.351 C 18.723,202.749 22.512,199.758 27.641,196.385 C 35.412,191.263 43.2,187.656 51.008,185.558 C 58.337,183.541 65.767,182.58 73.303,182.675 C 80.837,182.769 88.475,184.004 96.22,186.38 C 113.89,191.805 128.177,202.133 139.087,217.364 z"
   style="fill:#404010;stroke:#3f280d;stroke-width:8" />
			<path
   id="path2962"
   d="M 236.225,61.45 C 229.143,51.542 224.577,41.781 222.52,32.168 L 225.715,30.93 C 229.975,44.29 238.137,55.128 250.2,63.436 C 258.735,69.353 270.461,74.601 285.375,79.177 C 303.826,84.839 319.668,86.118 332.903,83.014 C 340.375,81.269 348.381,77.327 356.918,71.191 L 359.035,73.462 C 356.588,76.065 352.799,79.055 347.67,82.428 C 339.898,87.549 332.111,91.157 324.302,93.256 C 316.974,95.272 309.543,96.233 302.008,96.139 C 294.475,96.044 286.834,94.81 279.09,92.433 C 261.42,87.01 247.133,76.681 236.225,61.45 z"
   style="fill:#404010;stroke:#3f280d;stroke-width:8" />
			<path
   id="path2964"
   d="M 328.975,123.519 C 326.142,118.631 321.817,115.856 316.841,117.14 C 311.903,118.424 306.927,123.271 301.377,129.733 C 292.267,140.295 284.994,150.568 278.87,159.888 C 278.066,161.131 277.262,162.373 276.535,163.575 C 272.363,170.534 269.644,177.078 269.875,184.783 C 270.143,193.398 273.971,201.393 280.516,205.991 C 282.201,207.151 284.077,207.814 286.104,207.938 L 287.444,207.938 C 292.305,207.689 297.971,204.665 304.095,199.198 C 313.741,190.623 320.899,180.516 326.678,169.54 C 327.711,167.594 328.668,165.604 329.51,163.575 C 332.305,157.031 334.066,150.112 333.912,142.449 C 333.797,135.49 332.075,128.863 328.975,123.519 z M 311.788,177.864 C 311.405,181.385 310.219,184.823 308.458,188.137 C 307.156,190.621 305.473,192.859 303.482,194.681 C 301.377,196.628 299.424,197.332 297.51,197.208 C 295.673,197.125 294.333,195.51 293.53,192.568 C 292.573,188.964 291.654,184.574 291.463,179.851 C 291.272,173.596 291.31,168.087 291.501,163.49 C 291.616,161.337 291.73,159.347 291.884,157.567 C 292.382,151.933 293.797,147.129 295.405,143.608 C 297.09,140.046 299.156,136.732 301.606,133.956 C 303.443,131.844 305.013,130.477 306.314,130.104 C 307.921,129.607 309.416,130.353 310.371,132.506 C 311.291,134.701 311.941,140.128 312.133,148.329 C 312.285,154.211 312.324,159.389 312.324,163.779 C 312.285,170.036 312.133,174.759 311.788,177.864 z"
   style="fill:#1b1f2d;fill-rule:evenodd;stroke:#000000;stroke-width:4" />
			<path
   id="path2966"
   d="M 194.289,129.582 C 195.969,130.045 200.9,130.655 201.553,130.843 C 202.621,124.822 203.317,118.603 204.104,112.319 C 204.364,111.317 204.627,110.317 204.881,109.312 C 206.332,103.689 207.361,97.994 207.992,92.318 C 208.533,90.448 209.118,88.599 209.751,86.782 C 206.914,85.918 203.895,85.379 200.74,85.054 C 200.736,85.065 200.734,85.076 200.73,85.086 C 200.327,85.027 199.922,84.959 199.521,84.914 C 199.388,86.735 199.207,88.563 198.98,90.395 C 197.334,95.799 196.042,101.376 195.154,107.05 C 194.973,108.172 194.802,109.292 194.629,110.413 C 192.842,116.557 190.99,122.602 189.57,128.613 C 190.246,128.701 193.377,129.511 194.289,129.582 z"
   style="fill:#1b1f2d;fill-rule:evenodd;stroke:#000000;stroke-width:4" />
			<path
   id="path2968"
   d="M 203.273,163.574 C 201.97,160.427 200.746,157.277 199.674,154.172 C 197.185,152.994 185.82,150.171 182.139,150.294 C 179.923,152.721 177.55,155.125 175.106,157.498 C 171.866,160.655 168.503,163.806 165.108,167.03 C 159.337,172.569 154.471,178.814 150.809,185.263 C 154.303,184.606 157.535,184.559 160.35,185.28 C 164.034,178.975 168.957,172.888 174.94,167.534 C 177.488,165.206 180.074,162.984 182.555,160.718 C 185.163,158.383 187.686,156.064 190.091,153.705 C 190.271,153.528 190.842,153.703 190.949,153.968 C 192.241,157.147 193.661,160.336 195.157,163.574 C 196.535,166.639 198.028,169.705 199.444,172.852 C 202.811,180.142 204.918,187.681 205.798,194.93 C 208.669,195.385 211.616,196.711 214.564,198.7 C 213.76,191.327 211.77,183.664 208.669,176.29 C 206.832,171.982 204.995,167.758 203.273,163.574 z"
   style="fill:#1b1f2d;fill-rule:evenodd;stroke:#000000;stroke-width:4" />
			<path
   id="path2970"
   d="M 259.463,175.379 C 252.076,172.688 244.574,169.331 237.263,164.817 C 236.612,164.402 235.923,163.988 235.272,163.574 C 228.421,159.142 221.646,153.964 214.756,148.828 C 214.565,152.929 214.68,156.947 215.063,161.006 C 216.134,161.876 217.206,162.704 218.239,163.574 C 224.709,168.71 231.063,173.763 237.569,177.947 C 244.842,182.628 252.421,185.901 259.77,188.509 C 259.502,184.119 259.387,179.77 259.463,175.379 z"
   style="fill:#1b1f2d;fill-rule:evenodd;stroke:#000000;stroke-width:4" />
			<path
   id="path2972"
   d="M 165.304,150.465 C 167.265,146.891 168.965,143.248 170.415,139.407 C 162.054,141.389 153.781,143.455 145.733,144.805 C 144.972,144.927 144.175,145.034 143.413,145.157 C 134.912,146.401 126.694,146.506 118.845,146.047 C 117.173,150.109 115.343,154.055 113.355,157.98 C 121.136,158.499 129.391,158.501 137.924,157.089 C 145.556,155.83 153.393,153.711 161.368,151.563 C 162.663,151.174 163.975,150.839 165.304,150.465 z"
   style="fill:#1b1f2d;fill-rule:evenodd;stroke:#000000;stroke-width:4" />
			<g
   id="g2974">
				<path
   id="path2976"
   d="M 140.464,64.157 C 132.452,65.359 124.715,65.447 117.251,64.423 C 109.785,63.4 102.579,61.347 95.631,58.266 C 88.219,55.034 81.054,50.311 74.128,44.093 C 69.555,39.996 66.253,36.477 64.217,33.541 L 66.648,31.609 C 74.18,38.944 81.514,44.029 88.644,46.863 C 101.272,51.894 117.128,52.98 136.215,50.117 C 151.643,47.803 164.017,44.351 173.335,39.766 C 186.497,33.339 196.177,23.831 202.37,11.251 L 205.347,12.947 C 201.888,22.15 195.923,31.126 187.451,39.875 C 174.403,53.319 158.742,61.415 140.464,64.157 z"
   style="fill:#404010;stroke:#3f280d;stroke-width:8" />
				<path
   id="path2978"
   d="M 107.176,124.129 C 105.251,113.145 102.65,100.83 98.476,87.522 C 95.945,79.389 93.3,72.966 89.277,69.829 C 85.218,66.678 80.147,67.509 75.609,70.872 C 70.644,74.548 66.434,79.948 63.568,86.29 C 60.388,93.264 59.26,100.311 59.229,107.428 C 59.197,109.624 59.287,111.829 59.463,114.027 C 60.415,126.395 62.976,138.512 68.429,150.209 C 71.882,157.657 75.883,162.68 80.246,164.837 L 81.476,165.367 C 83.388,166.058 85.372,166.194 87.378,165.797 C 95.21,164.174 101.895,158.354 105.558,150.551 C 108.825,143.57 108.926,136.484 107.857,128.442 C 107.666,127.048 107.421,125.589 107.176,124.129 z M 96.15,116.838 C 95.584,118.533 94.901,120.404 94.152,122.427 C 92.504,126.723 90.354,131.796 87.697,137.461 C 85.649,141.72 83.063,145.386 80.755,148.314 C 78.851,150.695 76.981,151.647 75.261,150.994 C 73.455,150.349 71.942,148.929 70.782,146.306 C 69.678,143.843 69.019,141.122 68.81,138.325 C 68.508,134.585 68.783,130.958 69.828,127.575 C 70.744,124.586 72.477,120.191 74.922,114.434 C 76.664,110.404 78.753,105.665 81.226,100.328 C 84.655,92.876 87.404,88.152 89.119,86.502 C 90.851,84.903 92.517,84.812 93.796,85.906 C 94.843,86.764 95.742,88.641 96.59,91.309 C 97.737,94.828 98.32,98.69 98.454,102.627 C 98.534,106.497 97.928,111.469 96.15,116.838 z"
   style="fill:#1b1f2d;fill-rule:evenodd;stroke:#000000;stroke-width:4" />
				<g
   id="g2980">
					<path
   id="path2982"
   d="M 229.178,208.987 C 237.189,207.785 244.926,207.697 252.391,208.721 C 259.858,209.744 267.063,211.797 274.011,214.877 C 281.422,218.11 288.588,222.833 295.514,229.051 C 300.087,233.148 303.39,236.667 305.425,239.603 L 302.994,241.535 C 295.462,234.2 288.129,229.115 280.998,226.281 C 268.369,221.25 252.515,220.164 233.427,223.027 C 217.999,225.341 205.625,228.793 196.307,233.378 C 183.146,239.805 173.466,249.313 167.272,261.894 L 164.296,260.197 C 167.754,250.994 173.719,242.018 182.191,233.269 C 195.238,219.824 210.898,211.729 229.178,208.987 z"
   style="fill:#ffff41;stroke:#fe9f34;stroke-width:8" />
					<path
   id="path2984"
   d="M 133.417,211.694 C 140.498,221.602 145.065,231.363 147.121,240.976 L 143.926,242.214 C 139.667,228.854 131.504,218.015 119.441,209.708 C 110.906,203.791 99.18,198.543 84.266,193.967 C 65.814,188.305 49.973,187.026 36.738,190.13 C 29.267,191.875 21.26,195.817 12.724,201.952 L 10.606,199.682 C 13.054,197.079 16.843,194.089 21.972,190.716 C 29.743,185.594 37.531,181.987 45.34,179.888 C 52.668,177.871 60.098,176.911 67.634,177.005 C 75.167,177.1 82.807,178.334 90.551,180.711 C 108.221,186.135 122.508,196.464 133.417,211.694 z"
   style="fill:#ffff41;stroke:#fe9f34;stroke-width:8" />
					<path
   id="path2986"
   d="M 134.794,58.488 C 126.783,59.689 119.045,59.778 111.581,58.754 C 104.115,57.731 96.909,55.677 89.961,52.597 C 82.55,49.365 75.384,44.641 68.458,38.424 C 63.885,34.327 60.583,30.808 58.547,27.872 L 60.979,25.939 C 68.511,33.275 75.844,38.359 82.975,41.193 C 95.603,46.226 111.459,47.31 130.546,44.447 C 145.974,42.134 158.348,38.682 167.666,34.097 C 180.828,27.67 190.508,18.163 196.702,5.581 L 199.678,7.279 C 196.219,16.481 190.255,25.456 181.783,34.205 C 168.734,47.65 153.073,55.746 134.794,58.488 z"
   style="fill:#ffff41;stroke:#fe9f34;stroke-width:8" />
					<path
   id="path2988"
   d="M 230.555,55.78 C 223.474,45.872 218.907,36.111 216.851,26.498 L 220.045,25.261 C 224.305,38.622 232.468,49.459 244.531,57.767 C 253.066,63.684 264.791,68.931 279.705,73.508 C 298.158,79.17 313.998,80.448 327.234,77.345 C 334.705,75.599 342.712,71.658 351.248,65.522 L 353.367,67.793 C 350.918,70.395 347.129,73.386 342,76.759 C 334.229,81.881 326.441,85.488 318.633,87.586 C 311.305,89.603 303.874,90.564 296.338,90.469 C 288.805,90.375 281.166,89.14 273.421,86.764 C 255.751,81.34 241.463,71.012 230.555,55.78 z"
   style="fill:#ffff41;stroke:#fe9f34;stroke-width:8" />
					<g
   id="g2990">
						<path
   id="path2992"
   d="M 323.305,117.851 C 320.473,112.962 316.148,110.188 311.172,111.471 C 306.234,112.755 301.258,117.602 295.708,124.064 C 286.598,134.626 279.325,144.899 273.2,154.218 C 272.396,155.461 271.593,156.703 270.865,157.906 C 266.693,164.865 263.975,171.409 264.205,179.114 C 264.474,187.729 268.301,195.723 274.846,200.322 C 276.531,201.481 278.407,202.144 280.435,202.268 L 281.776,202.268 C 286.636,202.02 292.301,198.997 298.425,193.528 C 308.071,184.954 315.229,174.847 321.008,163.87 C 322.042,161.924 322.999,159.935 323.842,157.906 C 326.635,151.361 328.397,144.444 328.242,136.781 C 328.128,129.821 326.405,123.193 323.305,117.851 z M 306.119,172.196 C 305.736,175.716 304.549,179.154 302.789,182.467 C 301.487,184.952 299.803,187.189 297.812,189.012 C 295.708,190.959 293.755,191.663 291.841,191.538 C 290.003,191.455 288.663,189.841 287.861,186.899 C 286.904,183.295 285.985,178.904 285.794,174.182 C 285.603,167.928 285.641,162.418 285.832,157.821 C 285.947,155.667 286.061,153.678 286.215,151.897 C 286.713,146.263 288.129,141.459 289.736,137.938 C 291.42,134.376 293.487,131.062 295.937,128.287 C 297.774,126.175 299.343,124.808 300.645,124.434 C 302.253,123.938 303.746,124.683 304.703,126.837 C 305.621,129.032 306.271,134.458 306.463,142.659 C 306.617,148.541 306.654,153.72 306.654,158.109 C 306.617,164.367 306.463,169.089 306.119,172.196 z"
   style="fill:#6a7bb5;fill-rule:evenodd;stroke:#983d72;stroke-width:4" />
						<path
   id="path2994"
   d="M 188.619,123.913 C 190.3,124.376 195.231,124.985 195.883,125.173 C 196.952,119.153 197.648,112.934 198.435,106.65 C 198.695,105.648 198.957,104.648 199.212,103.643 C 200.662,98.019 201.691,92.324 202.323,86.648 C 202.864,84.778 203.449,82.93 204.082,81.112 C 201.244,80.248 198.225,79.711 195.071,79.385 C 195.067,79.395 195.064,79.406 195.06,79.417 C 194.658,79.358 194.253,79.289 193.852,79.244 C 193.718,81.065 193.538,82.893 193.31,84.726 C 191.665,90.13 190.373,95.706 189.485,101.38 C 189.304,102.502 189.132,103.622 188.959,104.743 C 187.173,110.888 185.32,116.933 183.9,122.943 C 184.577,123.032 187.708,123.842 188.619,123.913 z"
   style="fill:#6a7bb5;fill-rule:evenodd;stroke:#983d72;stroke-width:4" />
						<path
   id="path2996"
   d="M 197.604,157.905 C 196.302,154.757 195.078,151.608 194.006,148.502 C 191.516,147.325 180.152,144.502 176.471,144.625 C 174.255,147.052 171.882,149.456 169.438,151.829 C 166.198,154.986 162.835,158.136 159.44,161.361 C 153.67,166.9 148.803,173.144 145.141,179.593 C 148.635,178.937 151.866,178.889 154.682,179.61 C 158.366,173.305 163.288,167.22 169.271,161.864 C 171.82,159.536 174.406,157.314 176.887,155.048 C 179.495,152.714 182.018,150.395 184.422,148.036 C 184.603,147.859 185.174,148.034 185.281,148.299 C 186.572,151.477 187.992,154.667 189.488,157.905 C 190.867,160.97 192.359,164.035 193.775,167.183 C 197.144,174.472 199.25,182.012 200.129,189.26 C 203,189.716 205.947,191.042 208.895,193.03 C 208.092,185.658 206.101,177.994 203,170.622 C 201.163,166.313 199.326,162.089 197.604,157.905 z"
   style="fill:#6a7bb5;fill-rule:evenodd;stroke:#983d72;stroke-width:4" />
						<path
   id="path2998"
   d="M 253.795,169.71 C 246.406,167.018 238.904,163.662 231.594,159.148 C 230.943,158.734 230.254,158.32 229.604,157.906 C 222.752,153.473 215.977,148.296 209.086,143.16 C 208.895,147.261 209.01,151.278 209.393,155.338 C 210.465,156.207 211.537,157.036 212.571,157.906 C 219.039,163.042 225.393,168.095 231.9,172.278 C 239.172,176.96 246.752,180.232 254.1,182.841 C 253.832,178.45 253.717,174.101 253.795,169.71 z"
   style="fill:#6a7bb5;fill-rule:evenodd;stroke:#983d72;stroke-width:4" />
						<path
   id="path3000"
   d="M 101.507,118.46 C 99.582,107.476 96.981,95.161 92.808,81.852 C 90.277,73.719 87.631,67.297 83.608,64.16 C 79.549,61.008 74.479,61.84 69.94,65.203 C 64.975,68.878 60.765,74.278 57.899,80.62 C 54.719,87.594 53.591,94.642 53.56,101.758 C 53.528,103.955 53.618,106.16 53.794,108.357 C 54.746,120.726 57.307,132.843 62.76,144.54 C 66.213,151.988 70.214,157.011 74.577,159.167 L 75.807,159.698 C 77.718,160.389 79.703,160.524 81.709,160.128 C 89.541,158.504 96.226,152.684 99.889,144.882 C 103.156,137.9 103.257,130.815 102.187,122.772 C 101.997,121.379 101.752,119.919 101.507,118.46 z M 90.481,111.168 C 89.915,112.864 89.231,114.735 88.483,116.757 C 86.835,121.054 84.685,126.126 82.028,131.792 C 79.979,136.051 77.395,139.717 75.087,142.645 C 73.183,145.026 71.313,145.977 69.593,145.325 C 67.787,144.68 66.274,143.26 65.114,140.637 C 64.01,138.174 63.351,135.452 63.142,132.656 C 62.84,128.916 63.115,125.289 64.16,121.906 C 65.076,118.918 66.809,114.522 69.255,108.764 C 70.997,104.735 73.085,99.996 75.559,94.658 C 78.988,87.206 81.738,82.483 83.452,80.832 C 85.184,79.234 86.85,79.143 88.129,80.236 C 89.176,81.094 90.075,82.972 90.923,85.639 C 92.071,89.159 92.654,93.02 92.787,96.958 C 92.864,100.827 92.258,105.8 90.481,111.168 z"
   style="fill:#6a7bb5;fill-rule:evenodd;stroke:#983d72;stroke-width:4" />
						<path
   id="path3002"
   d="M 159.635,144.796 C 161.596,141.222 163.296,137.578 164.746,133.738 C 156.385,135.719 148.112,137.786 140.064,139.136 C 139.302,139.258 138.505,139.365 137.744,139.488 C 129.242,140.731 121.024,140.836 113.176,140.377 C 111.504,144.439 109.674,148.386 107.687,152.31 C 115.468,152.83 123.723,152.831 132.255,151.419 C 139.887,150.16 147.724,148.042 155.7,145.894 C 156.994,145.505 158.306,145.169 159.635,144.796 z"
   style="fill:#6a7bb5;fill-rule:evenodd;stroke:#983d72;stroke-width:4" />
					</g>
				</g>
			</g>
		</g></svg>