<?xml version="1.0" encoding="UTF-8" standalone="no"?>
<!-- Generator: Adobe Illustrator 10, SVG Export Plug-In . SVG Version: 3.0.0 Build 76)  -->
<svg
   xmlns:dc="http://purl.org/dc/elements/1.1/"
   xmlns:cc="http://creativecommons.org/ns#"
   xmlns:rdf="http://www.w3.org/1999/02/22-rdf-syntax-ns#"
   xmlns:svg="http://www.w3.org/2000/svg"
   xmlns="http://www.w3.org/2000/svg"
   xmlns:sodipodi="http://sodipodi.sourceforge.net/DTD/sodipodi-0.dtd"
   xmlns:inkscape="http://www.inkscape.org/namespaces/inkscape"
   width="200"
   height="170"
   viewBox="0 0 468.311 255.521"
   style="overflow:visible"
   xml:space="preserve"
   id="svg3011"
   sodipodi:version="0.32"
   inkscape:version="0.46"
   sodipodi:docname="ThreeHappy.svg"
   inkscape:output_extension="org.inkscape.output.svg.inkscape"
   version="1.0"><metadata
   id="metadata3093"><rdf:RDF><cc:Work
       rdf:about=""><dc:format>image/svg+xml</dc:format><dc:type
         rdf:resource="http://purl.org/dc/dcmitype/StillImage" /></cc:Work></rdf:RDF></metadata><defs
   id="defs3091"><inkscape:perspective
   sodipodi:type="inkscape:persp3d"
   inkscape:vp_x="0 : 127.7605 : 1"
   inkscape:vp_y="0 : 1000 : 0"
   inkscape:vp_z="468.311 : 127.7605 : 1"
   inkscape:persp3d-origin="234.1555 : 85.173665 : 1"
   id="perspective3095" />
		
		
	</defs><sodipodi:namedview
   inkscape:window-height="670"
   inkscape:window-width="640"
   inkscape:pageshadow="2"
   inkscape:pageopacity="0.0"
   guidetolerance="10.0"
   gridtolerance="10.0"
   objecttolerance="10.0"
   borderopacity="1.0"
   bordercolor="#666666"
   pagecolor="#ffffff"
   id="base"
   showgrid="false"
   inkscape:zoom="1.1616212"
   inkscape:cx="234.1555"
   inkscape:cy="127.7605"
   inkscape:window-x="0"
   inkscape:window-y="0"
   inkscape:current-layer="svg3011" />
	<style
   type="text/css"
   id="style3013">
	
		@font-face{font-family:'Times-Roman';src:url(50AB865E.cef)}
	
	</style>
	
<g
   transform="matrix(2.341555,0,0,2.341555,-18.189683,-79.477548)"
   style="overflow:visible"
   id="g3032">
			<g
   id="g3034">
				<path
   id="path3036"
   d="M 65.48,71.753 C 66.827,72.683 68.987,72.231 71.333,70.647 C 73.865,68.963 76.024,66.525 77.929,63.559 C 79.183,61.574 80.089,59.588 80.577,57.703 C 80.763,56.898 80.879,56.094 80.925,55.34 C 81.018,53.003 80.205,51.419 78.672,50.916 C 77.162,50.413 75.258,50.866 72.959,52.475 C 71.054,53.807 69.197,55.566 67.57,57.703 C 67.315,58.03 67.059,58.356 66.827,58.708 C 65.247,60.97 64.179,63.508 63.854,65.972 C 63.552,68.586 64.04,70.748 65.48,71.753 z"
   style="fill:#013e55;stroke:#021004;stroke-width:5" />
				<path
   id="path3038"
   d="M 110.492,57.704 C 113.535,56.623 116.647,55.819 119.666,54.964 C 120.294,52.023 120.875,49.082 121.362,46.217 C 116.74,47.022 111.955,47.65 107.403,49.408 C 102.781,51.193 98.299,54.386 93.607,57.703 C 93.258,57.954 92.887,58.231 92.515,58.482 C 91.981,62.026 91.4,65.645 90.82,69.189 C 95.883,65.57 100.737,61.9 105.638,59.638 C 107.217,58.885 108.844,58.256 110.492,57.704 z"
   style="fill:#013e55;stroke:#021004;stroke-width:5" />
				<path
   id="path3040"
   d="M 150.906,40.411 C 147.167,38.174 142.033,36.515 137.203,33.147 C 128.005,26.688 122.594,18.745 118.041,12.587 C 118.041,13.09 118.041,13.567 118.018,14.02 C 119.784,16.986 121.223,20.052 122.849,22.566 C 125.287,26.311 129.19,30.056 133.463,33.901 C 135.461,35.686 137.691,37.546 139.317,39.984 C 140.827,42.221 141.012,45.338 140.176,48.932 C 139.455,52.023 138.457,54.964 137.389,57.704 C 137.063,58.583 136.692,59.438 136.344,60.267 C 134.904,63.811 133.348,67.028 131.768,69.792 C 129.143,74.367 126.287,78.439 123.314,81.832 C 121.293,84.17 118.367,86.708 114.697,90.328 C 114.628,90.83 114.604,91.333 114.604,91.786 C 122.454,87.06 130.211,79.62 138.109,71.075 C 141.964,66.878 145.565,63.057 148.376,59.287 C 148.771,58.759 149.165,58.231 149.536,57.704 C 151.743,54.662 153.462,51.621 154.321,48.605 C 155.272,45.262 154.181,42.396 150.906,40.411 z"
   style="fill:#013e55;stroke:#021004;stroke-width:5" />
				<path
   id="path3042"
   d="M 72.866,117.339 C 69.851,119.277 66.75,121.23 63.704,123.133 C 69.765,124.548 75.725,125.772 80.66,127.96 C 82.269,128.649 83.814,129.456 85.318,130.329 C 88.138,131.901 90.797,133.708 93.432,135.413 C 96.055,133.942 98.647,132.437 101.121,130.913 C 97.466,127.972 93.836,124.792 89.51,122.533 C 85.118,120.239 79.761,118.979 74.173,117.645 C 73.753,117.55 73.3,117.452 72.866,117.339 z"
   style="fill:#013e55;stroke:#021004;stroke-width:5" />
				<path
   id="path3044"
   d="M 121.395,134.185 C 120.176,123.012 122.571,113.705 124.192,106.22 C 123.814,106.552 123.456,106.866 123.1,107.148 C 122.038,110.432 120.684,113.538 119.87,116.419 C 118.667,120.723 118.429,126.125 118.36,131.875 C 118.339,134.553 118.413,137.455 117.655,140.286 C 116.971,142.896 114.753,145.094 111.501,146.838 C 108.704,148.338 105.835,149.529 103.072,150.534 C 102.197,150.871 101.309,151.155 100.456,151.441 C 96.843,152.699 93.399,153.653 90.28,154.291 C 85.111,155.34 80.167,155.881 75.655,155.888 C 72.565,155.913 68.727,155.391 63.585,155.023 C 63.162,155.302 62.769,155.617 62.429,155.916 C 71.16,158.694 81.87,159.61 93.502,159.901 C 99.2,160.027 104.446,160.21 109.133,159.833 C 109.79,159.78 110.447,159.729 111.089,159.659 C 114.83,159.309 118.249,158.594 121.082,157.249 C 124.221,155.757 125.653,153.046 124.983,149.275 C 124.195,144.987 122.054,140.037 121.395,134.185 z"
   style="fill:#013e55;stroke:#021004;stroke-width:5" />
				<path
   id="path3046"
   d="M 33.911,120.032 C 31.09,119.296 28.044,119.065 24.732,119.41 C 21.906,119.697 19.336,120.503 17.396,121.837 C 15.437,123.187 14.249,124.88 14.458,126.489 C 14.644,127.995 16.166,129.194 18.888,129.893 C 21.511,130.556 24.803,130.571 28.182,130.075 C 31.636,129.513 34.575,128.632 36.599,127.317 C 38.657,126.004 39.528,124.557 39.005,123.163 C 38.496,121.785 36.638,120.698 33.911,120.032 z"
   style="fill:#013e55;stroke:#021004;stroke-width:5" />
				<path
   id="path3048"
   d="M 200.225,110.158 C 201.586,109.337 202.479,107.595 202.748,104.801 C 202.971,102.488 202.838,99.933 202.269,97.309 C 202.186,96.903 202.103,96.496 201.986,96.091 C 201.291,93.421 200.054,90.96 198.391,89.114 C 196.599,87.187 194.638,86.156 192.939,86.598 C 191.357,87.019 190.298,88.955 189.98,91.768 C 189.619,94.787 190.07,98.012 191.089,101.386 C 191.785,103.629 192.708,105.607 193.825,107.202 C 194.315,107.865 194.852,108.475 195.395,109.001 C 197.114,110.589 198.847,110.998 200.225,110.158 z"
   style="fill:#230600;stroke:#4b2806;stroke-width:5" />
				<path
   id="path3050"
   d="M 176.087,145.681 C 178.475,141.643 181.104,137.595 182.721,132.992 C 184.364,128.317 184.846,122.836 185.367,117.113 C 185.402,116.685 185.433,116.222 185.483,115.777 C 183.134,113.07 180.758,110.279 178.439,107.537 C 177.906,113.738 177.545,119.812 176.085,125.008 C 175.632,126.699 175.055,128.344 174.405,129.957 C 173.252,132.973 171.843,135.862 170.533,138.713 C 172.364,141.099 174.225,143.449 176.087,145.681 z"
   style="fill:#230600;stroke:#4b2806;stroke-width:5" />
				<path
   id="path3052"
   d="M 161.324,171.921 C 165.453,170.529 170.047,167.702 175.745,166.214 C 186.629,163.411 196.183,164.45 203.822,164.985 C 203.439,164.659 203.077,164.348 202.748,164.038 C 199.346,163.455 196.078,162.559 193.111,162.165 C 188.679,161.589 183.299,162.125 177.599,162.88 C 174.945,163.241 172.082,163.73 169.172,163.383 C 166.491,163.079 163.999,161.197 161.808,158.228 C 159.925,155.674 158.335,153.005 156.946,150.414 C 156.488,149.596 156.08,148.759 155.675,147.955 C 153.914,144.559 152.477,141.287 151.4,138.291 C 149.624,133.325 148.381,128.51 147.731,124.045 C 147.264,120.99 147.233,117.117 146.862,111.977 C 146.526,111.597 146.159,111.253 145.814,110.959 C 144.312,119.998 144.935,130.729 146.309,142.282 C 146.998,147.939 147.567,153.158 148.611,157.743 C 148.757,158.386 148.901,159.029 149.061,159.654 C 149.942,163.306 151.139,166.588 152.875,169.2 C 154.8,172.093 157.688,173.123 161.324,171.921 z"
   style="fill:#230600;stroke:#4b2806;stroke-width:5" />
				<path
   id="path3054"
   d="M 174.881,83.094 C 176.172,82.394 176.983,80.399 177.252,77.606 C 177.577,74.708 177.369,71.661 176.557,68.432 C 175.868,65.677 174.703,63.247 173.106,61.518 C 171.491,59.772 169.644,58.838 168.082,59.275 C 166.618,59.674 165.649,61.351 165.346,64.146 C 165.065,66.837 165.521,70.097 166.493,73.37 C 167.544,76.708 168.837,79.491 170.427,81.306 C 172.02,83.156 173.575,83.812 174.881,83.094 z"
   style="fill:#230600;stroke:#4b2806;stroke-width:5" />
				<path
   id="path3056"
   d="M 74.538,87.265 C 73.168,86.737 71.124,87.415 68.825,89.024 C 66.409,90.657 64.226,92.794 62.299,95.509 C 60.65,97.821 59.558,100.284 59.279,102.621 C 59,104.983 59.488,106.995 60.835,107.899 C 62.089,108.753 63.994,108.402 66.316,106.819 C 68.545,105.286 70.729,102.822 72.587,99.957 C 74.445,96.991 75.722,94.201 76.071,91.813 C 76.443,89.4 75.932,87.792 74.538,87.265 z"
   style="fill:#013e55;stroke:#021004;stroke-width:5" />
			</g>
			<g
   id="g3058">
				<g
   id="g3060">
					<g
   id="g3062">
						<path
   id="path3064"
   d="M 62.48,66.753 C 63.827,67.683 65.987,67.231 68.333,65.648 C 70.865,63.964 73.025,61.525 74.929,58.56 C 76.183,56.575 77.089,54.589 77.577,52.704 C 77.763,51.9 77.879,51.096 77.926,50.341 C 78.019,48.004 77.206,46.42 75.673,45.917 C 74.164,45.415 72.259,45.867 69.96,47.476 C 68.055,48.808 66.198,50.567 64.571,52.704 C 64.316,53.031 64.06,53.357 63.828,53.709 C 62.249,55.971 61.181,58.51 60.855,60.973 C 60.552,63.587 61.04,65.748 62.48,66.753 z"
   style="fill:#fe370f;stroke:#983d72;stroke-width:5" />
						<path
   id="path3066"
   d="M 107.492,52.704 C 110.535,51.623 113.647,50.819 116.667,49.964 C 117.294,47.023 117.875,44.083 118.362,41.217 C 113.74,42.022 108.955,42.65 104.403,44.409 C 99.781,46.194 95.299,49.386 90.607,52.704 C 90.259,52.955 89.887,53.232 89.515,53.483 C 88.981,57.026 88.4,60.646 87.82,64.19 C 92.883,60.57 97.737,56.901 102.638,54.639 C 104.217,53.885 105.844,53.256 107.492,52.704 z"
   style="fill:#fe370f;stroke:#983d72;stroke-width:5" />
						<path
   id="path3068"
   d="M 147.906,35.411 C 144.167,33.174 139.033,31.515 134.203,28.147 C 125.005,21.688 119.594,13.745 115.041,7.587 C 115.041,8.09 115.041,8.567 115.018,9.02 C 116.784,11.985 118.223,15.052 119.849,17.565 C 122.287,21.31 126.19,25.055 130.463,28.901 C 132.461,30.685 134.691,32.545 136.317,34.983 C 137.827,37.22 138.012,40.337 137.176,43.931 C 136.455,47.022 135.457,49.963 134.389,52.703 C 134.064,53.582 133.692,54.437 133.344,55.266 C 131.904,58.81 130.348,62.027 128.768,64.792 C 126.143,69.367 123.287,73.438 120.314,76.832 C 118.293,79.17 115.367,81.708 111.697,85.328 C 111.628,85.831 111.604,86.333 111.604,86.786 C 119.455,82.06 127.211,74.62 135.109,66.075 C 138.964,61.878 142.565,58.057 145.376,54.287 C 145.771,53.759 146.165,53.231 146.536,52.704 C 148.743,49.662 150.462,46.621 151.321,43.605 C 152.272,40.262 151.181,37.396 147.906,35.411 z"
   style="fill:#fe370f;stroke:#983d72;stroke-width:5" />
						<path
   id="path3070"
   d="M 69.866,112.339 C 66.851,114.277 63.75,116.23 60.704,118.133 C 66.765,119.548 72.725,120.773 77.66,122.96 C 79.269,123.649 80.814,124.456 82.318,125.329 C 85.138,126.901 87.797,128.708 90.432,130.413 C 93.055,128.942 95.647,127.437 98.121,125.913 C 94.466,122.972 90.836,119.792 86.51,117.534 C 82.118,115.239 76.762,113.979 71.173,112.645 C 70.753,112.55 70.3,112.452 69.866,112.339 z"
   style="fill:#fe370f;stroke:#983d72;stroke-width:5" />
						<path
   id="path3072"
   d="M 118.395,129.185 C 117.176,118.012 119.571,108.705 121.192,101.22 C 120.814,101.552 120.456,101.867 120.1,102.149 C 119.038,105.432 117.684,108.539 116.87,111.419 C 115.667,115.723 115.429,121.125 115.36,126.875 C 115.339,129.553 115.413,132.455 114.655,135.286 C 113.971,137.896 111.753,140.094 108.501,141.838 C 105.704,143.338 102.835,144.529 100.072,145.534 C 99.197,145.871 98.309,146.155 97.456,146.441 C 93.843,147.699 90.399,148.653 87.28,149.292 C 82.111,150.34 77.167,150.881 72.656,150.888 C 69.566,150.913 65.727,150.391 60.586,150.023 C 60.162,150.302 59.77,150.617 59.43,150.916 C 68.161,153.694 78.87,154.61 90.502,154.902 C 96.2,155.028 101.446,155.21 106.133,154.833 C 106.79,154.78 107.447,154.729 108.089,154.66 C 111.83,154.309 115.249,153.594 118.082,152.249 C 121.222,150.757 122.653,148.046 121.983,144.275 C 121.195,139.988 119.054,135.037 118.395,129.185 z"
   style="fill:#fe370f;stroke:#983d72;stroke-width:5" />
						<path
   id="path3074"
   d="M 30.912,115.032 C 28.09,114.296 25.044,114.065 21.733,114.41 C 18.907,114.697 16.337,115.503 14.397,116.837 C 12.438,118.187 11.25,119.88 11.459,121.489 C 11.645,122.996 13.167,124.194 15.889,124.893 C 18.513,125.556 21.804,125.571 25.183,125.075 C 28.637,124.513 31.576,123.632 33.6,122.317 C 35.658,121.004 36.529,119.557 36.006,118.163 C 35.496,116.785 33.638,115.698 30.912,115.032 z"
   style="fill:#fe370f;stroke:#983d72;stroke-width:5" />
					</g>
					<g
   id="g3076">
						<path
   id="path3078"
   d="M 197.225,105.158 C 198.586,104.337 199.479,102.595 199.748,99.801 C 199.971,97.488 199.839,94.933 199.269,92.309 C 199.186,91.903 199.103,91.496 198.987,91.091 C 198.291,88.421 197.054,85.96 195.392,84.114 C 193.599,82.187 191.638,81.156 189.939,81.598 C 188.357,82.019 187.298,83.956 186.98,86.768 C 186.619,89.787 187.07,93.012 188.089,96.386 C 188.786,98.629 189.708,100.608 190.825,102.202 C 191.315,102.865 191.852,103.475 192.395,104.001 C 194.114,105.589 195.847,105.998 197.225,105.158 z"
   style="fill:#b8d7e8;stroke:#6a7bb5;stroke-width:5" />
						<path
   id="path3080"
   d="M 173.087,140.681 C 175.475,136.643 178.104,132.596 179.721,127.992 C 181.364,123.317 181.846,117.836 182.367,112.113 C 182.402,111.685 182.433,111.222 182.483,110.777 C 180.134,108.07 177.758,105.279 175.439,102.537 C 174.906,108.738 174.545,114.812 173.085,120.008 C 172.632,121.699 172.056,123.344 171.405,124.957 C 170.252,127.973 168.843,130.862 167.533,133.713 C 169.364,136.099 171.225,138.449 173.087,140.681 z"
   style="fill:#b8d7e8;stroke:#6a7bb5;stroke-width:5" />
						<path
   id="path3082"
   d="M 158.324,166.921 C 162.453,165.529 167.047,162.702 172.745,161.214 C 183.629,158.411 193.183,159.45 200.822,159.985 C 200.44,159.659 200.077,159.348 199.748,159.038 C 196.346,158.455 193.079,157.559 190.111,157.165 C 185.679,156.589 180.299,157.126 174.599,157.88 C 171.945,158.241 169.082,158.73 166.173,158.383 C 163.491,158.079 160.999,156.197 158.808,153.229 C 156.925,150.675 155.335,148.005 153.946,145.415 C 153.488,144.596 153.08,143.759 152.675,142.955 C 150.914,139.559 149.477,136.287 148.401,133.291 C 146.624,128.325 145.381,123.51 144.731,119.046 C 144.264,115.99 144.233,112.117 143.862,106.977 C 143.526,106.597 143.159,106.253 142.814,105.959 C 141.312,114.998 141.935,125.729 143.309,137.282 C 143.998,142.939 144.567,148.158 145.611,152.743 C 145.757,153.386 145.901,154.029 146.061,154.654 C 146.942,158.306 148.139,161.588 149.875,164.2 C 151.801,167.093 154.688,168.123 158.324,166.921 z"
   style="fill:#b8d7e8;stroke:#6a7bb5;stroke-width:5" />
						<path
   id="path3084"
   d="M 171.881,78.094 C 173.172,77.394 173.983,75.399 174.252,72.606 C 174.577,69.708 174.369,66.661 173.557,63.432 C 172.868,60.676 171.703,58.247 170.106,56.517 C 168.491,54.771 166.644,53.837 165.082,54.274 C 163.618,54.673 162.649,56.35 162.346,59.145 C 162.065,61.836 162.521,65.096 163.493,68.369 C 164.544,71.707 165.837,74.491 167.427,76.305 C 169.02,78.156 170.575,78.812 171.881,78.094 z"
   style="fill:#b8d7e8;stroke:#6a7bb5;stroke-width:5" />
					</g>
				</g>
				<g
   id="g3086">
					<path
   id="path3088"
   d="M 71.539,82.265 C 70.168,81.737 68.125,82.416 65.825,84.024 C 63.409,85.658 61.226,87.794 59.299,90.508 C 57.65,92.821 56.558,95.284 56.279,97.622 C 56,99.984 56.488,101.995 57.835,102.899 C 59.089,103.754 60.994,103.402 63.316,101.819 C 65.545,100.286 67.729,97.822 69.587,94.958 C 71.444,91.991 72.722,89.201 73.07,86.813 C 73.443,84.401 72.932,82.792 71.539,82.265 z"
   style="fill:#fe370f;stroke:#983d72;stroke-width:5" />
				</g>
			</g>
		</g></svg>