<?xml version="1.0" encoding="UTF-8" standalone="no"?>
<!-- Generator: Adobe Illustrator 10, SVG Export Plug-In . SVG Version: 3.0.0 Build 76)  -->
<svg
   xmlns:dc="http://purl.org/dc/elements/1.1/"
   xmlns:cc="http://creativecommons.org/ns#"
   xmlns:rdf="http://www.w3.org/1999/02/22-rdf-syntax-ns#"
   xmlns:svg="http://www.w3.org/2000/svg"
   xmlns="http://www.w3.org/2000/svg"
   xmlns:sodipodi="http://sodipodi.sourceforge.net/DTD/sodipodi-0.dtd"
   xmlns:inkscape="http://www.inkscape.org/namespaces/inkscape"
   width="360.05154"
   height="300.26871"
   viewBox="0 0 468.311 377.119"
   style="overflow:visible"
   xml:space="preserve"
   id="svg3097"
   sodipodi:version="0.32"
   inkscape:version="0.46"
   sodipodi:docname="Together.svg"
   inkscape:output_extension="org.inkscape.output.svg.inkscape"
   version="1.0"><metadata
   id="metadata3191"><rdf:RDF><cc:Work
       rdf:about=""><dc:format>image/svg+xml</dc:format><dc:type
         rdf:resource="http://purl.org/dc/dcmitype/StillImage" /></cc:Work></rdf:RDF></metadata><defs
   id="defs3189"><inkscape:perspective
   sodipodi:type="inkscape:persp3d"
   inkscape:vp_x="0 : 188.55949 : 1"
   inkscape:vp_y="0 : 1000 : 0"
   inkscape:vp_z="468.311 : 188.55949 : 1"
   inkscape:persp3d-origin="234.1555 : 125.70633 : 1"
   id="perspective3193" />
		
		
	</defs><sodipodi:namedview
   inkscape:window-height="670"
   inkscape:window-width="640"
   inkscape:pageshadow="2"
   inkscape:pageopacity="0.0"
   guidetolerance="10.0"
   gridtolerance="10.0"
   objecttolerance="10.0"
   borderopacity="1.0"
   bordercolor="#666666"
   pagecolor="#ffffff"
   id="base"
   showgrid="false"
   inkscape:zoom="1.1616212"
   inkscape:cx="234.1555"
   inkscape:cy="188.55949"
   inkscape:window-x="40"
   inkscape:window-y="0"
   inkscape:current-layer="svg3097" />
	<style
   type="text/css"
   id="style3099">
	
		@font-face{font-family:'Times-Roman';src:url(D71126.cef)}
	
	</style>
	
<g
   transform="matrix(1.3006777,0,0,1.3006777,-10.712491,-3.5869659)"
   style="overflow:visible"
   id="g3118">
			<path
   id="path3120"
   d="M 150.581,89.06 C 150.383,91.861 149.981,95.253 149.139,99.364 C 148.977,100.199 148.788,101.057 148.579,101.956 C 147.041,108.577 144.347,117.176 141.499,127.322 C 140.715,130.117 140.116,132.725 139.722,135.104 C 138.649,141.586 139.115,146.291 141.447,148.1 C 138.214,153.011 134.559,157.737 130.414,162.159 C 128.243,161.341 126.071,160.522 124.909,158 C 121.014,161.335 117.049,164.619 113.123,167.923 C 114.385,170.769 116.762,171.72 119.161,172.63 C 115.183,176.305 111.238,179.978 107.377,183.675 C 113.795,185.169 120.747,185.284 128.392,183.525 C 132.086,180.111 135.728,176.636 139.272,173.168 C 142.074,172.307 144.993,171.071 147.907,169.712 C 150.907,166.516 153.699,163.254 156.251,159.826 C 153.64,160.986 151.037,162.029 148.517,162.766 C 151.626,158.312 154.354,153.659 156.79,148.882 C 158.523,148.025 160.304,147.001 162.095,145.827 C 167.419,142.333 172.932,137.483 178.244,131.725 C 182.682,126.927 186.526,122.534 189.729,118.848 C 191.147,117.22 192.434,115.735 193.587,114.392 C 196.484,111.078 198.465,108.444 198.834,105.518 C 199.299,101.829 198.023,97.253 196.053,92.067 C 193.833,86.141 191.149,79.923 188.235,73.751 C 185.315,67.558 182.744,62.928 179.45,61.296 C 176.855,60.033 173.762,61.134 170.643,62.721 C 167.694,64.219 164.578,66.032 161.724,68.229 C 158.863,70.44 156.599,72.801 154.858,75.067 C 153.19,77.248 151.964,79.503 151.334,82.044 C 150.801,84.254 150.742,86.535 150.581,89.06 z M 161.241,89.248 C 163.15,87.527 165.072,86.209 167.726,84.829 C 170.372,83.463 172.988,82.891 175.427,83.717 C 177.73,84.461 179.755,86.346 181.412,88.865 C 182.993,91.244 184.396,94.227 185.271,97.68 C 186.011,100.552 186.061,103.832 185.143,107.304 C 184.488,109.764 183.296,112.346 181.628,114.958 C 181.041,115.882 180.408,116.803 179.711,117.726 C 177.012,121.291 173.473,124.883 169.121,127.809 C 165.264,130.404 161.263,131.672 158.048,131.335 C 154.716,130.977 151.986,129.132 150.721,126.061 C 149.286,122.58 150.618,116.222 152.218,110.303 C 153.059,107.191 153.855,104.436 154.641,102.004 C 155.372,99.684 156.106,97.657 156.842,95.925 C 158.346,92.392 159.9,90.414 161.241,89.248 z"
   style="fill:#070637;fill-rule:evenodd;stroke:#021004;stroke-width:5" />
			<path
   id="path3122"
   d="M 275.084,114.456 C 276.85,115.773 278.501,117.158 279.711,118.592 C 272.601,121.742 265.366,124.781 258.379,128.077 C 251.537,131.304 244.863,134.716 238.462,137.998 C 238.479,134.176 236.741,131.427 233.619,129.319 C 230.562,127.207 226.938,125.572 222.975,124.21 C 217.86,122.398 212.922,121.491 207.885,121.963 C 203.197,122.411 198.511,124.532 194.511,128.879 C 190.187,133.629 185.946,139.114 180.636,144.712 C 180.375,144.987 180.121,145.248 179.88,145.516 C 177.773,147.795 175.869,150.084 174.287,152.441 C 171.662,156.335 169.91,160.42 169.475,164.912 C 168.74,172.812 171.774,182.277 177.632,191.756 C 183.973,201.973 191.602,210.11 198.604,215.735 C 203.92,220.009 208.801,222.475 212.542,222.895 C 216.196,223.291 218.863,221.054 220.583,216.901 C 222.269,212.887 222.886,206.742 223.319,199.169 C 223.732,192.612 223.625,184.69 224.744,176.663 C 224.846,176.015 224.947,175.368 225.049,174.72 C 225.433,172.38 226.038,170.146 226.754,168.018 C 228.489,162.862 230.927,158.287 232.707,154.076 C 238.181,150.749 243.966,147.345 250.128,144.193 C 256.482,140.976 263.189,138.032 270.185,135.122 C 266.765,138.425 263.446,141.62 260.231,144.898 C 265.113,140.661 270.459,135.723 275.783,131.402 C 281.24,126.971 286.676,123.121 290.559,120.024 C 285.81,118.02 280.975,115.959 275.084,114.456 z M 207.388,189.795 C 205.807,191.648 204.055,193.018 201.927,192.692 C 199.602,192.342 197.317,191.436 195.356,190.026 C 192.47,187.962 189.719,184.307 187.536,180.143 C 185.429,176.155 184.286,171.967 184.496,167.942 C 184.648,164.777 185.453,161.559 186.828,158.46 C 187.481,156.997 188.266,155.564 189.169,154.187 C 189.89,153.087 190.689,152.06 191.545,151.114 C 193.366,149.064 195.399,147.306 197.224,145.552 C 199.413,143.435 201.677,141.737 204.218,141.302 C 206.747,140.827 209.214,141.385 211.657,142.662 C 214.067,143.941 215.771,145.855 216.819,148.499 C 217.764,150.852 218.15,154.205 217.473,158.128 C 217.2,159.669 216.762,161.286 216.243,162.97 C 215.455,165.55 214.506,168.333 213.723,171.37 C 213.723,171.404 213.702,171.446 213.702,171.481 C 212.612,175.797 211.923,179.645 211.096,182.172 C 210.051,185.521 208.795,188.138 207.388,189.795 z"
   style="fill:#070637;fill-rule:evenodd;stroke:#021004;stroke-width:5" />
			<path
   id="path3124"
   d="M 211.163,230.762 C 207.3,230.666 202.991,229.52 198.342,227.341 C 193.692,225.3 187.901,221.074 181.048,215.208 C 173.807,208.843 168.623,203.255 165.505,198.556 C 163.139,194.704 161.608,190.957 160.929,187.41 C 160.542,185.167 160.544,182.086 160.952,178.374 C 160.978,178.281 161.009,178.19 161.034,178.098 L 160.982,178.103 C 161,177.949 161.013,177.799 161.033,177.642 L 159.914,176.687 C 159.473,177.763 159.093,178.861 158.761,179.974 C 157.57,182.06 156.233,183.841 154.77,185.243 C 152.003,187.722 148.322,189.851 143.778,191.652 C 139.333,193.447 132.77,194.744 124.492,195.631 C 115.654,196.559 108.705,196.602 103.733,195.714 C 99.756,194.908 96.437,193.693 93.869,191.943 C 92.061,190.731 90.058,188.667 88.035,185.816 L 86.697,185.95 C 89.127,192.7 93.933,198.248 100.885,202.412 C 107.83,206.59 115.751,208.203 124.524,207.279 C 133.435,206.334 141.356,203.036 148.01,197.336 C 151.987,194.053 155.136,190.414 157.457,186.486 C 156.925,191.369 157.299,196.531 158.55,201.92 C 160.695,210.959 165.393,218.732 172.569,224.998 C 179.948,231.343 188.204,234.957 197.313,235.621 C 206.316,236.269 214.252,234.316 221.039,229.896 L 219.921,228.942 C 216.807,230.232 213.895,230.837 211.163,230.762 z"
   style="fill:#070637;fill-rule:evenodd;stroke:#021004;stroke-width:5" />
			<path
   id="path3126"
   d="M 351.715,171.635 C 348.965,170.698 344.154,167.21 335.524,162.25 C 330.199,159.196 323.488,156.706 316.363,154.829 C 316.25,154.796 316.136,154.772 316.023,154.738 C 308.688,152.876 300.585,152.676 291.553,153.862 C 291.325,153.282 291.319,152.676 291.502,152.089 C 297.815,150.632 305.966,149.042 315.651,149.157 C 315.729,149.162 315.796,149.157 315.874,149.163 C 322.181,149.257 328.302,150.235 334.197,151.003 C 344.544,152.367 351.639,153.466 355.45,154.301 C 358.981,155.093 361.548,156.431 363.379,158.065 C 365.425,159.921 366.566,162.033 365.176,164.517 C 363.787,167.033 361.238,169.132 358.656,170.742 C 356.522,172.064 354.205,172.476 351.715,171.635 z"
   style="fill:#070637;stroke:#021004;stroke-width:5" />
			<path
   id="path3128"
   d="M 274.477,153.397 C 277.695,152.32 279.076,152.034 279.311,152.561 C 279.67,153.288 277.067,154.745 277.928,157.171 C 279.153,160.539 287.696,161.347 290.863,164.689 C 292.656,166.583 289.551,169.016 286.985,169.855 C 284.485,170.689 281.854,170.063 276.782,169.159 C 267.269,167.462 254.861,167.343 252.21,163.73 C 252.136,163.622 252.073,163.513 252.044,163.413 L 252.019,163.199 C 251.994,161.475 257.472,159.489 261.886,157.85 C 266.926,155.974 271.322,154.419 274.477,153.397 z"
   style="fill:#070637;stroke:#021004;stroke-width:5" />
			<path
   id="path3130"
   d="M 303.46,216.181 C 299.59,209.677 294.002,203.806 286.775,198.258 C 287.025,197.687 287.449,197.253 287.993,196.968 C 293.489,200.402 300.376,205.041 307.143,211.971 C 307.194,212.031 307.245,212.074 307.296,212.132 C 311.689,216.657 315.325,221.678 318.951,226.39 C 325.302,234.671 329.543,240.466 331.647,243.75 C 333.584,246.807 334.452,249.567 334.592,252.019 C 334.726,254.777 334.039,257.077 331.3,257.851 C 328.539,258.649 325.251,258.33 322.288,257.643 C 319.844,257.07 317.914,255.721 316.748,253.367 C 315.465,250.76 314.531,244.891 311.936,235.281 C 310.33,229.356 307.344,222.85 303.634,216.485 C 303.579,216.38 303.516,216.284 303.46,216.181 z"
   style="fill:#070637;stroke:#021004;stroke-width:5" />
			<path
   id="path3132"
   d="M 251.978,177.415 C 252.002,177.286 252.035,177.165 252.085,177.073 L 252.219,176.904 C 253.418,175.667 258.698,178.136 262.978,180.098 C 267.87,182.336 272.079,184.346 275.031,185.854 C 278.067,187.368 279.247,188.141 279.04,188.681 C 278.78,189.449 275.909,188.638 274.803,190.963 C 273.286,194.211 278.757,200.822 278.633,205.425 C 278.562,208.031 274.645,207.557 272.237,206.335 C 269.88,205.157 268.462,202.855 265.515,198.629 C 259.988,190.702 251.299,181.845 251.978,177.415 z"
   style="fill:#070637;stroke:#021004;stroke-width:5" />
			<path
   id="path3134"
   d="M 252.153,221.076 C 253.611,227.39 255.201,235.541 255.086,245.226 C 255.08,245.304 255.085,245.371 255.08,245.449 C 254.986,251.755 254.008,257.876 253.24,263.772 C 251.875,274.119 250.777,281.213 249.941,285.025 C 249.15,288.556 247.812,291.123 246.177,292.954 C 244.322,295 242.21,296.141 239.726,294.75 C 237.21,293.362 235.11,290.812 233.5,288.231 C 232.177,286.096 231.767,283.78 232.606,281.291 C 233.543,278.539 237.032,273.729 241.991,265.099 C 245.046,259.774 247.536,253.063 249.413,245.938 C 249.446,245.825 249.47,245.712 249.503,245.598 C 251.366,238.263 251.565,230.16 250.38,221.128 C 250.961,220.9 251.566,220.894 252.153,221.076 z"
   style="fill:#070637;stroke:#021004;stroke-width:5" />
			<path
   id="path3136"
   d="M 240.83,181.618 L 241.043,181.593 C 242.767,181.568 244.754,187.046 246.393,191.459 C 248.269,196.501 249.825,200.897 250.846,204.052 C 251.922,207.269 252.209,208.651 251.681,208.886 C 250.955,209.245 249.498,206.642 247.071,207.503 C 243.703,208.728 242.895,217.271 239.553,220.438 C 237.66,222.23 235.225,219.126 234.387,216.56 C 233.553,214.06 234.18,211.429 235.084,206.357 C 236.781,196.843 236.9,184.435 240.512,181.785 C 240.62,181.71 240.729,181.647 240.83,181.618 z"
   style="fill:#070637;stroke:#021004;stroke-width:5" />
			<path
   id="path3138"
   d="M 132.021,74.504 C 130.137,65.591 127.254,58.016 123.059,51.718 C 122.99,51.622 122.931,51.523 122.861,51.428 C 118.722,45.332 114.143,39.831 109.491,35.824 C 101.944,29.334 97.054,25.957 95.257,23.674 C 93.636,21.606 93.254,19.284 93.792,16.831 C 94.451,13.861 95.584,10.759 97.495,8.613 C 99.377,6.476 101.747,6.849 104.177,8.162 C 106.327,9.346 108.443,11.322 110.363,14.388 C 112.417,17.705 115.813,24.031 120.54,33.336 C 123.224,38.641 126.183,44.088 128.367,50.004 C 128.398,50.076 128.416,50.14 128.447,50.212 C 131.776,59.308 132.986,67.523 133.711,73.962 C 133.218,74.332 132.645,74.526 132.021,74.504 z"
   style="fill:#070637;stroke:#021004;stroke-width:5" />
			<path
   id="path3140"
   d="M 122.506,93.521 C 119.966,89.039 118.502,86.766 118.457,84.131 C 118.395,81.432 119.659,77.694 122.04,78.756 C 126.245,80.632 129.846,88.42 133.43,88.455 C 136.006,88.461 136.514,85.521 137.318,85.619 C 137.895,85.665 138.083,87.063 138.137,90.455 C 138.223,93.769 138.218,98.433 138.125,103.812 C 138.047,108.519 137.994,114.347 136.36,114.895 L 136.15,114.942 C 136.046,114.948 135.922,114.925 135.796,114.892 C 131.507,113.591 127.27,101.929 122.506,93.521 z"
   style="fill:#070637;stroke:#021004;stroke-width:5" />
			<path
   id="path3142"
   d="M 25.785,67.785 C 28.142,67.102 31.035,67.003 34.562,67.813 C 38.36,68.706 45.234,70.779 55.156,74.015 C 60.805,75.868 66.749,77.628 72.477,80.267 C 72.55,80.296 72.608,80.329 72.68,80.358 C 81.466,84.436 88.131,89.389 93.197,93.43 C 93.109,94.038 92.841,94.581 92.385,95.007 C 84.751,90.036 77.356,86.718 69.935,85.232 C 69.819,85.213 69.706,85.186 69.59,85.167 C 62.353,83.783 55.225,83.132 49.103,83.587 C 39.177,84.335 33.332,85.404 30.446,85.061 C 27.838,84.745 25.925,83.373 24.571,81.259 C 22.938,78.693 21.545,75.698 21.379,72.829 C 21.198,69.986 23.138,68.575 25.785,67.785 z"
   style="fill:#070637;stroke:#021004;stroke-width:5" />
			<path
   id="path3144"
   d="M 89.6,111.405 C 87.647,109.541 85.898,106.004 88.332,105.071 C 92.631,103.425 100.685,106.385 103.244,103.875 C 105.069,102.058 103.35,99.62 103.988,99.12 C 104.428,98.745 105.55,99.6 107.987,101.96 C 110.391,104.243 113.685,107.544 117.423,111.414 C 120.696,114.798 124.78,118.956 124.013,120.499 L 123.898,120.681 C 123.828,120.76 123.725,120.83 123.611,120.896 C 119.66,123.009 108.417,117.758 99.103,115.182 C 94.138,113.808 91.495,113.236 89.6,111.405 z"
   style="fill:#070637;stroke:#021004;stroke-width:5" />
			<path
   id="path3146"
   d="M 43.979,148.521 C 49.284,145.837 54.731,142.879 60.647,140.694 C 60.719,140.663 60.783,140.645 60.855,140.614 C 69.951,137.285 78.166,136.075 84.605,135.35 C 84.973,135.843 85.167,136.416 85.146,137.039 C 76.233,138.923 68.658,141.806 62.36,146.001 C 62.264,146.07 62.165,146.13 62.069,146.199 C 55.973,150.339 50.473,154.918 46.465,159.569 C 39.975,167.116 36.598,172.006 34.315,173.803 C 32.247,175.423 29.925,175.806 27.472,175.268 C 24.502,174.609 21.4,173.475 19.254,171.565 C 17.117,169.684 17.49,167.313 18.803,164.883 C 19.987,162.733 21.963,160.617 25.029,158.696 C 28.349,156.644 34.675,153.248 43.979,148.521 z"
   style="fill:#070637;stroke:#021004;stroke-width:5" />
			<path
   id="path3148"
   d="M 101.098,130.923 C 104.412,130.837 109.076,130.842 114.455,130.935 C 119.162,131.014 124.99,131.066 125.538,132.7 L 125.585,132.91 C 125.591,133.015 125.568,133.138 125.535,133.264 C 124.235,137.553 112.572,141.79 104.164,146.554 C 99.682,149.094 97.409,150.558 94.774,150.603 C 92.075,150.665 88.337,149.402 89.399,147.02 C 91.274,142.815 99.063,139.214 99.098,135.63 C 99.103,133.054 96.164,132.546 96.262,131.742 C 96.308,131.166 97.706,130.978 101.098,130.923 z"
   style="fill:#070637;stroke:#021004;stroke-width:5" />
			<g
   id="g3150">
				<g
   id="g3152">
					<path
   id="path3154"
   d="M 143.581,82.06 C 143.383,84.861 142.981,88.253 142.139,92.364 C 141.976,93.199 141.788,94.057 141.579,94.956 C 140.041,101.577 137.347,110.177 134.499,120.322 C 133.715,123.117 133.116,125.725 132.723,128.104 C 131.65,134.586 132.115,139.291 134.448,141.1 C 131.215,146.011 127.561,150.737 123.416,155.159 C 121.244,154.341 119.073,153.522 117.911,151 C 114.017,154.335 110.051,157.62 106.125,160.923 C 107.387,163.769 109.765,164.72 112.163,165.63 C 108.185,169.305 104.24,172.978 100.38,176.675 C 106.797,178.169 113.75,178.284 121.395,176.525 C 125.089,173.111 128.731,169.636 132.275,166.168 C 135.077,165.307 137.996,164.071 140.91,162.713 C 143.91,159.516 146.702,156.254 149.255,152.826 C 146.644,153.986 144.041,155.029 141.521,155.766 C 144.63,151.313 147.358,146.659 149.794,141.882 C 151.527,141.025 153.309,140.002 155.099,138.827 C 160.423,135.333 165.936,130.483 171.248,124.725 C 175.686,119.927 179.53,115.534 182.732,111.849 C 184.151,110.221 185.437,108.735 186.591,107.393 C 189.488,104.078 191.469,101.444 191.838,98.519 C 192.303,94.83 191.027,90.253 189.057,85.068 C 186.838,79.142 184.153,72.924 181.239,66.752 C 178.319,60.559 175.747,55.929 172.454,54.297 C 169.859,53.034 166.766,54.135 163.647,55.723 C 160.698,57.22 157.583,59.034 154.728,61.231 C 151.867,63.442 149.603,65.803 147.862,68.069 C 146.194,70.25 144.968,72.505 144.338,75.046 C 143.801,77.254 143.742,79.535 143.581,82.06 z M 154.241,82.248 C 156.15,80.527 158.073,79.21 160.726,77.829 C 163.372,76.463 165.988,75.891 168.427,76.717 C 170.73,77.461 172.755,79.346 174.412,81.865 C 175.994,84.244 177.396,87.227 178.271,90.68 C 179.011,93.552 179.06,96.832 178.142,100.305 C 177.487,102.765 176.295,105.347 174.627,107.959 C 174.04,108.884 173.407,109.804 172.709,110.727 C 170.01,114.292 166.471,117.884 162.12,120.81 C 158.262,123.405 154.262,124.673 151.047,124.336 C 147.715,123.978 144.985,122.133 143.72,119.062 C 142.285,115.581 143.617,109.223 145.217,103.304 C 146.058,100.192 146.855,97.437 147.64,95.005 C 148.371,92.685 149.105,90.659 149.841,88.926 C 151.346,85.392 152.9,83.415 154.241,82.248 z"
   style="fill:#ffee27;fill-rule:evenodd;stroke:#983d72;stroke-width:5" />
					<path
   id="path3156"
   d="M 268.084,107.456 C 269.85,108.773 271.501,110.158 272.711,111.592 C 265.601,114.742 258.366,117.78 251.379,121.077 C 244.537,124.304 237.863,127.716 231.462,130.998 C 231.479,127.176 229.741,124.427 226.619,122.319 C 223.562,120.208 219.939,118.573 215.975,117.21 C 210.86,115.398 205.922,114.491 200.885,114.963 C 196.197,115.411 191.511,117.532 187.51,121.879 C 183.187,126.629 178.946,132.113 173.635,137.712 C 173.374,137.987 173.12,138.248 172.879,138.516 C 170.772,140.795 168.868,143.084 167.286,145.441 C 164.661,149.335 162.909,153.42 162.474,157.912 C 161.739,165.812 164.773,175.277 170.631,184.757 C 176.972,194.973 184.601,203.11 191.603,208.735 C 196.919,213.01 201.8,215.475 205.541,215.895 C 209.195,216.291 211.862,214.054 213.582,209.901 C 215.268,205.887 215.885,199.743 216.318,192.169 C 216.731,185.612 216.624,177.691 217.743,169.663 C 217.845,169.015 217.947,168.368 218.049,167.72 C 218.432,165.38 219.037,163.146 219.754,161.018 C 221.488,155.862 223.926,151.287 225.706,147.075 C 231.18,143.748 236.965,140.345 243.127,137.192 C 249.482,133.975 256.188,131.031 263.184,128.121 C 259.764,131.424 256.445,134.619 253.23,137.897 C 258.112,133.66 263.458,128.722 268.782,124.401 C 274.239,119.969 279.675,116.12 283.559,113.023 C 278.81,111.02 273.975,108.96 268.084,107.456 z M 200.388,182.795 C 198.807,184.648 197.055,186.019 194.927,185.692 C 192.602,185.342 190.317,184.437 188.356,183.026 C 185.47,180.962 182.719,177.307 180.536,173.143 C 178.429,169.155 177.286,164.967 177.496,160.942 C 177.648,157.777 178.452,154.559 179.828,151.46 C 180.482,149.997 181.266,148.564 182.169,147.187 C 182.89,146.087 183.689,145.061 184.545,144.114 C 186.366,142.063 188.399,140.306 190.224,138.552 C 192.413,136.435 194.677,134.737 197.218,134.302 C 199.747,133.827 202.214,134.385 204.657,135.662 C 207.068,136.941 208.771,138.855 209.819,141.499 C 210.764,143.851 211.15,147.205 210.473,151.127 C 210.201,152.668 209.762,154.285 209.243,155.969 C 208.455,158.55 207.506,161.332 206.723,164.369 C 206.723,164.404 206.702,164.445 206.702,164.48 C 205.612,168.796 204.923,172.644 204.096,175.171 C 203.051,178.521 201.795,181.138 200.388,182.795 z"
   style="fill:#ffee27;fill-rule:evenodd;stroke:#983d72;stroke-width:5" />
					<path
   id="path3158"
   d="M 204.163,223.762 C 200.3,223.666 195.991,222.52 191.342,220.341 C 186.692,218.3 180.901,214.075 174.048,208.209 C 166.807,201.843 161.623,196.255 158.505,191.556 C 156.139,187.704 154.608,183.957 153.929,180.411 C 153.542,178.167 153.544,175.086 153.953,171.374 C 153.979,171.281 154.01,171.19 154.035,171.098 L 153.983,171.103 C 154.001,170.949 154.014,170.799 154.034,170.642 L 152.915,169.687 C 152.474,170.763 152.094,171.861 151.762,172.974 C 150.572,175.06 149.234,176.841 147.771,178.243 C 145.004,180.723 141.323,182.851 136.78,184.652 C 132.334,186.447 125.772,187.744 117.494,188.631 C 108.655,189.559 101.707,189.602 96.734,188.714 C 92.757,187.908 89.438,186.693 86.87,184.943 C 85.063,183.732 83.059,181.667 81.036,178.816 L 79.698,178.95 C 82.128,185.701 86.934,191.248 93.886,195.412 C 100.831,199.59 108.752,201.204 117.525,200.279 C 126.436,199.334 134.358,196.036 141.011,190.337 C 144.988,187.053 148.137,183.414 150.459,179.486 C 149.926,184.369 150.301,189.532 151.551,194.92 C 153.696,203.959 158.394,211.732 165.571,217.998 C 172.95,224.343 181.205,227.958 190.315,228.621 C 199.318,229.27 207.254,227.316 214.042,222.896 L 212.923,221.942 C 209.807,223.232 206.895,223.837 204.163,223.762 z"
   style="fill:#ffee27;fill-rule:evenodd;stroke:#983d72;stroke-width:5" />
				</g>
				<g
   id="g3160">
					<path
   id="path3162"
   d="M 344.715,164.635 C 341.965,163.699 337.154,160.21 328.524,155.25 C 323.199,152.196 316.488,149.706 309.363,147.829 C 309.251,147.795 309.137,147.772 309.023,147.739 C 301.688,145.876 293.585,145.676 284.553,146.863 C 284.325,146.282 284.319,145.677 284.502,145.09 C 290.816,143.632 298.966,142.043 308.651,142.158 C 308.729,142.163 308.796,142.158 308.875,142.163 C 315.181,142.257 321.302,143.235 327.197,144.003 C 337.544,145.368 344.639,146.466 348.45,147.301 C 351.981,148.093 354.548,149.431 356.379,151.066 C 358.425,152.921 359.566,155.033 358.176,157.517 C 356.787,160.033 354.238,162.132 351.656,163.742 C 349.522,165.064 347.205,165.476 344.715,164.635 z"
   style="fill:#ffee27;stroke:#983d72;stroke-width:5" />
					<path
   id="path3164"
   d="M 267.477,146.397 C 270.695,145.32 272.076,145.033 272.311,145.562 C 272.67,146.288 270.067,147.745 270.929,150.172 C 272.153,153.54 280.696,154.348 283.864,157.69 C 285.656,159.584 282.552,162.018 279.985,162.856 C 277.485,163.69 274.854,163.064 269.783,162.16 C 260.269,160.463 247.861,160.344 245.21,156.731 C 245.136,156.623 245.073,156.514 245.044,156.414 L 245.019,156.2 C 244.994,154.476 250.472,152.49 254.886,150.851 C 259.926,148.974 264.322,147.418 267.477,146.397 z"
   style="fill:#ffee27;stroke:#983d72;stroke-width:5" />
					<path
   id="path3166"
   d="M 296.46,209.181 C 292.59,202.677 287.002,196.806 279.775,191.258 C 280.025,190.687 280.449,190.254 280.993,189.968 C 286.488,193.403 293.376,198.041 300.143,204.972 C 300.195,205.031 300.245,205.074 300.296,205.133 C 304.689,209.657 308.325,214.679 311.951,219.39 C 318.302,227.671 322.543,233.466 324.647,236.75 C 326.584,239.807 327.452,242.568 327.592,245.019 C 327.726,247.778 327.039,250.078 324.3,250.851 C 321.539,251.649 318.251,251.331 315.288,250.643 C 312.844,250.07 310.914,248.721 309.748,246.367 C 308.465,243.76 307.531,237.891 304.936,228.281 C 303.33,222.356 300.345,215.85 296.634,209.485 C 296.579,209.381 296.516,209.284 296.46,209.181 z"
   style="fill:#ffee27;stroke:#983d72;stroke-width:5" />
					<path
   id="path3168"
   d="M 244.978,170.415 C 245.002,170.286 245.035,170.165 245.085,170.073 L 245.219,169.905 C 246.419,168.668 251.698,171.136 255.978,173.098 C 260.87,175.336 265.079,177.346 268.031,178.854 C 271.067,180.368 272.247,181.141 272.04,181.681 C 271.78,182.449 268.91,181.638 267.803,183.963 C 266.286,187.211 271.757,193.822 271.633,198.425 C 271.562,201.031 267.646,200.558 265.237,199.336 C 262.88,198.157 261.462,195.855 258.516,191.629 C 252.988,183.702 244.299,174.845 244.978,170.415 z"
   style="fill:#ffee27;stroke:#983d72;stroke-width:5" />
					<path
   id="path3170"
   d="M 245.153,214.077 C 246.611,220.39 248.201,228.541 248.086,238.226 C 248.081,238.304 248.085,238.371 248.08,238.449 C 247.986,244.755 247.008,250.876 246.24,256.772 C 244.875,267.119 243.777,274.213 242.941,278.025 C 242.15,281.556 240.812,284.123 239.177,285.954 C 237.322,288 235.21,289.141 232.726,287.75 C 230.21,286.362 228.11,283.812 226.5,281.231 C 225.177,279.096 224.767,276.78 225.606,274.291 C 226.543,271.539 230.032,266.729 234.991,258.099 C 238.046,252.774 240.536,246.063 242.413,238.938 C 242.446,238.825 242.47,238.712 242.503,238.599 C 244.366,231.263 244.565,223.161 243.38,214.128 C 243.961,213.9 244.566,213.894 245.153,214.077 z"
   style="fill:#ffee27;stroke:#983d72;stroke-width:5" />
					<path
   id="path3172"
   d="M 233.83,174.618 L 234.044,174.593 C 235.768,174.568 237.754,180.046 239.393,184.459 C 241.269,189.501 242.825,193.897 243.846,197.052 C 244.922,200.269 245.209,201.651 244.681,201.886 C 243.955,202.245 242.498,199.642 240.071,200.503 C 236.703,201.728 235.895,210.271 232.553,213.438 C 230.66,215.231 228.226,212.126 227.387,209.56 C 226.553,207.06 227.18,204.429 228.084,199.357 C 229.781,189.844 229.9,177.436 233.512,174.785 C 233.62,174.71 233.729,174.647 233.83,174.618 z"
   style="fill:#ffee27;stroke:#983d72;stroke-width:5" />
				</g>
				<g
   id="g3174">
					<path
   id="path3176"
   d="M 125.021,67.505 C 123.137,58.592 120.255,51.017 116.059,44.718 C 115.99,44.622 115.93,44.524 115.861,44.428 C 111.722,38.332 107.143,32.832 102.491,28.824 C 94.944,22.334 90.054,18.957 88.257,16.674 C 86.636,14.606 86.254,12.284 86.792,9.831 C 87.452,6.861 88.584,3.759 90.496,1.613 C 92.377,-0.524 94.747,-0.151 97.178,1.162 C 99.327,2.346 101.443,4.322 103.364,7.388 C 105.418,10.705 108.814,17.032 113.541,26.336 C 116.226,31.641 119.184,37.088 121.368,43.004 C 121.399,43.076 121.417,43.14 121.448,43.212 C 124.777,52.308 125.987,60.524 126.712,66.963 C 126.218,67.332 125.645,67.526 125.021,67.505 z"
   style="fill:#ffee27;stroke:#983d72;stroke-width:5" />
					<path
   id="path3178"
   d="M 115.506,86.521 C 112.966,82.039 111.502,79.766 111.457,77.131 C 111.394,74.432 112.658,70.694 115.04,71.756 C 119.245,73.632 122.846,81.421 126.43,81.455 C 129.006,81.461 129.514,78.521 130.318,78.619 C 130.895,78.665 131.084,80.063 131.138,83.455 C 131.223,86.769 131.218,91.433 131.125,96.812 C 131.047,101.519 130.995,107.347 129.361,107.895 L 129.151,107.942 C 129.047,107.948 128.923,107.925 128.797,107.891 C 124.508,106.591 120.271,94.929 115.506,86.521 z"
   style="fill:#ffee27;stroke:#983d72;stroke-width:5" />
					<path
   id="path3180"
   d="M 18.785,60.785 C 21.142,60.102 24.035,60.003 27.562,60.813 C 31.36,61.706 38.234,63.778 48.156,67.015 C 53.805,68.868 59.749,70.628 65.477,73.267 C 65.55,73.296 65.608,73.329 65.68,73.358 C 74.466,77.437 81.131,82.389 86.197,86.43 C 86.109,87.039 85.842,87.582 85.385,88.007 C 77.75,83.037 70.356,79.718 62.935,78.232 C 62.819,78.213 62.706,78.186 62.59,78.167 C 55.353,76.783 48.225,76.132 42.103,76.587 C 32.177,77.334 26.332,78.404 23.446,78.061 C 20.838,77.744 18.925,76.373 17.571,74.258 C 15.937,71.692 14.545,68.697 14.379,65.828 C 14.198,62.987 16.138,61.575 18.785,60.785 z"
   style="fill:#ffee27;stroke:#983d72;stroke-width:5" />
					<path
   id="path3182"
   d="M 82.6,104.405 C 80.647,102.541 78.898,99.004 81.332,98.071 C 85.631,96.425 93.686,99.385 96.244,96.875 C 98.069,95.058 96.35,92.62 96.988,92.121 C 97.428,91.746 98.55,92.6 100.987,94.961 C 103.391,97.244 106.685,100.545 110.423,104.415 C 113.696,107.799 117.78,111.957 117.012,113.5 L 116.897,113.682 C 116.828,113.761 116.724,113.831 116.611,113.897 C 112.659,116.01 101.416,110.759 92.103,108.183 C 87.138,106.808 84.495,106.236 82.6,104.405 z"
   style="fill:#ffee27;stroke:#983d72;stroke-width:5" />
					<path
   id="path3184"
   d="M 36.979,141.521 C 42.284,138.836 47.731,135.878 53.648,133.693 C 53.72,133.662 53.784,133.644 53.856,133.614 C 62.952,130.285 71.167,129.075 77.606,128.35 C 77.974,128.843 78.169,129.416 78.147,130.039 C 69.234,131.923 61.659,134.806 55.361,139.001 C 55.265,139.07 55.166,139.13 55.07,139.199 C 48.974,143.338 43.474,147.917 39.466,152.569 C 32.976,160.116 29.599,165.007 27.316,166.803 C 25.248,168.423 22.926,168.806 20.474,168.268 C 17.504,167.609 14.402,166.476 12.256,164.565 C 10.118,162.684 10.492,160.313 11.804,157.883 C 12.988,155.733 14.964,153.617 18.031,151.696 C 21.349,149.644 27.675,146.248 36.979,141.521 z"
   style="fill:#ffee27;stroke:#983d72;stroke-width:5" />
					<path
   id="path3186"
   d="M 94.098,123.923 C 97.412,123.837 102.076,123.842 107.455,123.935 C 112.162,124.014 117.99,124.066 118.538,125.7 L 118.585,125.91 C 118.591,126.015 118.568,126.139 118.535,126.264 C 117.235,130.553 105.572,134.79 97.164,139.554 C 92.682,142.094 90.41,143.558 87.774,143.603 C 85.075,143.666 81.337,142.402 82.399,140.02 C 84.274,135.815 92.063,132.213 92.098,128.63 C 92.103,126.054 89.164,125.546 89.262,124.742 C 89.308,124.166 90.706,123.978 94.098,123.923 z"
   style="fill:#ffee27;stroke:#983d72;stroke-width:5" />
				</g>
			</g>
		</g></svg>