<?xml version="1.0" encoding="UTF-8" standalone="no"?>
<!-- Generator: Adobe Illustrator 10, SVG Export Plug-In . SVG Version: 3.0.0 Build 76)  -->
<svg
   xmlns:dc="http://purl.org/dc/elements/1.1/"
   xmlns:cc="http://creativecommons.org/ns#"
   xmlns:rdf="http://www.w3.org/1999/02/22-rdf-syntax-ns#"
   xmlns:svg="http://www.w3.org/2000/svg"
   xmlns="http://www.w3.org/2000/svg"
   xmlns:sodipodi="http://sodipodi.sourceforge.net/DTD/sodipodi-0.dtd"
   xmlns:inkscape="http://www.inkscape.org/namespaces/inkscape"
   width="227.25378"
   height="156.054"
   viewBox="0 0 468.311 239.884"
   style="overflow:visible"
   xml:space="preserve"
   id="svg3195"
   sodipodi:version="0.32"
   inkscape:version="0.46"
   sodipodi:docname="TwoHappyOneSad.svg"
   inkscape:output_extension="org.inkscape.output.svg.inkscape"
   version="1.0"><metadata
   id="metadata3263"><rdf:RDF><cc:Work
       rdf:about=""><dc:format>image/svg+xml</dc:format><dc:type
         rdf:resource="http://purl.org/dc/dcmitype/StillImage" /></cc:Work></rdf:RDF></metadata><defs
   id="defs3261"><inkscape:perspective
   sodipodi:type="inkscape:persp3d"
   inkscape:vp_x="0 : 119.942 : 1"
   inkscape:vp_y="0 : 1000 : 0"
   inkscape:vp_z="468.311 : 119.942 : 1"
   inkscape:persp3d-origin="234.1555 : 79.961334 : 1"
   id="perspective3265" />
		
		
	</defs><sodipodi:namedview
   inkscape:window-height="670"
   inkscape:window-width="640"
   inkscape:pageshadow="2"
   inkscape:pageopacity="0.0"
   guidetolerance="10.0"
   gridtolerance="10.0"
   objecttolerance="10.0"
   borderopacity="1.0"
   bordercolor="#666666"
   pagecolor="#ffffff"
   id="base"
   showgrid="false"
   inkscape:zoom="1.1616212"
   inkscape:cx="234.1555"
   inkscape:cy="119.942"
   inkscape:window-x="0"
   inkscape:window-y="64"
   inkscape:current-layer="svg3195" />
	<style
   type="text/css"
   id="style3197">
	
		@font-face{font-family:'Times-Roman';src:url(1AAC29A4.cef)}
	
	</style>
	
<g
   style="overflow:visible"
   id="g3216"
   transform="matrix(2.0607402,0,0,2.0607402,-17.695854,-52.07623)">
			<path
   id="path3218"
   d="M 140.912,77.349 C 139.992,78.845 140.407,81.022 141.726,83.298 C 143.006,85.428 144.998,87.329 147.349,88.774 C 147.703,89.004 148.067,89.203 148.431,89.4 C 150.775,90.712 153.179,91.584 155.457,92.046 C 158.208,92.605 160.134,92.26 161.318,91.197 C 162.524,90.125 162.637,88.348 161.62,86.241 C 161.277,85.569 160.85,84.878 160.358,84.214 C 159.159,82.68 157.537,81.22 155.594,79.9 C 152.665,77.94 149.712,76.565 146.719,76.03 C 143.938,75.512 141.777,75.958 140.912,77.349 z"
   style="fill:#011528;stroke:#000000;stroke-width:5" />
			<path
   id="path3220"
   d="M 187.794,72.284 C 186.061,72.434 184.319,72.507 182.57,72.445 C 177.174,72.325 171.259,70.895 165.173,69.595 C 167.118,72.614 169.094,75.701 170.997,78.738 C 171.437,78.82 171.889,78.926 172.309,79.017 C 177.935,80.189 183.319,81.329 188.269,81.122 C 193.145,80.92 197.784,79.588 202.342,78.483 C 200.752,76.05 199.047,73.585 197.3,71.138 C 194.189,71.558 191.016,72.062 187.794,72.284 z"
   style="fill:#011528;stroke:#000000;stroke-width:5" />
			<path
   id="path3222"
   d="M 231.614,63.151 C 229.623,60.728 226.834,58.624 223.598,56.715 C 223.046,56.379 222.474,56.053 221.902,55.726 C 217.821,53.39 212.996,51.321 207.787,49.01 C 197.138,44.322 187.057,40.593 177.973,39.39 C 178.155,39.805 178.375,40.256 178.64,40.69 C 183.449,42.545 187.145,43.707 189.93,45.045 C 194.009,46.971 198.252,49.566 202.484,52.714 C 205.035,54.619 207.745,56.949 210.479,59.625 C 211.129,60.247 211.81,60.883 212.459,61.56 C 214.531,63.646 216.62,65.945 218.513,68.493 C 220.713,71.455 221.785,74.388 221.293,77.041 C 220.773,79.925 219.471,82.52 218.351,84.953 C 215.965,90.184 213.88,95.175 213.137,99.581 C 212.649,102.534 212.551,105.921 212.115,109.345 C 212.317,109.75 212.507,110.189 212.708,110.65 C 214.427,103.187 216.223,93.746 222.081,84.154 C 225.169,79.139 229.215,75.571 231.751,72.029 C 233.963,68.9 233.82,65.837 231.614,63.151 z"
   style="fill:#011528;stroke:#000000;stroke-width:5" />
			<path
   id="path3224"
   d="M 128.322,56.374 C 131.173,58.095 134.027,59.184 136.893,59.719 C 139.644,60.277 141.789,60.084 142.834,59.054 C 143.901,58.014 143.729,56.335 142.425,54.271 C 141.154,52.22 138.87,50.171 135.984,48.192 C 133.137,46.305 130.153,44.917 127.498,44.4 C 124.736,43.874 122.85,44.311 122.039,45.595 C 121.165,46.962 121.519,49 122.717,51.056 C 123.904,53.088 125.889,54.912 128.322,56.374 z"
   style="fill:#011528;stroke:#000000;stroke-width:5" />
			<path
   id="path3226"
   d="M 107.689,46.431 C 108.609,44.935 108.194,42.758 106.876,40.481 C 105.596,38.352 103.604,36.449 101.254,35.004 C 100.9,34.774 100.536,34.576 100.171,34.378 C 97.828,33.067 95.423,32.194 93.145,31.732 C 90.395,31.173 88.468,31.517 87.284,32.58 C 86.079,33.652 85.965,35.428 86.981,37.535 C 87.324,38.208 87.752,38.899 88.243,39.563 C 89.442,41.097 91.064,42.557 93.006,43.878 C 95.935,45.839 98.888,47.214 101.881,47.749 C 104.663,48.267 106.825,47.82 107.689,46.431 z"
   style="fill:#011528;stroke:#000000;stroke-width:5" />
			<path
   id="path3228"
   d="M 76.293,44.757 C 70.668,43.585 65.284,42.445 60.334,42.65 C 55.458,42.852 50.819,44.183 46.26,45.287 C 47.85,47.721 49.554,50.186 51.302,52.633 C 54.412,52.213 57.587,51.71 60.808,51.488 C 62.541,51.338 64.283,51.266 66.031,51.328 C 71.427,51.449 77.342,52.879 83.428,54.18 C 81.483,51.161 79.508,48.074 77.605,45.036 C 77.164,44.955 76.713,44.849 76.293,44.757 z"
   style="fill:#011528;stroke:#000000;stroke-width:5" />
			<path
   id="path3230"
   d="M 58.668,78.728 C 54.589,76.802 50.346,74.206 46.115,71.057 C 43.565,69.152 40.855,66.821 38.121,64.145 C 37.471,63.523 36.79,62.887 36.141,62.21 C 34.069,60.124 31.98,57.824 30.088,55.276 C 27.888,52.313 26.817,49.38 27.309,46.728 C 27.829,43.844 29.132,41.249 30.252,38.816 C 32.638,33.586 34.724,28.595 35.467,24.189 C 35.957,21.236 36.054,17.849 36.491,14.425 C 36.29,14.019 36.099,13.582 35.899,13.12 C 34.179,20.582 32.382,30.024 26.522,39.614 C 23.434,44.629 19.388,48.197 16.851,51.739 C 14.639,54.865 14.78,57.928 16.986,60.614 C 18.976,63.038 21.765,65.142 25.001,67.052 C 25.553,67.388 26.125,67.715 26.697,68.041 C 30.778,70.378 35.602,72.447 40.811,74.759 C 51.459,79.448 61.54,83.178 70.623,84.384 C 70.443,83.969 70.221,83.517 69.957,83.083 C 65.149,81.228 61.453,80.066 58.668,78.728 z"
   style="fill:#011528;stroke:#000000;stroke-width:5" />
			<path
   id="path3232"
   d="M 112.613,75.588 C 115.459,77.475 118.444,78.864 121.099,79.381 C 123.861,79.907 125.747,79.47 126.557,78.187 C 127.432,76.82 127.078,74.782 125.88,72.727 C 124.692,70.694 122.71,68.87 120.276,67.407 C 117.426,65.686 114.572,64.597 111.705,64.062 C 108.955,63.503 106.81,63.696 105.764,64.726 C 104.696,65.766 104.868,67.445 106.171,69.509 C 107.443,71.56 109.727,73.609 112.613,75.588 z"
   style="fill:#011528;stroke:#000000;stroke-width:5" />
			<path
   id="path3234"
   d="M 171.518,143.277 C 169.407,141.582 166.969,139.769 164.229,137.865 C 158.75,134.033 152.642,130.549 146.383,128.041 C 139.899,125.486 133.238,123.326 126.803,123.326 C 120.218,123.279 114.563,124.278 110.114,126.09 C 105.791,127.809 102.574,130.596 101.166,134.313 C 98.301,141.745 100.261,150.338 103.504,159.001 C 103.956,158.932 104.434,158.885 104.886,158.815 C 104.961,155.285 104.961,152.172 105.514,149.896 C 106.393,146.621 108.605,143.346 112.652,140.792 C 114.738,139.468 117.629,138.191 121.173,137.123 C 124.767,135.984 129.166,134.822 134.243,134.195 C 139.597,133.545 144.774,134.683 149.374,136.077 C 153.999,137.516 158.045,139.189 161.389,140.908 C 165.285,142.905 168.703,144.903 171.518,146.762 C 172.524,147.412 173.428,148.062 174.283,148.689 C 176.394,150.246 178.632,152.243 180.793,154.543 C 181.271,154.566 181.748,154.612 182.226,154.659 C 180.49,151.383 177.021,147.667 171.518,143.277 z"
   style="fill:#011528;stroke:#000000;stroke-width:5" />
			<path
   id="path3236"
   d="M 125.363,99.58 C 124.358,103.063 123.277,106.664 122.498,110.403 C 126.519,110.543 130.541,110.728 134.562,111.007 C 135.316,107.661 136.221,104.41 137.076,101.298 C 137.93,98.302 138.81,95.282 139.64,92.356 C 135.819,91.404 132.074,90.521 128.304,89.638 C 127.35,92.867 126.344,96.235 125.363,99.58 z"
   style="fill:#011528;stroke:#000000;stroke-width:5" />
			<g
   id="g3238">
				<path
   id="path3240"
   d="M 136.739,72.175 C 135.819,73.672 136.234,75.848 137.552,78.125 C 138.833,80.254 140.825,82.156 143.175,83.601 C 143.529,83.831 143.894,84.029 144.258,84.227 C 146.601,85.538 149.007,86.411 151.284,86.873 C 154.034,87.431 155.961,87.087 157.145,86.024 C 158.35,84.951 158.463,83.174 157.447,81.068 C 157.104,80.395 156.676,79.704 156.185,79.041 C 154.986,77.507 153.364,76.047 151.421,74.726 C 148.492,72.766 145.539,71.391 142.546,70.856 C 139.765,70.339 137.604,70.785 136.739,72.175 z"
   style="fill:#ff7d00;stroke:#973e2b;stroke-width:5" />
				<path
   id="path3242"
   d="M 183.621,67.111 C 181.888,67.261 180.146,67.334 178.396,67.272 C 173,67.152 167.085,65.722 161,64.422 C 162.945,67.441 164.921,70.528 166.824,73.565 C 167.264,73.647 167.716,73.753 168.136,73.844 C 173.762,75.016 179.145,76.156 184.096,75.949 C 188.971,75.747 193.61,74.415 198.169,73.31 C 196.579,70.877 194.874,68.412 193.127,65.965 C 190.017,66.385 186.842,66.889 183.621,67.111 z"
   style="fill:#ff7d00;stroke:#973e2b;stroke-width:5" />
				<path
   id="path3244"
   d="M 227.441,57.978 C 225.45,55.555 222.662,53.451 219.425,51.542 C 218.873,51.206 218.3,50.88 217.728,50.553 C 213.648,48.216 208.823,46.148 203.613,43.836 C 192.965,39.148 182.883,35.419 173.8,34.215 C 173.981,34.63 174.202,35.082 174.467,35.515 C 179.276,37.371 182.971,38.532 185.756,39.87 C 189.836,41.796 194.079,44.391 198.311,47.539 C 200.862,49.445 203.571,51.774 206.305,54.45 C 206.955,55.072 207.637,55.707 208.285,56.384 C 210.357,58.47 212.447,60.769 214.34,63.317 C 216.539,66.279 217.611,69.212 217.119,71.865 C 216.6,74.749 215.297,77.344 214.178,79.777 C 211.791,85.008 209.707,89.998 208.963,94.405 C 208.475,97.358 208.377,100.745 207.942,104.168 C 208.143,104.574 208.334,105.012 208.534,105.473 C 210.254,98.011 212.05,88.569 217.908,78.978 C 220.995,73.963 225.042,70.395 227.578,66.852 C 229.789,63.727 229.647,60.664 227.441,57.978 z"
   style="fill:#ff7d00;stroke:#973e2b;stroke-width:5" />
				<path
   id="path3246"
   d="M 124.149,51.201 C 127,52.922 129.853,54.01 132.72,54.545 C 135.47,55.103 137.615,54.911 138.661,53.88 C 139.727,52.84 139.556,51.161 138.253,49.097 C 136.982,47.046 134.696,44.997 131.811,43.018 C 128.964,41.132 125.98,39.743 123.324,39.226 C 120.562,38.7 118.676,39.137 117.866,40.42 C 116.991,41.787 117.346,43.825 118.544,45.881 C 119.732,47.915 121.715,49.738 124.149,51.201 z"
   style="fill:#ff7d00;stroke:#973e2b;stroke-width:5" />
				<path
   id="path3248"
   d="M 103.516,41.257 C 104.436,39.761 104.021,37.584 102.703,35.307 C 101.423,33.178 99.431,31.276 97.081,29.83 C 96.728,29.6 96.363,29.402 95.998,29.205 C 93.655,27.894 91.25,27.021 88.972,26.558 C 86.222,25.999 84.295,26.344 83.111,27.407 C 81.905,28.479 81.791,30.256 82.808,32.362 C 83.151,33.035 83.578,33.726 84.069,34.39 C 85.268,35.924 86.89,37.384 88.832,38.705 C 91.761,40.666 94.714,42.04 97.707,42.576 C 100.49,43.094 102.651,42.647 103.516,41.257 z"
   style="fill:#ff7d00;stroke:#973e2b;stroke-width:5" />
				<path
   id="path3250"
   d="M 72.12,39.584 C 66.495,38.411 61.111,37.271 56.161,37.476 C 51.285,37.678 46.646,39.009 42.087,40.114 C 43.676,42.548 45.381,45.012 47.129,47.46 C 50.239,47.041 53.414,46.537 56.635,46.315 C 58.368,46.165 60.11,46.093 61.859,46.155 C 67.255,46.276 73.17,47.707 79.256,49.007 C 77.311,45.988 75.336,42.901 73.433,39.863 C 72.991,39.781 72.54,39.676 72.12,39.584 z"
   style="fill:#ff7d00;stroke:#973e2b;stroke-width:5" />
				<path
   id="path3252"
   d="M 54.495,73.555 C 50.416,71.629 46.173,69.033 41.942,65.884 C 39.392,63.978 36.682,61.648 33.949,58.972 C 33.299,58.35 32.617,57.714 31.968,57.037 C 29.896,54.95 27.808,52.651 25.916,50.103 C 23.716,47.14 22.644,44.207 23.137,41.554 C 23.656,38.67 24.959,36.075 26.08,33.642 C 28.467,28.412 30.552,23.422 31.296,19.015 C 31.785,16.061 31.883,12.675 32.32,9.252 C 32.118,8.846 31.928,8.408 31.727,7.947 C 30.007,15.409 28.21,24.85 22.35,34.441 C 19.262,39.456 15.216,43.023 12.678,46.565 C 10.466,49.691 10.607,52.754 12.813,55.441 C 14.804,57.864 17.592,59.968 20.829,61.878 C 21.38,62.214 21.952,62.541 22.525,62.868 C 26.606,65.205 31.43,67.274 36.639,69.586 C 47.288,74.275 57.368,78.006 66.451,79.211 C 66.271,78.795 66.049,78.344 65.785,77.911 C 60.976,76.055 57.28,74.893 54.495,73.555 z"
   style="fill:#ff7d00;stroke:#973e2b;stroke-width:5" />
				<path
   id="path3254"
   d="M 108.44,70.415 C 111.287,72.302 114.271,73.691 116.926,74.208 C 119.688,74.734 121.574,74.298 122.384,73.014 C 123.259,71.647 122.904,69.608 121.707,67.553 C 120.519,65.52 118.537,63.696 116.103,62.233 C 113.253,60.512 110.399,59.422 107.533,58.887 C 104.783,58.328 102.638,58.521 101.592,59.551 C 100.524,60.591 100.696,62.27 102,64.334 C 103.27,66.386 105.554,68.436 108.44,70.415 z"
   style="fill:#ff7d00;stroke:#973e2b;stroke-width:5" />
				<path
   id="path3256"
   d="M 167.344,138.104 C 165.233,136.409 162.795,134.597 160.055,132.693 C 154.576,128.86 148.469,125.377 142.21,122.868 C 135.725,120.313 129.064,118.153 122.63,118.153 C 116.045,118.107 110.39,119.105 105.941,120.917 C 101.618,122.636 98.4,125.423 96.993,129.14 C 94.128,136.572 96.088,145.165 99.331,153.829 C 99.783,153.759 100.261,153.713 100.713,153.643 C 100.788,150.112 100.788,147 101.341,144.724 C 102.22,141.45 104.432,138.174 108.479,135.62 C 110.565,134.296 113.456,133.018 117,131.95 C 120.594,130.811 124.992,129.65 130.07,129.023 C 135.424,128.373 140.601,129.51 145.201,130.905 C 149.826,132.344 153.872,134.016 157.215,135.735 C 161.111,137.733 164.529,139.731 167.344,141.589 C 168.35,142.239 169.254,142.89 170.11,143.517 C 172.221,145.074 174.458,147.071 176.62,149.371 C 177.098,149.394 177.575,149.44 178.053,149.486 C 176.317,146.21 172.85,142.494 167.344,138.104 z"
   style="fill:#ff7d00;stroke:#973e2b;stroke-width:5" />
				<path
   id="path3258"
   d="M 121.19,94.406 C 120.185,97.89 119.104,101.49 118.324,105.229 C 122.346,105.369 126.367,105.554 130.389,105.833 C 131.143,102.488 132.048,99.236 132.902,96.124 C 133.757,93.128 134.636,90.108 135.466,87.183 C 131.646,86.23 127.901,85.347 124.13,84.465 C 123.176,87.694 122.17,91.062 121.19,94.406 z"
   style="fill:#ff7d00;stroke:#973e2b;stroke-width:5" />
			</g>
		</g></svg>