<?xml version="1.0" encoding="UTF-8" standalone="no"?>
<!-- Generator: Adobe Illustrator 10, SVG Export Plug-In . SVG Version: 3.0.0 Build 76)  -->
<svg
   xmlns:dc="http://purl.org/dc/elements/1.1/"
   xmlns:cc="http://creativecommons.org/ns#"
   xmlns:rdf="http://www.w3.org/1999/02/22-rdf-syntax-ns#"
   xmlns:svg="http://www.w3.org/2000/svg"
   xmlns="http://www.w3.org/2000/svg"
   xmlns:sodipodi="http://sodipodi.sourceforge.net/DTD/sodipodi-0.dtd"
   xmlns:inkscape="http://www.inkscape.org/namespaces/inkscape"
   width="272.36743"
   height="278.35226"
   viewBox="0 0 468.311 358.427"
   style="overflow:visible"
   xml:space="preserve"
   id="svg3267"
   sodipodi:version="0.32"
   inkscape:version="0.46"
   sodipodi:docname="Wahey.svg"
   inkscape:output_extension="org.inkscape.output.svg.inkscape"
   version="1.0"><metadata
   id="metadata3333"><rdf:RDF><cc:Work
       rdf:about=""><dc:format>image/svg+xml</dc:format><dc:type
         rdf:resource="http://purl.org/dc/dcmitype/StillImage" /></cc:Work></rdf:RDF></metadata><defs
   id="defs3331"><inkscape:perspective
   sodipodi:type="inkscape:persp3d"
   inkscape:vp_x="0 : 179.2135 : 1"
   inkscape:vp_y="0 : 1000 : 0"
   inkscape:vp_z="468.311 : 179.2135 : 1"
   inkscape:persp3d-origin="234.1555 : 119.47567 : 1"
   id="perspective3335" />
		
		
	</defs><sodipodi:namedview
   inkscape:window-height="670"
   inkscape:window-width="640"
   inkscape:pageshadow="2"
   inkscape:pageopacity="0.0"
   guidetolerance="10.0"
   gridtolerance="10.0"
   objecttolerance="10.0"
   borderopacity="1.0"
   bordercolor="#666666"
   pagecolor="#ffffff"
   id="base"
   showgrid="false"
   inkscape:zoom="1.1616212"
   inkscape:cx="234.1555"
   inkscape:cy="179.2135"
   inkscape:window-x="156"
   inkscape:window-y="58"
   inkscape:current-layer="svg3267" />
	<style
   type="text/css"
   id="style3269">
	
		@font-face{font-family:'Times-Roman';src:url(C951A250.cef)}
	
	</style>
	
<g
   transform="matrix(1.719409,0,0,1.719409,-15.590876,-60.074983)"
   style="overflow:visible"
   id="g3288">
			<path
   id="path3290"
   d="M 220.891,169.375 C 221.596,167.259 220.961,164.591 218.707,161.368 C 216.841,158.699 214.375,156.097 211.381,153.817 C 210.924,153.46 210.465,153.101 209.973,152.776 C 206.803,150.562 203.245,149.065 199.793,148.61 C 196.131,148.186 193.102,148.87 191.692,150.887 C 190.388,152.776 191.023,155.802 193.242,159.09 C 195.601,162.637 199.018,165.664 203.175,168.332 C 205.957,170.09 208.74,171.359 211.381,172.043 C 212.508,172.303 213.635,172.467 214.692,172.531 C 217.968,172.662 220.187,171.522 220.891,169.375 z"
   style="fill:#2e363a;stroke:#1b1f2d;stroke-width:5" />
			<path
   id="path3292"
   d="M 227.478,229.197 C 226.351,222.72 225.47,216.015 223.005,209.636 C 220.504,203.158 216.031,196.877 211.381,190.303 C 211.029,189.815 210.642,189.293 210.289,188.772 C 205.323,188.024 200.252,187.21 195.285,186.397 C 200.357,193.493 205.5,200.294 208.67,207.162 C 209.726,209.375 210.607,211.654 211.381,213.965 C 212.897,218.229 214.024,222.59 215.221,226.821 C 219.342,227.7 223.463,228.513 227.478,229.197 z"
   style="fill:#2e363a;stroke:#1b1f2d;stroke-width:5" />
			<path
   id="path3294"
   d="M 235.613,270.596 C 238.748,265.357 241.073,258.163 245.793,251.394 C 254.845,238.505 265.975,230.922 274.604,224.542 C 273.9,224.542 273.231,224.542 272.596,224.51 C 268.441,226.983 264.143,229.001 260.621,231.28 C 255.373,234.698 250.125,240.166 244.736,246.154 C 242.235,248.953 239.629,252.078 236.213,254.356 C 233.078,256.471 228.711,256.732 223.674,255.56 C 219.342,254.551 215.221,253.152 211.381,251.654 C 210.149,251.199 208.951,250.678 207.789,250.19 C 202.822,248.172 198.314,245.991 194.44,243.778 C 188.029,240.1 182.324,236.096 177.569,231.93 C 174.293,229.099 170.736,224.998 165.664,219.856 C 164.959,219.757 164.255,219.725 163.621,219.725 C 170.242,230.726 180.668,241.597 192.643,252.663 C 198.525,258.066 203.878,263.111 209.162,267.05 C 209.902,267.604 210.641,268.156 211.381,268.678 C 215.643,271.77 219.904,274.178 224.131,275.382 C 228.816,276.715 232.831,275.186 235.613,270.596 z"
   style="fill:#2e363a;stroke:#1b1f2d;stroke-width:5" />
			<path
   id="path3296"
   d="M 169.256,163.581 C 169.996,161.661 169.045,158.798 166.791,155.575 C 164.502,152.19 161.508,149.13 157.703,146.429 C 154.463,144.118 151.012,142.589 147.736,142.199 C 144.425,141.808 141.607,142.492 140.339,144.38 C 139.142,146.137 139.634,148.807 141.854,152.061 C 144.002,155.186 147.454,158.245 151.47,160.85 C 155.625,163.454 159.535,165.243 162.881,165.731 C 166.263,166.25 168.517,165.534 169.256,163.581 z"
   style="fill:#2e363a;stroke:#1b1f2d;stroke-width:5" />
			<path
   id="path3298"
   d="M 126.722,18.054 C 128.196,15.298 130.174,12.541 132.659,10.947 C 135.112,9.352 137.353,10.377 139.395,12.348 C 141.195,14.114 142.742,16.654 143.795,20.219 C 144.911,24.069 146.522,31.268 148.627,41.781 C 149.816,47.773 151.236,53.981 151.764,60.439 C 151.774,60.519 151.774,60.587 151.785,60.667 C 152.563,70.588 151.49,79.052 150.427,85.625 C 149.838,85.853 149.217,85.887 148.607,85.693 C 149.207,76.353 148.449,68.06 146.039,60.667 C 145.997,60.553 145.965,60.439 145.924,60.325 C 143.513,53.149 140.503,46.44 137.008,41.189 C 131.335,32.68 127.429,27.987 126.282,25.231 C 125.249,22.735 125.512,20.332 126.722,18.054 z"
   style="fill:#403b0a;stroke:#000000;stroke-width:5" />
			<path
   id="path3300"
   d="M 137.553,87.139 C 141.195,90.158 142.605,98.86 146.142,99.886 C 148.689,100.604 150.005,97.836 150.773,98.155 C 151.332,98.36 151.131,99.795 150.248,103.167 C 149.416,106.47 148.121,111.084 146.543,116.38 C 145.164,121.016 143.501,126.768 141.732,126.859 L 141.511,126.848 C 141.406,126.825 141.29,126.768 141.175,126.7 C 137.291,124.228 136.322,111.516 133.933,101.88 C 132.66,96.743 131.838,94.089 132.523,91.469 C 133.206,88.779 135.49,85.43 137.553,87.139 z"
   style="fill:#403b0a;stroke:#000000;stroke-width:5" />
			<path
   id="path3302"
   d="M 41.457,72.21 C 40.55,69.219 40,65.87 40.629,62.986 C 41.235,60.124 43.546,59.264 46.383,59.214 C 48.904,59.19 51.794,59.892 55.06,61.668 C 58.571,63.602 64.8,67.553 73.724,73.499 C 78.802,76.895 84.196,80.279 89.135,84.474 C 89.199,84.523 89.247,84.571 89.311,84.62 C 96.877,91.084 102.103,97.828 105.999,103.227 C 105.743,103.805 105.328,104.268 104.76,104.563 C 98.579,97.534 92.18,92.206 85.248,88.683 C 85.138,88.633 85.035,88.574 84.925,88.523 C 78.146,85.153 71.273,82.538 65.089,81.296 C 55.061,79.291 48.981,78.734 46.22,77.596 C 43.725,76.562 42.212,74.677 41.457,72.21 z"
   style="fill:#403b0a;stroke:#000000;stroke-width:5" />
			<path
   id="path3304"
   d="M 97.966,113.401 C 102.675,112.96 109.827,118.117 113.052,116.34 C 115.361,115.047 114.334,112.159 115.103,111.841 C 115.643,111.591 116.516,112.748 118.275,115.757 C 120.023,118.681 122.369,122.859 124.998,127.72 C 127.301,131.973 130.193,137.217 129.007,138.532 L 128.842,138.68 C 128.752,138.739 128.63,138.78 128.499,138.814 C 124.005,139.813 114.331,131.508 105.828,126.384 C 101.295,123.652 98.837,122.356 97.469,120.02 C 96.052,117.635 95.299,113.652 97.966,113.401 z"
   style="fill:#403b0a;stroke:#000000;stroke-width:5" />
			<path
   id="path3306"
   d="M 19.459,170.795 C 16.703,169.321 13.946,167.342 12.351,164.858 C 10.757,162.406 11.782,160.164 13.752,158.121 C 15.517,156.322 18.058,154.774 21.623,153.722 C 25.473,152.606 32.672,150.996 43.185,148.891 C 49.177,147.702 55.385,146.28 61.843,145.754 C 61.923,145.743 61.991,145.743 62.071,145.733 C 71.993,144.954 80.456,146.028 87.029,147.09 C 87.257,147.68 87.291,148.301 87.097,148.911 C 77.757,148.311 69.464,149.069 62.071,151.479 C 61.957,151.521 61.843,151.552 61.73,151.595 C 54.554,154.005 47.845,157.015 42.593,160.51 C 34.084,166.184 29.391,170.089 26.635,171.236 C 24.141,172.269 21.738,172.006 19.459,170.795 z"
   style="fill:#403b0a;stroke:#000000;stroke-width:5" />
			<path
   id="path3308"
   d="M 88.545,159.963 C 91.564,156.322 100.266,154.911 101.291,151.375 C 102.009,148.827 99.241,147.512 99.56,146.743 C 99.765,146.185 101.2,146.385 104.572,147.269 C 107.876,148.101 112.489,149.395 117.785,150.974 C 122.421,152.353 128.174,154.016 128.265,155.785 L 128.253,156.006 C 128.23,156.111 128.173,156.227 128.105,156.343 C 125.633,160.227 112.921,161.196 103.284,163.584 C 98.147,164.858 95.493,165.68 92.873,164.995 C 90.185,164.311 86.836,162.028 88.545,159.963 z"
   style="fill:#403b0a;stroke:#000000;stroke-width:5" />
			<path
   id="path3310"
   d="M 225.222,161.706 C 225.926,159.591 225.292,156.921 223.038,153.699 C 221.172,151.03 218.706,148.427 215.712,146.147 C 215.254,145.79 214.797,145.432 214.303,145.106 C 211.133,142.893 207.576,141.396 204.124,140.94 C 200.461,140.517 197.432,141.2 196.023,143.218 C 194.72,145.106 195.353,148.133 197.572,151.42 C 199.932,154.967 203.349,157.994 207.506,160.663 C 210.287,162.421 213.07,163.69 215.712,164.373 C 216.839,164.635 217.967,164.797 219.024,164.861 C 222.299,164.993 224.518,163.854 225.222,161.706 z"
   style="fill:#bad8e9;stroke:#6a7bb5;stroke-width:5" />
			<path
   id="path3312"
   d="M 231.809,221.528 C 230.682,215.05 229.801,208.345 227.336,201.966 C 224.834,195.489 220.361,189.207 215.712,182.633 C 215.359,182.145 214.973,181.624 214.62,181.104 C 209.654,180.355 204.582,179.542 199.615,178.727 C 204.687,185.823 209.83,192.624 213,199.493 C 214.057,201.707 214.938,203.985 215.712,206.295 C 217.227,210.56 218.354,214.921 219.551,219.151 C 223.673,220.03 227.793,220.844 231.809,221.528 z"
   style="fill:#bad8e9;stroke:#6a7bb5;stroke-width:5" />
			<path
   id="path3314"
   d="M 239.944,262.927 C 243.079,257.688 245.404,250.494 250.123,243.724 C 259.176,230.836 270.306,223.252 278.935,216.873 C 278.231,216.873 277.561,216.873 276.927,216.84 C 272.772,219.314 268.474,221.332 264.951,223.611 C 259.703,227.028 254.455,232.496 249.066,238.485 C 246.566,241.284 243.959,244.408 240.543,246.686 C 237.408,248.802 233.041,249.062 228.004,247.89 C 223.673,246.882 219.551,245.483 215.712,243.985 C 214.479,243.529 213.281,243.008 212.119,242.52 C 207.153,240.502 202.644,238.322 198.771,236.108 C 192.36,232.43 186.654,228.427 181.9,224.261 C 178.623,221.43 175.066,217.328 169.994,212.186 C 169.29,212.088 168.586,212.056 167.951,212.056 C 174.573,223.057 184.999,233.928 196.974,244.994 C 202.855,250.396 208.209,255.441 213.493,259.379 C 214.232,259.933 214.972,260.486 215.712,261.007 C 219.974,264.099 224.235,266.507 228.463,267.711 C 233.146,269.046 237.162,267.516 239.944,262.927 z"
   style="fill:#bad8e9;stroke:#6a7bb5;stroke-width:5" />
			<path
   id="path3316"
   d="M 173.587,155.912 C 174.326,153.992 173.375,151.128 171.121,147.905 C 168.832,144.52 165.838,141.462 162.034,138.759 C 158.794,136.448 155.342,134.919 152.066,134.528 C 148.755,134.137 145.938,134.821 144.67,136.709 C 143.472,138.466 143.965,141.135 146.184,144.391 C 148.332,147.514 151.785,150.575 155.8,153.178 C 159.955,155.782 163.864,157.572 167.211,158.06 C 170.594,158.581 172.848,157.865 173.587,155.912 z"
   style="fill:#bad8e9;stroke:#6a7bb5;stroke-width:5" />
			<path
   id="path3318"
   d="M 131.053,10.385 C 132.527,7.628 134.506,4.872 136.99,3.277 C 139.443,1.682 141.684,2.707 143.727,4.678 C 145.526,6.444 147.074,8.984 148.127,12.549 C 149.243,16.399 150.853,23.598 152.958,34.112 C 154.147,40.103 155.568,46.311 156.095,52.77 C 156.106,52.85 156.106,52.918 156.116,52.998 C 156.895,62.919 155.821,71.383 154.759,77.955 C 154.169,78.183 153.548,78.217 152.937,78.023 C 153.538,68.683 152.78,60.39 150.369,52.998 C 150.328,52.884 150.296,52.77 150.254,52.656 C 147.844,45.48 144.833,38.771 141.338,33.519 C 135.665,25.01 131.759,20.317 130.612,17.561 C 129.579,15.066 129.842,12.663 131.053,10.385 z"
   style="fill:#ffee27;stroke:#983d72;stroke-width:5" />
			<path
   id="path3320"
   d="M 141.884,79.47 C 145.526,82.489 146.937,91.191 150.473,92.216 C 153.021,92.934 154.336,90.166 155.105,90.485 C 155.663,90.69 155.463,92.125 154.579,95.497 C 153.747,98.8 152.453,103.414 150.874,108.71 C 149.495,113.346 147.832,119.099 146.063,119.189 L 145.842,119.178 C 145.737,119.155 145.621,119.098 145.505,119.03 C 141.621,116.558 140.652,103.846 138.263,94.209 C 136.989,89.072 136.168,86.418 136.852,83.798 C 137.537,81.11 139.821,77.761 141.884,79.47 z"
   style="fill:#ffee27;stroke:#983d72;stroke-width:5" />
			<path
   id="path3322"
   d="M 45.788,64.541 C 44.881,61.55 44.331,58.201 44.96,55.317 C 45.567,52.455 47.877,51.594 50.714,51.544 C 53.235,51.52 56.125,52.222 59.391,53.999 C 62.902,55.933 69.131,59.884 78.055,65.83 C 83.133,69.226 88.527,72.611 93.466,76.805 C 93.53,76.854 93.578,76.903 93.642,76.951 C 101.208,83.416 106.434,90.159 110.33,95.558 C 110.074,96.136 109.659,96.599 109.091,96.894 C 102.91,89.865 96.511,84.538 89.579,81.015 C 89.469,80.964 89.366,80.906 89.255,80.855 C 82.476,77.485 75.604,74.87 69.419,73.627 C 59.391,71.622 53.311,71.065 50.551,69.927 C 48.056,68.893 46.542,67.007 45.788,64.541 z"
   style="fill:#ffee27;stroke:#983d72;stroke-width:5" />
			<path
   id="path3324"
   d="M 102.297,105.732 C 107.007,105.292 114.158,110.448 117.383,108.672 C 119.692,107.378 118.665,104.49 119.434,104.172 C 119.974,103.922 120.847,105.079 122.606,108.089 C 124.354,111.013 126.7,115.19 129.329,120.052 C 131.632,124.305 134.524,129.549 133.338,130.864 L 133.174,131.012 C 133.083,131.07 132.961,131.112 132.831,131.145 C 128.337,132.144 118.664,123.839 110.16,118.715 C 105.627,115.983 103.17,114.687 101.801,112.35 C 100.383,109.966 99.63,105.983 102.297,105.732 z"
   style="fill:#ffee27;stroke:#983d72;stroke-width:5" />
			<path
   id="path3326"
   d="M 23.791,163.125 C 21.034,161.652 18.278,159.673 16.683,157.189 C 15.088,154.736 16.113,152.494 18.084,150.452 C 19.85,148.652 22.39,147.105 25.955,146.053 C 29.805,144.937 37.004,143.326 47.517,141.221 C 53.509,140.032 59.717,138.611 66.175,138.085 C 66.255,138.074 66.323,138.074 66.403,138.064 C 76.324,137.285 84.788,138.359 91.36,139.422 C 91.588,140.012 91.622,140.632 91.428,141.243 C 82.088,140.643 73.795,141.401 66.403,143.811 C 66.289,143.853 66.175,143.884 66.061,143.926 C 58.885,146.336 52.175,149.348 46.924,152.842 C 38.415,158.516 33.722,162.42 30.966,163.568 C 28.472,164.6 26.068,164.336 23.791,163.125 z"
   style="fill:#ffee27;stroke:#983d72;stroke-width:5" />
			<path
   id="path3328"
   d="M 92.875,152.295 C 95.894,148.652 104.596,147.242 105.621,143.705 C 106.339,141.158 103.571,139.842 103.89,139.074 C 104.095,138.516 105.531,138.716 108.902,139.6 C 112.205,140.432 116.819,141.726 122.115,143.305 C 126.751,144.684 132.503,146.348 132.594,148.116 L 132.582,148.337 C 132.56,148.442 132.502,148.559 132.434,148.675 C 129.962,152.559 117.25,153.527 107.614,155.916 C 102.477,157.19 99.822,158.011 97.203,157.327 C 94.516,156.642 91.167,154.358 92.875,152.295 z"
   style="fill:#ffee27;stroke:#983d72;stroke-width:5" />
		</g></svg>