<?xml version="1.0" encoding="UTF-8" standalone="no"?>
<!-- Generator: Adobe Illustrator 10, SVG Export Plug-In . SVG Version: 3.0.0 Build 76)  -->
<svg
   xmlns:dc="http://purl.org/dc/elements/1.1/"
   xmlns:cc="http://creativecommons.org/ns#"
   xmlns:rdf="http://www.w3.org/1999/02/22-rdf-syntax-ns#"
   xmlns:svg="http://www.w3.org/2000/svg"
   xmlns="http://www.w3.org/2000/svg"
   xmlns:sodipodi="http://sodipodi.sourceforge.net/DTD/sodipodi-0.dtd"
   xmlns:inkscape="http://www.inkscape.org/namespaces/inkscape"
   width="375.05487"
   height="349.26672"
   viewBox="0 0 468.311 429.563"
   style="overflow:visible"
   xml:space="preserve"
   id="svg2"
   sodipodi:version="0.32"
   inkscape:version="0.46"
   sodipodi:docname="Looming.svg"
   inkscape:output_extension="org.inkscape.output.svg.inkscape"
   version="1.0"><metadata
   id="metadata32"><rdf:RDF><cc:Work
       rdf:about=""><dc:format>image/svg+xml</dc:format><dc:type
         rdf:resource="http://purl.org/dc/dcmitype/StillImage" /></cc:Work></rdf:RDF></metadata><defs
   id="defs30"><inkscape:perspective
   sodipodi:type="inkscape:persp3d"
   inkscape:vp_x="0 : 214.78149 : 1"
   inkscape:vp_y="0 : 1000 : 0"
   inkscape:vp_z="468.311 : 214.78149 : 1"
   inkscape:persp3d-origin="234.1555 : 143.18766 : 1"
   id="perspective34" />
		
		
	</defs><sodipodi:namedview
   inkscape:window-height="670"
   inkscape:window-width="640"
   inkscape:pageshadow="2"
   inkscape:pageopacity="0.0"
   guidetolerance="10.0"
   gridtolerance="10.0"
   objecttolerance="10.0"
   borderopacity="1.0"
   bordercolor="#666666"
   pagecolor="#ffffff"
   id="base"
   showgrid="false"
   inkscape:zoom="1.0755117"
   inkscape:cx="234.1555"
   inkscape:cy="214.78149"
   inkscape:window-x="624"
   inkscape:window-y="0"
   inkscape:current-layer="svg2" />
	<style
   type="text/css"
   id="style4">
	
		@font-face{font-family:'Times-Roman';src:url(F72637D.cef)}
	
	</style>
	
<g
   transform="matrix(1.2486466,0,0,1.2486466,-7.7799647,-3.2735712)"
   style="overflow:visible"
   id="g23">
			<path
   id="path25"
   d="M 278.592,343.693 L 278.592,314.892 C 285.72,317.268 292.344,319.212 298.464,320.724 C 329.64,328.5 348.432,324.684 362.76,316.044 C 366.72,318.276 380.184,320.94 376.728,323.892 C 351.96,345.133 315.528,347.653 278.592,343.693 z M 278.592,171.685 L 278.592,134.533 C 280.104,135.325 281.688,136.117 283.273,137.053 C 293.424,142.453 301.344,149.797 304.873,156.565 C 308.977,161.893 310.705,167.077 309.409,170.893 C 306.816,178.812 293.928,179.029 278.592,171.685 z M 278.592,59.725 L 278.592,46.693 C 289.464,53.101 298.968,59.509 307.464,65.701 C 320.352,75.133 330.864,84.349 339.504,92.845 C 357.432,110.413 367.224,124.381 370.464,130.069 C 367.872,128.629 364.56,127.981 362.544,125.677 C 354.408,116.533 348.864,107.461 333.96,95.581 C 326.688,89.749 317.328,83.125 304.8,75.349 C 297.312,70.669 288.672,65.413 278.592,59.725 z M 278.592,46.693 L 278.592,59.725 C 272.04,56.053 264.985,52.237 257.136,48.349 C 254.04,46.765 251.088,45.325 248.136,43.885 L 248.136,31.285 C 253.536,33.589 258.073,35.677 261.6,37.477 C 267.576,40.501 273.264,43.597 278.592,46.693 z M 278.592,134.533 L 278.592,171.685 C 277.08,170.965 275.496,170.173 273.985,169.309 C 264.552,164.125 256.993,157.141 253.249,150.733 C 250.873,147.781 249.145,144.973 248.137,142.381 L 248.137,134.173 C 248.209,134.101 248.209,134.029 248.282,133.957 C 251.952,127.693 264.984,128.053 278.592,134.533 z M 278.592,314.893 L 278.592,343.694 C 268.368,342.614 258.144,340.958 248.136,339.158 L 248.136,303.302 C 259.296,307.98 269.376,311.797 278.592,314.893 z M 248.136,104.653 L 248.136,66.709 C 256.489,70.885 264.84,75.205 273.12,79.597 C 269.088,89.317 264.696,99.685 259.727,110.773 C 255.84,108.685 252.024,106.669 248.136,104.653 z M 181.464,82.981 C 178.728,81.541 175.92,80.317 173.184,79.237 L 173.184,113.509 C 186,118.045 197.809,117.901 202.2,112.285 C 204.864,108.829 203.568,103.717 199.536,98.605 C 196.729,92.989 189.96,87.013 181.464,82.981 z M 248.136,31.285 L 248.136,43.885 C 234.096,37.117 222,31.933 211.561,27.541 C 198.96,22.213 188.592,18.325 179.665,15.517 C 177.433,14.797 175.273,14.149 173.185,13.573 L 173.185,7.813 C 185.569,10.333 197.449,13.717 208.393,17.029 C 223.728,21.637 237.552,26.821 248.136,31.285 z M 248.136,66.709 L 248.136,104.653 C 239.857,100.261 231.504,95.941 223.153,91.693 C 229.344,81.325 234.961,71.605 240.073,62.605 C 242.808,63.973 245.472,65.341 248.136,66.709 z M 248.136,134.173 L 248.136,142.381 C 246.984,139.213 246.984,136.405 248.136,134.173 z M 248.136,303.301 L 248.136,339.157 C 247.92,339.085 247.632,339.085 247.416,339.012 C 219.264,333.756 193.776,325.405 173.184,316.764 L 173.184,267.445 C 198.816,281.341 221.279,291.636 240.504,300.06 C 243.096,301.213 245.688,302.293 248.136,303.301 z M 173.184,200.557 L 173.184,152.245 C 177.144,147.205 180.888,142.381 184.632,137.557 C 198.6,145.117 212.569,152.749 226.609,160.381 C 216.961,176.509 208.537,194.221 196.873,213.805 C 189.24,209.485 181.176,205.021 173.184,200.557 z M 173.184,79.237 C 161.088,74.629 149.424,73.909 145.464,79.093 C 142.44,81.757 142.08,85.573 144.096,89.821 C 145.536,95.869 152.448,103.069 162.456,108.685 C 166.056,110.629 169.656,112.213 173.184,113.509 L 173.184,79.237 L 173.184,79.237 z M 173.184,7.813 L 173.184,13.573 C 158.928,9.541 148.56,8.389 137.976,8.389 C 135.312,7.093 126.96,4.501 129.912,4.285 C 144.528,3.277 159.144,4.933 173.184,7.813 z M 173.184,152.245 L 173.184,200.557 C 164.256,195.517 155.328,190.621 146.904,185.869 C 156.408,173.701 165.048,162.685 173.184,152.245 z M 173.184,267.445 L 173.184,316.764 C 158.64,310.644 146.472,304.38 137.472,298.909 C 100.032,276.228 73.536,252.037 54.6,229.429 C 36.6,207.902 25.944,187.813 19.248,170.461 C 7.728,140.293 10.032,118.765 11.328,111.565 C 14.64,113.365 20.256,113.437 21.336,117.109 C 25.224,130.861 23.352,144.685 37.824,164.989 C 45.384,175.645 57.408,188.173 76.128,203.221 C 95.352,218.701 121.056,237.637 156.912,258.229 C 162.456,261.469 167.928,264.493 173.184,267.445 z"
   style="fill:#ffffff" />
			<path
   id="path27"
   d="M 181.464,82.981 C 166.704,75.205 150.36,72.757 145.464,79.093 C 142.44,81.757 142.08,85.573 144.096,89.821 C 145.536,95.869 152.448,103.069 162.456,108.685 C 178.872,117.685 196.584,119.413 202.2,112.285 C 204.864,108.829 203.568,103.717 199.536,98.605 C 196.729,92.989 189.96,87.013 181.464,82.981 z M 273.984,169.309 C 291.263,178.957 306.599,179.605 309.408,170.893 C 310.704,167.077 308.975,161.893 304.872,156.565 C 301.344,149.797 293.424,142.453 283.272,137.053 C 268.08,128.197 252.383,126.973 248.28,133.957 C 245.904,137.989 247.847,144.181 253.248,150.733 C 256.992,157.141 264.552,164.125 273.984,169.309 z M 196.872,213.805 C 208.536,194.221 216.96,176.509 226.608,160.381 C 212.568,152.749 198.599,145.117 184.631,137.557 C 173.039,152.389 160.943,167.869 146.903,185.869 C 162.888,194.725 180.672,204.732 196.872,213.805 z M 11.328,111.565 C 10.032,118.765 7.728,140.293 19.248,170.461 C 25.944,187.813 36.6,207.901 54.6,229.429 C 73.536,252.037 100.032,276.229 137.472,298.909 C 159.216,312.085 199.248,330.085 247.416,339.013 C 294,347.654 344.976,351.11 376.728,323.893 C 380.184,320.942 366.72,318.278 362.76,316.045 C 348.432,324.685 329.64,328.501 298.464,320.725 C 282.696,316.837 263.832,310.213 240.504,300.061 C 217.248,289.91 189.312,277.021 156.912,258.229 C 121.056,237.637 95.352,218.702 76.128,203.221 C 57.408,188.173 45.384,175.645 37.824,164.989 C 23.352,144.685 25.224,130.861 21.336,117.109 C 20.256,113.437 14.64,113.365 11.328,111.565 z M 240.072,62.605 C 234.96,71.605 229.343,81.325 223.152,91.693 C 235.32,97.885 247.559,104.293 259.727,110.773 C 264.696,99.685 269.087,89.317 273.12,79.597 C 262.104,73.837 251.16,68.149 240.072,62.605 z M 370.464,130.069 C 367.224,124.381 357.432,110.413 339.504,92.845 C 330.864,84.349 320.352,75.133 307.464,65.701 C 294.864,56.485 279.96,46.764 261.6,37.477 C 251.016,32.077 231.504,23.941 208.393,17.029 C 185.064,9.973 157.344,2.413 129.913,4.285 C 126.961,4.501 135.313,7.093 137.977,8.389 C 150.145,8.389 161.953,9.829 179.665,15.517 C 188.593,18.325 198.961,22.213 211.561,27.541 C 224.088,32.797 239.208,39.277 257.136,48.349 C 277.153,58.429 292.489,67.645 304.8,75.349 C 317.328,83.125 326.688,89.749 333.96,95.581 C 348.864,107.461 354.408,116.533 362.544,125.677 C 364.56,127.981 367.872,128.629 370.464,130.069 z"
   style="fill:none;stroke:#000000;stroke-width:7.9920001" />
		</g></svg>