<?xml version="1.0" encoding="UTF-8" standalone="no"?>
<!-- Generator: Adobe Illustrator 10, SVG Export Plug-In . SVG Version: 3.0.0 Build 76)  -->
<svg
   xmlns:dc="http://purl.org/dc/elements/1.1/"
   xmlns:cc="http://creativecommons.org/ns#"
   xmlns:rdf="http://www.w3.org/1999/02/22-rdf-syntax-ns#"
   xmlns:svg="http://www.w3.org/2000/svg"
   xmlns="http://www.w3.org/2000/svg"
   xmlns:sodipodi="http://sodipodi.sourceforge.net/DTD/sodipodi-0.dtd"
   xmlns:inkscape="http://www.inkscape.org/namespaces/inkscape"
   width="307.405"
   height="310.34302"
   viewBox="0 0 468.311 389.316"
   style="overflow:visible"
   xml:space="preserve"
   id="svg2407"
   sodipodi:version="0.32"
   inkscape:version="0.46"
   sodipodi:docname="Surrounded.svg"
   inkscape:output_extension="org.inkscape.output.svg.inkscape"
   version="1.0"><metadata
   id="metadata2457"><rdf:RDF><cc:Work
       rdf:about=""><dc:format>image/svg+xml</dc:format><dc:type
         rdf:resource="http://purl.org/dc/dcmitype/StillImage" /></cc:Work></rdf:RDF></metadata><defs
   id="defs2455"><inkscape:perspective
   sodipodi:type="inkscape:persp3d"
   inkscape:vp_x="0 : 194.658 : 1"
   inkscape:vp_y="0 : 1000 : 0"
   inkscape:vp_z="468.311 : 194.658 : 1"
   inkscape:persp3d-origin="234.1555 : 129.772 : 1"
   id="perspective2459" />
		
		
	</defs><sodipodi:namedview
   inkscape:window-height="670"
   inkscape:window-width="640"
   inkscape:pageshadow="2"
   inkscape:pageopacity="0.0"
   guidetolerance="10.0"
   gridtolerance="10.0"
   objecttolerance="10.0"
   borderopacity="1.0"
   bordercolor="#666666"
   pagecolor="#ffffff"
   id="base"
   showgrid="false"
   inkscape:zoom="1.1616212"
   inkscape:cx="234.1555"
   inkscape:cy="194.658"
   inkscape:window-x="0"
   inkscape:window-y="64"
   inkscape:current-layer="svg2407" />
	<style
   type="text/css"
   id="style2409">
	
		@font-face{font-family:'Times-Roman';src:url(991D8F.cef)}
	
	</style>
	
<g
   transform="matrix(1.5234333,0,0,1.5234333,-10.959579,-43.370067)"
   style="overflow:visible"
   id="g2428">
			<path
   id="path2430"
   d="M 149.371,81.706 C 149.91,89.79 149.362,97.509 147.726,104.863 C 146.091,112.219 143.453,119.233 139.811,125.904 C 135.979,133.024 130.683,139.777 123.916,146.169 C 119.457,150.389 115.678,153.392 112.584,155.179 L 110.859,152.597 C 118.789,145.694 124.459,138.803 127.87,131.93 C 133.924,119.758 136.309,104.045 135.026,84.786 C 133.989,69.221 131.567,56.604 127.764,46.94 C 122.442,33.294 113.763,22.864 101.734,15.657 L 103.671,12.831 C 112.558,17.036 121.012,23.718 129.035,32.881 C 141.362,46.989 148.142,63.264 149.371,81.706 z"
   style="fill:#404010;stroke:#3f280d;stroke-width:8" />
			<path
   id="path2432"
   d="M 174.622,237.551 C 174.262,229.457 174.98,221.753 176.777,214.437 C 178.574,207.118 181.366,200.165 185.154,193.576 C 189.141,186.542 194.586,179.907 201.491,173.667 C 206.042,169.547 209.887,166.628 213.018,164.91 L 214.685,167.529 C 206.606,174.256 200.785,181.018 197.222,187.814 C 190.902,199.85 188.17,215.505 189.029,234.788 C 189.722,250.373 191.865,263.039 195.454,272.784 C 200.475,286.544 208.921,297.163 220.787,304.634 L 218.789,307.416 C 209.997,303.018 201.692,296.15 193.875,286.812 C 181.863,272.434 175.444,256.015 174.622,237.551 z"
   style="fill:#404010;stroke:#3f280d;stroke-width:8" />
			<path
   id="path2434"
   d="M 244.346,146.25 C 236.305,147.233 228.567,147.11 221.134,145.884 C 213.698,144.657 206.551,142.408 199.69,139.14 C 192.37,135.706 185.335,130.79 178.581,124.386 C 174.122,120.166 170.917,116.559 168.962,113.568 L 171.444,111.704 C 178.774,119.242 185.965,124.523 193.015,127.552 C 205.502,132.926 221.323,134.443 240.48,132.101 C 255.965,130.207 268.429,127.096 277.868,122.766 C 291.2,116.7 301.136,107.46 307.671,95.052 L 310.599,96.83 C 306.89,105.934 300.685,114.744 291.977,123.259 C 278.566,136.342 262.691,144.007 244.346,146.25 z"
   style="fill:#404010;stroke:#3f280d;stroke-width:8" />
			<path
   id="path2436"
   d="M 79.737,185.105 C 87.635,183.305 95.344,182.635 102.864,183.096 C 110.387,183.557 117.726,185.063 124.886,187.613 C 132.519,190.28 140.019,194.451 147.393,200.131 C 152.26,203.873 155.818,207.134 158.068,209.909 L 155.789,212.017 C 147.727,205.269 140.033,200.749 132.71,198.458 C 119.739,194.389 103.847,194.498 85.029,198.786 C 69.819,202.252 57.738,206.623 48.791,211.894 C 36.149,219.29 27.21,229.498 21.979,242.509 L 18.884,241.039 C 21.642,231.602 26.916,222.205 34.706,212.845 C 46.707,198.461 61.716,189.212 79.737,185.105 z"
   style="fill:#404010;stroke:#3f280d;stroke-width:8" />
			<path
   id="path2438"
   d="M 165.029,178.586 C 175.963,178.586 184.828,169.722 184.828,158.787 C 184.828,147.852 175.963,138.988 165.029,138.988 C 154.094,138.988 145.229,147.852 145.229,158.787 C 145.229,169.722 154.094,178.586 165.029,178.586 z"
   style="fill:#3f0103;stroke:#002831;stroke-width:8" />
			<g
   id="g2440">
				<path
   id="path2442"
   d="M 209.355,222.194 C 209.31,222.132 209.264,222.074 209.219,222.01 C 209.258,222.201 209.302,222.246 209.355,222.194 z"
   style="fill:#200217;stroke:#ffffff;stroke-width:5" />
				<path
   id="path2444"
   d="M 141.682,73.948 C 142.221,82.032 141.672,89.751 140.038,97.104 C 138.403,104.462 135.765,111.475 132.122,118.146 C 128.291,125.266 122.995,132.019 116.228,138.411 C 111.769,142.632 107.99,145.634 104.896,147.421 L 103.171,144.838 C 111.101,137.936 116.772,131.045 120.183,124.172 C 126.237,112 128.623,96.287 127.339,77.029 C 126.301,61.463 123.88,48.846 120.077,39.182 C 114.754,25.536 106.076,15.107 94.046,7.899 L 95.983,5.073 C 104.87,9.277 113.324,15.959 121.346,25.122 C 133.673,39.231 140.453,55.507 141.682,73.948 z"
   style="fill:#ffff41;stroke:#fe9f34;stroke-width:8" />
				<path
   id="path2446"
   d="M 166.934,229.792 C 166.573,221.699 167.291,213.995 169.088,206.679 C 170.885,199.36 173.676,192.407 177.465,185.818 C 181.452,178.784 186.897,172.149 193.801,165.909 C 198.353,161.789 202.197,158.87 205.329,157.151 L 206.996,159.771 C 198.916,166.498 193.096,173.26 189.533,180.056 C 183.213,192.092 180.481,207.747 181.34,227.03 C 182.033,242.615 184.176,255.281 187.765,265.026 C 192.786,278.786 201.232,289.405 213.099,296.876 L 211.1,299.658 C 202.309,295.26 194.004,288.392 186.186,279.054 C 174.174,264.676 167.755,248.257 166.934,229.792 z"
   style="fill:#ffff41;stroke:#fe9f34;stroke-width:8" />
				<path
   id="path2448"
   d="M 236.656,138.492 C 228.615,139.475 220.878,139.352 213.444,138.126 C 206.007,136.899 198.861,134.65 192,131.382 C 184.68,127.948 177.645,123.032 170.891,116.629 C 166.432,112.409 163.226,108.801 161.272,105.81 L 163.754,103.947 C 171.084,111.484 178.275,116.765 185.326,119.794 C 197.812,125.168 213.633,126.685 232.791,124.343 C 248.275,122.45 260.738,119.338 270.178,115.008 C 283.511,108.943 293.446,99.702 299.981,87.294 L 302.909,89.072 C 299.201,98.176 292.994,106.986 284.288,115.502 C 270.878,128.584 255.002,136.25 236.656,138.492 z"
   style="fill:#ffff41;stroke:#fe9f34;stroke-width:8" />
				<path
   id="path2450"
   d="M 72.047,177.348 C 79.946,175.548 87.655,174.879 95.175,175.339 C 102.697,175.8 110.037,177.305 117.196,179.856 C 124.829,182.523 132.329,186.695 139.703,192.375 C 144.57,196.117 148.128,199.378 150.379,202.152 L 148.099,204.26 C 140.037,197.512 132.343,192.992 125.02,190.701 C 112.049,186.632 96.157,186.741 77.339,191.029 C 62.129,194.495 50.048,198.866 41.101,204.137 C 28.459,211.534 19.52,221.741 14.289,234.752 L 11.194,233.283 C 13.952,223.845 19.225,214.448 27.016,205.088 C 39.018,190.703 54.026,181.455 72.047,177.348 z"
   style="fill:#ffff41;stroke:#fe9f34;stroke-width:8" />
				<path
   id="path2452"
   d="M 157.339,170.828 C 168.273,170.828 177.138,161.963 177.138,151.029 C 177.138,140.094 168.273,131.229 157.339,131.229 C 146.404,131.229 137.54,140.094 137.54,151.029 C 137.541,161.963 146.405,170.828 157.339,170.828 z"
   style="fill:#fd0b12;stroke:#00a0c6;stroke-width:8" />
			</g>
		</g></svg>