<?xml version="1.0" encoding="UTF-8" standalone="no"?>
<!-- Generator: Adobe Illustrator 10, SVG Export Plug-In . SVG Version: 3.0.0 Build 76)  -->
<svg
   xmlns:dc="http://purl.org/dc/elements/1.1/"
   xmlns:cc="http://creativecommons.org/ns#"
   xmlns:rdf="http://www.w3.org/1999/02/22-rdf-syntax-ns#"
   xmlns:svg="http://www.w3.org/2000/svg"
   xmlns="http://www.w3.org/2000/svg"
   xmlns:sodipodi="http://sodipodi.sourceforge.net/DTD/sodipodi-0.dtd"
   xmlns:inkscape="http://www.inkscape.org/namespaces/inkscape"
   width="542.22998"
   height="526.63727"
   viewBox="0 0 551.429 603.391"
   style="overflow:visible"
   xml:space="preserve"
   id="svg2501"
   sodipodi:version="0.32"
   inkscape:version="0.46"
   sodipodi:docname="ThreeHappyTheSameAgain.svg"
   inkscape:output_extension="org.inkscape.output.svg.inkscape"
   version="1.0"><metadata
   id="metadata2539"><rdf:RDF><cc:Work
       rdf:about=""><dc:format>image/svg+xml</dc:format><dc:type
         rdf:resource="http://purl.org/dc/dcmitype/StillImage" /></cc:Work></rdf:RDF></metadata><defs
   id="defs2537"><inkscape:perspective
   sodipodi:type="inkscape:persp3d"
   inkscape:vp_x="0 : 301.6955 : 1"
   inkscape:vp_y="0 : 1000 : 0"
   inkscape:vp_z="551.42902 : 301.6955 : 1"
   inkscape:persp3d-origin="275.71451 : 201.13033 : 1"
   id="perspective2541" />
		
		
	</defs><sodipodi:namedview
   inkscape:window-height="670"
   inkscape:window-width="640"
   inkscape:pageshadow="2"
   inkscape:pageopacity="0.0"
   guidetolerance="10.0"
   gridtolerance="10.0"
   objecttolerance="10.0"
   borderopacity="1.0"
   bordercolor="#666666"
   pagecolor="#ffffff"
   id="base"
   showgrid="false"
   inkscape:zoom="0.76567268"
   inkscape:cx="275.71451"
   inkscape:cy="301.6955"
   inkscape:window-x="581"
   inkscape:window-y="0"
   inkscape:current-layer="svg2501" />
	<style
   type="text/css"
   id="style2503">
	
		@font-face{font-family:'Times-Roman';src:url(370D77F9.cef)}
	
	</style>
	
<g
   transform="matrix(1.1457431,0,0,1.1457431,-45.42696,8.6039719e-4)"
   style="overflow:visible"
   id="g2522">
			<path
   id="path2524"
   d="M 283.352,401.904 C 300.776,401.904 317.264,387.288 322.809,365.904 C 328.569,342.36 313.376,320.112 289.184,316.8 C 287.241,316.512 285.296,316.441 283.352,316.368 L 283.352,401.904 z M 283.352,482.184 L 283.352,465.697 C 284.145,465.552 284.865,465.409 285.584,465.264 C 305.384,461.592 323.096,458.857 340.088,456.264 C 352.616,441.288 365.216,425.088 381.272,404.208 C 403.809,374.976 433.688,339.12 455.289,279.433 C 442.474,224.496 413.385,186.912 388.474,154.008 C 374.001,134.928 362.049,117.864 350.385,101.448 C 329.505,98.64 309.489,97.488 283.353,93.312 L 283.353,82.8 C 306.609,88.344 328.066,92.448 345.849,95.112 C 339.297,85.968 332.745,77.04 325.833,67.968 C 325.545,63.216 325.329,58.464 325.112,53.712 C 337.065,68.76 348.729,83.232 360.176,97.056 C 370.184,98.28 378.393,98.856 384.153,98.856 C 377.961,104.976 371.841,104.976 371.841,104.976 C 369.825,104.616 367.81,104.256 365.864,103.896 C 398.768,143.28 429.729,176.904 459.608,202.752 C 498.848,236.808 515.409,263.376 516.705,277.849 C 493.809,328.825 436.28,364.68 397.184,403.489 C 378.393,422.209 363.272,439.993 351.464,454.537 C 364.568,452.449 377.456,450.433 390.704,447.913 C 395.023,449.785 399.344,451.729 403.664,453.673 C 381.92,458.209 361.04,462.745 341.168,467.425 C 334.184,476.137 328.928,482.833 325.111,486.577 C 325.256,482.041 325.472,477.577 325.687,473.041 C 326.408,472.177 327.127,471.385 327.775,470.593 C 312.368,474.336 297.536,478.224 283.352,482.184 z M 283.352,241.848 C 290.336,243.072 297.68,242.424 304.233,240.264 C 322.665,227.952 334.977,209.52 334.977,184.896 C 329.145,167.4 306.68,155.448 283.352,159.552 L 283.352,241.848 L 283.352,241.848 z M 242.744,350.784 C 240.656,372.672 254.552,394.344 275.144,400.824 C 277.88,401.544 280.616,401.904 283.352,401.904 L 283.352,316.368 C 261.464,316.224 244.472,331.632 242.744,350.784 z M 283.352,82.8 L 283.352,93.312 C 282.128,93.096 280.904,92.952 279.608,92.736 C 245.192,86.976 205.376,81.216 150.152,90.504 L 150.152,39.096 C 191.264,46.224 232.376,66.744 273.488,80.424 C 276.8,81.288 280.112,82.08 283.352,82.8 z M 283.352,159.552 L 283.352,241.848 C 270.681,239.688 259.017,231.552 255.057,215.64 C 242.745,191.088 255.057,166.464 279.609,160.344 C 280.904,160.056 282.128,159.768 283.352,159.552 z M 283.352,465.696 L 283.352,482.183 C 256.497,489.816 232.017,497.879 210.128,506.879 C 185.72,516.959 165.704,522.648 150.152,525.167 L 150.152,470.087 C 201.128,480.96 244.976,472.824 283.352,465.696 z M 150.152,321.192 L 150.152,239.544 C 158.792,239.616 167.576,241.992 175.136,246.744 C 192.92,257.76 198.608,282.815 184.712,303.408 C 176.288,315.576 163.256,321.696 150.152,321.192 z M 150.152,39.096 L 150.152,90.504 C 146.264,91.152 142.304,91.944 138.272,92.736 C 95.216,129.6 76.784,172.656 64.472,209.52 C 52.016,234.504 42.368,256.608 33.584,277.849 C 42.296,298.512 51.944,318.96 65.192,346.464 C 81.248,379.729 99.896,422.568 143.6,468.649 C 145.76,469.153 147.992,469.657 150.152,470.088 L 150.152,525.168 C 135.032,527.544 124.088,526.897 117.392,524.232 C 82.112,480.887 75.848,413.423 58.712,361.007 C 48.848,331.055 37.832,306.287 29.408,287.999 C 26.744,294.623 24.08,301.247 21.488,307.799 C 15.296,313.919 9.176,313.919 9.176,313.919 C 13.928,300.887 18.68,287.783 23.36,274.895 C 20.336,268.344 18.032,263.16 16.808,259.416 C 20.192,261.216 23.504,263.088 26.888,264.96 C 44.96,214.344 61.304,165.384 70.664,123.48 C 76.784,74.304 95.216,49.68 107.528,37.368 C 121.712,35.784 135.896,36.648 150.152,39.096 z M 150.152,239.544 C 137.408,239.4 124.808,244.08 115.88,253.224 C 101.912,268.776 106.448,294.624 125.672,311.472 C 133.016,317.664 141.584,320.832 150.152,321.193 L 150.152,239.544 z"
   style="fill:#a0aca5" />
			<path
   id="path2526"
   d="M 316.977,366.696 C 334.401,366.696 350.889,352.08 356.432,330.696 C 362.192,307.152 347,284.904 322.809,281.664 C 320.864,281.376 318.92,281.231 316.977,281.231 L 316.977,366.696 z M 316.977,446.976 L 316.977,430.416 C 317.768,430.272 318.489,430.2 319.208,430.056 C 339.008,426.384 356.721,423.649 373.712,421.056 C 386.24,406.008 398.84,389.88 414.896,369 C 437.431,339.768 467.312,303.912 488.839,244.224 C 476.095,189.216 447.007,151.704 422.095,118.8 C 407.623,99.72 395.671,82.656 383.935,66.24 C 363.056,63.432 343.111,62.28 316.976,58.104 L 316.976,47.592 C 340.232,53.136 361.687,57.24 379.472,59.904 C 372.919,50.76 366.368,41.76 359.455,32.688 C 359.167,28.008 358.951,23.256 358.735,18.504 C 370.686,33.552 382.35,48.024 393.798,61.848 C 403.807,63 412.014,63.648 417.774,63.648 C 411.583,69.768 405.462,69.768 405.462,69.768 C 403.446,69.408 401.43,68.976 399.414,68.616 C 432.391,108.072 463.35,141.696 493.23,167.544 C 532.47,201.6 549.03,228.096 550.326,242.64 C 527.43,293.616 469.902,329.472 430.806,368.28 C 412.013,386.927 396.894,404.712 385.085,419.256 C 398.189,417.24 411.077,415.152 424.325,412.632 C 428.645,414.504 432.965,416.521 437.285,418.464 C 415.541,422.928 394.661,427.536 374.789,432.145 C 367.806,440.928 362.477,447.624 358.733,451.369 C 358.877,446.833 359.092,442.297 359.309,437.761 C 360.029,436.969 360.748,436.177 361.397,435.385 C 345.992,439.128 331.16,442.944 316.977,446.976 z M 316.977,206.64 C 323.96,207.864 331.305,207.216 337.856,204.984 C 356.289,192.744 368.6,174.312 368.6,149.688 C 362.768,132.192 340.305,120.24 316.977,124.344 L 316.977,206.64 L 316.977,206.64 z M 276.368,315.576 C 274.28,337.391 288.176,359.136 308.767,365.616 C 311.503,366.336 314.24,366.696 316.976,366.696 L 316.976,281.231 C 295.088,281.088 278.096,296.424 276.368,315.576 z M 316.977,47.592 L 316.977,58.104 C 315.752,57.888 314.528,57.672 313.233,57.456 C 278.816,51.768 238.929,46.008 183.705,55.296 L 183.705,3.888 C 224.888,11.016 266,31.464 307.111,45.216 C 310.424,46.008 313.736,46.8 316.977,47.592 z M 316.977,124.344 L 316.977,206.64 C 304.305,204.48 292.641,196.272 288.68,180.432 C 276.368,155.808 288.68,131.256 313.233,125.136 C 314.527,124.776 315.752,124.56 316.977,124.344 z M 316.977,430.416 L 316.977,446.976 C 290.121,454.537 265.641,462.672 243.752,471.672 C 219.344,481.752 199.328,487.441 183.704,489.888 L 183.704,434.88 C 234.752,445.68 278.6,437.616 316.977,430.416 z M 183.704,285.984 L 183.704,204.336 C 192.416,204.408 201.2,206.784 208.76,211.536 C 226.544,222.552 232.232,247.68 218.336,268.272 C 209.912,280.44 196.88,286.488 183.704,285.984 z M 183.704,3.888 L 183.704,55.296 C 179.888,55.944 175.928,56.664 171.896,57.456 C 128.84,94.392 110.408,137.376 98.096,174.312 C 85.64,199.224 75.92,221.4 67.208,242.64 C 75.92,263.376 85.568,283.752 98.816,311.256 C 114.872,344.448 133.52,387.288 177.224,433.441 C 179.384,433.945 181.544,434.449 183.704,434.88 L 183.704,489.888 C 168.656,492.336 157.712,491.689 151.016,489.025 C 115.736,445.68 109.472,378.145 92.336,325.8 C 82.472,295.777 71.456,271.08 63.032,252.864 C 60.368,259.488 57.704,266.04 55.112,272.664 C 48.92,278.784 42.8,278.784 42.8,278.784 C 47.552,265.68 52.304,252.648 56.984,239.688 C 53.96,233.136 51.656,227.88 50.432,224.136 C 53.816,226.008 57.128,227.88 60.512,229.752 C 78.584,179.064 94.928,130.104 104.288,88.2 C 110.408,39.024 128.84,14.472 141.152,2.16 C 155.336,0.576 169.52,1.44 183.704,3.888 z M 183.704,204.336 C 171.032,204.192 158.432,208.8 149.504,218.016 C 135.536,233.568 140.072,259.416 159.296,276.336 C 166.568,282.456 175.208,285.624 183.704,285.984 L 183.704,204.336 L 183.704,204.336 z"
   style="fill:#fcc5d4" />
			<path
   id="path2528"
   d="M 276.44,315.216 C 274.424,337.105 288.248,358.777 308.84,365.256 C 329,370.8 350.096,355.105 356.504,330.336 C 362.264,306.792 347.072,284.544 322.88,281.304 C 298.256,278.136 278.312,294.408 276.44,315.216 z M 208.832,211.176 C 190.256,199.512 164.624,202.176 149.576,217.656 C 135.608,233.208 140.144,259.128 159.368,275.975 C 177.872,291.599 204.584,287.999 218.408,267.912 C 232.304,247.32 226.616,222.192 208.832,211.176 z M 57.056,239.328 C 54.032,232.776 51.728,227.592 50.504,223.848 C 53.888,225.648 57.272,227.52 60.584,229.392 C 78.656,178.776 95,129.816 104.36,87.912 C 110.48,38.736 128.912,14.112 141.224,1.8 C 196.52,-4.32 251.888,26.424 307.183,44.856 C 334.183,51.624 359.312,56.52 379.543,59.544 C 372.991,50.4 366.439,41.472 359.526,32.4 C 359.239,27.648 359.022,22.896 358.807,18.144 C 370.758,33.192 382.422,47.664 393.87,61.488 C 403.878,62.712 412.086,63.288 417.846,63.288 C 411.655,69.408 405.534,69.408 405.534,69.408 C 403.517,69.048 401.502,68.688 399.558,68.328 C 432.534,107.712 463.421,141.336 493.302,167.184 C 532.541,201.24 549.101,227.808 550.398,242.28 C 527.502,293.256 469.974,329.112 430.877,367.92 C 412.085,386.64 396.965,404.424 385.157,418.968 C 398.333,416.88 411.149,414.864 424.397,412.344 C 428.717,414.216 433.037,416.16 437.428,418.105 C 415.613,422.64 394.733,427.176 374.86,431.857 C 367.877,440.569 362.621,447.264 358.805,451.008 C 358.949,446.472 359.164,442.008 359.38,437.472 C 360.1,436.609 360.82,435.817 361.54,435.025 C 316.756,445.897 277.228,457.56 243.82,471.313 C 195.796,491.184 164.62,494.065 151.156,488.737 C 115.804,445.321 109.54,377.857 92.404,325.441 C 82.612,295.489 71.524,270.793 63.1,252.504 C 60.436,259.128 57.772,265.752 55.18,272.304 C 48.988,278.424 42.868,278.424 42.868,278.424 C 47.624,265.392 52.376,252.288 57.056,239.328 z M 373.784,420.696 C 356.792,423.288 339.08,426.024 319.351,429.696 C 278.744,437.183 232.16,446.328 177.295,433.08 C 133.591,387 114.943,344.16 98.887,310.896 C 85.639,283.391 75.991,263.016 67.279,242.28 C 76.063,221.04 85.711,198.936 98.167,173.952 C 110.479,137.088 128.911,94.032 171.967,57.168 C 233.455,44.856 276.439,50.976 313.304,57.168 C 341.312,61.776 362.191,62.928 384.079,65.88 C 395.743,82.296 407.694,99.36 422.167,118.44 C 447.151,151.344 476.167,188.928 488.983,243.864 C 467.382,303.552 437.503,339.408 414.966,368.639 C 398.912,389.521 386.312,405.72 373.784,420.696 z M 337.928,204.696 C 356.36,192.384 368.672,173.952 368.672,149.328 C 362.481,130.896 337.928,118.584 313.305,124.776 C 288.752,130.896 276.44,155.52 288.752,180.072 C 294.872,204.696 319.496,210.816 337.928,204.696 z"
   style="fill:none;stroke:#67121f;stroke-width:2.01600003" />
			<path
   id="path2530"
   d="M 271.472,316.944 C 269.456,338.759 283.279,360.431 303.872,366.912 C 324.032,372.456 345.128,356.76 351.536,331.992 C 357.296,308.448 342.103,286.2 317.912,282.888 C 293.288,279.792 273.344,296.064 271.472,316.944 z M 203.864,212.832 C 185.288,201.168 159.656,203.832 144.608,219.312 C 130.64,234.864 135.176,260.784 154.4,277.632 C 172.904,293.256 199.616,289.656 213.44,269.568 C 227.336,249.048 221.648,223.848 203.864,212.832 z M 52.088,240.984 C 49.064,234.432 46.76,229.248 45.536,225.504 C 48.92,227.376 52.232,229.176 55.616,231.048 C 73.688,180.432 90.032,131.472 99.392,89.568 C 105.512,40.392 123.944,15.768 136.256,3.456 C 191.552,-2.664 246.92,28.08 302.216,46.512 C 329.216,53.28 354.344,58.176 374.576,61.2 C 368.023,52.056 361.472,43.128 354.56,34.056 C 354.271,29.304 354.056,24.552 353.839,19.8 C 365.791,34.92 377.455,49.392 388.903,63.144 C 398.911,64.368 407.119,64.944 412.879,64.944 C 406.687,71.136 400.567,71.136 400.567,71.136 C 398.55,70.704 396.535,70.344 394.59,69.984 C 427.567,109.44 458.454,142.992 488.334,168.84 C 527.574,202.896 544.135,229.464 545.43,243.936 C 522.534,294.912 465.006,330.768 425.91,369.648 C 407.12,388.296 392,406.08 380.191,420.624 C 393.295,418.608 406.183,416.52 419.431,414 C 423.751,415.872 428.072,417.816 432.463,419.76 C 410.648,424.296 389.767,428.832 369.896,433.512 C 362.912,442.224 357.656,448.92 353.839,452.664 C 353.984,448.128 354.199,443.664 354.415,439.128 C 355.136,438.336 355.854,437.472 356.575,436.68 C 311.791,447.552 272.263,459.216 238.855,473.04 C 190.831,492.84 159.655,495.72 146.119,490.392 C 110.839,446.976 104.575,379.512 87.439,327.096 C 77.647,297.144 66.559,272.449 58.135,254.16 C 55.471,260.784 52.807,267.408 50.215,273.96 C 44.023,280.08 37.903,280.08 37.903,280.08 C 42.656,267.048 47.408,253.944 52.088,240.984 z M 368.816,422.353 C 351.824,424.945 334.111,427.68 314.383,431.353 C 273.775,438.913 227.191,447.985 172.327,434.737 C 128.623,388.657 109.975,345.817 93.919,312.552 C 80.671,285.12 71.023,264.672 62.311,244.008 C 71.095,222.768 80.743,200.592 93.199,175.608 C 105.511,138.744 123.943,95.688 166.999,58.824 C 228.487,46.512 271.471,52.632 308.335,58.824 C 336.343,63.504 357.224,64.584 379.11,67.536 C 390.774,83.952 402.727,101.016 417.199,120.168 C 442.182,153 471.199,190.584 484.014,245.52 C 462.414,305.208 432.535,341.136 409.998,370.368 C 393.943,391.248 381.344,407.376 368.816,422.353 z M 332.96,206.352 C 351.393,194.04 363.704,175.608 363.704,151.056 C 357.512,132.552 332.96,120.312 308.336,126.432 C 283.784,132.552 271.472,157.176 283.784,181.728 C 289.904,206.352 314.527,212.472 332.96,206.352 z"
   style="fill:none;stroke:#350f05;stroke-width:2.01600003" />
			<path
   id="path2532"
   d="M 274.712,315.864 C 272.624,337.752 286.52,359.424 307.04,365.904 C 327.271,371.448 348.296,355.752 354.775,330.984 C 360.536,307.44 345.271,285.192 321.152,281.88 C 296.456,278.712 276.512,295.056 274.712,315.864 z M 207.032,211.824 C 188.456,200.16 162.896,202.824 147.848,218.304 C 133.808,233.856 138.416,259.704 157.64,276.624 C 176.072,292.248 202.784,288.576 216.608,268.56 C 230.576,247.968 224.888,222.84 207.032,211.824 z M 55.256,239.976 C 52.304,233.424 50,228.24 48.776,224.496 C 52.16,226.296 55.472,228.168 58.856,230.04 C 76.928,179.352 93.272,130.464 102.56,88.56 C 108.752,39.384 127.184,14.76 139.496,2.448 C 194.792,-3.672 250.088,27.072 305.456,45.504 C 332.384,52.272 357.512,57.168 377.744,60.192 C 371.264,51.048 364.712,42.12 357.728,33.048 C 357.439,28.296 357.295,23.544 357.08,18.792 C 369.032,33.84 380.695,48.312 392.144,62.136 C 402.152,63.36 410.288,63.936 416.047,63.936 C 409.927,70.056 403.808,70.056 403.808,70.056 C 401.791,69.696 399.775,69.336 397.759,68.976 C 430.736,108.36 461.695,141.984 491.503,167.832 C 530.815,201.888 547.375,228.456 548.671,242.928 C 525.775,293.904 468.247,329.76 429.151,368.568 C 410.358,387.288 395.239,405.072 383.43,419.616 C 396.534,417.528 409.422,415.512 422.598,412.992 C 426.991,414.864 431.311,416.807 435.63,418.752 C 413.887,423.288 393.006,427.824 373.135,432.504 C 366.151,441.216 360.823,447.912 357.078,451.656 C 357.223,447.12 357.437,442.656 357.654,438.048 C 358.374,437.256 359.021,436.464 359.742,435.672 C 315.03,446.544 275.43,458.208 242.094,471.96 C 194.07,491.832 162.894,494.712 149.358,489.313 C 114.078,445.968 107.814,378.504 90.678,326.088 C 80.814,296.136 69.798,271.441 61.374,253.152 C 58.638,259.777 56.046,266.328 53.382,272.952 C 47.262,279.072 41.142,279.072 41.142,279.072 C 45.896,266.04 50.648,252.936 55.256,239.976 z M 371.984,421.344 C 355.064,423.937 337.351,426.672 317.551,430.344 C 277.015,437.832 230.431,446.976 175.567,433.729 C 131.791,387.649 113.143,344.808 97.159,311.544 C 83.911,284.04 74.191,263.664 65.551,242.928 C 74.263,221.688 83.983,199.584 96.439,174.6 C 108.751,137.736 127.183,94.68 170.167,57.816 C 231.655,45.504 274.711,51.624 311.575,57.816 C 339.511,62.424 360.463,63.576 382.278,66.528 C 394.014,82.944 405.966,100.007 420.438,119.088 C 445.35,151.992 474.367,189.576 487.182,244.512 C 465.655,304.2 435.703,340.055 413.239,369.288 C 397.184,390.168 384.584,406.368 371.984,421.344 z M 336.2,205.344 C 354.632,193.032 366.872,174.6 366.872,149.976 C 360.752,131.544 336.2,119.232 311.576,125.424 C 287.023,131.544 274.712,156.168 287.023,180.72 C 293.145,205.344 317.695,211.464 336.2,205.344 z"
   style="fill:none;stroke:#440d51;stroke-width:2.01600003" />
			<path
   id="path2534"
   d="M 273.128,316.224 C 271.04,338.04 284.864,359.785 305.456,366.264 C 325.687,371.737 346.712,356.04 353.191,331.273 C 358.952,307.8 343.687,285.552 319.496,282.241 C 294.872,279.072 274.928,295.416 273.128,316.224 z M 205.448,212.184 C 186.872,200.52 161.24,203.184 146.264,218.664 C 132.224,234.216 136.832,260.063 156.056,276.912 C 174.488,292.608 201.2,288.936 215.024,268.92 C 228.92,248.328 223.232,223.128 205.448,212.184 z M 53.672,240.336 C 50.648,233.784 48.344,228.528 47.12,224.784 C 50.504,226.656 53.888,228.528 57.2,230.4 C 75.272,179.712 91.688,130.752 100.976,88.848 C 107.096,39.672 125.6,15.12 137.84,2.808 C 193.208,-3.312 248.504,27.36 303.8,45.864 C 330.8,52.56 355.928,57.456 376.16,60.552 C 369.607,51.408 363.128,42.408 356.144,33.336 C 355.855,28.656 355.711,23.904 355.496,19.152 C 367.448,34.2 379.111,48.672 390.488,62.496 C 400.496,63.648 408.704,64.296 414.464,64.296 C 408.344,70.416 402.152,70.416 402.152,70.416 C 400.136,69.984 398.12,69.624 396.175,69.264 C 429.152,108.72 460.111,142.344 489.919,168.192 C 529.159,202.248 545.791,228.744 547.087,243.288 C 524.119,294.192 466.663,330.048 427.495,368.928 C 408.703,387.576 393.583,405.361 381.847,419.905 C 394.951,417.888 407.767,415.801 421.015,413.281 C 425.408,415.153 429.656,417.096 434.047,419.041 C 412.304,423.577 391.423,428.113 371.48,432.793 C 364.568,441.577 359.24,448.273 355.496,452.017 C 355.641,447.482 355.784,442.946 356,438.41 C 356.721,437.618 357.439,436.826 358.16,436.034 C 313.376,446.906 273.848,458.57 240.512,472.322 C 192.416,492.122 161.312,495.002 147.776,489.674 C 112.424,446.33 106.232,378.794 89.024,326.45 C 79.232,296.426 68.144,271.729 59.792,253.514 C 57.056,260.138 54.464,266.69 51.8,273.242 C 45.68,279.434 39.488,279.434 39.488,279.434 C 44.24,266.328 48.992,253.296 53.672,240.336 z M 370.4,421.704 C 353.48,424.296 335.767,426.96 315.967,430.632 C 275.359,438.193 228.775,447.264 173.911,434.088 C 130.207,387.937 111.559,345.096 95.575,311.904 C 82.255,284.4 72.607,264.024 63.895,243.288 C 72.679,222.048 82.327,199.872 94.855,174.888 C 107.095,138.024 125.599,95.04 168.583,58.104 C 230.071,45.864 273.127,51.984 309.991,58.104 C 337.927,62.784 358.807,63.936 380.694,66.888 C 392.358,83.304 404.311,100.368 418.854,119.448 C 443.766,152.28 472.783,189.864 485.598,244.8 C 463.998,304.56 434.119,340.416 411.655,369.649 C 395.527,390.528 382.928,406.656 370.4,421.704 z M 334.544,205.632 C 352.977,193.392 365.288,174.888 365.288,150.336 C 359.168,131.904 334.544,119.592 309.992,125.712 C 285.368,131.904 273.128,156.456 285.368,181.08 C 291.561,205.632 316.111,211.824 334.544,205.632 z"
   style="fill:none;stroke:#2f0027;stroke-width:2.01600003" />
		</g></svg>