<?xml version="1.0" encoding="UTF-8" standalone="no"?>
<!-- Generator: Adobe Illustrator 10, SVG Export Plug-In . SVG Version: 3.0.0 Build 76)  -->
<svg
   xmlns:dc="http://purl.org/dc/elements/1.1/"
   xmlns:cc="http://creativecommons.org/ns#"
   xmlns:rdf="http://www.w3.org/1999/02/22-rdf-syntax-ns#"
   xmlns:svg="http://www.w3.org/2000/svg"
   xmlns="http://www.w3.org/2000/svg"
   xmlns:sodipodi="http://sodipodi.sourceforge.net/DTD/sodipodi-0.dtd"
   xmlns:inkscape="http://www.inkscape.org/namespaces/inkscape"
   width="502.73788"
   height="499.62363"
   viewBox="0 0 507.574 578.361"
   style="overflow:visible"
   xml:space="preserve"
   id="svg2461"
   sodipodi:version="0.32"
   inkscape:version="0.46"
   sodipodi:docname="ThreeHappyTheSame.svg"
   inkscape:output_extension="org.inkscape.output.svg.inkscape"
   version="1.0"><metadata
   id="metadata2497"><rdf:RDF><cc:Work
       rdf:about=""><dc:format>image/svg+xml</dc:format><dc:type
         rdf:resource="http://purl.org/dc/dcmitype/StillImage" /></cc:Work></rdf:RDF></metadata><defs
   id="defs2495"><inkscape:perspective
   sodipodi:type="inkscape:persp3d"
   inkscape:vp_x="0 : 289.18051 : 1"
   inkscape:vp_y="0 : 1000 : 0"
   inkscape:vp_z="507.57401 : 289.18051 : 1"
   inkscape:persp3d-origin="253.787 : 192.78701 : 1"
   id="perspective2499" />
		
		
	</defs><sodipodi:namedview
   inkscape:window-height="670"
   inkscape:window-width="640"
   inkscape:pageshadow="2"
   inkscape:pageopacity="0.0"
   guidetolerance="10.0"
   gridtolerance="10.0"
   objecttolerance="10.0"
   borderopacity="1.0"
   bordercolor="#666666"
   pagecolor="#ffffff"
   id="base"
   showgrid="false"
   inkscape:zoom="0.79880902"
   inkscape:cx="253.787"
   inkscape:cy="289.18051"
   inkscape:window-x="624"
   inkscape:window-y="64"
   inkscape:current-layer="svg2461" />
	<style
   type="text/css"
   id="style2463">
	
		@font-face{font-family:'Times-Roman';src:url(981A1AF9.cef)}
	
	</style>
	
<g
   transform="matrix(1.1575934,0,0,1.1575934,-42.798774,5.2329231e-3)"
   style="overflow:visible"
   id="g2482">
			<path
   id="path2484"
   d="M 404.729,121.122 C 399.977,129.906 395.296,138.762 390.617,147.546 L 390.617,189.09 C 393.856,182.394 397.169,175.626 400.696,168.93 C 408.473,153.81 416.537,138.69 424.6,123.642 C 419.2,120.546 412.145,120.546 404.729,121.122 z M 485.08,43.722 L 485.08,54.45 C 484.144,71.874 479.32,92.034 476.439,109.53 C 471.472,140.274 468.087,160.722 466,168.282 C 464.848,167.49 462.184,167.706 462.328,165.546 C 463.624,151.65 467.368,137.682 467.8,117.666 C 468.305,96.786 473.416,61.362 447.496,54.306 C 427.264,48.834 406.889,61.002 390.616,71.73 L 390.616,57.978 C 399.832,50.778 408.616,44.514 416.968,39.042 C 442.672,22.194 464.992,12.33 472.12,16.866 C 480.832,22.338 484.359,31.986 485.08,43.722 z M 390.616,487.89 L 390.616,452.754 C 407.536,437.634 416.032,416.898 423.88,401.489 C 434.464,380.825 439.432,363.69 443.464,344.969 C 445.12,342.737 448.936,335.61 448.504,338.129 C 441.736,380.824 426.184,419.921 412.432,448.793 C 404.439,465.499 397.312,479.178 390.616,487.89 z M 390.616,277.939 L 390.616,248.994 C 395.512,253.963 396.519,263.755 392.56,273.906 C 391.984,275.346 391.336,276.642 390.616,277.939 z M 390.616,147.546 C 387.16,153.954 383.775,160.362 380.392,166.698 C 372.472,181.458 364.839,196.002 356.56,209.898 C 363.831,211.698 371.607,212.058 378.808,213.282 C 382.767,205.29 386.583,197.226 390.616,189.09 L 390.616,147.546 z M 390.616,57.978 L 390.616,71.73 C 386.584,74.322 382.767,76.914 379.312,79.074 C 370.167,84.834 362.175,90.882 354.616,97.578 L 354.616,89.658 C 367.072,77.418 379.096,66.978 390.616,57.978 z M 390.616,248.994 L 390.616,277.939 C 384.137,289.027 370.599,295.794 358.863,294.57 C 357.351,294.283 355.912,293.923 354.616,293.419 L 354.616,263.898 C 363.904,252.594 376.216,244.242 384.64,245.826 C 387.016,246.258 389.032,247.41 390.616,248.994 z M 390.616,452.754 L 390.616,487.89 C 386.368,493.434 382.263,497.035 378.304,498.115 C 370.24,500.346 362.32,499.986 354.616,497.755 L 354.616,469.818 C 359.512,469.459 364.695,468.234 370.168,465.858 C 378.16,462.402 384.855,457.938 390.616,452.754 z M 354.616,415.458 L 354.616,337.985 C 357.137,336.905 359.728,335.825 362.32,334.817 C 364.695,346.481 367.504,358.073 368.872,370.17 C 370.312,382.409 370.96,394.866 371.607,407.466 C 365.992,410.707 360.305,413.586 354.616,415.458 z M 354.616,89.658 L 354.616,97.578 C 347.847,103.554 341.368,109.962 334.599,116.946 C 332.583,117.162 326.607,119.754 328.48,117.594 C 337.336,107.37 346.048,98.083 354.616,89.658 z M 354.616,263.898 L 354.616,293.419 C 345.04,289.675 343.095,279.955 351.088,268.507 C 352.24,266.922 353.393,265.338 354.616,263.898 z M 354.616,337.986 L 354.616,415.459 C 352.24,416.179 349.863,416.755 347.488,417.115 C 347.056,404.587 346.624,392.058 345.256,379.818 C 343.96,367.795 340.792,356.13 337.624,344.755 C 343.312,342.738 349,340.363 354.616,337.986 z M 354.616,469.818 C 331.216,471.547 313.863,453.619 302.271,443.106 C 288.664,430.939 283.767,419.994 275.847,410.562 C 274.623,409.05 271.599,410.49 269.583,410.634 C 272.319,416.394 281.392,431.657 298.526,452.682 C 312.711,470.106 332.583,491.418 354.615,497.754 L 354.615,469.818 L 354.616,469.818 z M 150.28,243.45 L 150.28,225.594 C 160.36,228.978 170.368,232.29 180.448,235.458 C 197.44,240.858 214.36,245.394 231.064,249.786 C 231.208,256.05 232.432,262.674 232.216,268.866 C 215.656,263.754 198.736,259.073 181.816,253.674 C 171.376,250.363 160.864,246.906 150.28,243.45 z M 150.28,178.794 L 150.28,173.394 C 161.08,174.042 168.712,174.762 172.816,175.626 C 170.224,175.626 171.952,179.154 169.432,179.154 C 163.312,179.154 157.048,179.01 150.28,178.794 z M 323.296,245.178 C 319.912,233.658 306.809,225.738 292.12,225.666 C 277.288,225.666 264.473,231.066 264.544,239.85 C 264.544,248.203 279.952,258.93 298.096,262.027 C 316.023,265.05 326.464,256.123 323.296,245.178 z M 320.2,317.898 C 325.168,308.251 315.519,297.667 297.808,292.554 C 279.808,287.37 263.463,288.594 260.943,296.73 C 258.423,304.506 268.72,317.107 284.056,324.09 C 299.104,330.93 315.16,326.97 320.2,317.898 z M 150.28,173.394 L 150.28,178.794 C 140.272,178.578 129.112,178.434 115.864,178.938 C 93.04,179.802 52.432,182.034 52.576,207.234 C 52.72,232.65 80.296,252.378 96.136,267.497 C 110.392,281.178 125.8,292.481 141.856,302.058 C 143.08,303.859 147.112,308.322 145.312,307.386 C 101.896,285.355 71.368,261.666 47.104,242.154 C 25.072,224.586 6.352,209.178 4.84,200.106 L 4.84,197.946 C 4.84,197.874 4.84,197.874 4.84,197.874 C 10.528,170.01 65.68,170.586 104.632,171.594 C 123.208,172.026 138.616,172.674 150.28,173.394 z M 150.28,225.594 C 143.152,223.146 136.024,220.698 128.824,218.25 C 126.736,223.65 128.104,230.13 130.12,236.754 C 136.888,238.986 143.584,241.218 150.28,243.45 L 150.28,225.594 z"
   style="fill:#00262f" />
			<path
   id="path2486"
   d="M 424.24,108.882 C 419.488,117.738 414.808,126.594 410.128,135.378 L 410.128,176.85 C 413.368,170.226 416.68,163.458 420.208,156.762 C 427.984,141.642 436.048,126.522 444.111,111.474 C 438.712,108.378 431.656,108.378 424.24,108.882 z M 504.592,31.554 L 504.592,42.21 C 503.656,59.706 498.832,79.866 496.024,97.362 C 490.985,128.106 487.6,148.554 485.512,156.114 C 484.36,155.25 481.696,155.466 481.84,153.306 C 483.137,139.482 486.88,125.514 487.384,105.498 C 487.817,84.618 492.928,49.194 467.008,42.138 C 446.776,36.666 426.401,48.834 410.128,59.562 L 410.128,45.81 C 419.344,38.538 428.128,32.274 436.481,26.874 C 462.184,9.954 484.504,0.162 491.705,4.698 C 500.344,10.098 503.872,19.818 504.592,31.554 z M 410.128,475.722 L 410.128,440.586 C 427.048,425.466 435.616,404.73 443.393,389.321 C 453.977,368.657 459.016,351.522 463.048,332.801 C 464.632,330.496 468.448,323.369 468.016,325.889 C 461.248,368.657 445.696,407.753 431.944,436.698 C 423.952,453.331 416.824,467.01 410.128,475.722 z M 410.128,265.77 L 410.128,236.826 C 415.024,241.794 416.032,251.586 412.072,261.738 C 411.496,263.107 410.848,264.474 410.128,265.77 z M 410.128,135.378 C 406.672,141.786 403.288,148.194 399.904,154.53 C 391.984,169.29 384.351,183.834 376.072,197.73 C 383.343,199.53 391.12,199.818 398.32,201.114 C 402.279,193.122 406.168,184.986 410.128,176.85 L 410.128,135.378 z M 410.128,45.81 L 410.128,59.562 C 406.096,62.154 402.279,64.746 398.824,66.906 C 389.679,72.594 381.687,78.714 374.128,85.41 L 374.128,77.49 C 386.584,65.25 398.607,54.738 410.128,45.81 z M 410.128,236.826 L 410.128,265.77 C 403.649,276.859 390.111,283.626 378.376,282.402 C 376.863,282.115 375.424,281.682 374.128,281.178 L 374.128,251.657 C 383.416,240.426 395.729,232.002 404.152,233.657 C 406.527,234.09 408.544,235.242 410.128,236.826 z M 410.128,440.586 L 410.128,475.722 C 405.88,481.266 401.775,484.867 397.816,485.946 C 389.752,488.178 381.832,487.818 374.128,485.587 L 374.128,457.65 C 379.024,457.291 384.208,456.066 389.68,453.69 C 397.672,450.234 404.368,445.699 410.128,440.586 z M 374.128,403.218 L 374.128,325.818 C 376.721,324.738 379.24,323.658 381.832,322.65 C 384.208,334.314 387.016,345.835 388.456,358.003 C 389.896,370.171 390.473,382.699 391.12,395.299 C 385.504,398.539 379.816,401.418 374.128,403.218 z M 374.128,77.49 L 374.128,85.41 C 367.359,91.314 360.88,97.794 354.111,104.778 C 352.095,104.994 346.12,107.586 348.064,105.426 C 356.848,95.202 365.561,85.914 374.128,77.49 z M 374.128,251.658 L 374.128,281.179 C 364.552,277.435 362.607,267.787 370.6,256.267 C 371.752,254.682 372.904,253.17 374.128,251.658 z M 374.128,325.818 L 374.128,403.218 C 371.752,404.01 369.376,404.586 367.072,404.947 C 366.568,392.419 366.136,379.89 364.767,367.65 C 363.472,355.554 360.375,343.962 357.136,332.514 C 362.824,330.57 368.512,328.123 374.128,325.818 z M 374.128,457.65 C 350.729,459.379 333.376,441.451 321.784,431.01 C 308.176,418.698 303.279,407.825 295.359,398.394 C 294.135,396.882 291.111,398.322 289.095,398.466 C 291.831,404.226 300.904,419.489 318.039,440.514 C 332.224,457.938 352.095,479.25 374.127,485.586 L 374.127,457.65 L 374.128,457.65 z M 169.792,231.282 L 169.792,213.354 C 179.872,216.81 189.88,220.122 199.96,223.291 C 216.952,228.691 233.944,233.227 250.576,237.547 C 250.72,243.883 251.944,250.507 251.728,256.699 C 235.168,251.587 218.248,246.907 201.328,241.507 C 190.888,238.194 180.376,234.738 169.792,231.282 z M 169.792,166.626 L 169.792,161.154 C 180.592,161.874 188.224,162.594 192.328,163.458 C 189.736,163.458 191.464,166.986 188.944,166.986 C 182.824,166.986 176.56,166.77 169.792,166.626 z M 342.809,233.01 C 339.424,221.49 326.321,213.498 311.632,213.498 C 296.8,213.498 284.057,218.898 284.057,227.61 C 284.057,235.962 299.464,246.762 317.608,249.859 C 335.536,252.882 346.048,243.954 342.809,233.01 z M 339.712,305.658 C 344.752,296.083 335.032,285.498 317.32,280.387 C 299.32,275.131 282.976,276.427 280.456,284.563 C 277.935,292.339 288.232,304.94 303.568,311.923 C 318.616,318.762 334.672,314.802 339.712,305.658 z M 169.792,161.154 L 169.792,166.626 C 159.784,166.41 148.624,166.194 135.376,166.698 C 112.552,167.562 72.016,169.866 72.088,195.066 C 72.232,220.482 99.808,240.21 115.648,255.329 C 129.904,269.01 145.312,280.313 161.44,289.89 C 162.592,291.691 166.624,296.154 164.824,295.218 C 121.408,273.186 90.88,249.497 66.616,229.986 C 44.584,212.346 25.864,197.01 24.352,187.866 L 24.352,185.706 C 30.04,157.842 85.264,158.418 124.144,159.353 C 142.72,159.858 158.128,160.434 169.792,161.154 z M 169.792,213.354 C 162.664,210.978 155.536,208.53 148.336,206.083 C 146.248,211.483 147.616,217.963 149.632,224.587 C 156.4,226.819 163.096,229.051 169.792,231.283 L 169.792,213.354 z"
   style="fill:#f0eaa2" />
			<path
   id="path2488"
   d="M 424.889,108.09 C 416.752,123.354 408.688,138.618 400.624,153.666 C 392.704,168.498 385.072,182.97 376.792,196.866 C 383.992,198.666 391.84,199.026 399.04,200.25 C 406.168,185.634 413.152,170.802 420.855,155.898 C 428.704,140.85 436.767,125.658 444.832,110.61 C 439.432,107.586 432.376,107.586 424.889,108.09 z M 391.84,394.434 C 391.192,381.834 390.544,369.378 389.104,357.138 C 387.665,345.042 384.928,333.45 382.481,321.859 C 374.272,325.027 366.137,328.842 357.856,331.722 C 361.024,343.098 364.192,354.762 365.489,366.859 C 366.785,379.027 367.289,391.554 367.721,404.083 C 375.855,402.93 383.92,398.97 391.84,394.434 z M 289.744,397.602 C 292.552,403.363 301.552,418.626 318.687,439.65 C 337.839,463.194 367.503,493.795 398.536,485.083 C 408.76,482.274 419.632,463.123 432.592,435.835 C 446.416,406.891 461.968,367.795 468.737,325.099 C 469.169,322.578 465.352,329.707 463.696,331.94 C 459.665,350.659 454.625,367.868 444.112,388.46 C 433.673,409.052 421.936,439.22 390.401,452.828 C 359.008,466.435 336.545,442.819 322.432,430.147 C 308.897,417.907 304,406.963 296.08,397.532 C 294.784,396.018 291.832,397.458 289.744,397.602 z M 379.096,281.539 C 392.2,282.978 407.464,274.339 412.721,260.947 C 418.048,247.41 414.52,234.667 404.872,232.795 C 395.296,230.995 380.824,241.939 371.32,255.475 C 362.176,268.506 365.92,279.234 379.096,281.539 z M 486.232,155.25 C 488.32,147.762 491.704,127.242 496.671,96.498 C 502.215,62.442 515.392,18.306 492.351,3.834 C 485.225,-0.63 462.904,9.162 437.2,26.01 C 411.424,42.93 380.679,67.554 348.712,104.562 C 346.84,106.794 352.816,104.202 354.832,103.914 C 369.088,89.082 382.191,76.914 399.544,66.042 C 417.111,55.098 442.456,34.506 467.729,41.346 C 493.649,48.33 488.537,83.754 488.033,104.634 C 487.6,124.65 483.856,138.618 482.561,152.514 C 482.344,154.674 485.008,154.458 486.232,155.25 z M 343.456,232.146 C 340.144,220.698 327.04,212.706 312.352,212.706 C 297.52,212.634 284.705,218.034 284.705,226.818 C 284.705,235.17 300.184,245.898 318.329,248.993 C 336.256,252.018 346.695,243.162 343.456,232.146 z M 340.432,304.867 C 345.401,295.219 335.752,284.635 318.04,279.523 C 300.04,274.338 283.695,275.634 281.103,283.699 C 278.656,291.474 288.952,304.146 304.288,311.058 C 319.336,317.898 335.393,313.939 340.432,304.867 z M 150.352,223.722 C 167.632,229.482 184.912,235.242 202.048,240.642 C 218.968,246.042 235.888,250.722 252.448,255.834 C 252.664,249.714 251.44,243.018 251.296,236.754 C 234.592,232.362 217.6,227.898 200.68,222.498 C 183.472,217.026 166.336,211.122 149.056,205.29 C 146.968,210.618 148.336,217.098 150.352,223.722 z M 193.048,162.594 C 184.552,160.866 160.72,159.498 124.864,158.562 C 85.912,157.554 30.688,157.05 25.072,184.842 C 23.343,193.482 43.36,209.97 67.264,229.194 C 91.6,248.634 122.128,272.321 165.472,294.355 C 167.344,295.291 163.312,290.826 162.088,289.027 C 146.032,279.451 130.624,268.146 116.296,254.539 C 100.528,239.347 72.952,219.619 72.808,194.203 C 72.664,169.003 113.2,166.771 136.096,165.907 C 158.272,165.043 174.4,166.123 189.592,166.123 C 192.184,166.122 190.384,162.667 193.048,162.594 z"
   style="fill:none;stroke:#011f35;stroke-width:2.01600003" />
			<path
   id="path2490"
   d="M 426.04,109.458 C 417.832,124.722 409.768,140.058 401.704,155.106 C 393.784,169.866 386.152,184.41 377.872,198.234 C 385.144,200.034 392.92,200.394 400.12,201.618 C 407.32,187.074 414.305,172.242 422.008,157.266 C 429.784,142.218 437.848,127.026 445.912,112.05 C 440.512,108.954 433.456,108.954 426.04,109.458 z M 392.92,395.802 C 392.272,383.275 391.695,370.745 390.256,358.506 C 388.817,346.409 386.008,334.818 383.632,323.226 C 375.424,326.394 367.288,330.21 358.936,333.09 C 362.176,344.466 365.272,356.13 366.569,368.226 C 367.936,380.394 368.369,392.922 368.873,405.523 C 376.936,404.298 385,400.41 392.92,395.802 z M 290.896,399.042 C 293.631,404.73 302.704,419.993 319.839,441.018 C 338.991,464.634 368.583,495.163 399.615,486.522 C 409.839,483.642 420.711,464.491 433.743,437.203 C 447.495,408.259 463.047,369.162 469.815,326.467 C 470.247,323.947 466.43,331.074 464.846,333.379 C 460.815,352.099 455.774,369.234 445.262,389.899 C 434.75,410.42 423.014,440.587 391.479,454.267 C 360.086,467.803 337.623,444.187 323.583,431.515 C 310.047,419.276 305.079,408.33 297.159,398.899 C 295.936,397.386 292.912,398.826 290.896,399.042 z M 380.176,282.906 C 393.28,284.346 408.544,275.779 413.872,262.314 C 419.128,248.85 415.672,236.106 405.952,234.234 C 396.448,232.362 381.904,243.378 372.4,256.842 C 363.328,269.875 367.072,280.602 380.176,282.906 z M 487.384,156.618 C 489.401,149.13 492.784,128.682 497.824,97.938 C 503.296,63.81 516.472,19.674 493.504,5.202 C 486.305,0.738 463.984,10.53 438.279,27.45 C 412.576,44.298 381.759,68.922 349.863,106.002 C 347.992,108.162 353.896,105.57 355.912,105.354 C 370.168,90.45 383.271,78.282 400.624,67.482 C 418.191,56.466 443.536,35.874 468.809,42.714 C 494.729,49.698 489.617,85.122 489.184,106.074 C 488.68,126.09 484.936,139.986 483.641,153.882 C 483.496,156.042 486.16,155.826 487.384,156.618 z M 344.607,233.514 C 341.224,222.066 328.12,214.074 313.431,214.074 C 298.599,214.074 285.855,219.474 285.855,228.186 C 285.855,236.538 301.263,247.338 319.408,250.363 C 337.336,253.386 347.848,244.53 344.607,233.514 z M 341.512,306.234 C 346.552,296.658 336.832,286.003 319.12,280.89 C 301.12,275.706 284.775,277.002 282.256,285.066 C 279.809,292.842 290.032,305.514 305.368,312.426 C 320.416,319.338 336.473,315.306 341.512,306.234 z M 151.432,225.162 C 168.784,230.922 185.992,236.61 203.128,242.01 C 220.048,247.409 236.968,252.161 253.528,257.275 C 253.744,251.083 252.52,244.459 252.376,238.122 C 235.744,233.73 218.752,229.266 201.76,223.866 C 184.624,218.394 167.416,212.49 150.136,206.658 C 148.048,211.986 149.488,218.538 151.432,225.162 z M 194.128,164.034 C 185.632,162.234 161.8,160.866 125.944,159.93 C 87.064,158.922 31.84,158.418 26.152,186.21 C 24.424,194.85 44.512,211.41 68.416,230.562 C 92.68,250.074 123.208,273.691 166.624,295.794 C 168.424,296.73 164.392,292.266 163.24,290.466 C 147.112,280.89 131.704,269.586 117.448,255.905 C 101.608,240.785 74.032,221.057 73.96,195.641 C 73.816,170.369 114.352,168.137 137.176,167.273 C 159.352,166.409 175.48,167.489 190.744,167.489 C 193.264,167.49 191.536,164.034 194.128,164.034 z"
   style="fill:none;stroke:#053c6d;stroke-width:2.01600003" />
			<path
   id="path2492"
   d="M 423.448,106.362 C 415.24,121.626 407.176,136.89 399.111,151.938 C 391.191,166.77 383.56,181.242 375.351,195.138 C 382.551,196.938 390.4,197.298 397.599,198.522 C 404.728,183.906 411.711,169.074 419.415,154.17 C 427.19,139.122 435.327,123.93 443.392,108.882 C 437.992,105.858 430.936,105.858 423.448,106.362 z M 390.4,392.707 C 389.679,380.107 389.103,367.65 387.664,355.41 C 386.225,343.314 383.416,331.722 381.04,320.058 C 372.832,323.298 364.695,327.115 356.344,329.994 C 359.584,341.371 362.752,353.035 364.048,365.131 C 365.344,377.299 365.776,389.826 366.279,402.356 C 374.416,401.203 382.408,397.242 390.4,392.707 z M 288.305,395.875 C 291.04,401.635 300.112,416.898 317.248,437.923 C 336.4,461.467 365.992,492.067 397.096,483.355 C 407.248,480.547 418.192,461.395 431.153,434.108 C 444.905,405.163 460.457,366.067 467.297,323.372 C 467.657,320.851 463.913,327.979 462.257,330.212 C 458.226,348.932 453.185,366.067 442.673,386.732 C 432.161,407.324 420.497,437.564 388.961,451.1 C 357.497,464.708 335.033,441.092 320.993,428.42 C 307.457,416.18 302.489,405.235 294.641,395.804 C 293.344,394.291 290.32,395.73 288.305,395.875 z M 377.656,279.81 C 390.687,281.25 406.023,272.611 411.279,259.218 C 416.607,245.682 413.08,232.938 403.431,231.066 C 393.855,229.266 379.312,240.21 369.879,253.745 C 360.736,266.779 364.48,277.506 377.656,279.81 z M 484.792,153.522 C 486.88,146.034 490.264,125.514 495.232,94.77 C 500.775,60.714 513.879,16.578 490.912,2.106 C 483.784,-2.43 461.464,7.434 435.687,24.282 C 409.984,41.13 379.24,65.826 347.271,102.834 C 345.4,105.066 351.375,102.402 353.392,102.186 C 367.576,87.354 380.751,75.186 398.032,64.314 C 415.599,53.37 441.015,32.778 466.216,39.618 C 492.137,46.602 487.096,82.026 486.592,102.906 C 486.16,122.922 482.344,136.89 481.12,150.786 C 480.904,152.946 483.568,152.73 484.792,153.522 z M 342.016,230.418 C 338.632,218.97 325.6,210.978 310.912,210.906 C 296.08,210.906 283.264,216.306 283.264,225.09 C 283.264,233.442 298.672,244.17 316.889,247.266 C 334.744,250.291 345.256,241.434 342.016,230.418 z M 338.992,303.138 C 343.96,293.49 334.24,282.906 316.527,277.794 C 298.599,272.61 282.256,273.834 279.664,281.97 C 277.216,289.745 287.439,302.346 302.775,309.329 C 317.896,316.17 333.952,312.21 338.992,303.138 z M 148.912,221.994 C 166.192,227.754 183.472,233.514 200.536,238.914 C 217.528,244.314 234.448,248.994 251.008,254.107 C 251.152,247.914 250,241.291 249.856,235.026 C 233.152,230.634 216.16,226.098 199.168,220.77 C 182.032,215.298 164.896,209.394 147.544,203.562 C 145.456,208.89 146.896,215.37 148.912,221.994 z M 191.536,160.866 C 183.112,159.138 159.208,157.77 123.352,156.834 C 84.472,155.826 29.248,155.25 23.632,183.114 C 21.832,191.754 41.92,208.242 65.824,227.466 C 90.16,246.906 120.616,270.594 164.032,292.626 C 165.904,293.562 161.8,289.098 160.648,287.298 C 144.592,277.722 129.112,266.418 114.856,252.81 C 99.016,237.618 71.512,217.89 71.368,192.474 C 71.224,167.274 111.76,165.042 134.656,164.178 C 156.76,163.314 172.96,164.394 188.152,164.394 C 190.672,164.394 188.944,160.866 191.536,160.866 z"
   style="fill:none;stroke:#01405a;stroke-width:2.01600003" />
		</g></svg>