<?xml version="1.0" encoding="UTF-8" standalone="no"?>
<!-- Generator: Adobe Illustrator 10, SVG Export Plug-In . SVG Version: 3.0.0 Build 76)  -->
<svg
   xmlns:dc="http://purl.org/dc/elements/1.1/"
   xmlns:cc="http://creativecommons.org/ns#"
   xmlns:rdf="http://www.w3.org/1999/02/22-rdf-syntax-ns#"
   xmlns:svg="http://www.w3.org/2000/svg"
   xmlns="http://www.w3.org/2000/svg"
   xmlns:sodipodi="http://sodipodi.sourceforge.net/DTD/sodipodi-0.dtd"
   xmlns:inkscape="http://www.inkscape.org/namespaces/inkscape"
   width="490.63168"
   height="489.56299"
   viewBox="0 0 503.616 568.683"
   style="overflow:visible"
   xml:space="preserve"
   id="svg2543"
   sodipodi:version="0.32"
   inkscape:version="0.46"
   sodipodi:docname="TwoHappyTheSame.svg"
   inkscape:output_extension="org.inkscape.output.svg.inkscape"
   version="1.0"><metadata
   id="metadata2577"><rdf:RDF><cc:Work
       rdf:about=""><dc:format>image/svg+xml</dc:format><dc:type
         rdf:resource="http://purl.org/dc/dcmitype/StillImage" /></cc:Work></rdf:RDF></metadata><defs
   id="defs2575"><inkscape:perspective
   sodipodi:type="inkscape:persp3d"
   inkscape:vp_x="0 : 284.34149 : 1"
   inkscape:vp_y="0 : 1000 : 0"
   inkscape:vp_z="503.616 : 284.34149 : 1"
   inkscape:persp3d-origin="251.808 : 189.56099 : 1"
   id="perspective2579" />
		
		
	</defs><sodipodi:namedview
   inkscape:window-height="670"
   inkscape:window-width="640"
   inkscape:pageshadow="2"
   inkscape:pageopacity="0.0"
   guidetolerance="10.0"
   gridtolerance="10.0"
   objecttolerance="10.0"
   borderopacity="1.0"
   bordercolor="#666666"
   pagecolor="#ffffff"
   id="base"
   showgrid="false"
   inkscape:zoom="0.81240342"
   inkscape:cx="251.808"
   inkscape:cy="284.34149"
   inkscape:window-x="624"
   inkscape:window-y="0"
   inkscape:current-layer="svg2543" />
	<style
   type="text/css"
   id="style2545">
	
		@font-face{font-family:'Times-Roman';src:url(FCA9E5C3.cef)}
	
	</style>
	
<g
   transform="matrix(1.1616135,0,0,1.1616135,-48.236942,-0.8468061)"
   style="overflow:visible"
   id="g2564">
			<path
   id="path2566"
   d="M 314.184,449.468 C 316.272,448.821 318.432,448.172 320.592,447.525 C 378.336,430.317 452.208,425.421 500.664,388.125 C 502.248,384.453 503.256,379.485 503.616,373.365 L 503.616,363.717 C 502.752,345.501 497.137,319.654 484.392,286.318 C 462.863,229.797 447.095,157.509 431.904,73.269 C 429.599,77.95 427.368,82.629 425.208,87.309 C 431.256,124.534 434.208,158.95 441.12,202.654 C 448.103,247.15 456.672,298.342 440.616,357.885 C 393.24,400.509 349.536,420.093 314.183,435.789 L 314.183,449.468 L 314.184,449.468 z M 314.184,229.581 L 314.184,132.525 C 319.8,132.453 325.489,133.388 331.033,135.548 C 353.137,146.06 364.44,179.036 357.241,205.1 C 350.328,225.117 332.76,233.468 314.184,229.581 z M 314.184,31.148 L 314.184,20.061 C 325.92,16.029 334.776,13.581 340.321,13.005 C 337.873,17.253 335.352,21.573 332.905,25.893 C 326.641,27.405 320.448,29.132 314.184,31.148 z M 241.248,476.829 C 259.968,468.765 284.664,458.613 314.184,449.469 L 314.184,435.789 C 311.016,437.229 307.92,438.597 304.897,439.965 C 279.913,451.197 260.184,459.909 241.249,467.613 L 241.249,476.829 L 241.248,476.829 z M 314.184,20.061 L 314.184,31.149 C 292.944,37.845 270.913,47.349 242.904,63.333 C 242.328,63.621 241.824,63.909 241.248,64.269 L 241.248,48.429 C 271.344,36.188 296.184,26.325 314.184,20.061 z M 314.184,132.525 L 314.184,229.581 C 308.712,228.429 303.096,226.197 297.624,222.885 C 273,208.844 262.92,181.485 273,159.668 C 279.984,143.541 296.4,132.741 314.184,132.525 z M 241.248,370.197 L 241.248,283.149 C 246.288,284.588 251.256,287.037 255.936,290.42 C 277.537,306.116 280.705,335.42 262.993,355.076 C 256.584,362.06 249.024,367.172 241.248,370.197 z M 208.2,490.292 C 215.04,488.276 226.2,483.236 241.248,476.828 L 241.248,467.612 C 232.752,471.068 224.4,474.307 215.76,477.475 C 213.24,481.796 210.72,485.972 208.2,490.292 z M 241.248,48.429 L 241.248,64.268 C 203.736,85.796 155.496,116.325 100.992,181.413 C 80.904,254.133 83.064,303.957 89.256,340.677 C 95.232,375.669 105.744,397.486 123.168,416.781 C 120.936,421.388 118.704,425.925 116.328,430.533 C 75.36,385.676 55.776,329.445 41.016,278.756 C 33.24,251.972 29.784,228.068 29.208,208.124 L 29.208,195.884 C 29.64,181.916 31.584,170.613 34.392,162.476 C 87.024,101.42 164.28,79.821 224.4,55.268 C 230.16,52.893 235.776,50.661 241.248,48.429 z M 241.248,283.149 C 222.744,277.533 203.52,284.157 193.656,299.205 C 180.408,319.149 182.568,347.229 199.056,364.077 C 210,374.516 226.056,376.173 241.248,370.197 L 241.248,283.149 z"
   style="fill:#0d1011" />
			<g
   id="g2568">
				<path
   id="path2570"
   d="M 302.088,441.117 C 304.176,440.469 306.264,439.821 308.424,439.173 C 366.168,421.965 440.112,417.141 488.496,379.845 C 490.08,376.101 491.16,371.205 491.448,365.013 L 491.448,355.438 C 490.584,337.15 484.968,311.301 472.296,277.965 C 450.695,221.517 434.928,149.23 419.736,64.989 C 417.504,69.669 415.271,74.348 413.04,79.029 C 419.088,116.253 422.04,150.596 428.952,194.3 C 436.008,238.868 444.576,290.06 428.519,349.605 C 381.144,392.157 337.368,411.813 302.087,427.508 L 302.087,441.117 L 302.088,441.117 z M 302.088,221.3 L 302.088,124.172 C 307.632,124.1 313.32,125.109 318.936,127.196 C 340.968,137.78 352.344,170.683 345.145,196.748 C 338.16,216.836 320.592,225.189 302.088,221.3 z M 302.088,22.796 L 302.088,11.781 C 313.752,7.749 322.608,5.301 328.152,4.725 C 325.704,8.973 323.256,13.293 320.808,17.541 C 314.544,19.125 308.352,20.853 302.088,22.796 z M 229.08,468.476 C 247.872,460.485 272.568,450.332 302.088,441.117 L 302.088,427.509 C 298.92,428.949 295.752,430.318 292.729,431.685 C 267.745,442.917 248.017,451.629 229.081,459.333 L 229.081,468.476 L 229.08,468.476 z M 302.088,11.781 L 302.088,22.797 C 280.776,29.493 258.744,39.069 230.736,54.982 C 230.232,55.341 229.656,55.629 229.08,55.918 L 229.08,40.148 C 259.176,27.909 284.016,17.973 302.088,11.781 z M 302.088,124.172 L 302.088,221.3 C 296.544,220.149 290.928,217.916 285.456,214.605 C 260.832,200.565 250.752,173.205 260.832,151.388 C 267.816,135.26 284.305,124.46 302.088,124.172 z M 229.08,361.917 L 229.08,274.797 C 234.12,276.309 239.088,278.757 243.84,282.069 C 265.368,297.764 268.608,327.069 250.896,346.797 C 244.416,353.781 236.928,358.821 229.08,361.917 z M 196.104,482.012 C 202.872,479.996 214.104,474.956 229.08,468.476 L 229.08,459.332 C 220.584,462.788 212.232,466.028 203.664,469.196 C 201.072,473.445 198.624,477.693 196.104,482.012 z M 229.08,40.148 L 229.08,55.916 C 191.64,77.516 143.328,108.044 88.824,173.06 C 68.808,245.852 70.896,295.676 77.16,332.397 C 83.064,367.388 93.576,389.205 111,408.428 C 108.768,413.109 106.536,417.645 104.232,422.252 C 63.192,377.397 43.608,321.164 28.848,270.404 C 21.072,243.692 17.688,219.716 17.04,199.843 L 17.04,187.604 C 17.544,173.635 19.488,162.259 22.224,154.124 C 74.928,93.14 152.184,71.468 212.304,46.988 C 218.064,44.613 223.68,42.38 229.08,40.148 z M 229.08,274.796 C 210.576,269.252 191.424,275.876 181.56,290.924 C 168.24,310.868 170.4,338.876 186.888,355.796 C 197.832,366.164 213.96,367.892 229.08,361.916 L 229.08,274.796 z"
   style="fill:#e2d0c5" />
				<path
   id="path2572"
   d="M 196.104,482.012 C 211.944,477.26 251.904,456.092 308.424,439.172 C 366.168,421.964 440.112,417.14 488.496,379.844 C 494.76,365.229 492.527,331.1 472.296,277.964 C 450.695,221.516 434.928,149.229 419.736,64.988 C 417.504,69.668 415.271,74.347 413.04,79.028 C 419.088,116.252 422.04,150.595 428.952,194.299 C 436.008,238.867 444.576,290.059 428.519,349.604 C 376.824,396.043 329.519,415.124 292.728,431.683 C 256.511,447.955 231.311,458.971 203.664,469.196 C 201.072,473.445 198.624,477.693 196.104,482.012 z M 260.832,151.388 C 250.752,173.204 260.832,200.565 285.456,214.605 C 309.216,229.149 336.072,222.813 345.144,196.749 C 352.343,170.685 340.967,137.781 318.935,127.197 C 295.536,118.197 270.048,130.22 260.832,151.388 z M 181.56,290.924 C 168.24,310.868 170.4,338.876 186.888,355.796 C 203.448,371.565 231.888,367.317 250.896,346.796 C 268.607,327.068 265.368,297.764 243.84,282.068 C 221.736,266.3 194.088,271.773 181.56,290.924 z M 328.152,4.725 C 312.527,6.237 270.695,23.157 212.304,46.989 C 152.184,71.468 74.928,93.14 22.224,154.125 C 15.096,175.077 13.44,217.269 28.848,270.405 C 43.608,321.165 63.192,377.397 104.232,422.253 C 106.536,417.646 108.768,413.109 111,408.429 C 93.576,389.205 83.064,367.389 77.16,332.398 C 70.896,295.677 68.808,245.853 88.824,173.061 C 144.12,107.109 193.08,76.581 230.736,54.981 C 267.024,34.316 293.233,24.453 320.809,17.541 C 323.256,13.292 325.704,8.973 328.152,4.725 z"
   style="fill:none;stroke:#49362a;stroke-width:7.9920001" />
			</g>
		</g></svg>